<?xml version="1.0" encoding="UTF-8" standalone="no"?>
<svg
   viewBox="0 0 420 420"
   version="1.1"
   id="svg49"
   sodipodi:docname="graduation hats-rafiki.svg"
   width="420"
   height="420"
   inkscape:version="1.3.2 (091e20e, 2023-11-25, custom)"
   xmlns:inkscape="http://www.inkscape.org/namespaces/inkscape"
   xmlns:sodipodi="http://sodipodi.sourceforge.net/DTD/sodipodi-0.dtd"
   xmlns="http://www.w3.org/2000/svg"
   xmlns:svg="http://www.w3.org/2000/svg">
  <defs
     id="defs49" />
  <sodipodi:namedview
     id="namedview49"
     pagecolor="#ffffff"
     bordercolor="#000000"
     borderopacity="0.25"
     inkscape:showpageshadow="2"
     inkscape:pageopacity="0.0"
     inkscape:pagecheckerboard="0"
     inkscape:deskcolor="#d1d1d1"
     inkscape:zoom="1.574"
     inkscape:cx="250"
     inkscape:cy="250"
     inkscape:window-width="1920"
     inkscape:window-height="1001"
     inkscape:window-x="-9"
     inkscape:window-y="-9"
     inkscape:window-maximized="1"
     inkscape:current-layer="svg49" />
  <g
     id="freepik--background-simple--inject-100"
     transform="matrix(0.94539656,0,0,0.9575133,-26.348623,-51.201523)">
    <g
       id="g2">
      <path
         d="m 164.255,78.971 c -28.108,3.711 -55.213,11.61 -79.252,24.001 -28.333,14.604 -57.282,37.356 -48.731,67.115 15.785,54.94 91.512,55.94 76.392,92.881 -17.126,41.843 -5.641,90.925 71.208,104.574 C 329.836,393.466 506.285,241.778 456.727,158.427 425.874,106.536 313.502,59.269 164.255,78.97 Z"
         style="fill:#407bff"
         id="path1" />
      <path
         d="m 164.255,78.971 c -28.108,3.711 -55.213,11.61 -79.252,24.001 -28.333,14.604 -57.282,37.356 -48.731,67.115 15.785,54.94 91.512,55.94 76.392,92.881 -17.126,41.843 -5.641,90.925 71.208,104.574 C 329.836,393.466 506.285,241.778 456.727,158.427 425.874,106.536 313.502,59.269 164.255,78.97 Z"
         style="opacity:0.9;fill:#ffffff"
         id="path2" />
    </g>
  </g>
  <g
     id="freepik--Shadow--inject-100"
     transform="matrix(0.94539656,0,0,0.9575133,-26.348623,-51.201523)">
    <path
       d="m 382.888,459.788 c 0,6.293 -56.222,11.394 -125.576,11.394 -69.354,0 -125.576,-5.101 -125.576,-11.394 0,-6.293 56.222,-11.394 125.576,-11.394 69.354,0 125.576,5.101 125.576,11.394 z"
       style="fill:#f5f5f5"
       id="path3" />
  </g>
  <g
     id="freepik--Graduation_hat_3--inject-100"
     transform="matrix(0.94539656,0,0,0.9575133,-26.348623,-51.201523)">
    <g
       id="g18">
      <path
         d="m 186.595,330.45 -3.733,51.423 c 0,0 17.088,9.659 69.148,13.062 51.12,3.342 66.432,-5.441 66.432,-5.441 l 4.965,-68.388 -136.811,9.343 z"
         style="fill:#263238"
         id="path4" />
      <ellipse
         cx="250.745"
         cy="384.40399"
         rx="38.664001"
         ry="67.888"
         transform="rotate(-85.629,250.7475,384.405)"
         style="fill:#263238"
         id="ellipse4" />
      <path
         d="m 248.813,410.36 c -32.553,-2.448 -59.864,-22.499 -65.084,-40.43 0,0 -0.481,6.63 -0.681,9.384 -1.546,21.298 27.509,40.842 64.897,43.653 37.388,2.811 68.95,-12.175 70.497,-33.473 0.2,-2.754 0.609,-8.393 0.609,-8.393 -7.753,16.955 -37.685,31.706 -70.238,29.258 z"
         style="fill:#407bff"
         id="path5" />
      <path
         d="m 185.104,350.997 c 0,0 40.726,72.158 117.053,61.325 0,0 12.429,-6.73 15.385,-17.958 l 0.77,-3.075 2.965,-40.845 -135.429,-9.694 -0.744,10.246 z"
         style="opacity:0.2"
         id="path6" />
      <polygon
         points="359.957,338.013 149.418,322.183 148.787,330.873 246.804,410.084 359.326,346.703 "
         style="fill:#263238"
         id="polygon6" />
      <polygon
         points="359.957,338.013 149.418,322.183 148.787,330.873 246.804,410.084 359.326,346.703 "
         style="opacity:0.4"
         id="polygon7" />
      <path
         d="m 149.418,322.183 c 0.405,1.626 98.3,78.724 98.3,78.724 l 112.24,-62.894 -100.431,-74.574 z"
         style="fill:#263238"
         id="path7" />
      <path
         d="m 266.3,327.642 c -0.335,4.61 -6.605,7.895 -14.006,7.339 -7.4,-0.556 -13.128,-4.744 -12.793,-9.354 0.334,-4.61 6.605,-7.895 14.005,-7.339 7.4,0.556 13.128,4.744 12.794,9.354 z"
         style="opacity:0.4"
         id="path8" />
      <path
         d="m 254.425,326.634 c 0.753,-10.157 2.791,-20.986 9.399,-29.013 7.307,-8.876 19.461,-13.456 30.554,-14.409 5.856,-0.503 11.777,-0.051 17.466,1.467 6.285,1.677 12.137,4.608 18.165,7.012 5.583,2.226 11.6,4.15 17.662,4.046 2.746,-0.047 5.72,-0.492 8.101,-1.97 2.216,-1.376 3.823,-3.48 5.571,-5.383 2.197,-2.393 4.844,-4.363 7.194,-6.602 2.316,-2.206 4.538,-4.516 6.626,-6.948 4.382,-5.106 8.146,-10.726 11.062,-16.825 0.855,-1.789 -1.774,-3.364 -2.633,-1.567 -5.23,10.937 -13.172,19.886 -22.25,27.674 -2.082,1.786 -3.674,4.042 -5.697,5.885 -2.093,1.907 -4.799,2.526 -7.551,2.621 -6.087,0.212 -12.121,-1.845 -17.708,-4.098 -6.133,-2.473 -12.107,-5.45 -18.544,-7.047 -5.692,-1.412 -11.627,-1.873 -17.464,-1.369 -11.237,0.97 -23.438,5.307 -31.363,13.782 -8.21,8.78 -10.772,21.038 -11.639,32.744 -0.148,1.992 2.903,1.983 3.05,0 v 0 z"
         style="fill:#407bff"
         id="path9" />
      <path
         d="m 360.591,294.501 c -0.276,3.798 -3.525,6.65 -7.257,6.369 -3.732,-0.281 -6.534,-3.587 -6.258,-7.385 0.276,-3.798 3.525,-6.65 7.257,-6.369 3.732,0.281 6.534,3.587 6.258,7.385 z"
         style="fill:#407bff"
         id="path10" />
      <path
         d="m 356.843,297.494 c 16.189,3.364 33.145,1.272 48.083,-5.909 1.774,-0.852 0.227,-3.529 -1.539,-2.68 -14.152,6.803 -30.4,8.782 -45.732,5.596 -1.916,-0.398 -2.735,2.593 -0.811,2.993 v 0 z"
         style="fill:#407bff"
         id="path11" />
      <path
         d="m 355.208,296.177 c 17.28,1.651 34.965,-4.881 47.252,-17.336 1.392,-1.411 -0.764,-3.606 -2.156,-2.195 -11.764,11.924 -28.578,18.006 -45.096,16.427 -1.953,-0.187 -1.941,2.918 0,3.104 z"
         style="fill:#407bff"
         id="path12" />
      <path
         d="m 356.694,293.911 c 15.973,-6.153 34.49,-13.978 39.927,-32.203 0.571,-1.915 -2.371,-2.734 -2.941,-0.825 -5.083,17.04 -22.919,24.304 -37.796,30.035 -1.818,0.7 -1.03,3.702 0.811,2.993 v 0 z"
         style="fill:#407bff"
         id="path13" />
      <path
         d="m 356.962,294.929 c 14.955,-0.607 29.43,-7.53 39.591,-18.695 2.858,-3.14 5.366,-6.61 7.453,-10.325 0.976,-1.737 -1.658,-3.302 -2.633,-1.566 -7.012,12.479 -18.987,21.749 -32.576,25.591 -3.867,1.093 -7.825,1.729 -11.835,1.892 -1.956,0.079 -1.966,3.183 0,3.104 v 0 z"
         style="fill:#407bff"
         id="path14" />
      <path
         d="m 358.467,295.133 c 8.278,4.066 17.908,3.889 26.514,0.958 8.938,-3.045 16.666,-8.706 23.881,-14.736 1.518,-1.268 -0.651,-3.453 -2.156,-2.195 -12.575,10.51 -30.171,21.411 -46.699,13.293 -1.76,-0.864 -3.308,1.811 -1.539,2.68 v 0 z"
         style="fill:#407bff"
         id="path15" />
      <path
         d="m 357.058,293.664 c 13.481,-7.042 24.962,-17.741 33.098,-30.745 1.057,-1.69 -1.581,-3.248 -2.634,-1.566 -7.866,12.572 -18.978,22.827 -32.004,29.631 -1.747,0.912 -0.205,3.591 1.539,2.68 v 0 z"
         style="fill:#407bff"
         id="path16" />
      <path
         d="m 360.591,294.501 c -0.276,3.798 -3.525,6.65 -7.257,6.369 -3.732,-0.281 -6.534,-3.587 -6.258,-7.385 0.276,-3.798 3.525,-6.65 7.257,-6.369 3.732,0.281 6.534,3.587 6.258,7.385 z"
         style="opacity:0.3"
         id="path17" />
      <path
         d="m 261.018,267.848 c -0.742,-2.24 -103.924,52.218 -103.613,55.383 0.311,3.165 64.037,53.86 66.246,53.86 7.447,0 -1.866,-32.337 8.086,-58.924 9.953,-26.587 32.079,-41.871 29.28,-50.319 z"
         style="opacity:0.1;fill:#ffffff"
         id="path18" />
    </g>
  </g>
  <g
     id="freepik--Graduation_hat_2--inject-100"
     transform="matrix(0.94539656,0,0,0.9575133,-26.348623,-51.201523)">
    <g
       id="g34">
      <g
         id="g23">
        <path
           d="m 318.278,119.119 -22.572,35.924 c 0,0 8.923,13.722 46.131,36.605 36.536,22.471 51.25,22.088 51.25,22.088 L 423.106,165.96 318.279,119.118 Z"
           style="fill:#263238"
           id="path19" />
        <ellipse
           cx="344.95801"
           cy="183.496"
           rx="31.816999"
           ry="56.841"
           transform="rotate(-57.858,344.95712,183.49632)"
           style="fill:#263238"
           id="ellipse19" />
        <path
           d="m 333.53,201.61 c -23.143,-14.542 -35.626,-39.827 -32.581,-54.91 0,0 -2.91,4.632 -4.119,6.556 -9.349,14.879 4.621,40.479 31.202,57.181 26.581,16.701 55.707,18.179 65.056,3.3 1.209,-1.924 3.684,-5.863 3.684,-5.863 -12.268,9.288 -40.097,8.278 -63.241,-6.264 z"
           style="fill:#407bff"
           id="path20" />
        <path
           d="m 309.259,133.473 c 0,0 2.336,68.43 62.984,90.477 0,0 11.789,-0.021 18.301,-7.025 l 1.754,-1.934 17.929,-28.534 -96.471,-60.142 z"
           style="opacity:0.2"
           id="path21" />
        <polygon
           points="451.253,183.646 301.57,89.597 297.755,95.669 339.765,191.686 447.438,189.718 "
           style="fill:#263238"
           id="polygon21" />
        <polygon
           points="451.253,183.646 301.57,89.597 297.755,95.669 339.765,191.686 447.438,189.718 "
           style="opacity:0.4"
           id="polygon22" />
        <path
           d="m 301.57,89.597 c -0.327,1.341 42.406,95.775 42.406,95.775 l 107.276,-1.726 -45.581,-93.592 z"
           style="fill:#263238"
           id="path22" />
        <path
           d="m 385.95,139.389 c -2.023,3.22 -7.929,3.151 -13.19,-0.155 -5.261,-3.306 -7.886,-8.596 -5.863,-11.816 2.023,-3.22 7.929,-3.151 13.19,0.155 5.261,3.306 7.886,8.596 5.863,11.817 z"
           style="opacity:0.4"
           id="path23" />
      </g>
      <path
         d="m 376.196,134.827 c 0.272,0.043 0.539,0.118 0.805,0.185 0.136,0.034 0.27,0.077 0.405,0.115 -0.611,-0.173 0.047,0.018 0.216,0.075 0.431,0.144 0.856,0.303 1.278,0.472 1.207,0.485 2.378,1.058 3.515,1.689 1.55,0.86 2.651,1.578 4.224,2.735 10.351,7.612 17.818,18.84 23.614,30.126 5.862,11.414 10.248,23.548 13.831,35.851 0.519,1.781 3.206,0.729 2.689,-1.045 -5.556,-19.08 -13.03,-38.489 -25.397,-54.284 -5.479,-6.998 -12.259,-13.77 -20.528,-17.382 -1.324,-0.579 -2.76,-1.16 -4.198,-1.385 -1.833,-0.287 -2.292,2.561 -0.455,2.848 v 0 z"
         style="fill:#407bff"
         id="path24" />
      <g
         id="g32">
        <path
           d="m 426.454,218.011 c -3.387,-0.39 -5.817,-3.451 -5.427,-6.838 0.39,-3.387 3.451,-5.817 6.838,-5.427 3.387,0.39 5.817,3.451 5.427,6.838 -0.39,3.387 -3.451,5.817 -6.838,5.427 z"
           style="fill:#407bff"
           id="path25" />
        <path
           d="m 423.815,214.686 c -3.57,14.453 -2.32,29.949 3.482,43.655 0.722,1.706 3.416,0.671 2.689,-1.045 -5.623,-13.283 -6.782,-28.155 -3.323,-42.155 0.445,-1.802 -2.406,-2.247 -2.848,-0.455 z"
           style="fill:#407bff"
           id="path26" />
        <path
           d="m 425.119,212.879 c -2.118,15.671 2.935,32.054 13.64,43.718 1.242,1.353 3.591,-0.325 2.336,-1.692 -10.207,-11.121 -15.152,-26.594 -13.128,-41.57 0.248,-1.837 -2.599,-2.299 -2.848,-0.455 v 0 z"
           style="fill:#407bff"
           id="path27" />
        <path
           d="m 427.135,214.693 c 4.86,14.615 11.195,31.731 27.136,37.298 1.741,0.608 2.948,-2.014 1.196,-2.626 -15.213,-5.313 -21.015,-21.803 -25.642,-35.717 -0.586,-1.762 -3.275,-0.716 -2.689,1.045 v 0 z"
           style="fill:#407bff"
           id="path28" />
        <path
           d="m 426.16,214.907 c -0.012,13.558 5.704,26.801 15.17,36.441 2.682,2.731 5.676,5.134 8.918,7.168 0.665,0.417 1.485,0.45 2.03,-0.2 0.451,-0.538 0.459,-1.617 -0.2,-2.03 -10.97,-6.882 -18.985,-18.208 -21.848,-30.848 -0.807,-3.561 -1.206,-7.199 -1.203,-10.85 0.002,-1.851 -2.866,-1.523 -2.867,0.319 z"
           style="fill:#407bff"
           id="path29" />
        <path
           d="m 425.824,216.205 c -3.978,7.457 -3.99,16.355 -1.64,24.324 2.371,8.041 7.083,15.173 12.088,21.802 1.119,1.482 3.457,-0.208 2.336,-1.692 -4.71,-6.238 -9.112,-12.855 -11.493,-20.367 -2.367,-7.467 -2.411,-15.847 1.336,-22.87 0.876,-1.641 -1.756,-2.827 -2.626,-1.196 v 0 z"
           style="fill:#407bff"
           id="path30" />
        <path
           d="m 427.217,214.696 c 5.802,12.534 14.877,23.43 26.22,31.322 1.517,1.055 3.355,-1.169 1.83,-2.23 -10.938,-7.61 -19.761,-18.039 -25.362,-30.137 -0.776,-1.676 -3.472,-0.646 -2.689,1.045 v 0 z"
           style="fill:#407bff"
           id="path31" />
        <path
           d="m 426.454,218.011 c -3.387,-0.39 -5.817,-3.451 -5.427,-6.838 0.39,-3.387 3.451,-5.817 6.838,-5.427 3.387,0.39 5.817,3.451 5.427,6.838 -0.39,3.387 -3.451,5.817 -6.838,5.427 z"
           style="opacity:0.3"
           id="path32" />
      </g>
      <path
         d="m 305.739,92.216 98.404,1.173 17.61,37.975 c 0,0 -103.596,-25.595 -107.524,-29.007 -3.928,-3.412 -8.489,-10.141 -8.489,-10.141 z"
         style="opacity:0.1;fill:#ffffff"
         id="path33" />
      <path
         d="m 308.314,139.388 c 0,0 -11.269,15.054 -11.631,20.099 -0.362,5.045 -0.214,15.11 5.357,19.188 5.571,4.078 12.574,-32.408 11.421,-39.853 -1.153,-7.445 -5.148,0.566 -5.148,0.566 z"
         style="opacity:0.1;fill:#ffffff"
         id="path34" />
    </g>
  </g>
  <g
     id="freepik--Graduation_hat_1--inject-100"
     transform="matrix(0.94539656,0,0,0.9575133,-26.348623,-51.201523)">
    <g
       id="g49">
      <g
         id="g43">
        <path
           d="m 126.84,137.905 c -9.232,-0.943 -19.058,-0.703 -27.391,3.86 -8.695,4.761 -14.65,14.048 -17.766,23.239 -1.613,4.757 -2.489,9.789 -2.569,14.812 -0.089,5.661 1.069,11.177 2.303,16.671 1.202,5.348 2.384,10.771 2.135,16.288 -0.111,2.457 -0.514,5.012 -1.623,7.232 -1.058,2.118 -2.918,3.296 -4.871,4.506 -2.42,1.5 -4.514,3.369 -6.763,5.104 -2.319,1.788 -4.724,3.469 -7.216,5.009 -5.077,3.137 -10.505,5.606 -16.25,7.232 -1.661,0.47 -0.955,3.064 0.714,2.591 10.189,-2.884 19.226,-8.383 27.345,-15.087 1.804,-1.489 3.816,-2.583 5.708,-3.943 1.957,-1.407 3.313,-3.078 4.216,-5.319 1.859,-4.614 1.668,-9.885 1.034,-14.727 -0.759,-5.787 -2.43,-11.395 -3.39,-17.145 -0.859,-5.146 -0.89,-10.414 0.028,-15.555 1.728,-9.679 6.598,-19.651 14.337,-25.935 8.397,-6.818 19.742,-7.196 30.02,-6.146 1.719,0.176 1.707,-2.513 0,-2.687 v 0 z"
           style="fill:#407bff"
           id="path35" />
        <path
           d="m 82.73,227.753 c 3.28,0.34 6.215,-2.043 6.555,-5.323 0.34,-3.28 -2.043,-6.215 -5.323,-6.555 -3.28,-0.34 -6.215,2.043 -6.555,5.323 -0.34,3.28 2.043,6.215 5.323,6.555 z"
           style="fill:#407bff"
           id="path36" />
        <path
           d="m 83.181,225.082 c 0.34,13.954 -3.912,27.76 -12.003,39.13 -1.005,1.412 1.325,2.755 2.321,1.356 8.344,-11.724 12.721,-26.103 12.37,-40.486 -0.042,-1.726 -2.73,-1.733 -2.687,0 v 0 z"
           style="fill:#407bff"
           id="path37" />
        <path
           d="m 82.328,223.103 c -1.204,14.395 -9.054,28.037 -20.893,36.313 -1.407,0.984 -0.066,3.315 1.356,2.32 9.819,-6.864 17.085,-17.081 20.402,-28.594 0.944,-3.276 1.538,-6.642 1.822,-10.039 0.144,-1.723 -2.544,-1.714 -2.687,0 z"
           style="fill:#407bff"
           id="path38" />
        <path
           d="m 80.46,223.025 c -7.164,11.979 -16.116,26.483 -31.397,28.293 -1.697,0.201 -1.717,2.891 0,2.687 16.418,-1.945 25.955,-16.645 33.717,-29.624 0.89,-1.488 -1.433,-2.841 -2.32,-1.356 z"
           style="fill:#407bff"
           id="path39" />
        <path
           d="m 81.041,224.076 c -2.675,12.136 -10.312,22.963 -20.738,29.707 -2.979,1.927 -6.161,3.515 -9.503,4.705 -1.618,0.576 -0.921,3.174 0.714,2.592 12.403,-4.418 22.805,-13.886 28.478,-25.765 1.605,-3.362 2.838,-6.887 3.64,-10.525 0.371,-1.685 -2.219,-2.405 -2.591,-0.714 z"
           style="fill:#407bff"
           id="path40" />
        <path
           d="m 81.042,226.827 c 2.057,7.361 0.243,15.211 -3.488,21.729 -3.821,6.673 -9.439,12.058 -15.241,17.006 -1.318,1.124 0.591,3.017 1.9,1.9 6.158,-5.251 12.115,-11.045 16.033,-18.214 3.824,-6.996 5.567,-15.337 3.387,-23.135 -0.465,-1.663 -3.059,-0.957 -2.591,0.714 z"
           style="fill:#407bff"
           id="path41" />
        <path
           d="m 80.382,223.01 c -7.724,10.131 -18.197,18.168 -29.98,23.009 -1.578,0.648 -0.887,3.249 0.714,2.591 12.5,-5.136 23.394,-13.498 31.587,-24.244 1.048,-1.375 -1.285,-2.715 -2.321,-1.356 z"
           style="fill:#407bff"
           id="path42" />
        <path
           d="m 82.73,227.753 c 3.28,0.34 6.215,-2.043 6.555,-5.323 0.34,-3.28 -2.043,-6.215 -5.323,-6.555 -3.28,-0.34 -6.215,2.043 -6.555,5.323 -0.34,3.28 2.043,6.215 5.323,6.555 z"
           style="opacity:0.3"
           id="path43" />
      </g>
      <polyline
         points="47.189 202.653 44.17 195.844 102.213 90.183 221.681 97.075 223.882 103.001 48.396 202.653"
         style="fill:#263238"
         id="polyline43" />
      <polyline
         points="47.189 202.653 44.17 195.844 102.213 90.183 221.681 97.075 223.882 103.001 48.396 202.653"
         style="opacity:0.1;fill:#ffffff"
         id="polyline44" />
      <polygon
         points="222.373,103.001 165.271,208.586 45.68,202.653 105.475,97.075 "
         style="fill:#263238"
         id="polygon44" />
      <polygon
         points="222.373,103.001 165.271,208.586 45.68,202.653 105.475,97.075 "
         style="opacity:0.3"
         id="polygon45" />
      <ellipse
         cx="137.965"
         cy="161.468"
         rx="59.594002"
         ry="26.823"
         transform="rotate(-33.948,137.96473,161.46725)"
         style="fill:#263238"
         id="ellipse45" />
      <polygon
         points="209.299,160.044 185.724,126.195 87.012,191.624 107.867,224.493 "
         style="fill:#263238"
         id="polygon46" />
      <path
         d="m 144.239,169.859 c 24.906,-16.766 52.453,-20.547 63.358,-12.43 0,0 -3.41,-4.783 -4.206,-5.966 -8.273,-12.289 -36.273,-7.109 -63.831,11.443 -27.558,18.552 -43.462,43.785 -35.189,56.074 0.796,1.183 3.498,5.513 3.498,5.513 -3.418,-13.157 11.466,-37.868 36.372,-54.634 z"
         style="fill:#407bff"
         id="path46" />
      <ellipse
         cx="158.40401"
         cy="191.967"
         rx="60.152"
         ry="26.823"
         transform="rotate(-33.948,158.40422,191.96652)"
         style="fill:#263238"
         id="ellipse46" />
      <path
         d="m 125.035,227.909 c -4.424,0 -10.256,-0.83 -12.917,-4.783 -2.94,-4.367 -1.444,-11.96 4.103,-20.831 6.278,-10.04 16.803,-20.327 29.636,-28.966 16.095,-10.835 33.26,-17.303 45.916,-17.303 4.424,0 10.256,0.83 12.917,4.782 2.94,4.367 1.444,11.96 -4.103,20.832 -6.278,10.04 -16.803,20.327 -29.636,28.966 -16.095,10.835 -33.26,17.303 -45.916,17.303 z"
         style="opacity:0.5"
         id="path47" />
      <path
         d="m 178.943,126.195 c -1.026,-1.138 -23.093,-4.198 -47.468,12.599 0,0 -1.283,25.106 28.225,17.231 14.165,-3.78 22.772,-6.145 27.893,-7.583 4.006,-1.124 5.612,-5.9 3.148,-9.253 -4.672,-6.36 -11.797,-12.995 -11.797,-12.995 z"
         style="opacity:0.1;fill:#ffffff"
         id="path48" />
      <path
         d="m 122.774,199.4 c 0,-0.981 -25.836,27.817 7.195,25.682 l 15.044,-3.268 c 0,0 -22.238,-6.389 -22.238,-22.414 z"
         style="opacity:0.1;fill:#ffffff"
         id="path49" />
    </g>
  </g>
</svg>
