<?xml version="1.0" encoding="UTF-8" standalone="no"?>
<svg
   viewBox="0 0 420 420"
   version="1.1"
   id="svg77"
   sodipodi:docname="Pharmacist-rafiki.svg"
   width="420"
   height="420"
   inkscape:version="1.3.2 (091e20e, 2023-11-25, custom)"
   xmlns:inkscape="http://www.inkscape.org/namespaces/inkscape"
   xmlns:sodipodi="http://sodipodi.sourceforge.net/DTD/sodipodi-0.dtd"
   xmlns="http://www.w3.org/2000/svg"
   xmlns:svg="http://www.w3.org/2000/svg">
  <defs
     id="defs77" />
  <sodipodi:namedview
     id="namedview77"
     pagecolor="#ffffff"
     bordercolor="#000000"
     borderopacity="0.25"
     inkscape:showpageshadow="2"
     inkscape:pageopacity="0.0"
     inkscape:pagecheckerboard="0"
     inkscape:deskcolor="#d1d1d1"
     inkscape:zoom="1.092"
     inkscape:cx="250"
     inkscape:cy="249.54212"
     inkscape:window-width="1920"
     inkscape:window-height="1001"
     inkscape:window-x="-9"
     inkscape:window-y="-9"
     inkscape:window-maximized="1"
     inkscape:current-layer="freepik--background-simple--inject-153" />
  <g
     id="freepik--background-simple--inject-153"
     transform="translate(-43.678851,-35.32689)">
    <path
       d="M 301.38,136.66 C 533.46,107.81 447.83,277.94 363.43,295.35 278.91,313.07 148.58,305.89 109,268.35 54.64,222.28 56.69,133.85 105.61,87.06 153.24,45.89 226.29,59.19 250.79,116 c 10.91,16.2 31.02,19.83 50.59,20.66 z"
       style="fill:#407bff"
       id="path1" />
    <path
       d="M 301.38,136.66 C 533.46,107.81 447.83,277.94 363.43,295.35 278.91,313.07 148.58,305.89 109,268.35 54.64,222.28 56.69,133.85 105.61,87.06 153.24,45.89 226.29,59.19 250.79,116 c 10.91,16.2 31.02,19.83 50.59,20.66 z"
       style="opacity:0.9;fill:#ffffff"
       id="path2" />
  </g>
  <g
     id="freepik--Shadow--inject-153"
     transform="translate(-43.678851,-35.32689)">
    <ellipse
       id="freepik--path--inject-153"
       cx="250"
       cy="416.23999"
       rx="193.89"
       ry="11.32"
       style="fill:#f5f5f5" />
  </g>
  <g
     id="freepik--Character--inject-153"
     transform="translate(-43.678851,-35.32689)">
    <path
       d="m 248.38,97.25 c -9.77,4.61 -10.71,18 -7,29.31 2.64,8.17 -4.29,8.6 -5.91,20.11 a 26.52,26.52 0 0 0 30.91,29.73 c 17.24,-3.19 0.55,-38.84 6.88,-51.27 6.33,-12.43 -14.38,-32.82 -24.88,-27.88 z"
       style="fill:#263238"
       id="path3" />
    <path
       d="m 281.2,378.84 11.11,0.81 c -1.53,8.85 -3,22.81 -3,22.81 h -8.81 c 0,0 1.03,-17.57 0.7,-23.62 z"
       style="fill:#ce7a63"
       id="path4" />
    <path
       d="m 223.37,378.84 11,0.81 c -2.48,8.85 -5.41,22.81 -5.41,22.81 h -8.81 c 0,0 2.91,-17.57 3.22,-23.62 z"
       style="fill:#ce7a63"
       id="path5" />
    <path
       d="m 271,411.2 c 7.66,0 7.11,-0.12 11.43,-0.26 3.69,-0.14 4.54,0.33 7.5,0.26 2.48,-0.05 2.56,-2.42 2,-5.14 -0.21,-1.05 -0.54,-2.27 -0.84,-3.78 a 1.84,1.84 0 0 0 -1.82,-1.47 h -8.95 a 2.14,2.14 0 0 0 -1.7,0.85 12.87,12.87 0 0 1 -8.9,5 c -4.18,0.55 -1.79,4.54 1.28,4.54 z"
       style="fill:#407bff"
       id="path6" />
    <path
       d="m 210.85,411.2 c 7.66,0 7.12,-0.12 11.43,-0.26 3.69,-0.14 4.54,0.33 7.5,0.26 2.48,-0.05 2.56,-2.42 2,-5.14 -0.22,-1.05 -0.54,-2.27 -0.85,-3.78 a 1.82,1.82 0 0 0 -1.81,-1.47 h -9 a 2.1,2.1 0 0 0 -1.69,0.85 12.91,12.91 0 0 1 -8.9,5 c -4.12,0.55 -1.73,4.54 1.32,4.54 z"
       style="fill:#407bff"
       id="path7" />
    <path
       d="m 234.87,206.1 c 0,0 -7,54.14 -6.36,88.52 -2.64,32.27 -6.88,94 -6.88,94 0.13,1.65 8.83,1 10.38,0 0,0 19.93,-41.66 16.69,-94 22.14,-54.6 20.82,-88.52 20.82,-88.52 z"
       style="fill:#263238"
       id="path8" />
    <path
       d="m 263.35,249.82 c -1.72,7.05 -3.93,14.87 -6.75,23.38 -0.82,-17.14 -5.46,-40.09 -5.61,-40.87 z"
       style="opacity:0.2"
       id="path9" />
    <path
       d="m 244.3,206.1 c 0,0 15.83,61.1 22.1,91.11 6.59,31.51 15.82,70.48 14,91.42 1.76,1 8.06,1.1 11.62,0 0,0 13.56,-59.69 -3.68,-90 6.24,-74.64 -13.51,-92.5 -13.51,-92.5 z"
       style="fill:#263238"
       id="path10" />
    <path
       d="m 279.63,384.27 a 29.14,29.14 0 0 1 -0.53,4.3 0.88,0.88 0 0 0 0.73,1.06 c 4.23,0.68 10.42,-0.31 12.39,-0.66 a 0.94,0.94 0 0 0 0.74,-0.74 l 0.74,-4 a 0.87,0.87 0 0 0 -0.87,-1 l -12.3,0.24 a 0.92,0.92 0 0 0 -0.9,0.8 z"
       style="fill:#263238"
       id="path11" />
    <path
       d="m 279.63,384.27 a 29.14,29.14 0 0 1 -0.53,4.3 0.88,0.88 0 0 0 0.73,1.06 c 4.23,0.68 10.42,-0.31 12.39,-0.66 a 0.94,0.94 0 0 0 0.74,-0.74 l 0.74,-4 a 0.87,0.87 0 0 0 -0.87,-1 l -12.3,0.24 a 0.92,0.92 0 0 0 -0.9,0.8 z"
       style="opacity:0.1;fill:#ffffff"
       id="path12" />
    <path
       d="m 220.79,384.08 c -0.12,1.12 -0.34,3.12 -0.55,4.59 a 0.87,0.87 0 0 0 0.74,1 61.09,61.09 0 0 0 11.46,-0.13 0.93,0.93 0 0 0 0.81,-0.68 l 1.07,-4 a 0.86,0.86 0 0 0 -0.8,-1.1 l -11.78,-0.47 a 0.91,0.91 0 0 0 -0.95,0.79 z"
       style="fill:#263238"
       id="path13" />
    <path
       d="m 220.79,384.08 c -0.12,1.12 -0.34,3.12 -0.55,4.59 a 0.87,0.87 0 0 0 0.74,1 61.09,61.09 0 0 0 11.46,-0.13 0.93,0.93 0 0 0 0.81,-0.68 l 1.07,-4 a 0.86,0.86 0 0 0 -0.8,-1.1 l -11.78,-0.47 a 0.91,0.91 0 0 0 -0.95,0.79 z"
       style="opacity:0.1;fill:#ffffff"
       id="path14" />
    <path
       d="m 181.11,164.48 1.93,2.4 a 3.6,3.6 0 0 0 3,1.33 l 5.41,-0.32 a 6.67,6.67 0 0 0 5.27,-3.14 l 0.72,-1.14 c -2.94,-4.2 -9.21,-6.57 -9.21,-6.57 l -1.72,-0.87 a 3,3 0 0 0 -4.06,1.21 l -1.78,3.37 a 3.43,3.43 0 0 0 0.44,3.73 z"
       style="fill:#ce7a63"
       id="path15" />
    <rect
       x="182.66"
       y="146.72"
       width="12.32"
       height="14.42"
       rx="1.47"
       transform="rotate(-11.99,188.801,153.93645)"
       style="fill:#407bff"
       id="rect15" />
    <rect
       x="164.47"
       y="124.36"
       width="1"
       height="3.5899999"
       transform="rotate(-42.16,164.9613,126.14641)"
       style="fill:#407bff"
       id="rect16" />
    <rect
       x="194.32001"
       y="137"
       width="6.52"
       height="1"
       transform="rotate(-49.36,197.57305,137.50737)"
       style="fill:#407bff"
       id="rect17" />
    <rect
       x="173.39999"
       y="128.25"
       width="1"
       height="15.54"
       transform="rotate(-42.16,173.89675,136.01204)"
       style="fill:#407bff"
       id="rect18" />
    <rect
       x="170.22"
       y="137.5"
       width="1"
       height="13.2"
       transform="rotate(-70.8,170.70435,144.10079)"
       style="fill:#407bff"
       id="rect19" />
    <rect
       x="183.87"
       y="144.50999"
       width="7.1199999"
       height="5.7399998"
       rx="0.64999998"
       transform="rotate(-11.99,187.41869,147.38908)"
       style="fill:#407bff"
       id="rect20" />
    <rect
       x="182.31"
       y="141.42"
       width="8.6000004"
       height="4.2399998"
       rx="0.61000001"
       transform="rotate(-11.99,186.6184,143.55036)"
       style="fill:#263238"
       id="rect21" />
    <rect
       x="184.72"
       y="149.39"
       width="10.19"
       height="8.1999998"
       transform="rotate(-11.99,189.81324,153.46511)"
       style="opacity:0.8;fill:#ffffff"
       id="rect22" />
    <path
       d="m 245.6,159.56 c -0.29,0.49 -0.47,0.75 -0.7,1.11 l -0.66,1 -1.32,1.87 c -0.89,1.24 -1.81,2.43 -2.76,3.6 -1.9,2.33 -3.88,4.6 -6,6.74 a 67.72,67.72 0 0 1 -14.43,11.36 c -1.36,0.78 -2.75,1.51 -4.19,2.18 l -1.09,0.48 -0.27,0.12 -0.15,0.07 -0.24,0.09 a 8.74,8.74 0 0 1 -1,0.34 12.34,12.34 0 0 1 -4.11,0.51 15.3,15.3 0 0 1 -6.66,-1.94 27.52,27.52 0 0 1 -4.55,-3.15 56,56 0 0 1 -6.66,-6.95 c -1,-1.2 -1.92,-2.39 -2.84,-3.61 -0.46,-0.61 -0.91,-1.22 -1.35,-1.85 -0.44,-0.63 -0.87,-1.2 -1.38,-2 L 198,162.57 c 0.16,0.41 0.44,1.06 0.71,1.59 0.27,0.53 0.56,1.11 0.86,1.66 a 35.27,35.27 0 0 0 1.91,3.21 30.45,30.45 0 0 0 4.38,5.42 12.15,12.15 0 0 0 2.17,1.7 3.67,3.67 0 0 0 1.2,0.5 c 0.05,0 0,0 0,0 v 0 h 0.09 l 0.2,-0.09 0.81,-0.36 c 1.07,-0.5 2.13,-1.06 3.17,-1.66 a 46.44,46.44 0 0 0 5.95,-4.24 57.32,57.32 0 0 0 5.37,-5.21 61.42,61.42 0 0 0 4.7,-6 c 0.71,-1 1.41,-2.1 2.06,-3.17 0.33,-0.54 0.64,-1.07 0.94,-1.61 l 0.42,-0.79 c 0.12,-0.24 0.29,-0.57 0.33,-0.69 z"
       style="fill:#407bff"
       id="path22" />
    <path
       d="m 245.6,159.56 c -0.29,0.49 -0.47,0.75 -0.7,1.11 l -0.66,1 -1.32,1.87 c -0.89,1.24 -1.81,2.43 -2.76,3.6 -1.9,2.33 -3.88,4.6 -6,6.74 a 67.72,67.72 0 0 1 -14.43,11.36 c -1.36,0.78 -2.75,1.51 -4.19,2.18 l -1.09,0.48 -0.27,0.12 -0.15,0.07 -0.24,0.09 a 8.74,8.74 0 0 1 -1,0.34 12.34,12.34 0 0 1 -4.11,0.51 15.3,15.3 0 0 1 -6.66,-1.94 27.52,27.52 0 0 1 -4.55,-3.15 56,56 0 0 1 -6.66,-6.95 c -1,-1.2 -1.92,-2.39 -2.84,-3.61 -0.46,-0.61 -0.91,-1.22 -1.35,-1.85 -0.44,-0.63 -0.87,-1.2 -1.38,-2 L 198,162.57 c 0.16,0.41 0.44,1.06 0.71,1.59 0.27,0.53 0.56,1.11 0.86,1.66 a 35.27,35.27 0 0 0 1.91,3.21 30.45,30.45 0 0 0 4.38,5.42 12.15,12.15 0 0 0 2.17,1.7 3.67,3.67 0 0 0 1.2,0.5 c 0.05,0 0,0 0,0 v 0 h 0.09 l 0.2,-0.09 0.81,-0.36 c 1.07,-0.5 2.13,-1.06 3.17,-1.66 a 46.44,46.44 0 0 0 5.95,-4.24 57.32,57.32 0 0 0 5.37,-5.21 61.42,61.42 0 0 0 4.7,-6 c 0.71,-1 1.41,-2.1 2.06,-3.17 0.33,-0.54 0.64,-1.07 0.94,-1.61 l 0.42,-0.79 c 0.12,-0.24 0.29,-0.57 0.33,-0.69 z"
       style="opacity:0.7;fill:#ffffff"
       id="path23" />
    <path
       d="m 231.16,160.3 a 164.4,164.4 0 0 0 0.27,17.78 c 0.32,7.72 2,15.84 4.1,28.34 4.23,2.47 25.61,1.45 39.29,-0.32 -0.83,-10.95 0.53,-23.47 7.95,-48.11 1.72,-5.71 -2.12,-11.2 -8.24,-11.78 -1.64,-0.16 -3.38,-0.29 -5.16,-0.37 a 141.36,141.36 0 0 0 -18.76,0 c -2,0.18 -4.16,0.42 -6.18,0.68 -7.29,0.95 -13.05,6.93 -13.27,13.78 z"
       style="fill:#407bff"
       id="path24" />
    <path
       d="m 234.79,209.05 a 185.77,185.77 0 0 0 41.5,-0.08 1,1 0 0 0 0.72,-1.32 c -0.34,-0.8 -0.68,-1.59 -1,-2.39 a 0.88,0.88 0 0 0 -0.89,-0.55 182.28,182.28 0 0 1 -39.9,0 0.89,0.89 0 0 0 -1,0.83 c -0.09,0.83 -0.17,1.65 -0.25,2.48 a 0.93,0.93 0 0 0 0.82,1.03 z"
       style="fill:#407bff"
       id="path25" />
    <path
       d="m 268.05,124.73 c -1.63,6 -3.63,17.1 0.29,21.13 0,0 1.19,5.91 -15,5.36 -12.47,-0.42 -3.75,-5.36 -3.75,-5.36 6.86,-1.61 7.06,-6.6 6.23,-11.29 z"
       style="fill:#ce7a63"
       id="path26" />
    <path
       d="m 268.77,144.92 c 0,0 -7.1,6.31 -9.22,21.52 -4,29.06 2.09,148.05 2.09,148.05 0,0 26,-8.49 35.44,-16.62 0.44,-8.14 -15.28,-83.12 -13.9,-104.64 1.38,-21.52 4.05,-40.27 1.27,-44.32 -2.78,-4.05 -15.68,-3.99 -15.68,-3.99 z"
       style="fill:#407bff"
       id="path27" />
    <path
       d="m 268.77,144.92 c 0,0 -7.1,6.31 -9.22,21.52 -4,29.06 2.09,148.05 2.09,148.05 0,0 26,-8.49 35.44,-16.62 0.44,-8.14 -15.28,-83.12 -13.9,-104.64 1.38,-21.52 4.05,-40.27 1.27,-44.32 -2.78,-4.05 -15.68,-3.99 -15.68,-3.99 z"
       style="opacity:0.7;fill:#ffffff"
       id="path28" />
    <path
       d="m 250.09,145.52 c -10.82,13.89 -10.74,104.17 -7.61,169 -9.61,-1.16 -19.88,-20.65 -19.88,-20.65 0,0 10.4,-68.77 8.4,-97.87 -2,-29.1 -1.72,-39.31 3,-44.69 4.72,-5.38 16.09,-5.79 16.09,-5.79 z"
       style="fill:#407bff"
       id="path29" />
    <path
       d="m 250.09,145.52 c -10.82,13.89 -10.74,104.17 -7.61,169 -9.61,-1.16 -19.88,-20.65 -19.88,-20.65 0,0 10.4,-68.77 8.4,-97.87 -2,-29.1 -1.72,-39.31 3,-44.69 4.72,-5.38 16.09,-5.79 16.09,-5.79 z"
       style="opacity:0.7;fill:#ffffff"
       id="path30" />
    <path
       d="m 267.86,144.4 c -1.86,1.6 -10.75,9.6 -9.55,42.6 0.9,-3.73 5,-21.41 9.33,-29.83 a 5.55,5.55 0 0 0 -3,-1 6.19,6.19 0 0 1 3.82,-0.67 c 1.22,-2.46 3.72,-7.63 6.15,-10.41 -2.61,-1.68 -6.75,-0.69 -6.75,-0.69 z"
       style="fill:#ffffff"
       id="path31" />
    <path
       d="m 242.17,187 c 0,0 1.93,-30.67 8.29,-41.61 a 9.89,9.89 0 0 0 -7.23,1.13 c -1.33,1.6 -3.07,7.75 -3.07,9.08 a 4.42,4.42 0 0 1 3.05,0.34 10,10 0 0 0 -3.13,1.17 c -0.42,2.17 -0.62,13.76 2.09,29.89 z"
       style="fill:#ffffff"
       id="path32" />
    <path
       d="m 272.84,182.79 h -8.59 a 1.09,1.09 0 0 1 -1,-1.29 l 0.35,-4.08 a 1.36,1.36 0 0 1 1.22,-1.3 h 8.59 a 1.1,1.1 0 0 1 1,1.3 l -0.36,4.08 a 1.35,1.35 0 0 1 -1.21,1.29 z"
       style="fill:#ffffff"
       id="path33" />
    <polygon
       points="267.27,176.12 269.61,176.12 267.81,182.79 265.47,182.79 "
       style="opacity:0.1;fill:#407bff"
       id="polygon33" />
    <polygon
       points="270.53,176.12 272.86,176.12 271.06,182.79 268.73,182.79 "
       style="opacity:0.1;fill:#407bff"
       id="polygon34" />
    <path
       d="m 268.92,176.82 v 0 c -0.42,0 -0.73,-0.24 -0.68,-0.55 l 0.27,-1.87 a 0.8,0.8 0 0 1 0.84,-0.55 v 0 c 0.42,0 0.73,0.24 0.69,0.55 l -0.27,1.87 a 0.82,0.82 0 0 1 -0.85,0.55 z"
       style="fill:#407bff"
       id="path34" />
    <path
       d="m 263.06,128.74 -7.25,5.82 a 19,19 0 0 1 0.33,3.33 c 2.6,-0.37 6.34,-3.19 6.82,-5.89 a 9.2,9.2 0 0 0 0.1,-3.26 z"
       style="opacity:0.2"
       id="path35" />
    <path
       d="m 273.21,112.61 c -1.83,9.75 -2.4,13.91 -8,18.58 -8.37,7 -19.87,3.32 -21,-6.62 -1,-8.95 2.17,-23.39 12.22,-26.61 a 12.71,12.71 0 0 1 16.78,14.65 z"
       style="fill:#ce7a63"
       id="path36" />
    <path
       d="m 255.8,120.66 c -2.56,0 -4.7,-2.6 -4.8,-5.87 a 7,7 0 0 1 1.24,-4.26 4.28,4.28 0 0 1 3.32,-1.89 h 0.11 c 2.56,0 4.7,2.61 4.8,5.87 v 0 c 0.09,3.31 -2,6.07 -4.56,6.15 z m -0.13,-11.52 h -0.1 a 3.78,3.78 0 0 0 -2.92,1.68 6.37,6.37 0 0 0 -1.15,4 c 0.09,3 2.1,5.44 4.4,5.38 2.3,-0.06 4.16,-2.6 4.07,-5.63 v 0 c -0.09,-3.04 -1.97,-5.43 -4.3,-5.43 z"
       style="fill:#ffffff"
       id="path37" />
    <path
       d="m 251.26,114.51 a 0.25,0.25 0 0 1 -0.15,-0.05 c 0,0 -0.76,-0.56 -1.14,-0.16 a 0.25,0.25 0 1 1 -0.36,-0.34 c 0.54,-0.58 1.38,-0.21 1.8,0.1 a 0.25,0.25 0 0 1 0.05,0.35 0.28,0.28 0 0 1 -0.2,0.1 z"
       style="fill:#ffffff"
       id="path38" />
    <path
       d="m 245.38,119.74 c -2.56,0 -4.7,-2.6 -4.8,-5.86 -0.1,-3.26 1.94,-6.07 4.55,-6.15 h 0.11 c 2.56,0 4.7,2.6 4.8,5.87 0.1,3.27 -1.94,6.07 -4.55,6.14 z m -0.14,-11.51 h -0.09 c -2.34,0.07 -4.16,2.59 -4.07,5.63 0.09,3.04 2,5.38 4.3,5.38 h 0.09 c 2.34,-0.07 4.16,-2.59 4.07,-5.63 -0.09,-3.04 -2.01,-5.38 -4.3,-5.38 z"
       style="fill:#ffffff"
       id="path39" />
    <path
       d="m 266.4,103.52 c -4,8.9 2.65,13 3.64,15.8 1.39,7.72 -16.2,23.05 -11,47.06 7.58,-13.42 18,-12.78 19.13,-21.81 1.13,-9.3 -3.53,-14 1.42,-22.89 4.95,-8.89 6.7,-19.46 -2,-21.11 -8.7,-1.65 -11.19,2.95 -11.19,2.95 z"
       style="fill:#263238"
       id="path40" />
    <path
       d="m 271.67,155.33 a 0.24,0.24 0 0 1 -0.19,-0.08 0.25,0.25 0 0 1 0,-0.35 c 5.05,-4.58 5.43,-10.56 5.84,-16.9 0.27,-4.15 0.55,-8.45 2.2,-12.49 2.9,-7.1 5.31,-17.08 2.53,-21.81 a 5,5 0 0 0 -3.89,-2.52 0.26,0.26 0 0 1 -0.22,-0.28 0.24,0.24 0 0 1 0.28,-0.22 5.45,5.45 0 0 1 4.26,2.76 c 2.87,4.89 0.59,14.71 -2.5,22.26 -1.62,4 -1.89,8.22 -2.16,12.33 -0.41,6.44 -0.8,12.52 -6,17.24 a 0.27,0.27 0 0 1 -0.15,0.06 z"
       style="fill:#263238"
       id="path41" />
    <path
       d="m 268.68,104.6 c -6.59,0.75 -18.24,0 -20.92,-3.42 -2.68,-3.42 0.81,-12 8.56,-13.35 6.3,-1.08 10.08,6.67 10.08,6.67 0,0 6,-3 11.23,3.87 4.77,6.23 -5.63,13.29 -8.95,6.23 z"
       style="fill:#263238"
       id="path42" />
    <path
       d="m 271.16,117.35 v 0 l -11.05,-1.9 a 0.24,0.24 0 0 1 -0.2,-0.29 0.25,0.25 0 0 1 0.29,-0.2 l 11,1.9 a 0.25,0.25 0 0 1 0,0.49 z"
       style="fill:#ffffff"
       id="path43" />
    <path
       d="m 257.77,114.24 c -0.12,0.82 -0.65,1.46 -1.17,1.42 -0.52,-0.04 -0.86,-0.74 -0.75,-1.56 0.11,-0.82 0.65,-1.47 1.17,-1.43 0.52,0.04 0.86,0.74 0.75,1.57 z"
       style="fill:#263238"
       id="path44" />
    <path
       d="m 247.81,113.65 c -0.12,0.82 -0.64,1.46 -1.17,1.42 -0.53,-0.04 -0.86,-0.74 -0.74,-1.56 0.12,-0.82 0.64,-1.46 1.17,-1.42 0.53,0.04 0.86,0.73 0.74,1.56 z"
       style="fill:#263238"
       id="path45" />
    <path
       d="m 247.29,112.15 -1.86,-0.72 c 0,0 0.78,1.63 1.86,0.72 z"
       style="fill:#263238"
       id="path46" />
    <path
       d="m 250.38,115.21 a 24.5,24.5 0 0 1 -3.63,5.05 c 0.92,1.09 2.8,0.76 2.8,0.76 z"
       style="fill:#ba4d3c"
       id="path47" />
    <path
       d="m 253.76,124.41 a 6.91,6.91 0 0 1 -1.37,0 0.23,0.23 0 0 1 -0.21,-0.26 0.26,0.26 0 0 1 0.28,-0.22 6.93,6.93 0 0 0 5.58,-2.17 0.24,0.24 0 0 1 0.34,0 0.24,0.24 0 0 1 0,0.34 7.21,7.21 0 0 1 -4.62,2.31 z"
       style="fill:#263238"
       id="path48" />
    <path
       d="m 272.63,122.48 a 6.8,6.8 0 0 1 -4.56,3.1 c -2.32,0.32 -3,-2.38 -1.92,-4.87 1,-2.24 3.33,-5.1 5.46,-4.27 2.13,0.83 2.39,3.91 1.02,6.04 z"
       style="fill:#ce7a63"
       id="path49" />
    <path
       d="m 261,110.56 a 0.42,0.42 0 0 1 -0.29,-0.21 3.55,3.55 0 0 0 -2.81,-1.88 0.44,0.44 0 0 1 -0.44,-0.49 0.52,0.52 0 0 1 0.53,-0.47 4.43,4.43 0 0 1 3.58,2.34 0.49,0.49 0 0 1 -0.21,0.65 0.46,0.46 0 0 1 -0.36,0.06 z"
       style="fill:#263238"
       id="path50" />
    <path
       d="m 245.92,107.23 a 0.45,0.45 0 0 1 -0.35,-0.78 5.08,5.08 0 0 1 4.12,-1.84 0.45,0.45 0 0 1 0.39,0.53 0.52,0.52 0 0 1 -0.56,0.43 4.07,4.07 0 0 0 -3.25,1.49 0.53,0.53 0 0 1 -0.35,0.17 z"
       style="fill:#263238"
       id="path51" />
    <path
       d="m 257.25,112.74 -1.86,-0.72 c 0,0 0.78,1.62 1.86,0.72 z"
       style="fill:#263238"
       id="path52" />
    <path
       d="m 273.66,216.75 0.71,-3 a 3.58,3.58 0 0 1 2.13,-2.5 l 5,-2.05 a 6.68,6.68 0 0 1 6.11,0.55 l 1.14,0.72 c -0.84,5.05 -5.47,9.9 -5.47,9.9 l -1.16,1.53 a 3,3 0 0 1 -4.2,0.67 l -3.05,-2.27 a 3.44,3.44 0 0 1 -1.21,-3.55 z"
       style="fill:#ce7a63"
       id="path53" />
    <path
       d="m 283.39,148.21 c 0.53,0.34 0.83,0.56 1.21,0.84 l 1.06,0.79 c 0.69,0.53 1.37,1 2,1.59 q 2,1.6 3.87,3.32 a 90.86,90.86 0 0 1 7.17,7.25 71.6,71.6 0 0 1 6.26,8.23 c 0.94,1.47 1.85,3 2.65,4.54 a 50.71,50.71 0 0 1 2.27,4.83 l 0.49,1.25 0.06,0.16 0.11,0.31 0.19,0.61 c 0.1,0.41 0.2,0.82 0.26,1.22 a 13.54,13.54 0 0 1 0,4.33 21.4,21.4 0 0 1 -2.14,6.24 52.59,52.59 0 0 1 -6,8.93 c -2.11,2.67 -4.33,5.13 -6.58,7.54 -1.13,1.2 -2.25,2.4 -3.41,3.57 l -1.75,1.75 c -0.61,0.59 -1.15,1.15 -1.84,1.8 L 280,206.12 c 0.51,-0.35 1.15,-0.82 1.72,-1.26 l 1.74,-1.38 c 1.15,-0.93 2.3,-1.87 3.4,-2.87 a 78.16,78.16 0 0 0 6.19,-6.15 35.71,35.71 0 0 0 4.69,-6.44 9.86,9.86 0 0 0 1,-2.55 c 0,-0.26 0,-0.38 0,-0.32 a 0.18,0.18 0 0 0 0,0.06 0.14,0.14 0 0 0 0,0.06 v 0 -0.11 l -0.37,-0.93 a 44.36,44.36 0 0 0 -9.14,-13.67 58.43,58.43 0 0 0 -6.32,-5.74 c -1.12,-0.88 -2.28,-1.72 -3.44,-2.52 -0.59,-0.4 -1.17,-0.8 -1.76,-1.16 l -0.88,-0.52 -0.77,-0.43 z"
       style="fill:#407bff"
       id="path54" />
    <path
       d="m 283.39,148.21 c 0.53,0.34 0.83,0.56 1.21,0.84 l 1.06,0.79 c 0.69,0.53 1.37,1 2,1.59 q 2,1.6 3.87,3.32 a 90.86,90.86 0 0 1 7.17,7.25 71.6,71.6 0 0 1 6.26,8.23 c 0.94,1.47 1.85,3 2.65,4.54 a 50.71,50.71 0 0 1 2.27,4.83 l 0.49,1.25 0.06,0.16 0.11,0.31 0.19,0.61 c 0.1,0.41 0.2,0.82 0.26,1.22 a 13.54,13.54 0 0 1 0,4.33 21.4,21.4 0 0 1 -2.14,6.24 52.59,52.59 0 0 1 -6,8.93 c -2.11,2.67 -4.33,5.13 -6.58,7.54 -1.13,1.2 -2.25,2.4 -3.41,3.57 l -1.75,1.75 c -0.61,0.59 -1.15,1.15 -1.84,1.8 L 280,206.12 c 0.51,-0.35 1.15,-0.82 1.72,-1.26 l 1.74,-1.38 c 1.15,-0.93 2.3,-1.87 3.4,-2.87 a 78.16,78.16 0 0 0 6.19,-6.15 35.71,35.71 0 0 0 4.69,-6.44 9.86,9.86 0 0 0 1,-2.55 c 0,-0.26 0,-0.38 0,-0.32 a 0.18,0.18 0 0 0 0,0.06 0.14,0.14 0 0 0 0,0.06 v 0 -0.11 l -0.37,-0.93 a 44.36,44.36 0 0 0 -9.14,-13.67 58.43,58.43 0 0 0 -6.32,-5.74 c -1.12,-0.88 -2.28,-1.72 -3.44,-2.52 -0.59,-0.4 -1.17,-0.8 -1.76,-1.16 l -0.88,-0.52 -0.77,-0.43 z"
       style="opacity:0.7;fill:#ffffff"
       id="path55" />
  </g>
  <g
     id="freepik--Counter--inject-153"
     transform="translate(-43.678851,-35.32689)">
    <rect
       x="105.89"
       y="246.36"
       width="296.69"
       height="12.05"
       style="fill:#407bff"
       id="rect55" />
    <rect
       x="105.89"
       y="246.36"
       width="296.69"
       height="12.05"
       style="opacity:0.6;fill:#ffffff"
       id="rect56" />
    <rect
       x="376.60999"
       y="246.36"
       width="25.969999"
       height="12.05"
       style="opacity:0.3;fill:#407bff"
       id="rect57" />
    <rect
       x="111.17"
       y="258.41"
       width="286.12"
       height="156.59"
       style="fill:#407bff"
       id="rect58" />
    <rect
       x="111.17"
       y="258.41"
       width="286.12"
       height="156.59"
       style="opacity:0.5;fill:#ffffff"
       id="rect59" />
    <rect
       x="381.89999"
       y="258.41"
       width="15.4"
       height="156.59"
       style="opacity:0.3;fill:#407bff"
       id="rect60" />
    <rect
       x="111.17"
       y="258.41"
       width="286.12"
       height="3.97"
       style="opacity:0.3;fill:#407bff"
       id="rect61" />
    <circle
       cx="246.95"
       cy="332.70001"
       r="42.139999"
       style="opacity:0.3;fill:#407bff"
       id="circle61" />
    <circle
       cx="244.24001"
       cy="332.70001"
       r="42.139999"
       style="fill:#407bff"
       id="circle62" />
    <circle
       cx="242.88"
       cy="332.70001"
       r="42.139999"
       style="fill:#ffffff"
       id="circle63" />
    <rect
       x="235.73"
       y="307.5"
       width="14.3"
       height="50.400002"
       rx="2.8499999"
       style="fill:#407bff"
       id="rect63" />
    <rect
       x="235.73"
       y="307.5"
       width="14.3"
       height="50.400002"
       rx="2.8499999"
       transform="rotate(90,242.885,332.695)"
       style="fill:#407bff"
       id="rect64" />
    <polygon
       points="317.3,191.67 394.33,191.67 384.37,239.69 307.33,239.69 "
       style="fill:#407bff"
       id="polygon64" />
    <polygon
       points="317.3,191.67 394.33,191.67 384.37,239.69 307.33,239.69 "
       style="opacity:0.3;fill:#ffffff"
       id="polygon65" />
    <polygon
       points="338.84,207.08 371.17,207.08 366.88,227.75 334.55,227.75 "
       style="opacity:0.3;fill:#ffffff"
       id="polygon66" />
    <polygon
       points="338.84,207.08 336.91,207.08 332.62,227.75 334.55,227.75 "
       style="opacity:0.3;fill:#407bff"
       id="polygon67" />
    <polygon
       points="346.86,239.69 352.65,239.69 351.79,218.35 345.99,218.35 "
       style="opacity:0.3;fill:#407bff"
       id="polygon68" />
    <polygon
       points="317.3,191.67 318.6,191.67 308.63,239.69 307.33,239.69 "
       style="opacity:0.7;fill:#ffffff"
       id="polygon69" />
    <polygon
       points="360.75,217.41 346.83,217.41 351.79,246.35 365.71,246.35 "
       style="fill:#407bff"
       id="polygon70" />
    <polygon
       points="360.75,217.41 346.83,217.41 351.79,246.35 365.71,246.35 "
       style="opacity:0.2;fill:#ffffff"
       id="polygon71" />
    <polygon
       points="346.83,217.41 345.58,217.41 350.54,246.35 351.79,246.35 "
       style="fill:#407bff"
       id="polygon72" />
    <polygon
       points="346.83,217.41 345.58,217.41 350.54,246.35 351.79,246.35 "
       style="opacity:0;fill:#ffffff"
       id="polygon73" />
    <polygon
       points="337.42,246.35 351.12,246.35 351.12,244.71 340.26,244.71 "
       style="fill:#407bff"
       id="polygon74" />
    <rect
       x="190.23"
       y="226.14"
       width="18.42"
       height="20.209999"
       style="fill:#407bff"
       id="rect74" />
    <polygon
       points="211.9,221.22 200.92,221.22 197.67,226.14 208.65,226.14 "
       style="fill:#407bff"
       id="polygon75" />
    <rect
       x="190.23"
       y="226.14"
       width="10.98"
       height="20.209999"
       transform="rotate(180,195.725,236.25)"
       style="opacity:0.3;fill:#ffffff"
       id="rect75" />
    <rect
       x="194.17"
       y="233.28"
       width="14.48"
       height="8.9899998"
       style="opacity:0.3;fill:#ffffff"
       id="rect76" />
    <polygon
       points="186.98,221.22 197.96,221.22 201.21,226.14 190.23,226.14 "
       style="fill:#407bff"
       id="polygon76" />
    <polygon
       points="186.98,221.22 197.96,221.22 201.21,226.14 190.23,226.14 "
       style="opacity:0.3;fill:#ffffff"
       id="polygon77" />
  </g>
</svg>
