<?xml version="1.0" encoding="UTF-8" standalone="no"?>
<svg
   viewBox="0 0 420 420"
   version="1.1"
   id="svg178"
   sodipodi:docname="Standup meeting-rafiki.svg"
   width="420"
   height="420"
   inkscape:version="1.3.2 (091e20e, 2023-11-25, custom)"
   xmlns:inkscape="http://www.inkscape.org/namespaces/inkscape"
   xmlns:sodipodi="http://sodipodi.sourceforge.net/DTD/sodipodi-0.dtd"
   xmlns="http://www.w3.org/2000/svg"
   xmlns:svg="http://www.w3.org/2000/svg">
  <defs
     id="defs178" />
  <sodipodi:namedview
     id="namedview178"
     pagecolor="#ffffff"
     bordercolor="#000000"
     borderopacity="0.25"
     inkscape:showpageshadow="2"
     inkscape:pageopacity="0.0"
     inkscape:pagecheckerboard="0"
     inkscape:deskcolor="#d1d1d1"
     inkscape:zoom="1.092"
     inkscape:cx="250"
     inkscape:cy="249.54212"
     inkscape:window-width="1920"
     inkscape:window-height="1001"
     inkscape:window-x="-9"
     inkscape:window-y="-9"
     inkscape:window-maximized="1"
     inkscape:current-layer="svg178" />
  <g
     id="freepik--background-simple--inject-158"
     transform="matrix(1.0370778,0,0,1.0370778,-44.270727,-62.929865)">
    <path
       d="m 342.55,141.06 c 35.92,26 96.52,80.84 86.12,142.13 -11.94,70.39 -102.49,58.79 -157,35.38 -27.64,-11.87 -49,-4.45 -75,6.6 -32,13.61 -61.35,12.7 -92.23,-4.87 -39.66,-22.57 -52.19,-60.57 -44.51,-102.94 9.42,-52 48.39,-98.48 99.94,-109.36 61.64,-13 133.58,-2.53 182.68,33.06 z"
       style="fill:#407bff"
       id="path1" />
    <path
       d="m 342.55,141.06 c 35.92,26 96.52,80.84 86.12,142.13 -11.94,70.39 -102.49,58.79 -157,35.38 -27.64,-11.87 -49,-4.45 -75,6.6 -32,13.61 -61.35,12.7 -92.23,-4.87 -39.66,-22.57 -52.19,-60.57 -44.51,-102.94 9.42,-52 48.39,-98.48 99.94,-109.36 61.64,-13 133.58,-2.53 182.68,33.06 z"
       style="opacity:0.9;fill:#ffffff"
       id="path2" />
  </g>
  <g
     id="freepik--Shadow--inject-158"
     transform="matrix(1.0370778,0,0,1.0370778,-44.270727,-62.929865)">
    <ellipse
       id="freepik--path--inject-158"
       cx="245.17999"
       cy="412.39001"
       rx="193.89"
       ry="11.32"
       style="fill:#f5f5f5" />
  </g>
  <g
     id="freepik--Board--inject-158"
     transform="matrix(1.0370778,0,0,1.0370778,-44.270727,-62.929865)">
    <path
       d="m 186.12,137.16 a 2.47,2.47 0 0 0 -4.93,0 l -0.26,3.18 h 5.45 z m -2.47,1.66 a 1.21,1.21 0 1 1 1.21,-1.2 1.2,1.2 0 0 1 -1.21,1.2 z"
       style="fill:#407bff"
       id="path3" />
    <path
       d="m 311.56,137.16 a 2.48,2.48 0 0 0 -4.94,0 l -0.26,3.18 h 5.46 z m -2.47,1.66 a 1.21,1.21 0 1 1 1.2,-1.2 1.2,1.2 0 0 1 -1.2,1.2 z"
       style="fill:#407bff"
       id="path4" />
    <rect
       x="158.57001"
       y="139.84"
       width="174.3"
       height="108"
       style="fill:#263238"
       id="rect4" />
    <rect
       x="158.57001"
       y="139.84"
       width="174.3"
       height="108"
       style="opacity:0.6;fill:#ffffff"
       id="rect5" />
    <rect
       x="163.03"
       y="144.3"
       width="165.38"
       height="99.080002"
       style="opacity:0.9;fill:#ffffff"
       id="rect6" />
    <rect
       x="156.52"
       y="244.87"
       width="178.41"
       height="5.1799998"
       style="fill:#263238"
       id="rect7" />
    <rect
       x="156.52"
       y="244.87"
       width="178.41"
       height="5.1799998"
       style="opacity:0.7;fill:#ffffff"
       id="rect8" />
    <rect
       x="179.75999"
       y="162.13"
       width="12.72"
       height="16.709999"
       style="opacity:0.2;fill:#263238"
       id="rect9" />
    <path
       d="m 197.33,178.84 a 29.72,29.72 0 0 1 -3,-16.71 H 180 a 29.72,29.72 0 0 0 3,16.71 z"
       style="fill:#407bff"
       id="path9" />
    <path
       d="m 197.33,178.84 a 29.72,29.72 0 0 1 -3,-16.71 H 180 a 29.72,29.72 0 0 0 3,16.71 z"
       style="opacity:0.5;fill:#ffffff"
       id="path10" />
    <rect
       x="301.87"
       y="162.13"
       width="12.72"
       height="16.709999"
       style="opacity:0.2;fill:#263238"
       id="rect10" />
    <path
       d="m 319.44,178.84 a 29.72,29.72 0 0 1 -3,-16.71 h -14.38 a 29.72,29.72 0 0 0 3,16.71 z"
       style="fill:#407bff"
       id="path11" />
    <path
       d="m 319.44,178.84 a 29.72,29.72 0 0 1 -3,-16.71 h -14.38 a 29.72,29.72 0 0 0 3,16.71 z"
       style="opacity:0.2;fill:#ffffff"
       id="path12" />
    <rect
       x="209.57001"
       y="162.42"
       width="12.72"
       height="16.709999"
       style="opacity:0.2;fill:#263238"
       id="rect12" />
    <path
       d="m 227.14,179.13 a 29.62,29.62 0 0 1 -3,-16.71 h -14.38 a 29.72,29.72 0 0 0 3,16.71 z"
       style="fill:#407bff"
       id="path13" />
    <path
       d="m 227.14,179.13 a 29.62,29.62 0 0 1 -3,-16.71 h -14.38 a 29.72,29.72 0 0 0 3,16.71 z"
       style="opacity:0.8;fill:#ffffff"
       id="path14" />
    <rect
       x="275.89999"
       y="162.13"
       width="12.72"
       height="16.709999"
       style="opacity:0.2;fill:#263238"
       id="rect14" />
    <path
       d="m 293.47,178.84 a 29.72,29.72 0 0 1 -3,-16.71 H 276.1 a 29.62,29.62 0 0 0 3,16.71 z"
       style="fill:#407bff"
       id="path15" />
    <path
       d="m 293.47,178.84 a 29.72,29.72 0 0 1 -3,-16.71 H 276.1 a 29.62,29.62 0 0 0 3,16.71 z"
       style="opacity:0.6;fill:#ffffff"
       id="path16" />
    <path
       d="m 269.47,176.38 c -1.28,-7.74 3,-14.93 10.72,-17 7.72,-2.07 17.07,2.41 17.84,11 1.41,15.85 -23,19.83 -26.8,4.85 a 0.51662365,0.51662365 0 0 0 -1,0.26 c 1.91,7.57 8.31,10.57 15.86,10.11 a 14.1,14.1 0 0 0 12.83,-16 c -1.24,-8.63 -10.42,-13.14 -18.44,-11.35 -8.61,1.93 -13.42,9.83 -12,18.32 0.11,0.63 1.06,0.37 1,-0.26 z"
       style="fill:#407bff"
       id="path17" />
    <path
       d="m 179,189.81 a 186.47,186.47 0 0 1 38.24,-4.7 c 0.67,0 0.68,-1.07 0,-1.05 a 187.82,187.82 0 0 0 -38.52,4.74 c -0.66,0.16 -0.38,1.17 0.28,1 z"
       style="fill:#407bff"
       id="path18" />
    <path
       d="m 188.27,191.59 a 113.62,113.62 0 0 1 22.87,-2.81 c 0.67,0 0.68,-1.07 0,-1.05 a 114.78,114.78 0 0 0 -23.14,2.85 0.52,0.52 0 0 0 0.27,1 z"
       style="fill:#407bff"
       id="path19" />
  </g>
  <g
     id="freepik--character-3--inject-158"
     transform="matrix(1.0370778,0,0,1.0370778,-44.270727,-62.929865)">
    <path
       d="m 376.73,174.71 c -0.1,0.48 -0.43,0.82 -0.75,0.75 -0.32,-0.07 -0.49,-0.5 -0.39,-1 0.1,-0.5 0.43,-0.82 0.75,-0.76 0.32,0.06 0.49,0.53 0.39,1.01 z"
       style="fill:#263238"
       id="path20" />
    <path
       d="m 376.34,175.54 a 17.63,17.63 0 0 1 -3.13,3.64 2.82,2.82 0 0 0 2.21,0.9 z"
       style="fill:#a02724"
       id="path21" />
    <path
       d="m 379,172.39 a 0.31,0.31 0 0 0 0.2,-0.07 0.3,0.3 0 0 0 0,-0.41 2.87,2.87 0 0 0 -2.46,-0.95 0.28,0.28 0 0 0 -0.23,0.33 0.27,0.27 0 0 0 0.33,0.23 v 0 a 2.33,2.33 0 0 1 1.93,0.78 0.3,0.3 0 0 0 0.23,0.09 z"
       style="fill:#263238"
       id="path22" />
    <path
       d="m 390.43,181.47 c -0.87,4.46 -1.74,12.61 1.37,15.58 0,0 -1.21,4.52 -9.49,4.52 -9.09,0 -4.34,-4.52 -4.34,-4.52 5,-1.18 4.83,-4.86 4,-8.32 z"
       style="fill:#b55b52"
       id="path23" />
    <path
       d="m 393,177 c -1.56,5.83 -2.18,9.33 -5.78,11.75 -5.42,3.65 -12.16,-0.54 -12.37,-6.72 -0.19,-5.57 2.4,-14.17 8.66,-15.35 A 8.24,8.24 0 0 1 393,177 Z"
       style="fill:#b55b52"
       id="path24" />
    <path
       d="m 380.55,179.37 c 0,0 1.3,8 9.17,7.75 0,0 9.51,-5.35 8.52,-15.45 0,0 3,-3.95 1.2,-5.59 -1.17,-1 -2.54,1.2 -2.54,1.2 0,0 0.66,-5.79 -1.71,-6.42 -2.37,-0.63 -2.62,3.09 -2.62,3.09 0,0 -0.55,-5.86 -3,-6.17 -2.82,-0.36 -2,3.79 -2,3.79 0,0 -0.92,-4.88 -3.68,-4.87 -2.3,0 -1.19,4.64 -1.19,4.64 0,0 -2.18,-4.93 -4.27,-3.8 -2.09,1.13 0.59,4.75 0.59,4.75 0,0 -4,-2.81 -4.8,-0.87 -0.8,1.94 3.26,4.31 3.26,4.31 0,0 -3.9,0.45 -3.58,2.33 0.32,1.88 4.88,1.59 4.88,1.59 0,0 -1.78,4.25 2.22,6.25 z"
       style="fill:#263238"
       id="path25" />
    <path
       d="m 383.05,177.19 a 6.78,6.78 0 0 1 -2.45,3.63 c -1.58,1.18 -2.77,0 -2.66,-1.77 0.11,-1.61 1.05,-4.17 2.8,-4.65 1.75,-0.48 2.77,1.04 2.31,2.79 z"
       style="fill:#b55b52"
       id="path26" />
    <path
       d="m 380.19,187.8 c -1.41,-0.25 -2.08,0.07 -4.17,-1.78 a 8.15,8.15 0 0 0 6.19,4 c -0.07,-0.23 -0.69,-2.02 -2.02,-2.22 z"
       style="opacity:0.2"
       id="path27" />
    <path
       d="m 406.18,202.65 c 1.57,3.1 3,6.17 4.35,9.32 1.35,3.15 2.61,6.34 3.77,9.6 0.6,1.62 1.12,3.28 1.64,5 l 0.1,0.31 v 0.16 l 0.07,0.27 a 7.79,7.79 0 0 1 0.22,1.09 8.55,8.55 0 0 1 0,2.26 9.33,9.33 0 0 1 -1.39,3.85 14.2,14.2 0 0 1 -4.67,4.43 19.21,19.21 0 0 1 -2.55,1.31 18.92,18.92 0 0 1 -2.69,1 l -1.89,-4 a 33.35,33.35 0 0 0 3.29,-3.09 9.14,9.14 0 0 0 2,-3.07 1.46,1.46 0 0 0 0.09,-0.93 0.89,0.89 0 0 0 -0.12,-0.26 c 0,0 -0.05,-0.09 -0.07,-0.14 l -0.07,-0.17 -0.12,-0.28 c -0.59,-1.51 -1.23,-3 -1.87,-4.53 -1.3,-3 -2.67,-6 -4.06,-9 l -4.19,-9 z"
       style="fill:#b55b52"
       id="path28" />
    <path
       d="m 405.27,236.62 -4.35,-1.13 -0.25,7 c 0,0 3.41,0.5 5.49,-1.58 z"
       style="fill:#b55b52"
       id="path29" />
    <polygon
       points="400.67,242.52 400.92,235.49 394.75,234.31 395.74,240.47 "
       style="fill:#ffc3bd"
       id="polygon29" />
    <path
       d="m 368.26,199.67 c -1.71,0 -3.67,0 -5.5,-0.14 -1.83,-0.14 -3.72,-0.21 -5.57,-0.38 -1.85,-0.17 -3.67,-0.38 -5.44,-0.68 -0.91,-0.12 -1.77,-0.32 -2.65,-0.47 -0.88,-0.15 -1.73,-0.38 -2.55,-0.63 l -1.23,-0.35 -1.17,-0.41 -0.34,-0.11 a 3.87,3.87 0 0 1 -0.17,-0.69 14,14 0 0 1 -0.22,-2.3 c -0.06,-3.39 0.85,-9.55 1.36,-13.25 l -3.83,-0.8 a 59.39,59.39 0 0 0 -4.95,14.3 20.07,20.07 0 0 0 -0.27,3.57 11.53,11.53 0 0 0 0.94,4.49 c 0.4,0.87 0.62,1 1.58,1.79 a 7.82,7.82 0 0 0 1.56,1 l 0.78,0.36 c 0.52,0.23 1,0.48 1.56,0.69 l 1.55,0.59 a 60.24,60.24 0 0 0 12.41,2.81 c 2.06,0.23 4.11,0.44 6.17,0.53 2.06,0.09 4.05,0.15 6.26,0.06 z"
       style="fill:#b55b52"
       id="path30" />
    <path
       d="m 344.69,180.64 3.26,-6.88 -6.39,-1.85 c 0,0 -3,4.49 -0.39,8.1 z"
       style="fill:#b55b52"
       id="path31" />
    <polygon
       points="341.56,171.91 347.95,173.76 347.56,170.66 342.6,168.11 "
       style="fill:#b55b52"
       id="polygon31" />
    <path
       d="m 377.38,197.52 a 2.73,2.73 0 0 0 0.41,-3.21 c 0,0 21.1,-1.75 15.6,3.83 z"
       style="fill:#407bff"
       id="path32" />
    <path
       d="m 377.38,197.52 a 2.73,2.73 0 0 0 0.41,-3.21 c 0,0 21.1,-1.75 15.6,3.83 z"
       style="opacity:0.3;fill:#ffffff"
       id="path33" />
    <path
       d="m 401,223.23 c 0,0 7.28,-3.1 12,-8.93 0,0 -4.54,-14.49 -9.71,-15.44 -5.17,-0.95 -2.29,24.37 -2.29,24.37 z"
       style="fill:#407bff"
       id="path34" />
    <path
       d="m 401,223.23 c 0,0 7.28,-3.1 12,-8.93 0,0 -4.54,-14.49 -9.71,-15.44 -5.17,-0.95 -2.29,24.37 -2.29,24.37 z"
       style="opacity:0.5;fill:#ffffff"
       id="path35" />
    <path
       d="m 400.15,209.15 a 137.69,137.69 0 0 0 0.81,14.08 34,34 0 0 0 3.66,-1.93 63.19,63.19 0 0 0 -4.47,-12.15 z"
       style="opacity:0.2"
       id="path36" />
    <path
       d="m 404.6,199.47 c -4.12,20.08 -3.54,38.13 -3,49 a 6.82,6.82 0 0 1 -5.75,7.1 83.92,83.92 0 0 1 -23,-0.37 6.82,6.82 0 0 1 -5.69,-5.72 c -4.78,-30.77 -2.34,-43.06 -0.77,-49.05 a 4.72,4.72 0 0 1 4.57,-3.51 c 8.49,-0.06 30.29,0.14 33.64,2.55 z"
       style="fill:#407bff"
       id="path37" />
    <path
       d="m 404.6,199.47 c -4.12,20.08 -3.54,38.13 -3,49 a 6.82,6.82 0 0 1 -5.75,7.1 83.92,83.92 0 0 1 -23,-0.37 6.82,6.82 0 0 1 -5.69,-5.72 c -4.78,-30.77 -2.34,-43.06 -0.77,-49.05 a 4.72,4.72 0 0 1 4.57,-3.51 c 8.49,-0.06 30.29,0.14 33.64,2.55 z"
       style="opacity:0.5;fill:#ffffff"
       id="path38" />
    <path
       d="m 365.72,203.66 a 83.35,83.35 0 0 0 -1.33,17.85 c 6.2,-2.79 7.69,-12.36 7.69,-12.36 l -2.79,-6.34 z"
       style="opacity:0.2"
       id="path39" />
    <path
       d="m 370.69,196.9 c -2.83,-1.58 -15.9,2 -15.9,2 v 14.78 c 0,0 13.1,3.31 15.85,-1.2 2.75,-4.51 3.51,-13.65 0.05,-15.58 z"
       style="fill:#407bff"
       id="path40" />
    <path
       d="m 370.69,196.9 c -2.83,-1.58 -15.9,2 -15.9,2 v 14.78 c 0,0 13.1,3.31 15.85,-1.2 2.75,-4.51 3.51,-13.65 0.05,-15.58 z"
       style="opacity:0.5;fill:#ffffff"
       id="path41" />
    <polygon
       points="377.29,392.05 383.37,392.05 383.98,406.15 377.89,406.15 "
       style="fill:#b55b52"
       id="polygon41" />
    <polygon
       points="416.73,391.49 422.68,390.2 428.65,403.33 422.7,404.62 "
       style="fill:#b55b52"
       id="polygon42" />
    <polygon
       points="383.69,399.32 383.38,392.06 377.29,392.06 377.6,399.32 "
       style="opacity:0.2"
       id="polygon43" />
    <polygon
       points="419.81,398.26 425.76,396.97 422.68,390.2 416.73,391.49 "
       style="opacity:0.2"
       id="polygon44" />
    <path
       d="m 379.62,251.34 c 0,0 8.81,58.49 12.6,75.91 4.16,19.08 24.52,70.23 24.52,70.23 l 10.89,-2.35 c 0,0 -5.85,-17 -11.7,-42.69 -1.95,-8.57 -5.58,-16.79 -6.45,-23.46 -1.46,-11.17 -3.29,-41.65 -4.75,-56.18 a 122.75,122.75 0 0 0 -4.1,-21.46 z"
       style="fill:#263238"
       id="path44" />
    <path
       d="m 414.13,393.85 c -0.05,0 2,3.94 2,3.94 l 12.26,-2.66 -1,-3.68 z"
       style="fill:#263238"
       id="path45" />
    <path
       d="m 384,267.92 c 8,1.56 9,43.32 8.08,58.63 -2.3,-10.82 -7.58,-43.63 -9.88,-58.42 a 2.72,2.72 0 0 1 1.8,-0.21 z"
       style="opacity:0.5"
       id="path46" />
    <path
       d="m 368.08,251.34 c 0,0 1.06,57.48 1.72,76 0.69,19.3 5.53,70.53 5.53,70.53 h 10.31 a 276.75,276.75 0 0 0 3.34,-41.6 c 0.12,-11.24 -1.74,-21.49 -1.6,-27.46 0.25,-10.15 1,-38.11 2.69,-51.75 a 193.88,193.88 0 0 0 1.4,-25.76 z"
       style="fill:#263238"
       id="path47" />
    <path
       d="m 373.35,393.81 c -0.05,0 0.58,4.28 0.58,4.28 h 12.54 l 0.34,-3.82 z"
       style="fill:#263238"
       id="path48" />
    <path
       d="m 378.05,403.77 h 7 a 0.53,0.53 0 0 1 0.53,0.52 l 1.22,6.71 a 1.32,1.32 0 0 1 -1.06,1.28 0.85,0.85 0 0 1 -0.23,0 c -2.89,-0.1 -5.43,-0.31 -9,-0.36 -4.26,-0.07 -3.28,0.45 -8.3,0.44 -3,0 -2.91,-3.46 -1.6,-3.61 6,-0.64 6.95,-2.4 9.62,-4.46 a 3.06,3.06 0 0 1 1.82,-0.52 z"
       style="fill:#263238"
       id="path49" />
    <path
       d="m 421.57,401.81 6.84,-1.48 a 0.52,0.52 0 0 1 0.63,0.39 l 2.61,6.33 a 1.33,1.33 0 0 1 -0.76,1.47 0.94,0.94 0 0 1 -0.22,0.07 c -2.85,0.51 -5.38,0.85 -8.92,1.55 -4.18,0.83 -3.11,1.14 -8,2.18 -3,0.63 -3.57,-2.77 -2.32,-3.19 5.73,-1.88 6.29,-3.8 8.46,-6.38 a 3,3 0 0 1 1.68,-0.94 z"
       style="fill:#263238"
       id="path50" />
  </g>
  <g
     id="freepik--character-2--inject-158"
     transform="matrix(1.0370778,0,0,1.0370778,-44.270727,-62.929865)">
    <path
       d="m 288.9,227.8 4.08,-4.68 a 33.21,33.21 0 0 1 1.18,-4.09 c 0.48,-1 1.51,-3.27 2.56,-3.63 a 5.9,5.9 0 0 1 4.6,1.36 c 1,1.19 1.5,4.81 0.8,6.22 -0.7,1.41 -5.79,3.31 -5.79,3.31 l -4,5 z"
       style="fill:#ffb573"
       id="path51" />
    <polygon
       points="296.36,227.7 292.49,232.26 288.02,227.52 291.59,223.63 "
       style="fill:#407bff"
       id="polygon51" />
    <polygon
       points="296.36,227.7 292.49,232.26 288.02,227.52 291.59,223.63 "
       style="opacity:0.8;fill:#ffffff"
       id="polygon52" />
    <path
       d="m 262.47,204.71 c 0,0 3.72,4.24 9.09,18.08 5.37,13.84 11.34,9.81 17.88,2.34 l 5.37,4.9 c 0,0 -10.05,12.52 -16.37,12.52 -7,0 -13.88,-10.92 -15.25,-18.54 -1.37,-7.62 -0.72,-19.3 -0.72,-19.3 z"
       style="fill:#263238"
       id="path52" />
    <path
       d="m 263.78,212.72 -2,-1.67 -0.93,5.33 c 0.13,1.54 0.31,3.05 0.56,4.42 0.78,4.35 3.73,10 6.89,14.79 a 175.26,175.26 0 0 0 -4.52,-22.87 z"
       style="opacity:0.4"
       id="path53" />
    <path
       d="m 235.31,172.26 c 0,0 -2.84,0 -2.46,2.19 0.47,2.82 10.09,2 10.09,2 l -2.56,-3.37 z"
       style="fill:#263238"
       id="path54" />
    <polygon
       points="270.14,404.31 267.28,391.67 274.99,391.2 275.96,404.31 "
       style="fill:#ffb573"
       id="polygon54" />
    <path
       d="m 276.52,403.6 h -7.15 a 0.53,0.53 0 0 0 -0.55,0.52 l -1.24,6.88 a 1.35,1.35 0 0 0 1.08,1.3 h 0.23 c 2.95,-0.11 5.55,-0.31 9.23,-0.37 4.35,-0.07 3.35,0.47 8.47,0.45 3.09,0 3,-3.53 1.63,-3.68 -6.12,-0.65 -7.09,-2.45 -9.81,-4.56 a 3,3 0 0 0 -1.89,-0.54 z"
       style="fill:#263238"
       id="path55" />
    <path
       d="M 277.16,401.53 268,402 c 0,0 -9.22,-32.81 -10.93,-52.75 -0.12,-1.37 -0.2,-2.69 -0.25,-3.94 a 96.78,96.78 0 0 0 -2,-17.31 l -0.43,-2 -5,-23.49 v 0 l -1,-4.48 c 0,0 -5.71,-9.56 -5.5,-24.1 a 55.66,55.66 0 0 1 1.49,-12 1.59,1.59 0 0 0 0.08,-0.33 l 22,0.64 0.84,10.86 z"
       style="fill:#407bff"
       id="path56" />
    <path
       d="m 251.57,312.8 c 3,-15.26 1.52,-33.36 1.52,-33.36 l -4.5,1.8 -3,8.42 c 0,0 0,0.68 0,1.8 a 36.05,36.05 0 0 0 2.81,6.55 z"
       style="opacity:0.2"
       id="path57" />
    <polygon
       points="225.43,404.31 225.46,391.67 233.16,391.2 231.25,404.31 "
       style="fill:#ffb573"
       id="polygon57" />
    <path
       d="m 231.74,403.6 h -7.15 a 0.52,0.52 0 0 0 -0.54,0.52 L 222.8,411 a 1.35,1.35 0 0 0 1.08,1.3 h 0.24 c 2.95,-0.11 5.54,-0.31 9.23,-0.37 4.34,-0.07 3.34,0.47 8.47,0.45 3.08,0 3,-3.53 1.63,-3.68 -6.12,-0.65 -7.09,-2.45 -9.81,-4.56 a 3.06,3.06 0 0 0 -1.9,-0.54 z"
       style="fill:#263238"
       id="path58" />
    <path
       d="m 257.86,262.25 -1.68,8 -6.82,32.28 -1.11,5.3 -15.19,94 -9.12,-0.4 c 0,0 -2,-30.29 0.73,-50.46 0.21,-1.59 0.47,-3.12 0.75,-4.56 a 103.06,103.06 0 0 0 2,-20.42 v -2 L 227.07,298 a 115.38,115.38 0 0 1 1,-26.21 72.18,72.18 0 0 1 2.36,-10.19 l 14,0.33 z"
       style="fill:#407bff"
       id="path59" />
    <path
       d="m 267.76,280.06 -8.1,0.71 a 4.34,4.34 0 0 1 -5.05,-3.11 l -0.26,-1 -1.7,-6.28 -2,7.27 a 4.58,4.58 0 0 1 -5.07,3.33 l -4.48,-0.64 -13.86,-1.92 a 75.75,75.75 0 0 1 3.21,-16.85 l 14,0.33 a 1.59,1.59 0 0 0 0.08,-0.33 l 22,0.64 z"
       style="opacity:0.2"
       id="path60" />
    <path
       d="m 229.89,245.93 -3.77,28.83 19.59,3 a 4.32,4.32 0 0 0 4.78,-3.13 l 1.9,-6.86 1.85,6.83 a 4.08,4.08 0 0 0 4.75,2.93 l 9.52,-1.64 -2.5,-33.4 c 0,0 1.43,-21.39 -1.91,-35.08 a 7.34,7.34 0 0 0 -5.63,-5 56.06,56.06 0 0 0 -33.19,2.51 3.2,3.2 0 0 0 -2,3.35 z"
       style="fill:#263238"
       id="path61" />
    <circle
       cx="251.00999"
       cy="233.71001"
       r="0.88"
       style="opacity:0.5"
       id="circle61" />
    <circle
       cx="251.87"
       cy="245.92999"
       r="0.88"
       style="opacity:0.5"
       id="circle62" />
    <circle
       cx="252.23"
       cy="258"
       r="0.88"
       style="opacity:0.5"
       id="circle63" />
    <path
       d="m 237.69,200.57 a 18.7,18.7 0 0 1 10.57,-0.74 l 2.16,1.24 0.77,2.41 -2.75,2.16 -6.48,0.66 -5.36,-2.22 0.29,-2.38 z"
       style="fill:#263238"
       id="path63" />
    <path
       d="m 237.16,201.81 a 7.15,7.15 0 0 0 1.59,-6.13 l 9.71,-7.87 c -1.37,13.12 -0.7,10.74 1.25,14.51 0,0 -1.35,4.38 -8.93,3 -4.91,-0.87 -3.62,-3.51 -3.62,-3.51 z"
       style="fill:#ffb573"
       id="path64" />
    <path
       d="m 238.75,195.68 9.71,-7.87 c -0.25,1.91 -0.45,3.49 -0.58,4.87 a 10.34,10.34 0 0 1 -9.16,6 6.53,6.53 0 0 0 0.03,-3 z"
       style="opacity:0.2"
       id="path65" />
    <path
       d="m 250.09,181.61 c -1.37,6.27 -1.86,10 -5.56,12.75 -5.57,4.14 -12.93,0 -13.45,-6.53 -0.47,-5.93 1.86,-15.16 8.44,-16.71 a 8.76,8.76 0 0 1 10.57,10.49 z"
       style="fill:#ffb573"
       id="path66" />
    <path
       d="m 239.9,181.89 c -0.08,0.52 -0.42,0.9 -0.75,0.84 -0.33,-0.06 -0.55,-0.51 -0.46,-1 0.09,-0.49 0.41,-0.89 0.75,-0.83 0.34,0.06 0.56,0.48 0.46,0.99 z"
       style="fill:#263238"
       id="path67" />
    <path
       d="m 234.08,181 c -0.08,0.51 -0.42,0.88 -0.75,0.83 -0.33,-0.05 -0.55,-0.51 -0.46,-1 0.09,-0.49 0.41,-0.9 0.75,-0.84 0.34,0.06 0.54,0.48 0.46,1.01 z"
       style="fill:#263238"
       id="path68" />
    <path
       d="m 236.21,181.52 a 18.29,18.29 0 0 1 -3.15,4 3,3 0 0 0 2.39,0.85 z"
       style="fill:#ed893e"
       id="path69" />
    <path
       d="m 242.28,179.79 a 0.43,0.43 0 0 0 0.16,0 0.33,0.33 0 0 0 0.12,-0.42 3.08,3.08 0 0 0 -2.27,-1.63 0.3,0.3 0 0 0 -0.33,0.28 0.31,0.31 0 0 0 0.28,0.34 v 0 a 2.41,2.41 0 0 1 1.78,1.31 0.33,0.33 0 0 0 0.26,0.12 z"
       style="fill:#263238"
       id="path70" />
    <path
       d="m 232.18,178.28 a 0.26,0.26 0 0 0 0.26,-0.13 2.43,2.43 0 0 1 1.9,-1.1 0.32,0.32 0 0 0 0.32,-0.3 0.3,0.3 0 0 0 -0.3,-0.31 3,3 0 0 0 -2.44,1.37 0.28,0.28 0 0 0 0.07,0.41 v 0 a 0.27,0.27 0 0 0 0.19,0.06 z"
       style="fill:#263238"
       id="path71" />
    <path
       d="m 233.46,188.46 a 37.13,37.13 0 0 1 6.24,-0.17 c -0.6,1.23 -1.67,2.22 -4,2.14 -2.33,-0.08 -2.24,-1.97 -2.24,-1.97 z"
       style="fill:#263238"
       id="path72" />
    <path
       d="m 236.83,189.48 a 4.65,4.65 0 0 0 -2.59,0.53 2.62,2.62 0 0 0 1.44,0.41 4.65,4.65 0 0 0 2.59,-0.53 2.54,2.54 0 0 0 -1.44,-0.41 z"
       style="fill:#ff5652"
       id="path73" />
    <path
       d="m 233.68,188.43 a 0.86,0.86 0 0 0 0.68,0.64 27.68,27.68 0 0 0 4.07,-0.2 1.36,1.36 0 0 0 1.07,-0.58 41.87,41.87 0 0 0 -5.82,0.14 z"
       style="fill:#ffffff"
       id="path74" />
    <polygon
       points="251.79,204.4 250.42,202.46 248.23,204.38 246.37,205.09 243.64,205.12 236.47,202.94 237.14,208.74 239.72,217.15 245.72,225.81 250.64,230.93 252.48,223.43 251.89,207.77 "
       style="fill:#407bff"
       id="polygon74" />
    <polygon
       points="251.79,204.4 250.42,202.46 248.23,204.38 246.37,205.09 243.64,205.12 236.47,202.94 237.14,208.74 239.72,217.15 245.72,225.81 250.64,230.93 252.48,223.43 251.89,207.77 "
       style="opacity:0.8;fill:#407bff"
       id="polygon75" />
    <polygon
       points="251.79,204.4 250.42,202.46 248.23,204.38 246.37,205.09 243.64,205.12 236.47,202.94 237.14,208.74 239.72,217.15 245.72,225.81 250.64,230.93 252.48,223.43 251.89,207.77 "
       style="opacity:0.5;fill:#ffffff"
       id="polygon76" />
    <path
       d="m 242.93,207.77 a 11.46,11.46 0 0 0 2.79,3.57 c 0,0 -1.2,8.56 0.64,14.56 l 4.28,5 1.25,-6.22 c 0,0 -1.91,-10 -4.48,-13.72 a 15.7,15.7 0 0 0 1.42,-4.1 l -1.53,-1.25 c 0,0 -2.13,1.52 -3.41,0.46 z"
       style="fill:#407bff"
       id="path76" />
    <path
       d="m 237,201.34 c 0,0 4,3.37 7.93,3.37 3.93,0 4.41,-4.14 4.41,-4.14 l 1.68,1.81 a 11.88,11.88 0 0 1 -1.37,6 l -4.14,-2.8 -2.81,4 a 16.88,16.88 0 0 1 -6.55,-5.91 z"
       style="fill:#407bff"
       id="path77" />
    <path
       d="m 237,201.34 c 0,0 4,3.37 7.93,3.37 3.93,0 4.41,-4.14 4.41,-4.14 l 1.68,1.81 a 11.88,11.88 0 0 1 -1.37,6 l -4.14,-2.8 -2.81,4 a 16.88,16.88 0 0 1 -6.55,-5.91 z"
       style="opacity:0.8;fill:#ffffff"
       id="path78" />
    <path
       d="m 237.69,200.57 c 0,0 -3.24,10 12.73,29.07 0,0 2.86,-23.37 -2.16,-29.81 l 3.49,1.38 3.64,5.5 -2.67,1.71 3.3,1.47 c 0,0 -0.47,7.57 -5.11,22.14 0,0 -10.5,-8.12 -17.36,-19.08 l 3.19,-2.55 -4.27,-0.67 1.9,-7.59 z"
       style="fill:#263238"
       id="path79" />
    <path
       d="m 237.69,200.57 c 0,0 -3.24,10 12.73,29.07 0,0 2.86,-23.37 -2.16,-29.81 l 3.49,1.38 3.64,5.5 -2.67,1.71 3.3,1.47 c 0,0 -0.47,7.57 -5.11,22.14 0,0 -10.5,-8.12 -17.36,-19.08 l 3.19,-2.55 -4.27,-0.67 1.9,-7.59 z"
       style="opacity:0.3"
       id="path80" />
    <path
       d="m 247,187 c 0,0 -2.56,1.32 -0.87,-3.66 1.69,-4.98 -0.57,-6.59 -0.88,-9 0,0 -14.56,0.5 -13.87,-5.93 0.69,-6.43 9.43,-1.32 9.43,-1.32 0,0 -0.66,-2.92 1.78,-3.25 3.27,-0.43 6.25,5.88 10.3,7.75 4.05,1.87 1.8,8.16 1.8,8.16 0,0 1.24,4.19 -6.17,12.2 a 0.46,0.46 0 0 1 -0.79,-0.24 z"
       style="fill:#263238"
       id="path81" />
    <path
       d="m 242.74,181 c -0.16,-0.11 -0.83,-0.44 -1.21,-0.62 a 5.47,5.47 0 0 0 -2.73,-0.85 2.76,2.76 0 0 0 -2,0.42 0.71,0.71 0 0 0 -0.11,0.17 0.75,0.75 0 0 0 -0.4,-0.17 1,1 0 0 0 -0.45,0.06 0.92,0.92 0 0 0 -0.09,-0.23 4.74,4.74 0 0 0 -3,-1.1 2.83,2.83 0 0 0 -2,0.42 1,1 0 0 0 -0.22,0.73 4.6,4.6 0 0 0 1.08,2.66 3.82,3.82 0 0 0 2.25,0.65 2.12,2.12 0 0 0 1,-0.2 3.39,3.39 0 0 0 1.07,-2 2.2,2.2 0 0 0 0,-0.44 0.58,0.58 0 0 1 0.28,-0.06 0.8,0.8 0 0 1 0.35,0.26 4.58,4.58 0 0 0 1.09,2.64 3.79,3.79 0 0 0 2.24,0.65 2.06,2.06 0 0 0 1,-0.2 v 0 a 3.42,3.42 0 0 0 1.07,-2 2.26,2.26 0 0 0 0,-0.63 3.41,3.41 0 0 1 0.46,0.26 66.4,66.4 0 0 1 5,4.9 l 0.36,-0.34 A 62.63,62.63 0 0 0 242.74,181 Z m -7.1,-0.11 a 3.07,3.07 0 0 1 -0.93,1.79 3.55,3.55 0 0 1 -2.88,-0.41 4.35,4.35 0 0 1 -1,-2.45 0.65,0.65 0 0 1 0.13,-0.5 2.13,2.13 0 0 1 1.4,-0.35 h 0.37 a 4.43,4.43 0 0 1 2.78,1 1.22,1.22 0 0 1 0.13,0.91 z m 6,0.84 a 3.17,3.17 0 0 1 -0.94,1.8 3.56,3.56 0 0 1 -2.87,-0.41 4.38,4.38 0 0 1 -1,-2.45 0.7,0.7 0 0 1 0.13,-0.51 2.23,2.23 0 0 1 1.41,-0.34 h 0.37 a 4.36,4.36 0 0 1 2.77,1 1.19,1.19 0 0 1 0.17,0.9 z"
       style="fill:#263238"
       id="path82" />
    <path
       d="m 252.26,188 a 6.11,6.11 0 0 1 -4.17,2.07 c -2.13,0.13 -2.76,-1.88 -1.79,-3.67 0.87,-1.59 3,-3.59 5,-2.89 a 2.73,2.73 0 0 1 0.96,4.49 z"
       style="fill:#ffb573"
       id="path83" />
    <path
       d="m 223.72,211 4.15,23.17 0.49,-0.61 a 57.11,57.11 0 0 0 -0.9,-23.25 l -1.26,0.67 z"
       style="opacity:0.4"
       id="path84" />
    <path
       d="m 197.45,228.6 -4.84,-3.89 a 33.86,33.86 0 0 0 -1.88,-3.83 c -0.65,-0.9 -2.06,-2.94 -3.16,-3.12 a 5.94,5.94 0 0 0 -4.29,2.14 c -0.79,1.35 -0.63,5 0.3,6.27 0.93,1.27 6.29,2.24 6.29,2.24 l 4.77,4.18 z"
       style="fill:#ffb573"
       id="path85" />
    <polygon
       points="190.09,229.8 194.69,233.62 198.26,228.17 194.07,224.97 "
       style="fill:#407bff"
       id="polygon85" />
    <polygon
       points="190.09,229.8 194.69,233.62 198.26,228.17 194.07,224.97 "
       style="opacity:0.8;fill:#ffffff"
       id="polygon86" />
    <path
       d="m 224.43,205.86 c -0.38,-0.45 -1.71,0.15 -2.05,0.63 -1.11,1.58 -7.35,16.83 -9.8,22.87 a 3,3 0 0 1 -3.57,1.75 70.6,70.6 0 0 1 -12.21,-4.51 l -5.37,4.9 c 0,0 14,11.16 21.68,11.16 7,0 13.63,-14.92 15,-22.54 a 17,17 0 0 0 -3.68,-14.26 z"
       style="fill:#263238"
       id="path86" />
    <path
       d="m 326.93,207.68 -24.17,-2.27 c 0,0 -6.42,10.06 -9.15,33 l 24.26,2.27 c 2.45,-20 7.81,-30.61 9.06,-33 z"
       style="fill:#407bff"
       id="path87" />
    <path
       d="m 326.93,207.68 -24.17,-2.27 c 0,0 -6.42,10.06 -9.15,33 l 24.26,2.27 c 2.45,-20 7.81,-30.61 9.06,-33 z"
       style="opacity:0.4;fill:#ffffff"
       id="path88" />
    <path
       d="m 326.93,207.68 -24.17,-2.27 c 0,0 -5.54,9.18 -8.27,32.07 l 24.25,2.28 c 2.45,-19.95 6.94,-29.69 8.19,-32.08 z"
       style="fill:#407bff"
       id="path89" />
    <path
       d="m 326.93,207.68 -24.17,-2.27 c 0,0 -5.54,9.18 -8.27,32.07 l 24.25,2.28 c 2.45,-19.95 6.94,-29.69 8.19,-32.08 z"
       style="opacity:0.7;fill:#ffffff"
       id="path90" />
    <path
       d="m 305.94,205.62 a 1.16,1.16 0 0 0 -1.63,-0.3 l -2.37,1.68 a 1.1747872,1.1747872 0 1 0 1.34,1.93 0.19,0.19 0 0 0 0.05,-0.27 0.2,0.2 0 0 0 -0.28,-0.05 0.78,0.78 0 0 1 -1.09,-0.2 0.8,0.8 0 0 1 0.2,-1.09 l 2.37,-1.64 a 0.79,0.79 0 0 1 1.09,0.2 0.78,0.78 0 0 1 -0.2,1.09 l -0.8,0.55 -0.45,0.32 -0.1,0.07 a 0.46,0.46 0 0 1 -0.62,-0.11 0.45,0.45 0 0 1 0.11,-0.62 l 1.09,-0.76 a 0.18,0.18 0 0 0 0.05,-0.27 0.19,0.19 0 0 0 -0.27,-0.05 l -1.09,0.76 a 0.83,0.83 0 0 0 -0.22,1.16 0.84,0.84 0 0 0 1.16,0.21 l 0.1,-0.07 0.46,-0.31 0.8,-0.56 a 1.16,1.16 0 0 0 0.3,-1.67 z"
       style="fill:#407bff"
       id="path91" />
  </g>
  <g
     id="freepik--character-1--inject-158"
     transform="matrix(1.0370778,0,0,1.0370778,-44.270727,-62.929865)">
    <path
       d="m 97.18,189.37 c 0,0 2.83,-1.88 1.47,-7.48 0,0 4.43,-1.18 5.16,-4.45 0,0 0.8,2.83 2.39,2.52 1.59,-0.31 0,-3.05 0,-3.05 0,0 2.53,2.52 3.81,2.3 1.28,-0.22 0,-2.3 0,-2.3 0,0 1.12,2.42 2.51,2 1.83,-0.53 -1.86,-4.35 -1.86,-4.35 0,0 2.66,4.2 3.42,3.19 0.76,-1.01 -4.72,-6.95 -12,-6 0,0 -8.92,-1.33 -11.3,7.69 0,0 -6.9,4.3 -3.45,10.86 0,0 -5.66,6.53 -2.21,9.95 0,0 -5.67,9.68 1.15,9.48 6.82,-0.2 26.58,-1.37 29.34,-3.28 2.76,-1.91 -0.87,-6.47 -0.87,-6.47 0,0 1.23,-1.35 0.92,-4.54 a 6.53,6.53 0 0 0 -2.06,-4.51 3.7,3.7 0 0 0 1,-4.45 c -2.86,-6.57 -14.06,-7 -14.06,-7 0,0 0.97,10.87 -3.36,9.89 z"
       style="fill:#263238"
       id="path92" />
    <path
       d="m 150.14,210.47 a 43.35,43.35 0 0 0 1,-5.55 l 1.4,-3.27 c 0,0 2.15,-3.86 1.53,-5 -0.74,-1.39 -4.56,-2.44 -6,-1.85 -1.29,0.52 -2.7,4.87 -2.7,4.87 l 0.86,4.43 a 32,32 0 0 1 -1,4.78 z"
       style="fill:#ce7a63"
       id="path93" />
    <path
       d="m 151,209 c -1.88,7.94 -5.49,19.55 -19.65,15.2 C 124,222 113,215.94 116.12,208.51 c 3.12,-7.43 4.33,3.92 16.73,7.91 9.38,3 10.33,-3.69 12,-9.37 z"
       style="fill:#407bff"
       id="path94" />
    <path
       d="m 98.69,201.34 a 16.67,16.67 0 0 1 9,0.54 c 0,0 1.73,4.19 -2,4.37 -3.73,0.18 -7,-3.59 -7,-3.59 z"
       style="fill:#407bff"
       id="path95" />
    <path
       d="m 97.8,203.76 c 0,0 2.39,-0.09 2.37,-3 a 60.76,60.76 0 0 0 -0.51,-6.53 l 7.07,0.63 c 0,0 -0.94,8.7 2.3,9.14 -0.03,0 -2.83,4.29 -11.23,-0.24 z"
       style="fill:#ce7a63"
       id="path96" />
    <path
       d="m 106.73,194.82 -7.07,-0.63 c 0,0 0.18,1.32 0.32,3 a 10.41,10.41 0 0 0 6.93,3.84 24.48,24.48 0 0 1 -0.18,-6.21 z"
       style="opacity:0.1"
       id="path97" />
    <path
       d="m 95.13,184.7 c 0.94,6.34 1.2,9 4.7,12 5.26,4.51 12.84,2 13.82,-4.52 0.87,-5.85 -0.81,-15.23 -7.26,-17.23 a 8.74,8.74 0 0 0 -11,5.71 8.64,8.64 0 0 0 -0.26,4.04 z"
       style="fill:#ce7a63"
       id="path98" />
    <path
       d="m 109.32,186.17 a 14,14 0 0 0 2.13,3.15 2.2,2.2 0 0 1 -1.81,0.51 z"
       style="fill:#ba4d3c"
       id="path99" />
    <path
       d="m 102.35,183.28 a 0.33,0.33 0 0 1 -0.12,-0.05 0.25,0.25 0 0 1 0,-0.36 v 0 a 3,3 0 0 1 2.45,-1.23 0.25,0.25 0 0 1 0.23,0.27 0.26,0.26 0 0 1 -0.27,0.24 2.47,2.47 0 0 0 -2,1 0.26,0.26 0 0 1 -0.29,0.13 z"
       style="fill:#263238"
       id="path100" />
    <path
       d="m 113.36,182.42 h -0.13 A 2.48,2.48 0 0 0 111,182 a 0.25,0.25 0 0 1 -0.33,-0.14 v 0 a 0.27,0.27 0 0 1 0.15,-0.34 3,3 0 0 1 2.7,0.45 0.27,0.27 0 0 1 0.08,0.36 0.28,0.28 0 0 1 -0.25,0.11 z"
       style="fill:#263238"
       id="path101" />
    <path
       d="m 105.58,185.62 c 0,0.52 0.36,0.92 0.7,0.89 0.34,-0.03 0.58,-0.47 0.53,-1 -0.05,-0.53 -0.36,-0.92 -0.69,-0.89 -0.33,0.03 -0.58,0.48 -0.54,1 z"
       style="fill:#263238"
       id="path102" />
    <path
       d="m 111.45,185.12 c 0,0.52 0.36,0.91 0.69,0.88 0.33,-0.03 0.58,-0.47 0.54,-1 -0.04,-0.53 -0.36,-0.91 -0.7,-0.88 -0.34,0.03 -0.58,0.48 -0.53,1 z"
       style="fill:#263238"
       id="path103" />
    <path
       d="m 111.84,184.17 1.21,-0.46 c 0,0 -0.56,1.02 -1.21,0.46 z"
       style="fill:#263238"
       id="path104" />
    <path
       d="m 106,184.67 1.22,-0.46 c 0,0 -0.59,1.02 -1.22,0.46 z"
       style="fill:#263238"
       id="path105" />
    <path
       d="m 108.41,192.86 a 5.26,5.26 0 0 0 0.89,-0.08 0.15,0.15 0 0 0 0.13,-0.18 v 0 a 0.15,0.15 0 0 0 -0.18,-0.13 4.23,4.23 0 0 1 -3.68,-1 0.15,0.15 0 0 0 -0.22,0 0.16,0.16 0 0 0 0,0.22 4.42,4.42 0 0 0 3.06,1.17 z"
       style="fill:#263238"
       id="path106" />
    <path
       d="m 127,307 c -0.09,24.68 -3.87,98.91 -3.87,98.91 h -7 c 0,0 -4.13,-30.15 -3.7,-56.66 0.16,-9.59 1,-16.92 1.09,-22.61 0.16,-10.26 -7.68,-45.42 -7.68,-45.42 l 21.26,2.6 c 0,0 -0.1,17.32 -0.1,23.18 z"
       style="fill:#ce7a63"
       id="path107" />
    <path
       d="m 126.67,323.52 c 0.14,-4.66 0.24,-8.88 0.3,-12.47 l -15.38,-0.7 a 132.75,132.75 0 0 1 1.89,14.83 29.22,29.22 0 0 0 13.19,-1.66 z"
       style="opacity:0.2"
       id="path108" />
    <path
       d="m 122.7,404 h -6.82 a 0.5,0.5 0 0 0 -0.51,0.51 l -1.07,6.55 a 1.33,1.33 0 0 0 1,1.25 h 0.22 c 2.81,-0.1 5.29,-0.3 8.8,-0.35 4.14,-0.07 3.2,0.44 8.08,0.43 3,0 2.78,-3.37 1.5,-3.51 -5.85,-0.62 -6.8,-2.34 -9.43,-4.35 A 3,3 0 0 0 122.7,404 Z"
       style="fill:#263238"
       id="path109" />
    <path
       d="M 103.32,308.78 90,406.2 h -6.89 c 0,0 -2.32,-28.38 -0.57,-52.73 0.65,-9.06 2.46,-17.08 3.42,-22.72 2,-11.79 1.64,-49.91 1.64,-49.91 l 18.37,3 z"
       style="fill:#ce7a63"
       id="path110" />
    <path
       d="m 101.21,324.82 2.31,-20.91 -15.8,-0.72 c -0.18,7 -0.49,13.86 -1,18.6 a 136.22,136.22 0 0 0 14.49,3.03 z"
       style="opacity:0.2"
       id="path111" />
    <path
       d="m 89.76,404 h -6.82 a 0.52,0.52 0 0 0 -0.52,0.51 l -1.19,6.55 a 1.3,1.3 0 0 0 1,1.25 h 0.23 c 2.81,-0.1 5.29,-0.3 8.8,-0.35 4.15,-0.07 3.19,0.44 8.08,0.43 2.94,0 2.83,-3.37 1.55,-3.51 -5.83,-0.62 -6.76,-2.34 -9.35,-4.35 A 3,3 0 0 0 89.76,404 Z"
       style="fill:#263238"
       id="path112" />
    <polygon
       points="100.33,208.73 97.92,204.61 96.67,203.29 98.65,202.66 103.81,206.25 105.7,206.25 107.29,205.55 109.14,203.7 110.98,204.46 112.3,209.53 112.3,211.07 112.86,212.94 114.48,219.22 115.71,227.32 115.71,233.42 115.25,239.97 113.53,236.56 108.66,227.46 104.61,215.99 103.42,211.99 "
       style="fill:#407bff"
       id="polygon112" />
    <polygon
       points="100.33,208.73 97.92,204.61 96.67,203.29 98.65,202.66 103.81,206.25 105.7,206.25 107.29,205.55 109.14,203.7 110.98,204.46 112.3,209.53 112.3,211.07 112.86,212.94 114.48,219.22 115.71,227.32 115.71,233.42 115.25,239.97 113.53,236.56 108.66,227.46 104.61,215.99 103.42,211.99 "
       style="fill:#407bff"
       id="polygon113" />
    <polygon
       points="100.33,208.73 97.92,204.61 96.67,203.29 98.65,202.66 103.81,206.25 105.7,206.25 107.29,205.55 109.14,203.7 110.98,204.46 112.3,209.53 112.3,211.07 112.86,212.94 114.48,219.22 115.71,227.32 115.71,233.42 115.25,239.97 113.53,236.56 108.66,227.46 104.61,215.99 103.42,211.99 "
       style="opacity:0.5;fill:#ffffff"
       id="polygon114" />
    <path
       d="m 90.51,256.62 c 0,0 -5.07,13.92 -5.3,22.43 -0.21,8.1 0.66,17.52 0.53,25.11 a 94.72,94.72 0 0 1 -1.29,14.24 c 0,0 27.39,8.71 45.18,1.06 a 265.66,265.66 0 0 0 -4.19,-62.84 l -12.58,0.68 z"
       style="fill:#263238"
       id="path114" />
    <path
       d="m 87.79,208.34 6.21,32.4 a 234.93,234.93 0 0 0 -6.83,23.18 c 0,0 19,6.32 24.57,3.55 1.78,-0.89 3.83,-7 3.83,-7 0,0 3.19,6.43 5.32,7 1.75,0.43 6.55,-3 6.55,-3 0,0 -2.24,-14.53 -5,-24.45 l 1.34,-11 c 0,0 2.6,-6.11 -2.4,-17 l -1.44,-4.39 a 2.36,2.36 0 0 0 -1.14,-1.36 35.86,35.86 0 0 0 -9.16,-3.23 c 0,0 7,16.58 5.32,32.83 0,0 -6.82,-24.09 -17.73,-33.28 a 20.41,20.41 0 0 0 -7.78,2.42 3.22,3.22 0 0 0 -1.66,3.33 z"
       style="fill:#407bff"
       id="path115" />
    <path
       d="m 97.18,202.66 1.51,-1.32 c 0,0 4.1,4.48 6.83,4.33 2.73,-0.15 2.18,-3.79 2.18,-3.79 l 1.89,1.23 0.84,0.78 -0.2,4.84 c 0,0 -2.39,-2.8 -3.8,-2.39 -1.41,0.41 -2.62,3.42 -2.62,3.42 0,0 -3.17,-1.76 -6.63,-7.1 z"
       style="fill:#407bff"
       id="path116" />
    <path
       d="m 97.18,202.66 1.51,-1.32 c 0,0 4.1,4.48 6.83,4.33 2.73,-0.15 2.18,-3.79 2.18,-3.79 l 1.89,1.23 0.84,0.78 -0.2,4.84 c 0,0 -2.39,-2.8 -3.8,-2.39 -1.41,0.41 -2.62,3.42 -2.62,3.42 0,0 -3.17,-1.76 -6.63,-7.1 z"
       style="opacity:0.8;fill:#ffffff"
       id="path117" />
    <path
       d="m 115.39,240.83 c 0,0 1.41,-8.46 1.14,-27.12 l -3.67,-2 2.3,-0.64 a 64,64 0 0 0 -4,-7.58 c -0.52,-0.13 -1,-0.26 -1.59,-0.38 0,0 7,19.45 5.32,35.7 0,0 -6.82,-27 -17.73,-36.15 0,0 -0.51,0 -1.33,0.18 A 15,15 0 0 1 100,212.9 h 2.93 l -2.39,2.18 z"
       style="fill:#407bff"
       id="path118" />
    <path
       d="m 115.39,240.83 c 0,0 2.47,-7.4 2.2,-26.05 l -4.73,-3.07 3.37,-0.64 -5,-7.58 c -0.52,-0.13 -1,-0.26 -1.59,-0.38 0,0 7,19.45 5.32,35.7 0,0 -6.82,-27 -17.73,-36.15 0,0 -0.51,0 -1.33,0.18 1.38,1.45 1.94,4.93 2,10.06 h 5.05 l -3.45,4.3 z"
       style="opacity:0.2"
       id="path119" />
    <path
       d="m 109.88,253.72 15.52,-0.4 a 1.23,1.23 0 0 0 1.16,-1.1 l 1.88,-23.87 a 1,1 0 0 0 -1,-1 l -15.52,0.4 a 1.23,1.23 0 0 0 -1.16,1.11 l -1.89,23.86 a 1,1 0 0 0 1.01,1 z"
       style="fill:#263238"
       id="path120" />
    <path
       d="m 117.69,229.44 3.72,-0.09 a 1.52,1.52 0 0 0 1.44,-1.38 l 0.18,-2.2 -6.4,0.17 -0.17,2.2 a 1.17,1.17 0 0 0 1.23,1.3 z"
       style="fill:#263238"
       id="path121" />
    <path
       d="m 117.69,229.44 3.72,-0.09 a 1.52,1.52 0 0 0 1.44,-1.38 l 0.18,-2.2 -6.4,0.17 -0.17,2.2 a 1.17,1.17 0 0 0 1.23,1.3 z"
       style="opacity:0.7;fill:#ffffff"
       id="path122" />
    <path
       d="m 111.23,227.8 h 0.73 a 1.22,1.22 0 0 0 -1.16,1.1 l -1.89,23.87 a 1,1 0 0 0 1,1.05 h -0.73 a 1,1 0 0 1 -1,-1 l 1.89,-23.87 a 1.22,1.22 0 0 1 1.16,-1.15 z"
       style="fill:#263238"
       id="path123" />
    <path
       d="m 111.23,227.8 h 0.73 a 1.22,1.22 0 0 0 -1.16,1.1 l -1.89,23.87 a 1,1 0 0 0 1,1.05 h -0.73 a 1,1 0 0 1 -1,-1 l 1.89,-23.87 a 1.22,1.22 0 0 1 1.16,-1.15 z"
       style="opacity:0.7;fill:#ffffff"
       id="path124" />
    <path
       d="m 101.89,247.26 a 41.52,41.52 0 0 0 5.58,-0.71 l 3.54,0.39 c 0,0 4.33,0.93 5.26,0 1.11,-1.12 1,-5.08 0,-6.31 -0.88,-1.08 -5.45,-1.16 -5.45,-1.16 l -4,2.12 a 32.65,32.65 0 0 1 -4.87,0.4 z"
       style="fill:#ce7a63"
       id="path125" />
    <path
       d="m 102.46,247.71 c -8.14,0.52 -23.37,-0.7 -23.35,-15.51 0,-7.63 3.81,-28.22 11.83,-27.4 8.02,0.82 -3.53,9.14 -3.53,26.35 0,9.85 9.2,10.2 15.12,10.14 z"
       style="fill:#407bff"
       id="path126" />
    <path
       d="m 102.46,247.71 c -8.14,0.52 -23.37,-0.7 -23.35,-15.51 0,-7.63 3.81,-28.22 11.83,-27.4 8.02,0.82 -3.53,9.14 -3.53,26.35 0,9.85 9.2,10.2 15.12,10.14 z"
       style="opacity:0.1"
       id="path127" />
    <path
       d="m 97.18,189.37 c 0,0 2.83,-1.88 1.47,-7.48 0,0 4.43,-1.18 5.16,-4.45 0,0 0.8,2.83 2.39,2.52 1.59,-0.31 0,-3.05 0,-3.05 0,0 2.53,2.52 3.81,2.3 1.28,-0.22 0,-2.3 0,-2.3 0,0 1.13,2.45 2.51,2 1.38,-0.45 -0.58,-2.67 -0.58,-2.67 0,0 1.79,2.54 2.19,1.33 0.4,-1.21 -4.77,-6.77 -12,-5.8 0,0 -8.92,-1.33 -11.3,7.69 0,0 -3.8,2.48 -1.92,8.38 0,0.01 9.16,1.73 8.27,1.53 z"
       style="fill:#263238"
       id="path128" />
    <path
       d="m 94.05,189.87 a 4.68,4.68 0 0 0 2.49,2.57 c 1.51,0.64 2.48,-0.66 2.23,-2.2 -0.22,-1.38 -1.27,-3.38 -2.87,-3.37 a 2.11,2.11 0 0 0 -2,2.19 2.28,2.28 0 0 0 0.15,0.81 z"
       style="fill:#ce7a63"
       id="path129" />
  </g>
  <g
     id="freepik--speech-bubbles--inject-158"
     transform="matrix(1.0370778,0,0,1.0370778,-44.270727,-62.929865)">
    <path
       d="m 380.27,134.46 c 0,-8.09 -8,-14.66 -17.81,-14.66 -9.81,0 -17.81,6.57 -17.81,14.66 0,8.09 8,14.66 17.81,14.66 a 21,21 0 0 0 2.89,-0.2 l 7.27,3.77 -0.72,-5.8 c 5.03,-2.59 8.37,-7.19 8.37,-12.43 z"
       style="fill:#407bff"
       id="path130" />
    <path
       d="m 380.27,134.46 c 0,-8.09 -8,-14.66 -17.81,-14.66 -9.81,0 -17.81,6.57 -17.81,14.66 0,8.09 8,14.66 17.81,14.66 a 21,21 0 0 0 2.89,-0.2 l 7.27,3.77 -0.72,-5.8 c 5.03,-2.59 8.37,-7.19 8.37,-12.43 z"
       style="opacity:0.5;fill:#ffffff"
       id="path131" />
    <path
       d="m 368.16,135.24 a 5.41,5.41 0 0 0 -5.5,-5.4 5.64,5.64 0 0 0 -5.31,5.24 5.42,5.42 0 0 0 2.06,4.41 3.61,3.61 0 0 1 1.38,2.28 v 0.13 a 1.31,1.31 0 0 0 1.3,1.12 h 1.28 a 1.33,1.33 0 0 0 1.31,-1.12 v -0.13 a 3.52,3.52 0 0 1 1.33,-2.26 5.37,5.37 0 0 0 2.15,-4.27 z"
       style="fill:#ffffff"
       id="path132" />
    <path
       d="m 363.05,145.31 h -0.6 a 1.45,1.45 0 0 1 -1.44,-1.45 v 0 a 0.46,0.46 0 0 1 0.46,-0.46 H 364 a 0.47,0.47 0 0 1 0.46,0.46 v 0 a 1.46,1.46 0 0 1 -1.41,1.45 z"
       style="fill:#407bff"
       id="path133" />
    <path
       d="m 363.05,145.31 h -0.6 a 1.45,1.45 0 0 1 -1.44,-1.45 v 0 a 0.46,0.46 0 0 1 0.46,-0.46 H 364 a 0.47,0.47 0 0 1 0.46,0.46 v 0 a 1.46,1.46 0 0 1 -1.41,1.45 z"
       style="opacity:0.2;fill:#ffffff"
       id="path134" />
    <polygon
       points="364.29,139.59 363.73,139.44 364.45,136.82 363.76,137.22 363.69,136.4 362.75,137.1 361.81,136.4 361.74,137.22 361.06,136.82 361.77,139.44 361.21,139.59 360.12,135.58 361.24,136.25 361.31,135.32 362.75,136.38 364.19,135.32 364.26,136.25 365.38,135.58 "
       style="fill:#407bff"
       id="polygon134" />
    <g
       style="opacity:0.5"
       id="g135">
      <polygon
         points="364.29,139.59 363.73,139.44 364.45,136.82 363.76,137.22 363.69,136.4 362.75,137.1 361.81,136.4 361.74,137.22 361.06,136.82 361.77,139.44 361.21,139.59 360.12,135.58 361.24,136.25 361.31,135.32 362.75,136.38 364.19,135.32 364.26,136.25 365.38,135.58 "
         style="fill:#ffffff"
         id="polygon135" />
    </g>
    <rect
       x="362.42001"
       y="124.12"
       width="0.66000003"
       height="4.54"
       style="fill:#ffffff"
       id="rect135" />
    <rect
       x="369.56"
       y="135.14"
       width="4.54"
       height="0.66000003"
       style="fill:#ffffff"
       id="rect136" />
    <rect
       x="351.39999"
       y="135.14"
       width="4.54"
       height="0.66000003"
       style="fill:#ffffff"
       id="rect137" />
    <rect
       x="366.89999"
       y="128.72"
       width="4.54"
       height="0.66000003"
       transform="rotate(-45,369.17179,129.04404)"
       style="fill:#ffffff"
       id="rect138" />
    <rect
       x="354.06"
       y="141.56"
       width="4.54"
       height="0.66000003"
       transform="rotate(-45,356.32998,141.88329)"
       style="fill:#ffffff"
       id="rect139" />
    <rect
       x="368.84"
       y="139.62"
       width="0.66000003"
       height="4.54"
       transform="rotate(-45,369.19465,141.89457)"
       style="fill:#ffffff"
       id="rect140" />
    <rect
       x="356"
       y="126.78"
       width="0.66000003"
       height="4.54"
       transform="rotate(-45,356.34333,129.04776)"
       style="fill:#ffffff"
       id="rect141" />
    <path
       d="m 99.3,141.65 c 0,-10.56 10.4,-19.12 23.23,-19.12 12.83,0 23.22,8.56 23.22,19.12 0,10.56 -10.4,19.11 -23.22,19.11 a 29.11,29.11 0 0 1 -3.77,-0.25 l -7.47,4.9 -1.07,-7.55 C 103.66,154.48 99.3,148.48 99.3,141.65 Z"
       style="fill:#407bff"
       id="path141" />
    <path
       d="m 99.3,141.65 c 0,-10.56 10.4,-19.12 23.23,-19.12 12.83,0 23.22,8.56 23.22,19.12 0,10.56 -10.4,19.11 -23.22,19.11 a 29.11,29.11 0 0 1 -3.77,-0.25 l -7.47,4.9 -1.07,-7.55 C 103.66,154.48 99.3,148.48 99.3,141.65 Z"
       style="opacity:0.5;fill:#ffffff"
       id="path142" />
    <path
       d="m 115.1,142.67 a 7.05,7.05 0 0 1 7.16,-7 7.38,7.38 0 0 1 6.94,6.84 7.05,7.05 0 0 1 -2.7,5.74 4.8,4.8 0 0 0 -1.79,3 v 0.17 a 1.72,1.72 0 0 1 -1.7,1.45 h -1.68 a 1.72,1.72 0 0 1 -1.7,-1.45 v -0.17 a 4.61,4.61 0 0 0 -1.74,-2.94 7,7 0 0 1 -2.79,-5.64 z"
       style="fill:#ffffff"
       id="path143" />
    <path
       d="m 121.74,153.31 h 0.81 a 1.87,1.87 0 0 1 1.87,1.87 v 0 a 0.59,0.59 0 0 1 -0.59,0.59 h -3.37 a 0.59,0.59 0 0 1 -0.59,-0.59 v 0 a 1.87,1.87 0 0 1 1.87,-1.87 z"
       transform="rotate(180,122.15,154.55)"
       style="fill:#407bff"
       id="path144" />
    <path
       d="m 121.74,153.31 h 0.81 a 1.87,1.87 0 0 1 1.87,1.87 v 0 a 0.59,0.59 0 0 1 -0.59,0.59 h -3.37 a 0.59,0.59 0 0 1 -0.59,-0.59 v 0 a 1.87,1.87 0 0 1 1.87,-1.87 z"
       transform="rotate(180,122.15,154.55)"
       style="opacity:0.2;fill:#ffffff"
       id="path145" />
    <polygon
       points="120.14,148.34 120.87,148.14 119.94,144.72 120.83,145.25 120.92,144.18 122.15,145.09 123.38,144.18 123.47,145.25 124.36,144.72 123.43,148.14 124.16,148.34 125.58,143.11 124.13,143.98 124.02,142.76 122.15,144.15 120.28,142.76 120.18,143.98 118.72,143.11 "
       style="fill:#407bff"
       id="polygon145" />
    <g
       style="opacity:0.5"
       id="g146">
      <polygon
         points="120.14,148.34 120.87,148.14 119.94,144.72 120.83,145.25 120.92,144.18 122.15,145.09 123.38,144.18 123.47,145.25 124.36,144.72 123.43,148.14 124.16,148.34 125.58,143.11 124.13,143.98 124.02,142.76 122.15,144.15 120.28,142.76 120.18,143.98 118.72,143.11 "
         style="fill:#ffffff"
         id="polygon146" />
    </g>
    <rect
       x="121.72"
       y="128.17"
       width="0.87"
       height="5.9200001"
       style="fill:#ffffff"
       id="rect146" />
    <rect
       x="107.35"
       y="142.53"
       width="5.9200001"
       height="0.87"
       style="fill:#ffffff"
       id="rect147" />
    <rect
       x="131.03"
       y="142.53"
       width="5.9200001"
       height="0.87"
       style="fill:#ffffff"
       id="rect148" />
    <rect
       x="113.35"
       y="131.63"
       width="0.87"
       height="5.9200001"
       transform="rotate(-45,113.79503,134.60455)"
       style="fill:#ffffff"
       id="rect149" />
    <rect
       x="130.09"
       y="148.37"
       width="0.87"
       height="5.9200001"
       transform="rotate(-45,130.537,151.3398)"
       style="fill:#ffffff"
       id="rect150" />
    <rect
       x="110.82"
       y="150.89999"
       width="5.9200001"
       height="0.87"
       transform="rotate(-45,113.77071,151.32463)"
       style="fill:#ffffff"
       id="rect151" />
    <rect
       x="127.56"
       y="134.16"
       width="5.9200001"
       height="0.87"
       transform="rotate(-45,130.51803,134.58766)"
       style="fill:#ffffff"
       id="rect152" />
  </g>
  <g
     id="freepik--Desk--inject-158"
     transform="matrix(1.0370778,0,0,1.0370778,-44.270727,-62.929865)">
    <path
       d="m 197.75,293.71 a 1,1 0 1 1 0,-2 h 27.88 a 1,1 0 1 1 0,2 z"
       style="fill:#407bff"
       id="path152" />
    <path
       d="m 197.75,293.71 a 1,1 0 1 1 0,-2 h 27.88 a 1,1 0 1 1 0,2 z"
       style="opacity:0.5;fill:#ffffff"
       id="path153" />
    <path
       d="m 200.11,291.94 -3.71,-26.42 a 2.09,2.09 0 0 0 -2,-1.76 h -3.55 v 29.93 h 7.76 a 1.48,1.48 0 0 0 1.5,-1.75 z"
       style="fill:#407bff"
       id="path154" />
    <path
       d="m 200.11,291.94 -3.71,-26.42 a 2.09,2.09 0 0 0 -2,-1.76 h -3.55 v 29.93 h 7.76 a 1.48,1.48 0 0 0 1.5,-1.75 z"
       style="opacity:0.6;fill:#ffffff"
       id="path155" />
    <path
       d="m 197.07,293.69 h -31.54 a 2.08,2.08 0 0 1 -2,-1.75 l -3.71,-26.42 a 1.49,1.49 0 0 1 1.51,-1.76 h 31.53 a 2.1,2.1 0 0 1 2,1.76 l 3.71,26.42 a 1.49,1.49 0 0 1 -1.5,1.75 z"
       style="fill:#407bff"
       id="path156" />
    <path
       d="m 197.07,293.69 h -31.54 a 2.08,2.08 0 0 1 -2,-1.75 l -3.71,-26.42 a 1.49,1.49 0 0 1 1.51,-1.76 h 31.53 a 2.1,2.1 0 0 1 2,1.76 l 3.71,26.42 a 1.49,1.49 0 0 1 -1.5,1.75 z"
       style="opacity:0.5;fill:#ffffff"
       id="path157" />
    <path
       d="m 181.82,280.09 a 2.31,2.31 0 0 1 -2.34,2.72 3.23,3.23 0 0 1 -3.09,-2.72 2.3,2.3 0 0 1 2.33,-2.71 3.24,3.24 0 0 1 3.1,2.71 z"
       style="opacity:0.7;fill:#ffffff"
       id="path158" />
    <polygon
       points="337.16,300.23 340.62,300.23 343.14,412.4 340.53,412.4 "
       style="fill:#263238"
       id="polygon158" />
    <polygon
       points="337.16,300.23 340.62,300.23 343.14,412.4 340.53,412.4 "
       style="opacity:0.6;fill:#ffffff"
       id="polygon159" />
    <polygon
       points="303.76,412.4 307.01,305.35 340.4,305.35 342.84,412.4 345.58,412.4 345.58,300.23 300.99,300.23 300.99,412.4 "
       style="fill:#263238"
       id="polygon160" />
    <polygon
       points="303.76,412.4 307.01,305.35 340.4,305.35 342.84,412.4 345.58,412.4 345.58,300.23 300.99,300.23 300.99,412.4 "
       style="opacity:0.4;fill:#ffffff"
       id="polygon161" />
    <polygon
       points="297.53,300.23 300.99,300.23 300.99,412.4 298.38,412.4 "
       style="fill:#263238"
       id="polygon162" />
    <polygon
       points="297.53,300.23 300.99,300.23 300.99,412.4 298.38,412.4 "
       style="opacity:0.6;fill:#ffffff"
       id="polygon163" />
    <polygon
       points="195.27,300.23 198.72,300.23 201.25,412.4 198.63,412.4 "
       style="fill:#263238"
       id="polygon164" />
    <polygon
       points="195.27,300.23 198.72,300.23 201.25,412.4 198.63,412.4 "
       style="opacity:0.6;fill:#ffffff"
       id="polygon165" />
    <polygon
       points="161.86,412.4 165.11,305.35 198.5,305.35 200.94,412.4 203.68,412.4 203.68,300.23 159.09,300.23 159.09,412.4 "
       style="fill:#263238"
       id="polygon166" />
    <polygon
       points="161.86,412.4 165.11,305.35 198.5,305.35 200.94,412.4 203.68,412.4 203.68,300.23 159.09,300.23 159.09,412.4 "
       style="opacity:0.4;fill:#ffffff"
       id="polygon167" />
    <polygon
       points="155.64,300.23 159.09,300.23 159.09,412.4 156.48,412.4 "
       style="fill:#263238"
       id="polygon168" />
    <polygon
       points="155.64,300.23 159.09,300.23 159.09,412.4 156.48,412.4 "
       style="opacity:0.6;fill:#ffffff"
       id="polygon169" />
    <rect
       x="151.06"
       y="293.78"
       width="147.77"
       height="6.4499998"
       style="fill:#263238"
       id="rect169" />
    <rect
       x="151.06"
       y="293.78"
       width="147.77"
       height="6.4499998"
       style="opacity:0.4;fill:#ffffff"
       id="rect170" />
    <rect
       x="294.81"
       y="293.78"
       width="55.34"
       height="6.4499998"
       style="fill:#263238"
       id="rect171" />
    <rect
       x="294.81"
       y="293.78"
       width="55.34"
       height="6.4499998"
       style="opacity:0.3;fill:#ffffff"
       id="rect172" />
    <path
       d="m 322.37,293.94 h -36.65 a 2.08,2.08 0 0 1 -2,-1.75 L 280,265.86 a 1.48,1.48 0 0 1 1.5,-1.75 h 36.66 a 2.08,2.08 0 0 1 2,1.75 l 3.7,26.33 a 1.49,1.49 0 0 1 -1.49,1.75 z"
       style="fill:#407bff"
       id="path172" />
    <path
       d="m 322.37,293.94 h -36.65 a 2.08,2.08 0 0 1 -2,-1.75 L 280,265.86 a 1.48,1.48 0 0 1 1.5,-1.75 h 36.66 a 2.08,2.08 0 0 1 2,1.75 l 3.7,26.33 a 1.49,1.49 0 0 1 -1.49,1.75 z"
       style="opacity:0.5;fill:#ffffff"
       id="path173" />
    <path
       d="m 320.08,290 -32.57,-0.15 a 1.93,1.93 0 0 1 -1.85,-1.62 l -2.89,-19.87 a 1.37,1.37 0 0 1 1.39,-1.62 l 32.57,0.15 a 1.92,1.92 0 0 1 1.84,1.62 l 2.89,19.87 a 1.37,1.37 0 0 1 -1.38,1.62 z"
       style="fill:#263238"
       id="path174" />
    <path
       d="m 345.21,293.82 h -44.36 a 1.23,1.23 0 0 1 -1.23,-1.23 v 0 a 1.23,1.23 0 0 1 1.23,-1.23 h 44.36 a 1.24,1.24 0 0 1 1.24,1.23 v 0 a 1.24,1.24 0 0 1 -1.24,1.23 z"
       style="fill:#407bff"
       id="path175" />
    <path
       d="m 345.21,293.82 h -44.36 a 1.23,1.23 0 0 1 -1.23,-1.23 v 0 a 1.23,1.23 0 0 1 1.23,-1.23 h 44.36 a 1.24,1.24 0 0 1 1.24,1.23 v 0 a 1.24,1.24 0 0 1 -1.24,1.23 z"
       style="opacity:0.7;fill:#ffffff"
       id="path176" />
    <path
       d="m 310.21,293.82 h -23.66 a 1.23,1.23 0 0 1 -1.23,-1.23 v 0 a 1.23,1.23 0 0 1 1.23,-1.23 h 23.66 a 1.23,1.23 0 0 1 1.24,1.23 v 0 a 1.23,1.23 0 0 1 -1.24,1.23 z"
       style="fill:#407bff"
       id="path177" />
    <path
       d="m 310.21,293.82 h -23.66 a 1.23,1.23 0 0 1 -1.23,-1.23 v 0 a 1.23,1.23 0 0 1 1.23,-1.23 h 23.66 a 1.23,1.23 0 0 1 1.24,1.23 v 0 a 1.23,1.23 0 0 1 -1.24,1.23 z"
       style="opacity:0.6;fill:#ffffff"
       id="path178" />
  </g>
</svg>
