<?xml version="1.0" encoding="UTF-8" standalone="no"?>
<svg
   viewBox="0 0 420 420"
   version="1.1"
   id="svg109"
   sodipodi:docname="Self confidence-rafiki.svg"
   width="420"
   height="420"
   inkscape:version="1.3.2 (091e20e, 2023-11-25, custom)"
   xmlns:inkscape="http://www.inkscape.org/namespaces/inkscape"
   xmlns:sodipodi="http://sodipodi.sourceforge.net/DTD/sodipodi-0.dtd"
   xmlns="http://www.w3.org/2000/svg"
   xmlns:svg="http://www.w3.org/2000/svg">
  <defs
     id="defs109" />
  <sodipodi:namedview
     id="namedview109"
     pagecolor="#ffffff"
     bordercolor="#000000"
     borderopacity="0.25"
     inkscape:showpageshadow="2"
     inkscape:pageopacity="0.0"
     inkscape:pagecheckerboard="0"
     inkscape:deskcolor="#d1d1d1"
     inkscape:zoom="1.092"
     inkscape:cx="250"
     inkscape:cy="249.54212"
     inkscape:window-width="1920"
     inkscape:window-height="1001"
     inkscape:window-x="-9"
     inkscape:window-y="-9"
     inkscape:window-maximized="1"
     inkscape:current-layer="svg109" />
  <g
     id="freepik--background-simple--inject-511"
     transform="matrix(1.0447342,0,0,1.0447342,-38.811969,-36.308046)">
    <g
       style="opacity:0.9"
       id="g1">
      <path
         d="m 317.4,253.31 c 17.58,7.95 39.17,4.8 55.22,-6.07 16.05,-10.87 26.73,-28.62 31.17,-47.46 4.44,-18.84 3,-38.67 -1.6,-57.41 -5.46,-22.05 -15.52,-43.22 -31,-59.84 C 355.71,65.91 334.7,53.51 312,51.89 253.15,47.7 211.48,79.35 211.9,148.23 c 0.23,37.57 -76.84,-2.21 -118.36,35.57 -51.7,47 -39.15,121.47 -15.7,163.9 21.91,39.65 65.74,56.34 91.47,60.65 23.25,3.88 69.39,8.11 102.41,-29.17 24.41,-27.56 25.4,-101.05 25.31,-106.78 -0.09,-5.73 1.34,-11.73 5.22,-16 a 13.11,13.11 0 0 1 15.15,-3.09 z"
         style="fill:#407bff"
         id="path1" />
    </g>
    <g
       style="opacity:0.9"
       id="g2">
      <path
         d="m 317.4,253.31 c 17.58,7.95 39.17,4.8 55.22,-6.07 16.05,-10.87 26.73,-28.62 31.17,-47.46 4.44,-18.84 3,-38.67 -1.6,-57.41 -5.46,-22.05 -15.52,-43.22 -31,-59.84 C 355.71,65.91 334.7,53.51 312,51.89 253.15,47.7 211.48,79.35 211.9,148.23 c 0.23,37.57 -76.84,-2.21 -118.36,35.57 -51.7,47 -39.15,121.47 -15.7,163.9 21.91,39.65 65.74,56.34 91.47,60.65 23.25,3.88 69.39,8.11 102.41,-29.17 24.41,-27.56 25.4,-101.05 25.31,-106.78 -0.09,-5.73 1.34,-11.73 5.22,-16 a 13.11,13.11 0 0 1 15.15,-3.09 z"
         style="fill:#ffffff"
         id="path2" />
    </g>
  </g>
  <g
     id="freepik--character-2--inject-511"
     transform="matrix(1.0447342,0,0,1.0447342,-38.811969,-36.308046)">
    <path
       d="m 268.93,190.58 c -3.59,-2.32 -5,-7.76 -5.39,-13.47 a 68.45,68.45 0 0 1 0.53,-13 c 0.11,-1.1 0.27,-2.16 0.46,-3.16 a 28.56,28.56 0 0 1 0.64,-3 l -32.61,-13.46 c 3.58,5.4 6.31,22.69 5.55,28.25 -0.83,6.24 -1.08,15 -4.32,17.26 z"
       style="fill:#407bff"
       id="path3" />
    <g
       style="opacity:0.7"
       id="g4">
      <path
         d="m 268.93,190.58 c -3.59,-2.32 -5,-7.76 -5.39,-13.47 a 68.45,68.45 0 0 1 0.53,-13 c 0.11,-1.1 0.27,-2.16 0.46,-3.16 a 28.56,28.56 0 0 1 0.64,-3 l -32.61,-13.46 c 3.58,5.4 6.31,22.69 5.55,28.25 -0.83,6.24 -1.08,15 -4.32,17.26 z"
         style="fill:#ffffff"
         id="path4" />
    </g>
    <path
       d="m 233.79,190 c -7,5 -4,12.86 1.69,19.28 a 72,72 0 0 0 7.05,6.91 c 10.9,9.33 28,5.37 33.09,-8.05 2.23,-5.95 1.46,-12.33 -6.69,-17.55 z"
       style="fill:#ffb573"
       id="path5" />
    <path
       d="m 263.54,177.11 a 68.45,68.45 0 0 1 0.53,-13 c 0.11,-1.1 0.27,-2.16 0.46,-3.16 l -25.21,-4.84 c 5.29,5.24 12.68,15.96 24.22,21 z"
       style="opacity:0.2;isolation:isolate"
       id="path6" />
    <path
       d="m 296.8,118.64 c -0.8,5.42 -8.23,14.23 -7.87,13.7 a 3,3 0 0 0 0.3,-1.87 20.44,20.44 0 0 0 -1.77,-7.06 c -0.63,3 -1.59,9.29 -4.58,9.34 -1.19,-2.24 -2.65,-4.28 -2.44,-6.82 -0.69,2.6 -1.33,5.22 -2,7.82 -5.8,-3.57 -9.47,-11.81 -8.26,-18.69 a 13.13,13.13 0 0 1 1.71,-4.72 19.25,19.25 0 0 1 3.87,-4.19 c 3.79,-3.32 5.33,-4.86 10.31,-4.86 10.87,0 11.53,11.93 10.73,17.35 z"
       style="fill:#407bff"
       id="path7" />
    <path
       d="m 296.8,118.64 c -0.8,5.42 -8.23,14.23 -7.87,13.7 a 3,3 0 0 0 0.3,-1.87 20.44,20.44 0 0 0 -1.77,-7.06 c -0.63,3 -1.59,9.29 -4.58,9.34 -1.19,-2.24 -2.65,-4.28 -2.44,-6.82 -0.69,2.6 -1.33,5.22 -2,7.82 -5.8,-3.57 -9.47,-11.81 -8.26,-18.69 a 13.13,13.13 0 0 1 1.71,-4.72 19.25,19.25 0 0 1 3.87,-4.19 c 3.79,-3.32 5.33,-4.86 10.31,-4.86 10.87,0 11.53,11.93 10.73,17.35 z"
       style="opacity:0.3;isolation:isolate"
       id="path8" />
    <path
       d="m 291.17,145.18 c -4.05,22.07 -30.47,33.71 -47.91,17.9 -10.07,-9.11 -11.67,-20 -13.51,-36.92 -0.29,-2.57 -0.58,-5.27 -0.9,-8.14 a 30.44,30.44 0 0 1 1.34,-13.27 27.4,27.4 0 0 1 2.28,-5.11 30,30 0 0 1 35.83,-13.84 c 21.86,7.36 26.54,39.52 22.87,59.38 z"
       style="fill:#407bff"
       id="path9" />
    <path
       d="m 291.17,145.18 c -4.05,22.07 -30.47,33.71 -47.91,17.9 -10.07,-9.11 -11.67,-20 -13.51,-36.92 -0.29,-2.57 -0.58,-5.27 -0.9,-8.14 a 30.44,30.44 0 0 1 1.34,-13.27 27.4,27.4 0 0 1 2.28,-5.11 30,30 0 0 1 35.83,-13.84 c 21.86,7.36 26.54,39.52 22.87,59.38 z"
       style="opacity:0.7;fill:#ffffff"
       id="path10" />
    <path
       d="m 263.89,118.67 c 1.16,-0.08 2.17,1.32 2.26,3.09 0.09,1.77 -0.61,3.27 -1.91,3.34 -1.3,0.07 -2.32,-1.31 -2.42,-3.1 -0.1,-1.79 0.92,-3.26 2.07,-3.33 z"
       style="fill:#407bff"
       id="path11" />
    <path
       d="m 263.89,118.67 c 1.16,-0.08 2.17,1.32 2.26,3.09 0.09,1.77 -0.61,3.27 -1.91,3.34 -1.3,0.07 -2.32,-1.31 -2.42,-3.1 -0.1,-1.79 0.92,-3.26 2.07,-3.33 z"
       style="opacity:0.3;isolation:isolate"
       id="path12" />
    <path
       d="m 283.69,118.49 c 1.16,-0.08 2.17,1.3 2.27,3.07 0.1,1.77 -0.74,3.26 -1.92,3.34 -1.18,0.08 -2.19,-1.3 -2.29,-3.07 -0.1,-1.77 0.79,-3.27 1.94,-3.34 z"
       style="fill:#407bff"
       id="path13" />
    <path
       d="m 283.69,118.49 c 1.16,-0.08 2.17,1.3 2.27,3.07 0.1,1.77 -0.74,3.26 -1.92,3.34 -1.18,0.08 -2.19,-1.3 -2.29,-3.07 -0.1,-1.77 0.79,-3.27 1.94,-3.34 z"
       style="opacity:0.3;isolation:isolate"
       id="path14" />
    <path
       d="m 275.36,139.28 c 3,0.31 8.47,-1.51 10.64,-3.64 -4.13,-4.09 -8.74,-8.69 -11.57,-13.76 z"
       style="fill:#407bff"
       id="path15" />
    <path
       d="m 275.36,139.28 c 3,0.31 8.47,-1.51 10.64,-3.64 -4.13,-4.09 -8.74,-8.69 -11.57,-13.76 z"
       style="opacity:0.5;fill:#ffffff"
       id="path16" />
    <path
       d="m 260.58,111.71 a 8.42,8.42 0 0 1 7.3,2.11 v 0 a 1,1 0 0 0 0.21,0.25 1.0494046,1.0494046 0 1 0 1.37,-1.59 10.38,10.38 0 0 0 -9.09,-2.8 1,1 0 0 0 -0.88,1.18 0.91,0.91 0 0 0 0.22,0.49 1.07,1.07 0 0 0 0.87,0.36 z"
       style="fill:#407bff"
       id="path17" />
    <path
       d="m 260.58,111.71 a 8.42,8.42 0 0 1 7.3,2.11 v 0 a 1,1 0 0 0 0.21,0.25 1.0494046,1.0494046 0 1 0 1.37,-1.59 10.38,10.38 0 0 0 -9.09,-2.8 1,1 0 0 0 -0.88,1.18 0.91,0.91 0 0 0 0.22,0.49 1.07,1.07 0 0 0 0.87,0.36 z"
       style="opacity:0.3;isolation:isolate"
       id="path18" />
    <path
       d="m 290.92,109.59 v 0 a 1.06,1.06 0 0 0 -1.06,-1 10.21,10.21 0 0 0 -8.51,4.19 v 0 a 1,1 0 0 0 0.31,1.41 h 0.07 a 1,1 0 0 0 1.37,-0.34 8.25,8.25 0 0 1 6.78,-3.24 1,1 0 0 0 0.88,-0.45 1.34,1.34 0 0 0 0.16,-0.57 z"
       style="fill:#407bff"
       id="path19" />
    <path
       d="m 290.92,109.59 v 0 a 1.06,1.06 0 0 0 -1.06,-1 10.21,10.21 0 0 0 -8.51,4.19 v 0 a 1,1 0 0 0 0.31,1.41 h 0.07 a 1,1 0 0 0 1.37,-0.34 8.25,8.25 0 0 1 6.78,-3.24 1,1 0 0 0 0.88,-0.45 1.34,1.34 0 0 0 0.16,-0.57 z"
       style="opacity:0.3;isolation:isolate"
       id="path20" />
    <path
       d="m 241.27,158.35 a 17.9,17.9 0 0 1 -7.37,-3.24 c 0,2.93 -2,8 -2,8 -9.32,-3.07 -17,-21.71 -18,-27.89 -5.18,9.63 -4.73,4.09 -5.13,0 -0.58,-5.89 -0.73,-12 1.28,-17.55 2.01,-5.55 6.59,-10.52 12.43,-11.48 a 6.11,6.11 0 0 1 5.61,2.65 16.22,16.22 0 0 1 1.91,5.76 c 2.73,14.61 2.61,31.67 11.27,43.75 z"
       style="fill:#407bff"
       id="path21" />
    <path
       d="m 241.27,158.35 a 17.9,17.9 0 0 1 -7.37,-3.24 c 0,2.93 -2,8 -2,8 -9.32,-3.07 -17,-21.71 -18,-27.89 -5.18,9.63 -4.73,4.09 -5.13,0 -0.58,-5.89 -0.73,-12 1.28,-17.55 2.01,-5.55 6.59,-10.52 12.43,-11.48 a 6.11,6.11 0 0 1 5.61,2.65 16.22,16.22 0 0 1 1.91,5.76 c 2.73,14.61 2.61,31.67 11.27,43.75 z"
       style="opacity:0.3;isolation:isolate"
       id="path22" />
    <path
       d="m 228.06,124.85 c 7.13,0.16 11.48,9.15 12.24,15.3 0.89,6.85 -3.71,12.48 -10.32,9.45 a 20.41,20.41 0 0 1 -10.65,-11.7 c -2.21,-6.36 1.59,-13.2 8.73,-13.05 z"
       style="fill:#407bff"
       id="path23" />
    <path
       d="m 228.06,124.85 c 7.13,0.16 11.48,9.15 12.24,15.3 0.89,6.85 -3.71,12.48 -10.32,9.45 a 20.41,20.41 0 0 1 -10.65,-11.7 c -2.21,-6.36 1.59,-13.2 8.73,-13.05 z"
       style="opacity:0.7;fill:#ffffff"
       id="path24" />
    <path
       d="m 242.34,103.88 a 18.42,18.42 0 0 1 4.74,15.12 c -0.83,5.42 -8.5,14.22 -8.14,13.69 a 3,3 0 0 0 0.32,-1.87 20.1,20.1 0 0 0 -1.84,-7.06 c -0.65,3 -1.64,9.29 -4.73,9.33 -1.23,-2.23 -2.74,-4.27 -2.53,-6.82 -0.71,2.61 -1.37,5.23 -2.08,7.83 -6,-3.58 -9.8,-11.82 -8.56,-18.7 a 12.87,12.87 0 0 1 1.77,-4.72 19.8,19.8 0 0 1 4,-4.19 c 3.92,-3.32 9.11,-6.63 13.84,-4.64 0.68,0.32 3.39,1.31 3.21,2.03 z"
       style="fill:#407bff"
       id="path25" />
    <path
       d="m 242.34,103.88 a 18.42,18.42 0 0 1 4.74,15.12 c -0.83,5.42 -8.5,14.22 -8.14,13.69 a 3,3 0 0 0 0.32,-1.87 20.1,20.1 0 0 0 -1.84,-7.06 c -0.65,3 -1.64,9.29 -4.73,9.33 -1.23,-2.23 -2.74,-4.27 -2.53,-6.82 -0.71,2.61 -1.37,5.23 -2.08,7.83 -6,-3.58 -9.8,-11.82 -8.56,-18.7 a 12.87,12.87 0 0 1 1.77,-4.72 19.8,19.8 0 0 1 4,-4.19 c 3.92,-3.32 9.11,-6.63 13.84,-4.64 0.68,0.32 3.39,1.31 3.21,2.03 z"
       style="opacity:0.3;isolation:isolate"
       id="path26" />
    <path
       d="m 281,145.34 c 0,0 -6.11,-2.48 -24.12,-4.63 1,6.54 5,9.3 14.21,10.3 9.21,1 9.91,-5.67 9.91,-5.67 z"
       style="fill:#263238"
       id="path27" />
    <path
       d="m 280.18,145.11 a 4.43,4.43 0 0 1 -3.39,2.78 81.38,81.38 0 0 1 -15.65,-3.48 4.67,4.67 0 0 1 -3.52,-3.54 125.51,125.51 0 0 1 22.56,4.24 z"
       style="fill:#ffffff"
       id="path28" />
    <path
       d="m 276.43,147.35 a 47.41,47.41 0 0 0 -14.22,-3.35 7.6,7.6 0 0 0 -3.77,1.5 c 2,3.24 6,4.85 12.57,5.59 a 10.48,10.48 0 0 0 7.18,-1.31 11.2,11.2 0 0 0 -1.76,-2.43 z"
       style="fill:#ffffff"
       id="path29" />
    <path
       d="m 292.75,188.49 a 40.57,40.57 0 0 1 -7.85,20 c -0.32,0.43 -0.65,0.86 -1,1.28 -9.72,12.31 -27.19,16.13 -41.72,9.66 A 85.64,85.64 0 0 1 229,212.29 c -8.24,-5.54 -15.35,-13.24 -18.7,-22.28 l 25.55,-3.29 17.47,-2.25 11.94,1.22 z"
       style="fill:#ffb573"
       id="path30" />
    <path
       d="m 166.42,204.87 c -1,75 -56.35,140 -62.06,214.83 H 379.07 A 566.8,566.8 0 0 1 328.47,234.2 L 324.22,190 H 183.63 c 0,0 -17.11,7.53 -17.21,14.87 z"
       style="fill:#407bff"
       id="path31" />
    <path
       d="m 166.42,204.87 c -1,75 -56.35,140 -62.06,214.83 H 379.07 A 566.8,566.8 0 0 1 328.47,234.2 L 324.22,190 H 183.63 c 0,0 -17.11,7.53 -17.21,14.87 z"
       style="opacity:0.6;fill:#ffffff"
       id="path32" />
    <path
       d="m 138.54,419.6 c 0,0 -1.6,-77.23 24,-157.13 25.6,-79.9 -6.54,23.96 -1.54,116.53 1.42,26.69 8.41,41 8.41,41 z"
       style="opacity:0.2;fill:#ffffff"
       id="path33" />
    <path
       d="m 353.86,420 c 0,0 -33.56,-77.83 -39.59,-180.56 0,0 -8.22,90.91 20.14,180.26 z"
       style="opacity:0.2;fill:#ffffff"
       id="path34" />
    <path
       d="m 344.89,177.18 a 3.07,3.07 0 0 1 0.42,-0.17 l -0.16,0.07 z"
       style="fill:#407bff"
       id="path35" />
    <path
       d="m 347.1,176.36 -0.71,0.26 -0.58,0.21 h -0.09 l -0.41,0.15 c 0.57,-0.2 1.17,-0.41 1.79,-0.62 z"
       style="fill:#407bff"
       id="path36" />
    <path
       d="m 418.82,180.34 c 0,27.44 -49.24,44.71 -71.21,51 -20.84,7 -33.34,8.05 -33.34,8.05 -0.77,-7.25 -16.49,-49.8 -16.49,-49.8 0,0 9.4,-4 16.14,-3.4 h 0.17 a 38.74,38.74 0 0 0 22.61,-5.18 57.63,57.63 0 0 1 7.74,-3.73 l 0.45,-0.17 0.26,-0.1 0.57,-0.22 h 0.09 l 0.58,-0.21 0.71,-0.26 0.83,-0.27 0.25,-0.08 0.26,-0.08 0.19,-0.05 h 0.07 a 54.53,54.53 0 0 1 5.91,-1.36 28.84,28.84 0 0 1 17.34,2 6.91,6.91 0 0 0 6.58,-0.27 c 1,-0.64 1.43,-1.33 0.47,-1.87 l -46.74,-53.46 14.25,-7.83 c 0,0 72.31,38.21 72.31,67.29 z"
       style="fill:#407bff"
       id="path37" />
    <path
       d="m 418.82,180.34 c 0,27.44 -49.24,44.71 -71.21,51 -20.84,7 -33.34,8.05 -33.34,8.05 -0.77,-7.25 -16.49,-49.8 -16.49,-49.8 0,0 9.4,-4 16.14,-3.4 h 0.17 a 38.74,38.74 0 0 0 22.61,-5.18 57.63,57.63 0 0 1 7.74,-3.73 l 0.45,-0.17 0.26,-0.1 0.57,-0.22 h 0.09 l 0.58,-0.21 0.71,-0.26 0.83,-0.27 0.25,-0.08 0.26,-0.08 0.19,-0.05 h 0.07 a 54.53,54.53 0 0 1 5.91,-1.36 28.84,28.84 0 0 1 17.34,2 6.91,6.91 0 0 0 6.58,-0.27 c 1,-0.64 1.43,-1.33 0.47,-1.87 l -46.74,-53.46 14.25,-7.83 c 0,0 72.31,38.21 72.31,67.29 z"
       style="fill:#407bff"
       id="path38" />
    <g
       style="opacity:0.3"
       id="g39">
      <path
         d="m 418.82,180.34 c 0,27.44 -49.24,44.71 -71.21,51 -20.84,7 -33.34,8.05 -33.34,8.05 -0.77,-7.25 -16.49,-49.8 -16.49,-49.8 0,0 9.4,-4 16.14,-3.4 h 0.17 a 38.74,38.74 0 0 0 22.61,-5.18 57.63,57.63 0 0 1 7.74,-3.73 l 0.45,-0.17 0.26,-0.1 0.57,-0.22 h 0.09 l 0.58,-0.21 0.71,-0.26 0.83,-0.27 0.25,-0.08 0.26,-0.08 0.19,-0.05 h 0.07 a 54.53,54.53 0 0 1 5.91,-1.36 28.84,28.84 0 0 1 17.34,2 6.91,6.91 0 0 0 6.58,-0.27 c 1,-0.64 1.43,-1.33 0.47,-1.87 l -46.74,-53.46 14.25,-7.83 c 0,0 72.31,38.21 72.31,67.29 z"
         style="fill:#ffffff"
         id="path39" />
    </g>
    <path
       d="m 336.11,122.27 -19.92,-7.89 -12,-16 17.24,-3.83 16.3,8.45 9.78,10.64 a 4,4 0 0 1 -1.72,6.51 l -7,2.23 a 4,4 0 0 1 -2.68,-0.11 z"
       style="fill:#407bff"
       id="path40" />
    <path
       d="m 336.11,122.27 -19.92,-7.89 -12,-16 17.24,-3.83 16.3,8.45 9.78,10.64 a 4,4 0 0 1 -1.72,6.51 l -7,2.23 a 4,4 0 0 1 -2.68,-0.11 z"
       style="opacity:0.7;fill:#ffffff"
       id="path41" />
    <path
       d="m 323.07,217.57 2,20.23 c 0,0 29.49,-6.84 46.16,-14.47 l -13.39,0.73 A 65.1,65.1 0 0 1 325.63,218 Z"
       style="opacity:0.2;isolation:isolate"
       id="path42" />
    <path
       d="m 326.6,237.33 c -0.29,64.39 -12.12,70.47 -11.56,125.89 0,0 -111.49,0.45 -115.27,0.55 -9,-74.58 -18.17,-78 -15.75,-135.27 -1.17,-18.81 9.5,-35.35 20.23,-37.5 l 49.09,-6.53 47.22,5 c 12,1.72 22.85,11.18 26.04,47.86 z"
       style="fill:#407bff"
       id="path43" />
    <path
       d="m 326.6,237.33 c -0.29,64.39 -12.12,70.47 -11.56,125.89 0,0 -111.49,0.45 -115.27,0.55 -9,-74.58 -18.17,-78 -15.75,-135.27 -1.17,-18.81 9.5,-35.35 20.23,-37.5 l 49.09,-6.53 47.22,5 c 12,1.72 22.85,11.18 26.04,47.86 z"
       style="opacity:0.3;fill:#ffffff"
       id="path44" />
    <path
       d="m 246.08,111.58 c -3,-6.6 -7,-9.79 -4.67,-9.43 6.26,1 10.09,-4.51 14.69,-1.41 2.24,2.56 -0.34,7.32 -0.45,7.06 2.3,1.09 5.17,0.23 7.06,-1.45 1.89,-1.68 2.55,-4.62 3.48,-7 a 13.68,13.68 0 0 1 -0.18,7.79 c 1.65,1.31 5.05,-1.15 6.6,-2.58 A 15,15 0 0 0 276,98.8 c 0.59,2.3 1.05,4.64 -0.6,7.41 2.34,0.13 5.41,-0.59 6.95,-2.34 a 8.35,8.35 0 0 0 2,-6.75 c 0.53,1.18 0.61,6 -0.44,6.81 4,-1.31 7.71,-6.31 7.5,-10.48 A 13.07,13.07 0 0 0 284.88,83.3 c -1.79,-1.07 -3.78,-1.77 -5.66,-2.69 -2.89,-1.42 -21.25,-15.12 -48.21,0.5 -16.73,9.7 -13.46,29 -11.47,31.1 2.47,2.59 6.36,3.46 9.95,3.1 3.59,-0.36 17.37,-1.98 16.59,-3.73 z"
       style="fill:#407bff"
       id="path45" />
    <path
       d="m 246.08,111.58 c -3,-6.6 -7,-9.79 -4.67,-9.43 6.26,1 10.09,-4.51 14.69,-1.41 2.24,2.56 -0.34,7.32 -0.45,7.06 2.3,1.09 5.17,0.23 7.06,-1.45 1.89,-1.68 2.55,-4.62 3.48,-7 a 13.68,13.68 0 0 1 -0.18,7.79 c 1.65,1.31 5.05,-1.15 6.6,-2.58 A 15,15 0 0 0 276,98.8 c 0.59,2.3 1.05,4.64 -0.6,7.41 2.34,0.13 5.41,-0.59 6.95,-2.34 a 8.35,8.35 0 0 0 2,-6.75 c 0.53,1.18 0.61,6 -0.44,6.81 4,-1.31 7.71,-6.31 7.5,-10.48 A 13.07,13.07 0 0 0 284.88,83.3 c -1.79,-1.07 -3.78,-1.77 -5.66,-2.69 -2.89,-1.42 -21.25,-15.12 -48.21,0.5 -16.73,9.7 -13.46,29 -11.47,31.1 2.47,2.59 6.36,3.46 9.95,3.1 3.59,-0.36 17.37,-1.98 16.59,-3.73 z"
       style="opacity:0.3;isolation:isolate"
       id="path46" />
    <path
       d="m 281,145.34 c 0,0 -6.11,-2.48 -24.12,-4.63 1,6.54 5,9.3 14.21,10.3 9.21,1 9.91,-5.67 9.91,-5.67 z"
       style="fill:#407bff"
       id="path47" />
    <path
       d="m 281,145.34 c 0,0 -6.11,-2.48 -24.12,-4.63 1,6.54 5,9.3 14.21,10.3 9.21,1 9.91,-5.67 9.91,-5.67 z"
       style="opacity:0.3;isolation:isolate"
       id="path48" />
    <path
       d="m 280.18,145.11 a 4.43,4.43 0 0 1 -3.39,2.78 81.38,81.38 0 0 1 -15.65,-3.48 4.67,4.67 0 0 1 -3.52,-3.54 125.51,125.51 0 0 1 22.56,4.24 z"
       style="fill:#ffffff"
       id="path49" />
    <path
       d="m 276.43,147.35 a 47.41,47.41 0 0 0 -14.22,-3.35 7.6,7.6 0 0 0 -3.77,1.5 c 2,3.24 6,4.85 12.57,5.59 a 10.48,10.48 0 0 0 7.18,-1.31 11.2,11.2 0 0 0 -1.76,-2.43 z"
       style="fill:#ffffff"
       id="path50" />
    <path
       d="m 194,335.37 c 0,0 23.58,-12.5 23.45,-11.13 -0.13,1.37 0.49,27.82 0.49,27.82 l -25.71,-0.59 z"
       style="fill:#407bff"
       id="path51" />
    <path
       d="m 217.43,324.24 c 0,0 21.71,0.71 21.59,3.12 -0.12,2.41 -2.46,22.64 -2.46,22.64 l -18.64,2.07 z"
       style="fill:#407bff"
       id="path52" />
    <g
       style="opacity:0.7"
       id="g53">
      <path
         d="m 239,327.36 c -0.12,2.42 -2.45,22.63 -2.45,22.63 l -18.64,2.07 -25.71,-0.59 1.77,-16.1 c 0,0 23.58,-12.5 23.45,-11.13 0.01,0 21.72,0.76 21.58,3.12 z"
         style="fill:#ffffff"
         id="path53" />
    </g>
    <path
       d="m 292.75,188.49 a 40.57,40.57 0 0 1 -7.85,20 c -0.32,0.43 -0.65,0.86 -1,1.28 -9.72,12.31 -27.19,16.13 -41.72,9.66 A 85.64,85.64 0 0 1 229,212.29 c -8.24,-5.54 -15.35,-13.24 -18.7,-22.28 l 25.55,-3.29 17.47,-2.25 11.94,1.22 z"
       style="fill:#407bff"
       id="path54" />
    <path
       d="m 292.75,188.49 a 40.57,40.57 0 0 1 -7.85,20 c -0.32,0.43 -0.65,0.86 -1,1.28 -9.72,12.31 -27.19,16.13 -41.72,9.66 A 85.64,85.64 0 0 1 229,212.29 c -8.24,-5.54 -15.35,-13.24 -18.7,-22.28 l 25.55,-3.29 17.47,-2.25 11.94,1.22 z"
       style="opacity:0.7;fill:#ffffff"
       id="path55" />
    <path
       d="m 184.18,253.43 a 196,196 0 0 0 3,33.54 l 8.35,-52.12 z"
       style="opacity:0.2;isolation:isolate"
       id="path56" />
    <path
       d="m 138.92,291.14 55.85,39.46 -2.56,23.21 c 0,0 -83.82,-19.27 -96.51,-45.42 -5.93,-12.2 0.75,-27.12 11.07,-40.92 a 0.09,0.09 0 0 0 0,-0.05 c 12.27,-20.07 23.42,-32 31.83,-39.05 a 103.47,103.47 0 0 0 21.24,-23.55 c 14.48,-22.73 47,-13.52 47,-13.52 -7.41,17.34 -7.49,50.32 -7.49,50.32 0,0 -7.27,5.48 -15.21,11.81 -0.08,5.35 -3.33,11.9 -9.61,19.3 -8.25,9.76 -32.79,15.32 -35.61,18.41 z"
       style="fill:#407bff"
       id="path57" />
    <path
       d="m 138.92,291.14 55.85,39.46 -2.56,23.21 c 0,0 -83.82,-19.27 -96.51,-45.42 -5.93,-12.2 0.75,-27.12 11.07,-40.92 a 0.09,0.09 0 0 0 0,-0.05 c 12.27,-20.07 23.42,-32 31.83,-39.05 a 103.47,103.47 0 0 0 21.24,-23.55 c 14.48,-22.73 47,-13.52 47,-13.52 -7.41,17.34 -7.49,50.32 -7.49,50.32 0,0 -7.27,5.48 -15.21,11.81 -0.08,5.35 -3.33,11.9 -9.61,19.3 -8.25,9.76 -32.79,15.32 -35.61,18.41 z"
       style="opacity:0.3;fill:#ffffff"
       id="path58" />
    <path
       d="m 181.11,184.58 a 199.3,199.3 0 0 0 59.3,34.06 c 0,-6.77 -2.16,-20.45 -6,-28.93 -1.09,-2.38 -2.47,-4.77 -4.7,-6.14 -2.23,-1.37 -5.5,-1.36 -7.16,0.67 -6.34,-4.48 -16.77,-4.69 -22.92,0 -4.76,-1.65 -11.52,-4.27 -16.48,-3.38 -4.96,0.89 -11.08,7.5 -10.34,12.49 a 38.76,38.76 0 0 1 14.6,-3.74 c -1.36,-1.61 -0.03,0.05 -6.3,-5.03 z"
       style="fill:#407bff"
       id="path59" />
    <path
       d="m 181.11,184.58 a 199.3,199.3 0 0 0 59.3,34.06 c 0,-6.77 -2.16,-20.45 -6,-28.93 -1.09,-2.38 -2.47,-4.77 -4.7,-6.14 -2.23,-1.37 -5.5,-1.36 -7.16,0.67 -6.34,-4.48 -16.77,-4.69 -22.92,0 -4.76,-1.65 -11.52,-4.27 -16.48,-3.38 -4.96,0.89 -11.08,7.5 -10.34,12.49 a 38.76,38.76 0 0 1 14.6,-3.74 c -1.36,-1.61 -0.03,0.05 -6.3,-5.03 z"
       style="opacity:0.6;fill:#ffffff"
       id="path60" />
    <path
       d="m 309.43,186.29 a 22.13,22.13 0 0 0 -18.25,0 c -3.92,-2.87 -9.95,-3.48 -14,-0.73 A 7.16,7.16 0 0 0 272.01,183 c -2,-0.07 -3.28,1.31 -4.65,2.74 2.88,1.45 4.35,4.68 5.37,7.74 a 64.66,64.66 0 0 1 3.27,24.09 c 13.8,-6.74 25.51,-18.05 33.43,-31.28 z"
       style="fill:#407bff"
       id="path61" />
    <path
       d="m 309.43,186.29 a 22.13,22.13 0 0 0 -18.25,0 c -3.92,-2.87 -9.95,-3.48 -14,-0.73 A 7.16,7.16 0 0 0 272.01,183 c -2,-0.07 -3.28,1.31 -4.65,2.74 2.88,1.45 4.35,4.68 5.37,7.74 a 64.66,64.66 0 0 1 3.27,24.09 c 13.8,-6.74 25.51,-18.05 33.43,-31.28 z"
       style="opacity:0.6;fill:#ffffff"
       id="path62" />
    <path
       d="m 306.73,264.22 c 0,15.19 -21.62,42.34 -48.29,42.34 -26.67,0 -48.29,-27.15 -48.29,-42.34 0,-15.19 21.62,-27.51 48.29,-27.51 26.67,0 48.29,12.29 48.29,27.51 z"
       style="opacity:0.5;fill:#ffffff"
       id="path63" />
    <path
       d="m 300.24,265.53 c 0,12.51 -17.81,34.88 -39.78,34.88 -21.97,0 -39.77,-22.41 -39.77,-34.88 0,-12.47 17.8,-22.67 39.77,-22.67 21.97,0 39.78,10.14 39.78,22.67 z"
       style="fill:#407bff"
       id="path64" />
    <path
       d="m 300.24,265.53 c 0,12.51 -17.81,34.88 -39.78,34.88 -21.97,0 -39.77,-22.41 -39.77,-34.88 0,-12.47 17.8,-22.67 39.77,-22.67 21.97,0 39.78,10.14 39.78,22.67 z"
       style="opacity:0.5;fill:#ffffff"
       id="path65" />
    <rect
       x="199.77"
       y="363.76999"
       width="115.29"
       height="18.809999"
       style="fill:#ffffff"
       id="rect65" />
    <polygon
       points="188.74,419.7 318.79,419.7 315.07,382.58 199.77,382.58 "
       style="fill:#407bff"
       id="polygon65" />
    <polygon
       points="188.74,419.7 318.79,419.7 315.07,382.58 199.77,382.58 "
       style="opacity:0.2;fill:#ffffff"
       id="polygon66" />
    <rect
       x="250.75"
       y="362.57001"
       width="34.470001"
       height="20.610001"
       style="fill:#263238"
       id="rect66" />
    <rect
       x="250.75"
       y="362.57001"
       width="34.470001"
       height="20.610001"
       style="opacity:0.7;fill:#ffffff"
       id="rect67" />
    <polygon
       points="255.03,383.18 262.55,383.18 273.02,362.57 265.18,362.57 "
       style="opacity:0.7;fill:#ffffff"
       id="polygon67" />
    <polygon
       points="266.09,383.18 271.46,383.18 281.93,362.57 276.24,362.57 "
       style="opacity:0.7;fill:#ffffff"
       id="polygon68" />
    <path
       d="m 296.8,118.59 c -0.42,2.83 -2.63,6.57 -4.61,9.43 a 75,75 0 0 1 -1,17.11 30.68,30.68 0 0 1 -27.66,25.13 61.82,61.82 0 0 0 0,6.8 29.3,29.3 0 0 0 1.72,8.58 v 0 l 27.47,2.8 a 40.57,40.57 0 0 1 -7.85,20 c -0.32,0.43 -0.65,0.86 -1,1.28 -9.72,12.31 -27.19,16.13 -41.72,9.66 A 85.64,85.64 0 0 1 229,212.24 C 220.76,206.7 213.65,199 210.3,189.96 l 25.55,-3.29 v 0 c 1.32,-3.74 1.62,-9.5 2.22,-14 0.42,-3.07 -0.22,-9.71 -1.48,-15.94 a 17.7,17.7 0 0 1 -2.73,-1.68 c 0,2.93 -2,8 -2,8 -9.32,-3.07 -17,-21.71 -18,-27.89 -5.19,9.63 -4.73,4.09 -5.13,0 -0.58,-5.89 -0.73,-12 1.28,-17.55 a 18.77,18.77 0 0 1 8,-9.89 c -1,-6.78 0.38,-19.39 12.88,-26.64 27,-15.62 45.32,-1.92 48.21,-0.5 1.88,0.92 3.86,1.62 5.66,2.69 a 13.07,13.07 0 0 1 6.53,10.15 c 0.13,2.72 -1.39,5.78 -3.57,7.95 9.28,1.19 9.84,12.11 9.08,17.22 z"
       style="opacity:0.2;fill:#ffffff"
       id="path68" />
    <path
       d="m 277.61,99.93 -0.34,-0.57 a 6.72,6.72 0 0 0 0,-2.24 8.9,8.9 0 0 1 0.34,2.81 z"
       style="opacity:0.2;fill:#ffffff"
       id="path69" />
  </g>
  <g
     id="freepik--character-1--inject-511"
     transform="matrix(1.0447342,0,0,1.0447342,-38.811969,-36.308046)">
    <path
       d="m 202.14,389.82 a 66.9,66.9 0 0 1 -8.59,2.18 v 0 c -0.45,0.08 -0.89,0.16 -1.32,0.22 -1.41,0.21 -2.73,0.34 -4,0.4 -19.35,1 -19.85,-15.16 -20.33,-23.39 a 242.52,242.52 0 0 1 0.82,-33 c 1.34,-15.27 3.88,-31.13 7.57,-43 5.34,-17.12 14,-19 21.35,-19.13 v 0 c 1.42,0 2.81,0 4.11,0 0,0 -0.94,4.85 -1.39,9.53 l -2.92,20.74 -4.06,28.78 v 0 l -0.63,4.49 v 0.25 l -2.2,15.58 -0.51,3.59 c -0.23,2.39 -0.4,5.76 2.21,7.68 a 5.34,5.34 0 0 0 1.2,0.7 c 1.7,0.76 4.21,1.07 7.86,0.64 l 0.37,10.22 0.07,1.84 0.12,3.18 0.2,5.78 z"
       style="fill:#ffb573"
       id="path70" />
    <path
       d="m 158.15,330.4 c 5.54,6.33 10,5.56 17.66,6.76 7.66,1.2 14.26,0.78 22,0.07 1.57,-21.53 4.22,-43 4,-64.51 -6.28,0.47 -13,0.21 -18.15,3.33 -6.86,4.17 -7.32,14.88 -11.94,22.43 -5.46,8.92 -12.46,16.23 -19.39,23.45 2.52,4.4 2.67,4.82 5.82,8.47 z"
       style="fill:#407bff"
       id="path71" />
    <g
       style="opacity:0.6;isolation:isolate"
       id="g72">
      <path
         d="m 158.15,330.4 c 5.54,6.33 10,5.56 17.66,6.76 7.66,1.2 14.26,0.78 22,0.07 1.57,-21.53 4.22,-43 4,-64.51 -6.28,0.47 -13,0.21 -18.15,3.33 -6.86,4.17 -7.32,14.88 -11.94,22.43 -5.46,8.92 -12.46,16.23 -19.39,23.45 2.52,4.4 2.67,4.82 5.82,8.47 z"
         id="path72" />
    </g>
    <polygon
       points="186.76,337.92 200.24,337.92 197.44,304.36 "
       style="opacity:0.2;isolation:isolate"
       id="polygon72" />
    <path
       d="m 300.62,342.62 c -1.23,5.5 -2.7,10.89 -4.2,17.76 v 0 c -0.32,1.47 -0.65,3 -1,4.64 -0.45,2.28 -0.9,4.7 -1.33,7.34 v 0 c -0.48,3 -0.95,6.2 -1.4,9.76 -0.4,3.08 -0.77,6.4 -1.12,10 v 0 c -0.15,1.57 -0.31,3.19 -0.45,4.89 -0.28,3.31 -0.55,6.84 -0.79,10.61 -0.24,3.77 -0.46,7.95 -0.66,12.33 -3.26,-0.08 -99.61,0 -99.61,0 0.54,-6.41 1,-12.44 1.44,-18.26 0.23,-3.23 0.46,-6.39 0.65,-9.51 v -0.07 c 0.07,-1 0.13,-1.9 0.18,-2.84 0.15,-2.38 0.28,-4.73 0.4,-7.07 0.29,-5.6 0.51,-11.14 0.65,-16.79 0,-0.24 0,-0.48 0,-0.72 0.08,-3.48 0.13,-7 0.15,-10.62 0,-5.2 0,-10.57 -0.11,-16.21 0,-0.1 0,-0.2 0,-0.3 0,-1.46 -0.05,-2.94 -0.09,-4.44 v 0 c -0.12,-4.6 -0.28,-9.4 -0.5,-14.45 v 0 c -0.27,-6.3 -0.62,-13 -1.06,-20.14 -0.52,-8.45 0.08,-19.68 5.81,-24.45 v 0 a 9.55,9.55 0 0 1 1.85,-1.22 10.32,10.32 0 0 1 3.13,-1 l 30.25,-4.71 10.55,-1.64 15.54,3 34.1,6.7 a 11.88,11.88 0 0 1 1.21,0.3 10.5,10.5 0 0 1 5.5,3.84 c 3.52,4.71 4.25,13 3.55,24.16 0.87,19.29 -0.48,29.37 -2.64,39.11 z"
       style="fill:#407bff"
       id="path73" />
    <path
       d="m 300.62,342.62 c -1.23,5.5 -2.7,10.89 -4.2,17.76 v 0 c -0.32,1.47 -0.65,3 -1,4.64 -0.45,2.28 -0.9,4.7 -1.33,7.34 v 0 c -0.48,3 -0.95,6.2 -1.4,9.76 -0.4,3.08 -0.77,6.4 -1.12,10 v 0 c -0.15,1.57 -0.31,3.19 -0.45,4.89 -0.28,3.31 -0.55,6.84 -0.79,10.61 -0.24,3.77 -0.46,7.95 -0.66,12.33 -3.26,-0.08 -99.61,0 -99.61,0 0.54,-6.41 1,-12.44 1.44,-18.26 0.23,-3.23 0.46,-6.39 0.65,-9.51 v -0.07 c 0.07,-1 0.13,-1.9 0.18,-2.84 0.15,-2.38 0.28,-4.73 0.4,-7.07 0.29,-5.6 0.51,-11.14 0.65,-16.79 0,-0.24 0,-0.48 0,-0.72 0.08,-3.48 0.13,-7 0.15,-10.62 0,-5.2 0,-10.57 -0.11,-16.21 0,-0.1 0,-0.2 0,-0.3 0,-1.46 -0.05,-2.94 -0.09,-4.44 v 0 c -0.12,-4.6 -0.28,-9.4 -0.5,-14.45 v 0 c -0.27,-6.3 -0.62,-13 -1.06,-20.14 -0.52,-8.45 0.08,-19.68 5.81,-24.45 v 0 a 9.55,9.55 0 0 1 1.85,-1.22 10.32,10.32 0 0 1 3.13,-1 l 30.25,-4.71 10.55,-1.64 15.54,3 34.1,6.7 a 11.88,11.88 0 0 1 1.21,0.3 10.5,10.5 0 0 1 5.5,3.84 c 3.52,4.71 4.25,13 3.55,24.16 0.87,19.29 -0.48,29.37 -2.64,39.11 z"
       style="opacity:0.6;isolation:isolate"
       id="path74" />
    <path
       d="m 260.31,270.31 c 6.06,4.32 3.49,11.11 -1.45,16.66 -10.29,11.55 -21,15.14 -21,15.14 -0.16,-0.07 -26.73,-19.27 -8,-31.28 3.1,-2 4.31,-6.71 4.65,-11.64 a 59.79,59.79 0 0 0 -0.45,-11.28 c -0.09,-0.94 -0.24,-1.86 -0.4,-2.73 -0.16,-0.87 -0.34,-1.75 -0.55,-2.56 L 261.38,231 c -3.1,4.66 -5.46,19.6 -4.8,24.41 0.72,5.38 0.93,12.91 3.73,14.9 z"
       style="fill:#ffb573"
       id="path75" />
    <path
       d="m 234.6,259.19 a 59.79,59.79 0 0 0 -0.45,-11.28 c -0.09,-0.94 -0.24,-1.86 -0.4,-2.73 L 255.54,241 c -4.54,4.57 -10.98,13.83 -20.94,18.19 z"
       style="opacity:0.2;isolation:isolate"
       id="path76" />
    <path
       d="m 205.07,209.84 c 0.71,4.68 7.34,12.29 7,11.83 a 2.53,2.53 0 0 1 -0.27,-1.61 17.32,17.32 0 0 1 1.59,-6.11 c 0.55,2.62 1.41,8 4.08,8.07 1.06,-1.93 2.37,-3.69 2.19,-5.89 0.62,2.25 1.18,4.51 1.79,6.76 a 16.56,16.56 0 0 0 7.4,-16.15 11.24,11.24 0 0 0 -1.52,-4.09 16.91,16.91 0 0 0 -3.43,-3.65 c -3.38,-2.87 -7.69,-5.22 -12,-4 -8.14,2.32 -7.54,10.16 -6.83,14.84 z"
       style="fill:#263238"
       id="path77" />
    <path
       d="m 210.73,231.59 c 3.5,19.07 26.33,29.13 41.4,15.47 8.7,-7.87 10.09,-17.26 11.67,-31.9 0.25,-2.22 0.5,-4.55 0.79,-7 a 26.31,26.31 0 0 0 -1.17,-11.46 22.87,22.87 0 0 0 -2,-4.42 25.94,25.94 0 0 0 -31,-12 c -18.82,6.36 -22.86,34.15 -19.69,51.31 z"
       style="fill:#ffb573"
       id="path78" />
    <path
       d="m 229.25,204.54 a 0.75,0.75 0 0 1 -0.35,-0.26 0.89,0.89 0 0 1 0.18,-1.24 v 0 a 8.71,8.71 0 0 1 8,-1.36 0.88,0.88 0 0 1 0.48,1.15 v 0 a 0.91,0.91 0 0 1 -1.17,0.5 6.87,6.87 0 0 0 -6.34,1.09 0.82,0.82 0 0 1 -0.8,0.12 z"
       style="fill:#263238"
       id="path79" />
    <path
       d="m 219.59,205.88 a 0.94,0.94 0 0 0 -0.78,-0.33 7.44,7.44 0 0 1 -6.27,-2.2 0.92,0.92 0 0 0 -1.28,-0.12 v 0 a 0.93,0.93 0 0 0 -0.14,1.26 v 0 a 9.09,9.09 0 0 0 7.85,2.81 0.9,0.9 0 0 0 0.83,-1 1,1 0 0 0 -0.21,-0.42 z"
       style="fill:#263238"
       id="path80" />
    <path
       d="m 223,226.05 a 12,12 0 0 1 -7.56,-2.59 c 2.93,-2.91 6.21,-6.18 8.22,-9.79 z"
       style="fill:#ed893e"
       id="path81" />
    <path
       d="m 216.18,214.76 a 5.67,5.67 0 0 1 -3.89,-2 0.50224496,0.50224496 0 1 1 0.73,-0.69 c 1.11,1.17 2.85,2.33 4.81,1.18 a 0.51,0.51 0 0 1 0.69,0.17 0.51,0.51 0 0 1 -0.18,0.69 4.26,4.26 0 0 1 -2.16,0.65 z"
       style="fill:#263238"
       id="path82" />
    <path
       d="m 233.58,230.67 a 13.3,13.3 0 0 1 -10,2.61 0.47,0.47 0 0 1 -0.42,-0.49 0.43,0.43 0 0 1 0.45,-0.41 v 0 a 12.63,12.63 0 0 0 10.6,-3.48 0.44,0.44 0 0 1 0.61,0 v 0 a 0.48,0.48 0 0 1 0,0.64 q -0.56,0.61 -1.24,1.13 z"
       style="fill:#263238"
       id="path83" />
    <path
       d="m 253.85,243 a 15.39,15.39 0 0 0 6.37,-2.79 c 0,2.53 1.7,6.87 1.7,6.87 8.05,-2.65 14.68,-18.76 15.57,-24.1 4.48,8.32 4.09,3.54 4.44,0 0.5,-5.09 0.62,-10.36 -1.11,-15.16 -1.73,-4.8 -5.7,-9.09 -10.74,-9.92 a 5.27,5.27 0 0 0 -4.85,2.28 14.11,14.11 0 0 0 -1.66,5 c -2.34,12.61 -2.24,27.36 -9.72,37.82 z"
       style="fill:#263238"
       id="path84" />
    <path
       d="m 265.27,214 c -6.16,0.13 -9.93,7.9 -10.58,13.22 -0.77,5.91 3.21,10.78 8.92,8.16 a 17.64,17.64 0 0 0 9.2,-10.11 c 1.9,-5.47 -1.38,-11.38 -7.54,-11.27 z"
       style="fill:#ffb573"
       id="path85" />
    <path
       d="m 282.36,312.13 c 0,0 -7.48,33.85 -2.29,54.28 5.19,20.43 15.55,30.73 15.55,30.73 l 1.85,-85 z"
       style="opacity:0.2;isolation:isolate"
       id="path86" />
    <path
       d="m 295.62,397.14 v 0 a 8.78,8.78 0 0 1 -4.46,-0.1 c -0.28,3.31 -0.55,6.84 -0.79,10.61 -5.95,3.19 -32.48,-6.18 -55.75,-15.53 -5.13,-2.06 -10.1,-4.13 -14.65,-6.06 -1.62,-0.67 -3.17,-1.34 -4.66,-2 -3.09,-1.32 -5.91,-2.55 -8.37,-3.63 -2,-0.87 -3.76,-1.65 -5.22,-2.31 -3.05,-1.35 -4.8,-2.15 -4.8,-2.15 l 4.73,0.31 37.35,2.42 9.65,0.63 1.94,0.11 11.95,0.77 8.16,0.52 h 0.42 l 7.92,0.51 6.45,0.41 7.2,0.46 2.89,0.19 c 0,0 0.16,2 0.21,5.35 v 0.12 c 0.07,2.49 0.04,5.68 -0.17,9.37 z"
       style="opacity:0.2;isolation:isolate"
       id="path87" />
    <path
       d="m 311,342.75 c -1.48,15.64 -3.66,31.09 -5.46,41.23 -1.25,7.06 -5.24,12 -9.92,13.18 a 8.78,8.78 0 0 1 -4.46,-0.1 c -0.22,-0.06 -0.43,-0.13 -0.65,-0.21 l -35.8,-9.23 -0.31,-0.09 -3.83,-1 0.06,-7.1 v -0.57 -2.81 l 0.08,-8.87 4.84,0.26 23.65,1.26 a 3.19,3.19 0 0 0 1.47,0.06 c 2.05,-0.39 3.75,-2.79 4,-5.95 l 0.46,-6.86 1,-15.13 1.93,-28.71 1.77,-26.58 a 48.35,48.35 0 0 1 1.35,-8.5 v 0 0 a 19.43,19.43 0 0 1 8.58,2.41 c 5.57,3 11.62,9.37 12.6,22.43 0.82,10.84 0.06,25.94 -1.36,40.88 z"
       style="fill:#ffb573"
       id="path88" />
    <path
       d="m 268.05,390.19 -52.54,-10.14 a 9.36,9.36 0 0 0 -4.43,-0.29 l -14.8,2.54 a 9.43,9.43 0 0 1 -8.69,-3.06 l -7,-7.94 a 9.47,9.47 0 0 1 1.09,-13.6 l 2.51,-2.06 a 9.45,9.45 0 0 1 11.64,-0.28 v 0 a 9.43,9.43 0 0 0 5.93,1.86 h 0.87 a 9.45,9.45 0 0 1 9.15,6.15 l 0.82,2.19 42.83,1.64 z"
       style="fill:#ffb573"
       id="path89" />
    <path
       d="m 205.07,366.81 c 2.51,-0.49 5,-0.89 7.52,-1.3 l -0.81,-2.16 a 9.45,9.45 0 0 0 -9.15,-6.15 h -0.87 a 9.43,9.43 0 0 1 -5.93,-1.86 9.45,9.45 0 0 0 -11.64,0.28 l -2.51,2.06 A 9.48,9.48 0 0 0 179.1,369 c 4.79,0.45 21.98,-1.41 25.97,-2.19 z"
       style="opacity:0.1;isolation:isolate"
       id="path90" />
    <path
       d="m 284.52,379.42 v 0 a 39.28,39.28 0 0 1 -5.43,1.85 v 0 c -3.49,1 -8.3,2.26 -13.91,3.66 -3.34,0.83 -7,1.7 -10.76,2.6 v 0 c -6.28,1.5 -13,3.07 -19.74,4.6 -17.59,4 -35,7.83 -43.08,9.6 0.23,-3.23 0.46,-6.39 0.65,-9.51 -1.41,0.21 -2.73,0.34 -4,0.4 v -0.24 l 0.31,-2.21 3.8,-0.86 9.67,-2.2 13.27,-3 9.72,-2.21 14,-3.19 11.62,-2.64 8.57,-1.95 6.44,-1.46 c 0,0 11.73,1.22 17.37,3.19 2.98,1 4.23,2.21 1.5,3.57 z"
       style="opacity:0.2;isolation:isolate"
       id="path91" />
    <path
       d="m 174.16,365.1 80.63,-1.49 a 9.55,9.55 0 0 0 4.21,-1.39 l 12.78,-7.91 a 9.43,9.43 0 0 1 9.2,-0.42 l 9.46,4.73 a 9.49,9.49 0 0 1 4.09,13 L 293,374.5 a 9.46,9.46 0 0 1 -10.69,4.62 v 0 c -2.06,-0.54 -15,1.57 -17.78,-1.42 l -1.6,-1.7 -64.15,15.1 a 49.88,49.88 0 0 1 -13.89,1.27 v 0 z"
       style="fill:#ffb573"
       id="path92" />
    <path
       d="m 332.4,338.18 a 17.56,17.56 0 0 1 -7.39,3.07 c -17.38,2.88 -28.39,1.42 -42.4,-1 C 280.14,317 280.76,299 285.22,286 c 1.49,-4.32 5.75,-10.61 10.31,-10.42 19.37,0.81 22.67,20.29 24.88,29.28 a 159.24,159.24 0 0 0 11.99,33.32 z"
       style="fill:#407bff"
       id="path93" />
    <path
       d="m 332.4,338.18 a 17.56,17.56 0 0 1 -7.39,3.07 c -17.38,2.88 -28.39,1.42 -42.4,-1 C 280.14,317 280.76,299 285.22,286 c 1.49,-4.32 5.75,-10.61 10.31,-10.42 19.37,0.81 22.67,20.29 24.88,29.28 a 159.24,159.24 0 0 0 11.99,33.32 z"
       style="opacity:0.6;isolation:isolate"
       id="path94" />
    <path
       d="m 249.61,204.78 c 2.39,-6.16 5.89,-9.25 3.82,-8.83 -5.6,1.15 -9.28,-3.7 -13.29,-0.67 -1.91,2.43 0.61,6.68 0.7,6.44 -2,1.09 -4.65,0.43 -6.42,-1 -1.77,-1.43 -2.49,-4.12 -3.43,-6.22 a 12.81,12.81 0 0 0 0.49,7.12 c -1.43,1.27 -4.59,-0.85 -6,-2.09 a 13.84,13.84 0 0 1 -3.26,-5.16 c -0.42,2.12 -0.75,4.29 0.86,6.75 -2.11,0.21 -4.9,-0.32 -6.36,-1.86 a 7.69,7.69 0 0 1 -2.08,-6.08 c -0.43,1.1 -0.3,5.55 0.68,6.21 -3.68,-1 -7.21,-5.46 -7.2,-9.28 a 12,12 0 0 1 5.47,-9.56 c 1.56,-1 3.32,-1.78 5,-2.7 2.54,-1.41 18.51,-14.72 43.44,-1.53 15.48,8.18 13.35,26 11.64,28 -2.12,2.47 -5.59,3.43 -8.84,3.25 -3.25,-0.18 -15.83,-1.16 -15.22,-2.79 z"
       style="fill:#263238"
       id="path95" />
    <path
       d="m 252.93,195.9 a 15.92,15.92 0 0 0 -4.1,13.1 c 0.71,4.68 7.35,12.3 7,11.83 a 2.53,2.53 0 0 1 -0.27,-1.61 17.32,17.32 0 0 1 1.59,-6.11 c 0.56,2.62 1.41,8 4.09,8.07 1.06,-1.93 2.36,-3.69 2.18,-5.89 0.62,2.25 1.18,4.51 1.8,6.76 a 16.58,16.58 0 0 0 7.4,-16.15 11.26,11.26 0 0 0 -1.53,-4.09 16.67,16.67 0 0 0 -3.46,-3.61 c -3.38,-2.87 -7.86,-5.73 -12,-4 -0.52,0.23 -2.86,1.08 -2.7,1.7 z"
       style="fill:#263238"
       id="path96" />
    <path
       d="m 236.27,211.1 c 0,1.56 -0.83,2.81 -1.83,2.84 -1,0.03 -1.82,-1.21 -1.9,-2.81 -0.08,-1.6 0.83,-2.81 1.84,-2.83 1.01,-0.02 1.9,1.26 1.89,2.8 z"
       style="fill:#263238"
       id="path97" />
  </g>
  <g
     id="freepik--Sparkles--inject-511"
     transform="matrix(1.0447342,0,0,1.0447342,-38.811969,-36.308046)">
    <path
       d="m 82.31,355.41 a 52,52 0 0 0 1,-6.84 c 1,-7.73 5.54,-13.71 11.31,-14.88 l 4.17,-0.86 c 0,0 -6.54,0 -9.27,-1.91 -5.78,-4 -7.11,-16 -7.11,-16 0,0 -1.62,12 -7.41,16 -2.73,1.91 -9.27,1.91 -9.27,1.91 l 4.17,0.86 c 5.78,1.17 10.36,7.15 11.32,14.88 a 53.06,53.06 0 0 0 1.09,6.84 z"
       style="fill:#407bff"
       id="path98" />
    <g
       style="opacity:0.7"
       id="g99">
      <path
         d="m 82.31,355.41 a 52,52 0 0 0 1,-6.84 c 1,-7.73 5.54,-13.71 11.31,-14.88 l 4.17,-0.86 c 0,0 -6.54,0 -9.27,-1.91 -5.78,-4 -7.11,-16 -7.11,-16 0,0 -1.62,12 -7.41,16 -2.73,1.91 -9.27,1.91 -9.27,1.91 l 4.17,0.86 c 5.78,1.17 10.36,7.15 11.32,14.88 a 53.06,53.06 0 0 0 1.09,6.84 z"
         style="fill:#ffffff"
         id="path99" />
    </g>
    <path
       d="m 368,268.71 a 44.33,44.33 0 0 0 0.9,-5.9 c 0.83,-6.66 4.78,-11.81 9.76,-12.83 l 3.59,-0.73 c 0,0 -5.64,0 -8,-1.65 -5,-3.49 -6.13,-13.8 -6.13,-13.8 0,0 -1.4,10.31 -6.38,13.8 -2.35,1.65 -8,1.65 -8,1.65 l 3.6,0.73 c 5,1 8.93,6.17 9.75,12.83 a 46.35,46.35 0 0 0 0.91,5.9 z"
       style="fill:#407bff"
       id="path100" />
    <g
       style="opacity:0.7"
       id="g101">
      <path
         d="m 368,268.71 a 44.33,44.33 0 0 0 0.9,-5.9 c 0.83,-6.66 4.78,-11.81 9.76,-12.83 l 3.59,-0.73 c 0,0 -5.64,0 -8,-1.65 -5,-3.49 -6.13,-13.8 -6.13,-13.8 0,0 -1.4,10.31 -6.38,13.8 -2.35,1.65 -8,1.65 -8,1.65 l 3.6,0.73 c 5,1 8.93,6.17 9.75,12.83 a 46.35,46.35 0 0 0 0.91,5.9 z"
         style="fill:#ffffff"
         id="path101" />
    </g>
    <path
       d="m 167.64,162.66 c 0.2,-0.08 0.74,-4 1.32,-8.66 1.21,-9.79 7,-17.36 14.33,-18.85 l 5.28,-1.08 c 0,0 -8.29,0 -11.74,-2.42 -7.33,-5.12 -9,-20.26 -9,-20.26 0,0 -2,15.14 -9.37,20.26 -3.46,2.42 -11.74,2.42 -11.74,2.42 l 5.28,1.08 c 7.31,1.49 13.11,9.06 14.32,18.85 0.58,4.7 1.11,8.58 1.32,8.66 z"
       style="fill:#407bff"
       id="path102" />
    <g
       style="opacity:0.7"
       id="g103">
      <path
         d="m 167.64,162.66 c 0.2,-0.08 0.74,-4 1.32,-8.66 1.21,-9.79 7,-17.36 14.33,-18.85 l 5.28,-1.08 c 0,0 -8.29,0 -11.74,-2.42 -7.33,-5.12 -9,-20.26 -9,-20.26 0,0 -2,15.14 -9.37,20.26 -3.46,2.42 -11.74,2.42 -11.74,2.42 l 5.28,1.08 c 7.31,1.49 13.11,9.06 14.32,18.85 0.58,4.7 1.11,8.58 1.32,8.66 z"
         style="fill:#ffffff"
         id="path103" />
    </g>
    <path
       d="m 397.34,379.32 c 0.21,-0.08 0.75,-4 1.33,-8.66 1.21,-9.79 7,-17.36 14.33,-18.85 l 5.28,-1.08 c 0,0 -8.29,0 -11.75,-2.42 -7.32,-5.13 -9,-20.27 -9,-20.27 0,0 -2,15.14 -9.38,20.27 -3.45,2.42 -11.74,2.42 -11.74,2.42 l 5.28,1.08 c 7.32,1.49 13.12,9.06 14.33,18.85 0.58,4.7 1.12,8.58 1.32,8.66 z"
       style="fill:#407bff"
       id="path104" />
    <g
       style="opacity:0.7"
       id="g105">
      <path
         d="m 397.34,379.32 c 0.21,-0.08 0.75,-4 1.33,-8.66 1.21,-9.79 7,-17.36 14.33,-18.85 l 5.28,-1.08 c 0,0 -8.29,0 -11.75,-2.42 -7.32,-5.13 -9,-20.27 -9,-20.27 0,0 -2,15.14 -9.38,20.27 -3.45,2.42 -11.74,2.42 -11.74,2.42 l 5.28,1.08 c 7.32,1.49 13.12,9.06 14.33,18.85 0.58,4.7 1.12,8.58 1.32,8.66 z"
         style="fill:#ffffff"
         id="path105" />
    </g>
    <path
       d="m 313.16,165 a 33.27,33.27 0 0 0 0.67,-4.38 c 0.61,-4.94 3.54,-8.77 7.24,-9.53 l 2.67,-0.54 c 0,0 -4.19,0 -5.93,-1.22 -3.71,-2.59 -4.56,-10.25 -4.56,-10.25 0,0 -1,7.66 -4.73,10.25 -1.75,1.22 -5.94,1.22 -5.94,1.22 l 2.67,0.54 c 3.7,0.76 6.63,4.59 7.24,9.53 a 35.36,35.36 0 0 0 0.67,4.38 z"
       style="fill:#407bff"
       id="path106" />
    <g
       style="opacity:0.7"
       id="g107">
      <path
         d="m 313.16,165 a 33.27,33.27 0 0 0 0.67,-4.38 c 0.61,-4.94 3.54,-8.77 7.24,-9.53 l 2.67,-0.54 c 0,0 -4.19,0 -5.93,-1.22 -3.71,-2.59 -4.56,-10.25 -4.56,-10.25 0,0 -1,7.66 -4.73,10.25 -1.75,1.22 -5.94,1.22 -5.94,1.22 l 2.67,0.54 c 3.7,0.76 6.63,4.59 7.24,9.53 a 35.36,35.36 0 0 0 0.67,4.38 z"
         style="fill:#ffffff"
         id="path107" />
    </g>
    <path
       d="m 84.16,226.53 a 31.41,31.41 0 0 0 0.67,-4.38 c 0.61,-4.94 3.55,-8.77 7.24,-9.53 l 2.67,-0.54 c 0,0 -4.19,0 -5.93,-1.22 -3.7,-2.59 -4.55,-10.24 -4.55,-10.24 0,0 -1,7.65 -4.74,10.24 -1.75,1.22 -5.94,1.22 -5.94,1.22 l 2.67,0.54 c 3.7,0.76 6.63,4.59 7.24,9.53 a 35.36,35.36 0 0 0 0.67,4.38 z"
       style="fill:#407bff"
       id="path108" />
    <g
       style="opacity:0.7"
       id="g109">
      <path
         d="m 84.16,226.53 a 31.41,31.41 0 0 0 0.67,-4.38 c 0.61,-4.94 3.55,-8.77 7.24,-9.53 l 2.67,-0.54 c 0,0 -4.19,0 -5.93,-1.22 -3.7,-2.59 -4.55,-10.24 -4.55,-10.24 0,0 -1,7.65 -4.74,10.24 -1.75,1.22 -5.94,1.22 -5.94,1.22 l 2.67,0.54 c 3.7,0.76 6.63,4.59 7.24,9.53 a 35.36,35.36 0 0 0 0.67,4.38 z"
         style="fill:#ffffff"
         id="path109" />
    </g>
  </g>
</svg>
