<?xml version="1.0" encoding="UTF-8" standalone="no"?>
<svg
   viewBox="0 0 420 420"
   version="1.1"
   id="svg71"
   sodipodi:docname="Collaboration-rafiki.svg"
   width="420"
   height="420"
   inkscape:version="1.3.2 (091e20e, 2023-11-25, custom)"
   xmlns:inkscape="http://www.inkscape.org/namespaces/inkscape"
   xmlns:sodipodi="http://sodipodi.sourceforge.net/DTD/sodipodi-0.dtd"
   xmlns="http://www.w3.org/2000/svg"
   xmlns:svg="http://www.w3.org/2000/svg">
  <defs
     id="defs71" />
  <sodipodi:namedview
     id="namedview71"
     pagecolor="#ffffff"
     bordercolor="#000000"
     borderopacity="0.25"
     inkscape:showpageshadow="2"
     inkscape:pageopacity="0.0"
     inkscape:pagecheckerboard="0"
     inkscape:deskcolor="#d1d1d1"
     inkscape:zoom="1.092"
     inkscape:cx="250"
     inkscape:cy="249.54212"
     inkscape:window-width="1920"
     inkscape:window-height="1001"
     inkscape:window-x="-9"
     inkscape:window-y="-9"
     inkscape:window-maximized="1"
     inkscape:current-layer="svg71" />
  <g
     id="freepik--background-simple--inject-387"
     transform="translate(-44.178488,-41.258426)">
    <path
       d="m 147,263.74 c 33.37,37.54 71.13,-10 107.91,14.51 22.23,14.82 24.58,31.93 52.75,36.17 19.61,2.95 39.61,-3.17 60.72,0.89 36.08,6.95 79.68,5.08 83.62,-42.16 1.64,-19.71 -4.53,-45.15 -29.31,-62.67 -21.09,-14.91 -43.5,-1.8 -64.91,-12.35 -40.92,-20.17 -24.3,-84.7 -79.53,-91 -48.52,-5.49 -58.85,49.35 -108.49,42.55 -37.2,-5.1 -100.38,-25.61 -110,35.16 -4.09,25.91 13.45,41.67 33.72,49.7 27.96,11.12 31.59,4.56 53.52,29.2 z"
       style="fill:#407bff"
       id="path1" />
    <path
       d="m 147,263.74 c 33.37,37.54 71.13,-10 107.91,14.51 22.23,14.82 24.58,31.93 52.75,36.17 19.61,2.95 39.61,-3.17 60.72,0.89 36.08,6.95 79.68,5.08 83.62,-42.16 1.64,-19.71 -4.53,-45.15 -29.31,-62.67 -21.09,-14.91 -43.5,-1.8 -64.91,-12.35 -40.92,-20.17 -24.3,-84.7 -79.53,-91 -48.52,-5.49 -58.85,49.35 -108.49,42.55 -37.2,-5.1 -100.38,-25.61 -110,35.16 -4.09,25.91 13.45,41.67 33.72,49.7 27.96,11.12 31.59,4.56 53.52,29.2 z"
       style="opacity:0.9;fill:#ffffff"
       id="path2" />
  </g>
  <g
     id="freepik--Shadow--inject-387"
     transform="translate(-44.178488,-41.258426)">
    <ellipse
       id="freepik--path--inject-387"
       cx="250"
       cy="416.23999"
       rx="193.89"
       ry="11.32"
       style="fill:#f5f5f5" />
  </g>
  <g
     id="freepik--Pyramid--inject-387"
     transform="translate(-44.178488,-41.258426)">
    <polygon
       points="374,360.03 126,360.03 95,413.72 405,413.72 "
       style="fill:#407bff"
       id="polygon2" />
    <polygon
       points="374,360.03 126,360.03 95,413.72 405,413.72 "
       style="opacity:0.4;fill:#ffffff"
       id="polygon3" />
    <polygon
       points="343,306.33 157,306.33 126,360.03 374,360.03 "
       style="fill:#407bff"
       id="polygon4" />
    <polygon
       points="343,306.33 157,306.33 126,360.03 374,360.03 "
       style="opacity:0.3;fill:#ffffff"
       id="polygon5" />
    <polygon
       points="343,306.33 312,252.64 188,252.64 157,306.33 "
       style="fill:#407bff"
       id="polygon6" />
    <polygon
       points="343,306.33 312,252.64 188,252.64 157,306.33 "
       style="opacity:0.2;fill:#ffffff"
       id="polygon7" />
    <polygon
       points="188,252.64 312,252.64 281,198.95 219,198.95 "
       style="fill:#407bff"
       id="polygon8" />
    <polygon
       points="188,252.64 312,252.64 281,198.95 219,198.95 "
       style="opacity:0.1"
       id="polygon9" />
  </g>
  <g
     id="freepik--character-2--inject-387"
     transform="translate(-44.178488,-41.258426)">
    <path
       d="m 180.49,121.91 c -0.51,0.38 -1.2,0.92 -1.81,1.42 -0.61,0.5 -1.23,1 -1.84,1.59 -1.2,1.1 -2.39,2.22 -3.51,3.4 a 48.88,48.88 0 0 0 -5.9,7.64 c -0.37,0.61 -1,1.64 -0.89,1.5 a 2.26,2.26 0 0 0 -0.11,1.1 13.49,13.49 0 0 0 1.27,4 61.17,61.17 0 0 0 5.11,8.54 l -2.81,2.7 a 39.27,39.27 0 0 1 -7.57,-8.25 18,18 0 0 1 -2.64,-5.75 9,9 0 0 1 -0.06,-4.12 6.71,6.71 0 0 1 0.36,-1.16 7.43,7.43 0 0 1 0.37,-0.8 l 0.63,-1.29 a 45.36,45.36 0 0 1 6.47,-9.38 53.65,53.65 0 0 1 3.95,-4 c 0.7,-0.63 1.42,-1.25 2.15,-1.85 0.73,-0.6 1.45,-1.14 2.38,-1.78 z"
       style="fill:#b55b52"
       id="path9" />
    <path
       d="m 181.16,110.32 c -4.92,0.22 -12.33,10.12 -12.33,10.12 l 7.91,9.38 c 0,0 10,-5.39 11.1,-12.52 0.53,-3.56 -1.84,-7.2 -6.68,-6.98 z"
       style="fill:#407bff"
       id="path10" />
    <path
       d="m 171.57,149.93 5.86,5 -5.5,1.39 c 0,0 -3.42,-2 -2.42,-4.79 z"
       style="fill:#b55b52"
       id="path11" />
    <polygon
       points="171.93,156.37 177.43,154.98 177.47,157.86 174.61,160.63 "
       style="fill:#b55b52"
       id="polygon11" />
    <path
       d="m 218.06,97.68 c -0.24,0.51 -0.16,1.07 0.18,1.24 0.34,0.17 0.8,-0.12 1,-0.63 0.2,-0.51 0.16,-1.07 -0.17,-1.24 -0.33,-0.17 -0.77,0.11 -1.01,0.63 z"
       style="fill:#263238"
       id="path12" />
    <path
       d="m 218.94,97 1.41,0.26 c 0,0 -1.09,0.65 -1.41,-0.26 z"
       style="fill:#263238"
       id="path13" />
    <path
       d="m 218.26,98.4 a 15.77,15.77 0 0 0 0.3,4.21 2.49,2.49 0 0 1 -2,-0.57 z"
       style="fill:#a02724"
       id="path14" />
    <path
       d="m 220.36,94.58 a 0.29,0.29 0 0 1 -0.14,-0.08 2.8,2.8 0 0 0 -2.34,-0.81 0.33,0.33 0 0 1 -0.4,-0.26 0.34,0.34 0 0 1 0.26,-0.4 3.47,3.47 0 0 1 2.94,1 0.33,0.33 0 0 1 0,0.47 0.34,0.34 0 0 1 -0.32,0.08 z"
       style="fill:#263238"
       id="path15" />
    <path
       d="m 198.63,98.15 c 0.14,4.29 -1.7,11.21 -5.06,13.4 0,0 2.17,4.64 9.89,6.13 8.49,1.65 4.75,-3.4 4.75,-3.4 -4.45,-2 -3.77,-5.4 -2.43,-8.45 z"
       style="fill:#b55b52"
       id="path16" />
    <path
       d="m 220.6,122.06 c 0.39,2.18 0.8,4.5 1.28,6.74 0.48,2.24 0.92,4.53 1.45,6.77 0.53,2.24 1.08,4.47 1.67,6.68 0.29,1.11 0.62,2.2 0.94,3.29 l 0.85,2.65 a 4.48,4.48 0 0 0 1.37,1.38 16.82,16.82 0 0 0 2.54,1.43 45.87,45.87 0 0 0 6.17,2.33 c 2.15,0.69 4.38,1.28 6.63,1.81 2.25,0.53 4.53,1 6.77,1.49 l -0.36,3.89 a 84.34,84.34 0 0 1 -14.48,-1.47 45.39,45.39 0 0 1 -7.29,-2 21.74,21.74 0 0 1 -3.72,-1.79 10.74,10.74 0 0 1 -3.69,-3.47 7.69,7.69 0 0 1 -0.39,-0.69 l -0.17,-0.38 -0.13,-0.32 -0.33,-0.86 -0.65,-1.71 c -0.41,-1.15 -0.83,-2.29 -1.21,-3.45 -0.77,-2.3 -1.47,-4.62 -2.07,-7 a 126.41,126.41 0 0 1 -3,-14.2 z"
       style="fill:#b55b52"
       id="path17" />
    <polygon
       points="276.23,131.28 236.74,179.08 297.88,189.38 "
       style="fill:#407bff"
       id="polygon17" />
    <path
       d="m 249,157 5.61,-1.91 0.65,5.24 c 0,0 -5.12,2.74 -7,-1 z"
       style="fill:#b55b52"
       id="path18" />
    <polygon
       points="255.22,160.34 254.57,155.1 257.51,156.79 259.37,161.72 "
       style="fill:#b55b52"
       id="polygon18" />
    <polygon
       points="187.83,301.53 180.74,301.01 178.63,317.29 185.72,317.81 "
       style="fill:#b55b52"
       id="polygon19" />
    <polygon
       points="149,286.86 142.48,283.83 133.75,297.65 140.27,300.68 "
       style="fill:#b55b52"
       id="polygon20" />
    <path
       d="m 142,299.12 -6.41,-4.93 a 0.56,0.56 0 0 0 -0.75,0 l -4.51,4.37 a 1.14,1.14 0 0 0 0.15,1.69 c 2.27,1.68 3.45,2.38 6.27,4.54 1.73,1.33 4.14,3.46 6.53,5.3 2.39,1.84 4.29,-0.37 3.46,-1.34 -3.76,-4.37 -3.48,-6.2 -4,-8.59 A 2,2 0 0 0 142,299.12 Z"
       style="fill:#263238"
       id="path20" />
    <path
       d="m 186.17,316.8 h -8 a 0.58,0.58 0 0 0 -0.58,0.49 l -1.07,6.31 a 1.1,1.1 0 0 0 1.1,1.26 c 2.78,-0.05 4.12,-0.21 7.63,-0.21 2.16,0 6.61,0.22 9.59,0.22 2.98,0 3.21,-2.94 2,-3.21 -5.53,-1.2 -7.68,-2.85 -9.51,-4.42 a 1.83,1.83 0 0 0 -1.16,-0.44 z"
       style="fill:#263238"
       id="path21" />
    <polygon
       points="179.65,309.41 180.73,301.01 187.83,301.54 186.66,310.58 "
       style="opacity:0.2"
       id="polygon21" />
    <polygon
       points="145.13,292.99 138.75,289.73 142.48,283.84 149,286.87 "
       style="opacity:0.2"
       id="polygon22" />
    <path
       d="m 179.16,153.51 28.45,5.49 c 13.44,-39.57 10.22,-40.85 10.22,-40.85 a 58.77,58.77 0 0 0 -6.45,-3 L 211,115 c -1.82,-0.66 -2.2,-0.76 -4.64,-1.47 -4.19,-1 -8.09,-1.8 -12.91,-2.49 -0.31,0 -0.62,-0.1 -0.92,-0.13 -0.88,-0.11 -1.75,-0.2 -2.58,-0.28 -0.57,-0.07 -1.13,-0.1 -1.67,-0.14 l -1.84,-0.1 c -3.11,-0.15 -5.33,-0.11 -5.33,-0.11 1.62,24.72 0.43,31.82 -1.95,43.23 z"
       style="fill:#407bff"
       id="path22" />
    <path
       d="m 212.08,130.22 a 24.07,24.07 0 0 0 0.83,12.41 c 2.36,-7.74 3.71,-13 4.43,-16.65 -2.18,-0.28 -4.5,0.42 -5.26,4.24 z"
       style="opacity:0.2"
       id="path23" />
    <path
       d="m 217.59,118.05 c 4.74,3.09 7.77,10 8.57,13.93 l -11,9 c 0,0 -6,-13.39 -4,-16.81 2.01,-3.6 4.64,-7.3 6.43,-6.12 z"
       style="fill:#407bff"
       id="path24" />
    <path
       d="m 201.5,87.65 c -2.56,6.53 -3.79,9.24 -2.11,14.09 2.52,7.29 11.07,9.27 15.52,3.69 4,-5 7.54,-14.85 2.52,-20.46 a 9.38,9.38 0 0 0 -15.93,2.68 z"
       style="fill:#b55b52"
       id="path25" />
    <path
       d="m 213.59,94.8 a 6.3,6.3 0 0 0 0.24,3.82 c 0.65,1.72 2,1.68 2.65,0.46 0.65,-1.22 1,-3.32 -0.07,-4.68 -1.07,-1.36 -2.41,-1 -2.82,0.4 z"
       style="fill:#b55b52"
       id="path26" />
    <path
       d="m 202.31,76.5 a 8.78,8.78 0 0 0 -9.23,5.14 c -2.41,4.85 -4.72,11.25 -8.17,9.92 0.65,1 2.7,2.11 3.4,1.65 -2.33,2.33 -2.79,4.22 -3.29,9 -0.62,5.91 -3.89,4.61 -3.89,4.61 0,0 3.82,6.19 16.33,8.38 11.12,2 16.27,-0.54 17.77,-2.62 -1.54,-0.5 -3.94,-6 -1.83,-9.12 2.11,-3.12 5.76,-11.75 5.16,-15.21 1.35,2.14 1.42,5.54 2.55,2.12 1.13,-3.42 1.64,-7 -2.55,-11.25 -3.73,-3.83 -14.62,-5.7 -16.25,-2.62 z"
       style="fill:#263238"
       id="path27" />
    <path
       d="m 200.1,157.57 c 0,0 -13.86,46.43 -20.63,73.13 C 172.33,258.89 148,292 148,292 l -9,-5 c 0,0 14.76,-31.63 21.68,-57.94 14,-53.41 7.29,-64.73 18.49,-75.58 z"
       style="fill:#263238"
       id="path28" />
    <polygon
       points="139.29,283.34 152.48,289.41 148.84,292.88 137.66,286.64 "
       style="fill:#407bff"
       id="polygon28" />
    <path
       d="m 193.59,167.45 c -9.09,7 -9.7,33.73 -9.49,45.8 4.62,-16.87 10.09,-35.64 13.29,-46.51 -0.87,-0.74 -2.13,-0.58 -3.8,0.71 z"
       style="opacity:0.2"
       id="path29" />
    <path
       d="m 144.74,302.07 a 1,1 0 0 1 -0.25,0.06 c -0.9,0.08 -2.07,-1.15 -2.68,-1.9 a 0.17,0.17 0 0 1 0,-0.18 A 0.15,0.15 0 0 1 142,300 c 0.3,0 2.88,0.27 3.3,1.07 a 0.56,0.56 0 0 1 0,0.57 1,1 0 0 1 -0.56,0.43 z m -2.4,-1.73 c 0.85,1 1.63,1.5 2.12,1.46 a 0.61,0.61 0 0 0 0.48,-0.36 0.25,0.25 0 0 0 0,-0.25 c -0.21,-0.42 -1.57,-0.72 -2.6,-0.85 z"
       style="fill:#407bff"
       id="path30" />
    <path
       d="m 207.18,159 c 0,0 1.77,56.15 -2.2,77.29 -4.12,22 -16.69,72 -16.69,72 L 178.07,307 c 0,0 6.46,-50.55 9.21,-72.4 3,-23.83 -0.93,-79.64 -0.93,-79.64 z"
       style="fill:#263238"
       id="path31" />
    <polygon
       points="176.07,303.59 191.93,304.28 190.47,308.93 175.89,307.05 "
       style="fill:#407bff"
       id="polygon31" />
    <path
       d="m 144.12,299.93 a 5,5 0 0 1 -2.21,0.36 0.17,0.17 0 0 1 -0.13,-0.1 0.2,0.2 0 0 1 0,-0.17 c 0.06,-0.06 1.28,-1.64 2.3,-1.71 a 0.89,0.89 0 0 1 0.73,0.26 0.58,0.58 0 0 1 0.16,0.72 1.61,1.61 0 0 1 -0.85,0.64 z m -1.85,0.05 c 0.87,0 2.21,-0.4 2.42,-0.84 0,-0.07 0.06,-0.18 -0.1,-0.33 a 0.57,0.57 0 0 0 -0.46,-0.17 c -0.61,0.04 -1.42,0.84 -1.86,1.36 z"
       style="fill:#407bff"
       id="path32" />
    <path
       d="m 188.8,318 a 12,12 0 0 1 -2.23,-0.25 0.16,0.16 0 0 1 -0.13,-0.14 0.17,0.17 0 0 1 0.09,-0.17 c 0.33,-0.17 3.2,-1.62 4.05,-1.13 a 0.49,0.49 0 0 1 0.27,0.44 0.92,0.92 0 0 1 -0.32,0.82 2.68,2.68 0 0 1 -1.73,0.43 z m -1.66,-0.49 c 1.56,0.26 2.73,0.19 3.17,-0.19 a 0.66,0.66 0 0 0 0.21,-0.54 0.22,0.22 0 0 0 -0.1,-0.18 c -0.42,-0.22 -2.1,0.4 -3.28,0.95 z"
       style="fill:#407bff"
       id="path33" />
    <path
       d="m 186.61,317.79 a 0.17,0.17 0 0 1 -0.1,0 0.15,0.15 0 0 1 -0.07,-0.15 c 0,-0.13 0.34,-3 1.93,-3 h 0.14 c 0.46,0.05 0.59,0.28 0.62,0.47 0.13,0.8 -1.59,2.33 -2.45,2.72 z m 1.77,-2.87 c -1,0 -1.43,1.68 -1.56,2.4 0.89,-0.52 2.05,-1.73 2,-2.21 0,0 0,-0.16 -0.33,-0.19 z"
       style="fill:#407bff"
       id="path34" />
    <path
       d="m 179,151.77 -1.7,2.29 c -0.13,0.17 0.07,0.42 0.4,0.48 l 29.83,5.78 c 0.26,0.05 0.49,0 0.53,-0.19 l 0.68,-2.48 c 0.05,-0.18 -0.15,-0.37 -0.43,-0.42 l -28.81,-5.58 a 0.53,0.53 0 0 0 -0.5,0.12 z"
       style="fill:#407bff"
       id="path35" />
    <path
       d="m 179,151.77 -1.7,2.29 c -0.13,0.17 0.07,0.42 0.4,0.48 l 29.83,5.78 c 0.26,0.05 0.49,0 0.53,-0.19 l 0.68,-2.48 c 0.05,-0.18 -0.15,-0.37 -0.43,-0.42 l -28.81,-5.58 a 0.53,0.53 0 0 0 -0.5,0.12 z"
       style="opacity:0.3"
       id="path36" />
    <path
       d="m 182.35,155.72 -0.77,-0.14 c -0.15,0 -0.26,-0.14 -0.23,-0.23 l 0.91,-3.22 c 0,-0.09 0.17,-0.15 0.32,-0.12 l 0.78,0.15 c 0.15,0 0.25,0.13 0.23,0.23 l -0.91,3.22 c -0.03,0.09 -0.17,0.14 -0.33,0.11 z"
       style="fill:#263238"
       id="path37" />
    <path
       d="m 201.83,159.54 -0.77,-0.15 c -0.15,0 -0.25,-0.13 -0.23,-0.22 l 0.91,-3.22 c 0,-0.09 0.17,-0.15 0.32,-0.12 l 0.78,0.15 c 0.15,0 0.25,0.13 0.23,0.23 l -0.91,3.22 c -0.02,0.09 -0.16,0.14 -0.33,0.11 z"
       style="fill:#263238"
       id="path38" />
    <path
       d="m 159.22,415.5 h 2.48 l 7.08,-34.88 1.24,-6.11 7.72,-38 h 29.6 l 16,79 h 2.48 l -16.35,-80.45 a 1.2,1.2 0 0 0 -1.19,-1 h -31.53 a 1.2,1.2 0 0 0 -1.19,1 l -6.78,33.38 -1.24,6.1 z"
       style="fill:#263238"
       id="path39" />
    <path
       d="m 111.7,415.5 h 2.48 l 16,-79 h 29.59 l 7.72,38 1.24,6.09 7.08,34.88 h 2.48 l -8.32,-41 -1.24,-6.08 -6.73,-33.34 a 1.2,1.2 0 0 0 -1.19,-1 h -31.57 a 1.2,1.2 0 0 0 -1.19,1 z"
       style="fill:#263238"
       id="path40" />
    <path
       d="m 211.82,324.87 h -86.08 a 7.44,7.44 0 0 0 -7.45,7.45 v 0.25 a 2.71,2.71 0 0 0 2.71,2.72 h 95.56 a 2.71,2.71 0 0 0 2.71,-2.72 v -0.25 a 7.44,7.44 0 0 0 -7.45,-7.45 z"
       style="fill:#407bff"
       id="path41" />
  </g>
  <g
     id="freepik--character-1--inject-387"
     transform="translate(-44.178488,-41.258426)">
    <path
       d="m 374,212.35 c 2.11,3.89 4.06,7.78 5.93,11.76 1.87,3.98 3.62,8 5.25,12.15 l 0.6,1.56 0.3,0.79 0.17,0.46 0.25,0.79 a 11.66,11.66 0 0 1 0.18,5.27 24.75,24.75 0 0 1 -2.67,7.34 46.43,46.43 0 0 1 -3.74,5.92 52,52 0 0 1 -4.41,5.27 l -4.48,-3.21 a 102.79,102.79 0 0 0 4.71,-11.39 19.66,19.66 0 0 0 1.05,-5.08 c 0,-0.66 -0.11,-1.19 -0.19,-1.17 v 0 l -0.13,-0.28 -0.35,-0.71 -0.69,-1.42 c -1.88,-3.8 -3.83,-7.61 -5.79,-11.42 l -5.83,-11.45 z"
       style="fill:#ff8b7b"
       id="path42" />
    <path
       d="m 372.2,259.48 -4.2,2.32 6.31,5.4 c 0,0 2.62,-2.59 2.17,-5.71 z"
       style="fill:#ff8b7b"
       id="path43" />
    <polygon
       points="374.29,267.19 367.98,261.8 363.95,265.89 369.38,270.1 "
       style="fill:#ff8b7b"
       id="polygon43" />
    <path
       d="m 341.51,184.44 c -0.09,0.52 -0.43,0.9 -0.76,0.84 -0.33,-0.06 -0.55,-0.51 -0.47,-1 0.08,-0.49 0.42,-0.9 0.76,-0.84 0.34,0.06 0.55,0.48 0.47,1 z"
       style="fill:#263238"
       id="path44" />
    <path
       d="m 341.13,185.34 a 18.54,18.54 0 0 1 -3.17,4 3,3 0 0 0 2.41,0.85 z"
       style="fill:#ff5652"
       id="path45" />
    <path
       d="m 343.84,181.86 a 0.31,0.31 0 0 1 -0.22,-0.09 2.44,2.44 0 0 0 -2.1,-0.73 0.31,0.31 0 0 1 -0.36,-0.24 0.3,0.3 0 0 1 0.23,-0.36 3,3 0 0 1 2.67,0.9 0.3,0.3 0 0 1 0,0.43 0.31,0.31 0 0 1 -0.22,0.09 z"
       style="fill:#263238"
       id="path46" />
    <path
       d="m 358.79,190.15 c -0.93,4.76 -1.86,13.47 1.47,16.64 0,0 -1.3,4.83 -10.14,4.83 -9.72,0 -4.64,-4.83 -4.64,-4.83 5.3,-1.26 5.16,-5.2 4.24,-8.89 z"
       style="fill:#ff8b7b"
       id="path47" />
    <path
       d="m 365.51,211.62 a 3,3 0 0 1 -0.28,-0.85 c -0.86,-4.63 -4.48,-8.27 -9.17,-8.45 -5,-0.18 -10.53,0.66 -13.84,4.55 -1.45,1.7 0.16,4.19 0.16,4.19 z"
       style="fill:#407bff"
       id="path48" />
    <path
       d="m 380.91,405.69 h -0.06 a 0.62,0.62 0 0 1 -0.3,-0.67 0.7,0.7 0 0 1 0.29,-0.53 c 0.77,-0.59 2.91,-0.23 3,-0.21 a 0.18,0.18 0 0 1 0.13,0.11 0.16,0.16 0 0 1 -0.06,0.16 c -0.52,0.38 -2.24,1.45 -3,1.14 z m 2.51,-1.19 a 4.13,4.13 0 0 0 -2.39,0.21 0.4,0.4 0 0 0 -0.18,0.31 c 0,0.28 0.1,0.35 0.14,0.37 0.41,0.22 1.62,-0.34 2.43,-0.89 z"
       style="fill:#407bff"
       id="path49" />
    <path
       d="m 382.73,404.27 c -0.74,-0.29 -1.53,-0.77 -1.64,-1.23 a 0.5,0.5 0 0 1 0.28,-0.57 0.83,0.83 0 0 1 0.67,-0.1 c 0.94,0.24 1.87,1.89 1.91,2 a 0.14,0.14 0 0 1 0,0.15 0.17,0.17 0 0 1 -0.14,0.08 4.18,4.18 0 0 1 -1.08,-0.33 z m -0.66,-1.57 h -0.1 a 0.55,0.55 0 0 0 -0.44,0.06 c -0.17,0.1 -0.15,0.19 -0.14,0.23 0.1,0.43 1.3,1.06 2.12,1.24 a 4.13,4.13 0 0 0 -1.44,-1.53 z"
       style="fill:#407bff"
       id="path50" />
    <path
       d="m 331.72,409.93 c -0.83,0 -1.64,-0.11 -1.91,-0.49 a 0.59,0.59 0 0 1 0,-0.67 0.77,0.77 0 0 1 0.49,-0.36 c 1.08,-0.29 3.36,1 3.45,1.06 a 0.14,0.14 0 0 1 0.08,0.15 0.15,0.15 0 0 1 -0.13,0.13 11.58,11.58 0 0 1 -1.98,0.18 z m -1,-1.26 a 1,1 0 0 0 -0.3,0 0.49,0.49 0 0 0 -0.3,0.21 c -0.11,0.19 -0.07,0.29 0,0.34 0.3,0.42 1.95,0.43 3.16,0.26 a 7,7 0 0 0 -2.59,-0.81 z"
       style="fill:#407bff"
       id="path51" />
    <path
       d="m 333.68,409.75 h -0.06 c -0.78,-0.35 -2.34,-1.76 -2.22,-2.49 0,-0.18 0.15,-0.39 0.57,-0.43 a 1.12,1.12 0 0 1 0.86,0.26 4.4,4.4 0 0 1 1,2.51 0.15,0.15 0 0 1 -0.07,0.13 0.12,0.12 0 0 1 -0.08,0.02 z m -1.58,-2.63 H 332 c -0.28,0 -0.3,0.14 -0.3,0.18 -0.08,0.44 1,1.54 1.78,2 a 3.52,3.52 0 0 0 -0.86,-2 0.78,0.78 0 0 0 -0.52,-0.18 z"
       style="fill:#407bff"
       id="path52" />
    <polygon
       points="333.69,394.54 340.19,394.54 340.83,409.6 334.33,409.6 "
       style="fill:#ff8b7b"
       id="polygon52" />
    <polygon
       points="377.71,389.78 383.8,388.38 390.91,402.82 384.82,404.21 "
       style="fill:#ff8b7b"
       id="polygon53" />
    <path
       d="m 383.94,403.52 6.64,-3 a 0.57,0.57 0 0 1 0.69,0.17 l 3.58,4.72 a 1,1 0 0 1 -0.39,1.45 c -2.33,1 -3.52,1.4 -6.44,2.74 -1.79,0.82 -8.14,5.3 -10.81,5.87 -2.67,0.57 -3.58,-2 -2.54,-2.46 a 18.66,18.66 0 0 0 8.48,-8.64 1.58,1.58 0 0 1 0.79,-0.85 z"
       style="fill:#263238"
       id="path53" />
    <path
       d="m 334.38,408.85 h 7.1 a 0.57,0.57 0 0 1 0.55,0.44 l 1.28,5.78 a 0.94,0.94 0 0 1 -0.93,1.16 c -2.56,-0.05 -6.26,-0.2 -9.48,-0.2 -3.77,0 -7,0.21 -11.43,0.21 -2.67,0 -3.41,-2.7 -2.29,-2.94 5.08,-1.12 9.23,-1.24 13.63,-3.95 a 3,3 0 0 1 1.57,-0.5 z"
       style="fill:#263238"
       id="path54" />
    <path
       d="m 362.31,219.3 c 0.68,1.75 1.42,3.45 2.18,5 1.29,2.76 2.58,5.17 3.52,6.84 0.84,1.5 1.39,2.39 1.39,2.39 l 14.2,-7 c 0,0 -5.72,-16.45 -11.7,-18.28 -5.98,-1.83 -12.66,3.21 -9.59,11.05 z"
       style="fill:#263238"
       id="path55" />
    <path
       d="m 368.6,220.93 c -1.23,0.91 -2.12,3.36 -2.75,6.23 0.81,1.58 1.56,3 2.16,4 0.84,1.5 1.38,2.39 1.38,2.39 l 1.63,-0.81 a 31.37,31.37 0 0 0 -2.42,-11.81 z"
       style="opacity:0.2"
       id="path56" />
    <path
       d="m 332.28,229.79 c 0,2.21 0.05,4.65 0.18,7.33 0.32,7.29 1.11,16.38 2.64,27.67 h 34.77 c 0.24,-5.33 -3.12,-31.38 2,-56.53 a 92,92 0 0 0 -11.64,-1.47 130,130 0 0 0 -14.78,0 66.29,66.29 0 0 0 -10,1.81 c 0,0 -3.18,3.62 -3.17,21.19 z"
       style="fill:#263238"
       id="path57" />
    <path
       d="m 333.3,225.1 c -0.32,0.7 -0.66,1.41 -1,2.17 0,0.81 0,1.65 0,2.52 0,0.35 0,0.71 0,1.07 4.32,-2.63 7.15,-8.15 7.15,-8.15 z"
       style="opacity:0.2"
       id="path58" />
    <path
       d="m 342.74,220.37 -1,0.62 -0.88,0.51 c -0.59,0.35 -1.14,0.6 -1.7,0.91 -1.12,0.55 -2.22,1.07 -3.33,1.57 -2.21,1 -4.47,1.84 -6.74,2.64 a 62.2,62.2 0 0 1 -14.5,3.26 c -0.67,0 -1.29,0.13 -2,0.12 h -1.79 -0.37 a 15.19,15.19 0 0 1 -4.74,-1.14 35.37,35.37 0 0 1 -6.77,-3.76 67.41,67.41 0 0 1 -10.8,-9.37 l 3.48,-4.28 c 3.86,2.14 7.8,4.38 11.65,6.16 a 34.76,34.76 0 0 0 5.55,2.12 6.3,6.3 0 0 0 1.92,0.25 l 1.26,-0.12 c 0.44,0 0.94,-0.14 1.41,-0.2 a 64,64 0 0 0 11.93,-3.47 c 2,-0.75 4,-1.59 5.94,-2.44 1,-0.44 1.93,-0.88 2.85,-1.34 l 1.32,-0.69 0.61,-0.32 0.48,-0.28 z"
       style="fill:#ff8b7b"
       id="path59" />
    <path
       d="m 292.81,212.8 -4.06,-5.24 -4.12,6.93 c 0,0 3.79,2.82 6.82,2.31 z"
       style="fill:#ff8b7b"
       id="path60" />
    <polygon
       points="284.63,214.49 288.75,207.56 282.68,205.43 280.52,211.15 "
       style="fill:#ff8b7b"
       id="polygon60" />
    <path
       d="m 348.61,218.92 c -3.37,5.22 -21.7,10.93 -21.7,10.93 l -7.06,-14.52 a 72.6,72.6 0 0 1 15.56,-6.8 c 11.7,-3.2 17.25,4.12 13.2,10.39 z"
       style="fill:#263238"
       id="path61" />
    <polygon
       points="340.52,402.31 340.19,394.55 333.69,394.55 334.02,402.31 "
       style="opacity:0.2"
       id="polygon61" />
    <polygon
       points="381.38,397.23 387.47,395.83 383.8,388.39 377.71,389.79 "
       style="opacity:0.2"
       id="polygon62" />
    <path
       d="m 359,186.05 c -1.39,6.3 -1.88,10.06 -5.61,12.82 -5.6,4.16 -13,0 -13.52,-6.57 -0.47,-5.94 1.88,-15.24 8.5,-16.8 A 8.8,8.8 0 0 1 359,186.05 Z"
       style="fill:#ff8b7b"
       id="path62" />
    <path
       d="m 364.79,170.61 c 5.53,0.15 7.54,9.34 5.89,12.08 0,0 -1.77,1 -3.92,4.37 -3.26,5.14 -7.42,10.7 -12.3,10.37 -6.06,-0.42 -7,-7.42 -6.79,-13.93 -3.2,-3 -4.95,-3.24 -6.52,-7.59 -4.85,-13.41 4.47,-20.13 23.64,-5.3 z"
       style="fill:#263238"
       id="path63" />
    <path
       d="m 350.28,185.44 a 7.44,7.44 0 0 1 -2,4.34 c -1.51,1.55 -3,0.51 -3.18,-1.45 -0.17,-1.76 0.41,-4.68 2.21,-5.5 1.8,-0.82 3.15,0.64 2.97,2.61 z"
       style="fill:#ff8b7b"
       id="path64" />
    <path
       d="m 347.43,264.79 c 0,0 -0.75,46.27 5.06,64.41 9.21,28.73 25,67.38 25,67.38 l 11.88,-3 c 0,0 -13.09,-39.18 -17.34,-63.38 -3.82,-21.74 -2.2,-47.62 -2.2,-65.38 z"
       style="fill:#407bff"
       id="path65" />
    <path
       d="m 353.92,272.74 c 1.23,8.34 -3.12,31.55 -4.62,39.15 -1.58,-14.21 -1.87,-31.07 -1.89,-40.27 3.18,-2.16 5.94,-2.72 6.51,1.12 z"
       style="opacity:0.2"
       id="path66" />
    <path
       d="m 374.35,393.08 c -0.05,0 2.91,3.76 2.91,3.76 l 13,-3.31 -1.44,-4.41 z"
       style="fill:#407bff"
       id="path67" />
    <path
       d="m 374.35,393.08 c -0.05,0 2.91,3.76 2.91,3.76 l 13,-3.31 -1.44,-4.41 z"
       style="opacity:0.2;fill:#ffffff"
       id="path68" />
    <path
       d="m 335.09,264.79 c 0,0 -9.79,41.51 -10.48,61.34 -0.77,22.23 7,74.68 7,74.68 h 11 c 0,0 1.39,-52.81 1.85,-73.11 C 345,305.62 358,264.79 358,264.79 Z"
       style="fill:#407bff"
       id="path69" />
    <path
       d="m 329.48,396.42 c -0.05,0 0.62,4.57 0.62,4.57 h 13.4 l 0.36,-4.08 z"
       style="fill:#407bff"
       id="path70" />
    <path
       d="m 329.48,396.42 c -0.05,0 0.62,4.57 0.62,4.57 h 13.4 l 0.36,-4.08 z"
       style="opacity:0.2;fill:#ffffff"
       id="path71" />
  </g>
</svg>
