<?xml version="1.0" encoding="UTF-8" standalone="no"?>
<svg
   viewBox="0 0 420 420"
   version="1.1"
   id="svg179"
   sodipodi:docname="Medical prescription-rafiki.svg"
   width="420"
   height="420"
   inkscape:version="1.3.2 (091e20e, 2023-11-25, custom)"
   xmlns:inkscape="http://www.inkscape.org/namespaces/inkscape"
   xmlns:sodipodi="http://sodipodi.sourceforge.net/DTD/sodipodi-0.dtd"
   xmlns="http://www.w3.org/2000/svg"
   xmlns:svg="http://www.w3.org/2000/svg">
  <defs
     id="defs179" />
  <sodipodi:namedview
     id="namedview179"
     pagecolor="#ffffff"
     bordercolor="#000000"
     borderopacity="0.25"
     inkscape:showpageshadow="2"
     inkscape:pageopacity="0.0"
     inkscape:pagecheckerboard="0"
     inkscape:deskcolor="#d1d1d1"
     inkscape:zoom="1.462"
     inkscape:cx="250"
     inkscape:cy="250"
     inkscape:window-width="1920"
     inkscape:window-height="1001"
     inkscape:window-x="-9"
     inkscape:window-y="-9"
     inkscape:window-maximized="1"
     inkscape:current-layer="svg179" />
  <g
     id="freepik--background-simple--inject-36"
     transform="matrix(1.0600422,0,0,1.0600422,-49.901139,-50.01069)">
    <path
       d="m 382.56,236.72 c 18.36,-40.37 58.11,-115.21 13,-151.34 -55.71,-44.65 -118.15,-0.46 -154,46.84 -18.17,24 -40.43,28.09 -68.44,31.31 -34.52,4 -59.62,19.27 -77.78,49.81 -23.33,39.22 -9,89.74 18.59,122.79 33.87,40.52 87.27,55.62 137.47,39.59 60.05,-19.15 106.05,-83.79 131.16,-139 z"
       style="fill:#407bff"
       id="path1" />
    <path
       d="m 382.56,236.72 c 18.36,-40.37 58.11,-115.21 13,-151.34 -55.71,-44.65 -118.15,-0.46 -154,46.84 -18.17,24 -40.43,28.09 -68.44,31.31 -34.52,4 -59.62,19.27 -77.78,49.81 -23.33,39.22 -9,89.74 18.59,122.79 33.87,40.52 87.27,55.62 137.47,39.59 60.05,-19.15 106.05,-83.79 131.16,-139 z"
       style="fill:#407bff"
       id="path2" />
    <path
       d="m 382.56,236.72 c 18.36,-40.37 58.11,-115.21 13,-151.34 -55.71,-44.65 -118.15,-0.46 -154,46.84 -18.17,24 -40.43,28.09 -68.44,31.31 -34.52,4 -59.62,19.27 -77.78,49.81 -23.33,39.22 -9,89.74 18.59,122.79 33.87,40.52 87.27,55.62 137.47,39.59 60.05,-19.15 106.05,-83.79 131.16,-139 z"
       style="opacity:0.9;fill:#ffffff"
       id="path3" />
  </g>
  <g
     id="freepik--Shadow--inject-36"
     transform="matrix(1.0600422,0,0,1.0600422,-49.901139,-50.01069)">
    <ellipse
       id="freepik--path--inject-36"
       cx="245.17999"
       cy="412.39001"
       rx="193.89"
       ry="11.32"
       style="fill:#f5f5f5" />
  </g>
  <g
     id="freepik--Character--inject-36"
     transform="matrix(1.0600422,0,0,1.0600422,-49.901139,-50.01069)">
    <path
       d="m 346.77,237.11 c 0.66,-0.08 19.78,1.81 21,22.3 l -3.27,14.2 v 0 a 66.26,66.26 0 0 0 -47.79,0.64 l -0.23,0.1 1.33,-16.22 c 0,0 4.9,-18.2 28.96,-21.02 z"
       style="fill:#263238"
       id="path4" />
    <path
       d="m 306.62,336.07 3.84,0.33 a 660.41,660.41 0 0 1 8.25,-72.75 29.92,29.92 0 0 1 12.7,-19.26 19.75,19.75 0 0 1 4.5,-2.43 24.81,24.81 0 0 1 9.29,-2 v 0 c 0,0 0,0 0,0 v 0 a 28.05,28.05 0 0 1 3.88,0.27 20.1,20.1 0 0 1 8.11,3.15 39.15,39.15 0 0 1 3.28,2.81 17.69,17.69 0 0 1 1.53,1.81 21.19,21.19 0 0 1 3.28,16.81 602.77,602.77 0 0 0 -8.51,66.56 l 3.84,0.26 A 599,599 0 0 1 369,265.59 25,25 0 0 0 365.07,245.72 23.24,23.24 0 0 0 347.87,236 c -15,-1 -30.61,11.19 -32.92,26.83 a 666.75,666.75 0 0 0 -8.33,73.24 z"
       style="fill:#263238"
       id="path5" />
    <path
       d="m 306.62,336.07 3.84,0.33 a 660.41,660.41 0 0 1 8.25,-72.75 29.92,29.92 0 0 1 12.7,-19.26 19.75,19.75 0 0 1 4.5,-2.43 24.81,24.81 0 0 1 9.29,-2 v 0 a 28.05,28.05 0 0 1 3.88,0.27 20.1,20.1 0 0 1 8.11,3.15 39.15,39.15 0 0 1 3.28,2.81 17.69,17.69 0 0 1 1.53,1.81 21.19,21.19 0 0 1 3.28,16.81 602.77,602.77 0 0 0 -8.51,66.56 l 3.84,0.26 A 599,599 0 0 1 369,265.59 25,25 0 0 0 365.07,245.72 23.24,23.24 0 0 0 347.87,236 c -15,-1 -30.61,11.19 -32.92,26.83 a 666.75,666.75 0 0 0 -8.33,73.24 z"
       style="opacity:0.3;fill:#ffffff"
       id="path6" />
    <path
       d="m 272.34,324.37 h 88.34 v 2.05 a 7.33,7.33 0 0 1 -7.33,7.33 h -73.67 a 7.33,7.33 0 0 1 -7.33,-7.33 v -2.05 z"
       transform="rotate(180,316.51,329.06)"
       style="fill:#263238"
       id="path7" />
    <polygon
       points="357.69,410.92 362.38,410.92 358.54,333.76 352.56,333.76 "
       style="fill:#263238"
       id="polygon7" />
    <polygon
       points="357.69,410.92 362.38,410.92 358.54,333.76 352.56,333.76 "
       style="opacity:0.3;fill:#ffffff"
       id="polygon8" />
    <polygon
       points="326.32,410.92 331.01,410.92 328.45,333.76 322.48,333.76 "
       style="fill:#263238"
       id="polygon9" />
    <polygon
       points="326.32,410.92 331.01,410.92 328.45,333.76 322.48,333.76 "
       style="opacity:0.3;fill:#ffffff"
       id="polygon10" />
    <polygon
       points="302,410.92 306.69,410.92 310.53,333.76 304.56,333.76 "
       style="fill:#263238"
       id="polygon11" />
    <polygon
       points="302,410.92 306.69,410.92 310.53,333.76 304.56,333.76 "
       style="opacity:0.3;fill:#ffffff"
       id="polygon12" />
    <polygon
       points="270.63,410.92 275.33,410.92 280.45,333.76 274.47,333.76 "
       style="fill:#263238"
       id="polygon13" />
    <polygon
       points="270.63,410.92 275.33,410.92 280.45,333.76 274.47,333.76 "
       style="opacity:0.3;fill:#ffffff"
       id="polygon14" />
    <rect
       x="268.48999"
       y="330.34"
       width="52.490002"
       height="6.8299999"
       transform="rotate(180,294.735,333.755)"
       style="fill:#263238"
       id="rect14" />
    <rect
       x="268.48999"
       y="330.34"
       width="52.490002"
       height="6.8299999"
       transform="rotate(180,294.735,333.755)"
       style="opacity:0.7;fill:#ffffff"
       id="rect15" />
    <rect
       x="320.98001"
       y="330.34"
       width="43.549999"
       height="6.8299999"
       transform="rotate(180,342.755,333.755)"
       style="fill:#263238"
       id="rect16" />
    <rect
       x="320.98001"
       y="330.34"
       width="43.549999"
       height="6.8299999"
       transform="rotate(180,342.755,333.755)"
       style="opacity:0.4;fill:#ffffff"
       id="rect17" />
    <path
       d="m 305.2,224.87 c -9.54,1.88 -28.44,10 -28.56,9.56 0,0 -15.91,-3.77 -22.45,-11 0,0 -6.25,-0.77 -9.52,-1.42 2.37,5.59 7,12.37 12.14,15.6 6.53,4.1 8.31,5.34 14.77,7.8 8.08,3.08 20.45,-0.19 28.46,-3.47 2.95,-1.21 6,-2.75 7.71,-5.43 1.71,-2.68 0.1,-9.85 -2.55,-11.64 z"
       style="fill:#407bff"
       id="path17" />
    <path
       d="m 305.2,224.87 c -9.54,1.88 -28.44,10 -28.56,9.56 0,0 -15.91,-3.77 -22.45,-11 0,0 -6.25,-0.77 -9.52,-1.42 2.37,5.59 7,12.37 12.14,15.6 6.53,4.1 8.31,5.34 14.77,7.8 8.08,3.08 20.45,-0.19 28.46,-3.47 2.95,-1.21 6,-2.75 7.71,-5.43 1.71,-2.68 0.1,-9.85 -2.55,-11.64 z"
       style="opacity:0.7;fill:#ffffff"
       id="path18" />
    <path
       d="m 279.86,224.4 h -23.77 c -3.32,-12 3.33,-24.07 0,-36.1 h 23.77 c 3.33,12.03 -3.33,24.07 0,36.1 z"
       style="fill:#407bff"
       id="path19" />
    <g
       style="opacity:0.7"
       id="g20">
      <path
         d="m 279.86,224.4 h -23.77 c -3.32,-12 3.33,-24.07 0,-36.1 h 23.77 c 3.33,12.03 -3.33,24.07 0,36.1 z"
         style="fill:#ffffff"
         id="path20" />
    </g>
    <path
       d="m 259.81,218 -3.81,1.83 a 6.26,6.26 0 0 1 -2.3,3.09 16.21,16.21 0 0 1 -3.38,1.43 4.58,4.58 0 0 1 -4.8,-1.33 1.82,1.82 0 0 1 -0.38,-2 l 3.65,-6.82 a 2.81,2.81 0 0 1 2.05,-1.45 l 6,-0.95 a 2.08,2.08 0 0 1 2,0.79 l 1.76,2.31 a 2.07,2.07 0 0 1 -0.79,3.1 z"
       style="fill:#ce7a63"
       id="path21" />
    <polygon
       points="345.45,301.85 314.53,308.48 295.86,298.59 301.08,280.92 339.82,281.31 "
       style="fill:#407bff"
       id="polygon21" />
    <polygon
       points="345.45,301.85 314.53,308.48 295.86,298.59 301.08,280.92 339.82,281.31 "
       style="opacity:0.1"
       id="polygon22" />
    <g
       id="freepik--freepik--Character--inject-5--inject-36">
      <path
         d="M 298.07,236.68 A 77.77,77.77 0 0 0 298,252.52 c 0.29,7.08 1.83,14.52 3.76,26 3.87,2.27 23.48,1.33 36,-0.29 -0.76,-10 0.49,-21.52 7.29,-44.11 1.58,-5.24 -1.94,-10.27 -7.56,-10.8 -1.5,-0.15 -3.1,-0.27 -4.73,-0.34 a 129.9,129.9 0 0 0 -17.2,0 c -1.83,0.17 -3.81,0.39 -5.66,0.62 -6.67,0.85 -10.6,5.99 -11.83,13.08 z"
         style="fill:#407bff"
         id="path22" />
      <path
         d="m 301.08,280.92 a 170.46,170.46 0 0 0 38.05,-0.08 0.91,0.91 0 0 0 0.69,-1.09 v -0.12 c -0.31,-0.73 -0.63,-1.46 -0.92,-2.19 a 0.8,0.8 0 0 0 -0.82,-0.5 168.18,168.18 0 0 1 -36.58,0 0.81,0.81 0 0 0 -0.91,0.7 0.13,0.13 0 0 1 0,0.06 c -0.08,0.76 -0.15,1.51 -0.22,2.27 a 0.85,0.85 0 0 0 0.75,0.95 z"
         style="fill:#407bff"
         id="path23" />
      <path
         d="m 315.11,222.67 c -9.35,12 -10,41.66 -7.65,99.92 0.21,5.08 -4.66,4.71 -9.43,3.73 -7.1,-1.47 -9.92,-0.94 -9.92,-0.94 0,0 11.33,-29.75 9.49,-56.43 -1.84,-26.68 -0.56,-36.11 3.77,-41 4.33,-4.89 13.74,-5.28 13.74,-5.28 z"
         style="fill:#407bff"
         id="path24" />
      <path
         d="m 315.11,222.67 c -9.35,12 -10,41.66 -7.65,99.92 0.2,5.08 -4.42,4.53 -9.44,3.73 a 58.13,58.13 0 0 0 -9.91,-0.94 c 0,0 11.33,-29.75 9.49,-56.43 -1.84,-26.68 -0.56,-36.11 3.77,-41 4.33,-4.89 13.74,-5.28 13.74,-5.28 z"
         style="opacity:0.7;fill:#ffffff"
         id="path25" />
      <path
         d="m 331.57,203.6 c -1.49,5.51 -3.33,15.68 0.27,19.38 0,0 -4.75,3.81 -14.82,7.48 -3,-0.77 -2.37,-7.48 -2.37,-7.48 6.29,-1.48 6.47,-6 5.71,-10.35 z"
         style="fill:#ce7a63"
         id="path26" />
      <path
         d="m 327,207.28 -6.65,5.34 a 17.32,17.32 0 0 1 0.3,3 c 2.39,-0.34 5.82,-2.92 6.26,-5.4 a 8.58,8.58 0 0 0 0.09,-2.94 z"
         style="opacity:0.2"
         id="path27" />
      <path
         d="m 321.25,183.35 a 42.15,42.15 0 0 0 -7.87,30.82 c -3.16,-6 -6,-2.73 -6.23,-9.49 -0.1,-3.4 1.67,-17.19 3.18,-20.24 1.51,-3.05 4.6,-5.51 8,-5.37 a 4.78,4.78 0 0 1 3.29,1.34 c 0.83,0.89 0.38,1.97 -0.37,2.94 z"
         style="fill:#263238"
         id="path28" />
      <path
         d="m 336.3,192.49 c -1.67,8.94 -2.2,12.76 -7.33,17 -7.68,6.42 -18.22,3 -19.26,-6.07 -0.91,-8.21 2,-21.45 11.21,-24.4 a 11.65,11.65 0 0 1 15.38,13.43 z"
         style="fill:#ce7a63"
         id="path29" />
      <path
         d="m 320.78,194.54 c -0.21,0.73 -0.78,1.24 -1.24,1.14 -0.46,-0.1 -0.69,-0.78 -0.48,-1.51 0.21,-0.73 0.78,-1.25 1.25,-1.15 0.47,0.1 0.69,0.78 0.47,1.52 z"
         style="fill:#263238"
         id="path30" />
      <path
         d="m 313.18,192.71 c -0.21,0.73 -0.77,1.24 -1.24,1.14 -0.47,-0.1 -0.69,-0.79 -0.47,-1.51 0.22,-0.72 0.77,-1.25 1.24,-1.14 0.47,0.11 0.69,0.8 0.47,1.51 z"
         style="fill:#263238"
         id="path31" />
      <path
         d="m 312.91,191.28 -1.6,-0.89 c 0,0 0.5,1.61 1.6,0.89 z"
         style="fill:#263238"
         id="path32" />
      <path
         d="m 315.31,194.46 a 22.61,22.61 0 0 1 -3.95,4.11 3,3 0 0 0 2.44,1.06 z"
         style="fill:#ba4d3c"
         id="path33" />
      <path
         d="m 317.18,203.25 a 6.51,6.51 0 0 1 -1.24,-0.18 0.2,0.2 0 0 1 -0.16,-0.25 v 0 a 0.24,0.24 0 0 1 0.28,-0.16 6.36,6.36 0 0 0 5.35,-1.25 0.22,0.22 0 0 1 0.31,0 v 0 a 0.23,0.23 0 0 1 0,0.31 v 0 a 6.69,6.69 0 0 1 -4.54,1.53 z"
         style="fill:#263238"
         id="path34" />
      <path
         d="m 314.5,180.22 c 2.8,-3.85 10.41,-4.9 14.87,-3.84 15.8,3.77 8.55,16.9 17.7,24.28 -2.66,4.77 -5.22,3.76 -8.32,5.91 -1.81,1.26 -6.61,5.19 -8.78,5 0.11,-4.47 2.07,-9.61 1.16,-14 a 25.32,25.32 0 0 0 -5.59,-11.84 c -2.91,-3.2 -6.84,-5.73 -11.04,-5.51 z"
         style="fill:#263238"
         id="path35" />
      <path
         d="m 314.5,180.22 c 2.8,-3.85 10.41,-4.9 14.87,-3.84 15.8,3.77 8.55,16.9 17.7,24.28 -2.66,4.77 -5.22,3.76 -8.32,5.91 -1.81,1.26 -6.61,5.19 -8.78,5 0.11,-4.47 2.07,-9.61 1.16,-14 a 25.32,25.32 0 0 0 -5.59,-11.84 c -2.91,-3.2 -6.84,-5.73 -11.04,-5.51 z"
         style="opacity:0.2"
         id="path36" />
      <path
         d="m 314.5,180.22 c 2.8,-3.85 10.41,-4.9 14.87,-3.84 15.8,3.77 8.55,16.9 17.7,24.28 -2.66,4.77 -5.22,3.76 -8.32,5.91 -1.81,1.26 -6.61,5.19 -8.78,5 0.11,-4.47 2.07,-9.61 1.16,-14 a 25.32,25.32 0 0 0 -5.59,-11.84 c -2.91,-3.2 -6.84,-5.73 -11.04,-5.51 z"
         style="fill:#263238"
         id="path37" />
      <path
         d="m 314.5,180.22 c 2.8,-3.85 10.41,-4.9 14.87,-3.84 15.8,3.77 8.55,16.9 17.7,24.28 -2.66,4.77 -5.22,3.76 -8.32,5.91 -1.81,1.26 -6.61,5.19 -8.78,5 0.11,-4.47 2.07,-9.61 1.16,-14 a 25.32,25.32 0 0 0 -5.59,-11.84 c -2.91,-3.2 -6.84,-5.73 -11.04,-5.51 z"
         style="opacity:0.1"
         id="path38" />
      <path
         d="m 335.77,201.54 a 6.21,6.21 0 0 1 -4.18,2.84 c -2.13,0.3 -2.75,-2.18 -1.76,-4.46 0.92,-2 3.05,-4.68 5,-3.92 1.95,0.76 2.17,3.59 0.94,5.54 z"
         style="fill:#ce7a63"
         id="path39" />
      <path
         d="m 324.19,191.62 a 0.35,0.35 0 0 1 -0.23,-0.23 3.28,3.28 0 0 0 -2.31,-2.07 0.4,0.4 0 0 1 -0.34,-0.45 0.09,0.09 0 0 1 0,-0.05 0.47,0.47 0 0 1 0.54,-0.36 4.05,4.05 0 0 1 2.94,2.59 0.45,0.45 0 0 1 -0.27,0.57 0.45,0.45 0 0 1 -0.33,0 z"
         style="fill:#263238"
         id="path40" />
      <path
         d="m 311.5,188.38 a 0.41,0.41 0 0 1 -0.4,-0.43 0.41,0.41 0 0 1 0.18,-0.32 4.68,4.68 0 0 1 4,-1.14 0.43,0.43 0 0 1 0.3,0.51 v 0 a 0.49,0.49 0 0 1 -0.57,0.31 3.73,3.73 0 0 0 -3.14,0.93 0.48,0.48 0 0 1 -0.37,0.14 z"
         style="fill:#263238"
         id="path41" />
      <path
         d="m 320.51,193.11 -1.6,-0.89 c 0,0 0.5,1.57 1.6,0.89 z"
         style="fill:#263238"
         id="path42" />
    </g>
    <path
       d="m 315.86,179.84 a 8.43,8.43 0 0 0 -1.6,2.52 3.39,3.39 0 0 0 0.16,2.89 4.23,4.23 0 0 0 2.06,1.58 12,12 0 0 0 2.55,0.79 3.1,3.1 0 0 1 -1,-3.23 4,4 0 0 0 1.88,2.75 c 0.9,0.53 1.91,0.82 2.84,1.29 2.93,1.47 8.39,9.17 4.35,25.18 3.57,-1.32 8.58,-13.89 7.75,-17.61 -0.83,-3.72 -1,-13.28 -10.51,-16.62 -2.57,-0.89 -5.87,-0.28 -8.48,0.46 z"
       style="fill:#263238"
       id="path43" />
    <polygon
       points="269.67,402.38 261.08,403.21 255.99,379.01 266.12,377.84 "
       style="fill:#ce7a63"
       id="polygon43" />
    <path
       d="m 257.53,401.21 a 4.57,4.57 0 0 1 3,-1.36 l 9.21,-0.64 a 0.81,0.81 0 0 1 0.9,0.67 l 1.78,8.55 a 1.82,1.82 0 0 1 -1.38,2.16 H 271 c -3.48,0.9 -5.67,0.17 -11,0.54 -3.28,0.23 -10.25,1.53 -14.72,0.79 -4.47,-0.74 -3.9,-5.17 -2,-5.26 6.86,-0.22 12.48,-3.66 14.25,-5.45 z"
       style="fill:#263238"
       id="path44" />
    <g
       style="opacity:0.2"
       id="g44">
      <polygon
         points="255.99,379.02 258.95,393.09 268.06,391.19 266.13,377.85 "
         id="polygon44" />
    </g>
    <path
       d="m 309.83,328.84 c -0.34,0 -0.69,0 -1.05,0 a 14.72,14.72 0 0 1 -1.75,-0.13 l -46,-2.46 c 7.43,6.81 8.65,61.38 8.65,61.38 l -2.2,0.47 -10,2.13 v 0 l -1.83,0.39 c 0,0 -4.17,-17.87 -9,-38.37 -2.44,-10.38 -5.6,-21.11 -7,-31.41 a 71,71 0 0 1 -0.66,-8.26 c 0,-0.85 0,-1.69 0,-2.53 a 2.26,2.26 0 0 1 0,-0.26 c 0,-0.36 0,-0.7 0.08,-1 a 9,9 0 0 1 2,-4.52 l 0.34,-0.39 a 4.17,4.17 0 0 1 0.36,-0.37 10.28,10.28 0 0 1 0.76,-0.71 c 0.28,-0.23 0.56,-0.46 0.86,-0.68 l 0.77,-0.53 c 0.32,-0.2 0.64,-0.39 1,-0.58 a 5.12,5.12 0 0 1 0.52,-0.27 c 0.52,-0.28 1.06,-0.54 1.63,-0.78 l 0.49,-0.21 0.67,-0.25 c 0.2,-0.09 0.4,-0.16 0.6,-0.23 0.61,-0.22 1.24,-0.43 1.89,-0.6 l 0.33,-0.1 h 0.09 c 17.45,-4.94 47.13,-1.13 47.13,-1.13 0,0 7.84,-5.8 16.17,-6.9 l 1.18,0.13 3.71,0.41 a 0.9,0.9 0 0 1 0.16,0 c 12.27,21.37 4.66,37.6 -9.9,37.76 z"
       style="fill:#407bff"
       id="path45" />
    <g
       style="opacity:0.1"
       id="g46">
      <path
         d="m 309.83,328.84 c -0.34,0 -0.69,0 -1.05,0 a 14.72,14.72 0 0 1 -1.75,-0.13 l -46,-2.46 c 7.43,6.81 8.65,61.38 8.65,61.38 l -2.2,0.47 -10,2.13 v 0 l -1.83,0.39 c 0,0 -4.17,-17.87 -9,-38.37 -2.44,-10.38 -5.6,-21.11 -7,-31.41 a 71,71 0 0 1 -0.66,-8.26 c 0,-0.85 0,-1.69 0,-2.53 a 2.26,2.26 0 0 1 0,-0.26 c 0,-0.36 0,-0.7 0.08,-1 a 9,9 0 0 1 2,-4.52 l 0.34,-0.39 a 4.17,4.17 0 0 1 0.36,-0.37 10.28,10.28 0 0 1 0.76,-0.71 c 0.28,-0.23 0.56,-0.46 0.86,-0.68 l 0.77,-0.53 c 0.32,-0.2 0.64,-0.39 1,-0.58 a 5.12,5.12 0 0 1 0.52,-0.27 c 0.52,-0.28 1.06,-0.54 1.63,-0.78 l 0.49,-0.21 0.67,-0.25 c 0.2,-0.09 0.4,-0.16 0.6,-0.23 0.61,-0.22 1.24,-0.43 1.89,-0.6 l 0.33,-0.1 h 0.09 c 17.45,-4.94 47.13,-1.13 47.13,-1.13 0,0 7.84,-5.8 16.17,-6.9 l 1.18,0.13 3.71,0.41 a 0.9,0.9 0 0 1 0.16,0 c 12.27,21.37 4.66,37.6 -9.9,37.76 z"
         id="path46" />
    </g>
    <polygon
       points="202.64,359.82 207.36,349.88 212.8,361.29 210.34,365.06 204.86,373.46 195.69,374.42 "
       style="fill:#ce7a63"
       id="polygon46" />
    <path
       d="m 198,368.13 7.59,4.74 a 0.8,0.8 0 0 1 0.35,1 l -3.72,8.68 a 1.77,1.77 0 0 1 -2.38,0.78 h -0.05 c -3.54,-2.15 -5.13,-3.36 -9.62,-6 L 179,370.85 c -3.82,-2.24 -1.76,-6.1 0.05,-5.51 8,2.66 13.43,3 17,2.44 a 2.87,2.87 0 0 1 1.95,0.35 z"
       style="fill:#263238"
       id="path47" />
    <g
       style="opacity:0.2"
       id="g47">
      <polygon
         points="210.35,365.06 210.34,365.06 202.64,359.82 207.36,349.88 212.8,361.29 "
         id="polygon47" />
    </g>
    <path
       d="m 312.79,329.68 a 21.38,21.38 0 0 1 -3,-0.58 c -0.34,-0.08 -0.69,-0.18 -1.05,-0.29 -8.44,-2.43 -20.59,-9.08 -31.9,-15.63 -10.42,-6 -20.09,-12 -25.45,-14.44 h -0.09 l -0.33,0.1 c -0.65,0.18 -1.28,0.39 -1.89,0.61 a 4.84,4.84 0 0 0 -0.6,0.22 l -0.67,0.25 -0.49,0.21 c -0.57,0.24 -1.11,0.51 -1.63,0.78 -0.18,0.08 -0.35,0.18 -0.52,0.27 -0.34,0.19 -0.66,0.38 -1,0.58 l -0.77,0.54 c -0.3,0.22 -0.58,0.44 -0.86,0.67 a 10.28,10.28 0 0 0 -0.76,0.71 c -0.13,0.12 -0.25,0.25 -0.36,0.37 l -0.34,0.39 a 9,9 0 0 0 -2,4.52 c 0,0.34 -0.07,0.69 -0.08,1 0,0.84 0,1.68 0,2.53 a 71.89,71.89 0 0 0 0.63,8.31 v 0.21 c -12.56,22.65 -25.62,43.19 -25.62,43.19 l -2.22,-1.53 -8,-5.48 -1.38,-1 c 0,0 13.94,-32.66 23.53,-61.76 a 26.55,26.55 0 0 1 25.44,-18.28 c 23.67,0.21 54.75,13.29 54.75,13.29 l 8.53,0.91 1.18,0.13 3.71,0.41 a 0.9,0.9 0 0 1 0.16,0 c 2,0.22 4.24,0.38 6.41,0.54 a 11.6,11.6 0 0 1 10.36,8.53 c 6.36,23.18 -8.77,31.55 -23.69,29.72 z"
       style="fill:#407bff"
       id="path48" />
    <path
       d="m 312.79,329.68 a 21.38,21.38 0 0 1 -3,-0.58 c -0.34,-0.08 -0.69,-0.18 -1.05,-0.29 -8.44,-2.43 -20.59,-9.08 -31.9,-15.63 -10.42,-6 -20.09,-12 -25.45,-14.44 h -0.09 l -0.33,0.1 c -0.65,0.18 -1.28,0.39 -1.89,0.61 a 4.84,4.84 0 0 0 -0.6,0.22 l -0.67,0.25 -0.49,0.21 c -0.57,0.24 -1.11,0.51 -1.63,0.78 -0.18,0.08 -0.35,0.18 -0.52,0.27 -0.34,0.19 -0.66,0.38 -1,0.58 l -0.77,0.54 c -0.3,0.22 -0.58,0.44 -0.86,0.67 a 10.28,10.28 0 0 0 -0.76,0.71 c -0.13,0.12 -0.25,0.25 -0.36,0.37 l -0.34,0.39 a 9,9 0 0 0 -2,4.52 c 0,0.34 -0.07,0.69 -0.08,1 0,0.84 0,1.68 0,2.53 a 71.89,71.89 0 0 0 0.63,8.31 v 0.21 c -12.56,22.65 -25.62,43.19 -25.62,43.19 l -2.22,-1.53 -8,-5.48 -1.38,-1 c 0,0 13.94,-32.66 23.53,-61.76 a 26.55,26.55 0 0 1 25.44,-18.28 c 23.67,0.21 54.75,13.29 54.75,13.29 l 8.53,0.91 1.18,0.13 3.71,0.41 a 0.9,0.9 0 0 1 0.16,0 c 2,0.22 4.24,0.38 6.41,0.54 a 11.6,11.6 0 0 1 10.36,8.53 c 6.36,23.18 -8.77,31.55 -23.69,29.72 z"
       style="fill:#407bff"
       id="path49" />
    <path
       d="m 251.34,298.49 v 0 l -0.33,0.09 z"
       style="fill:#407bff"
       id="path50" />
    <path
       d="m 332.23,222.12 c 0,0 -6.51,5.78 -8.45,19.73 -3.1,22.49 -1.48,65.85 -0.32,90.62 a 5.37,5.37 0 0 0 7.26,4.76 c 7.73,-2.88 20.36,-0.62 26,-5.51 0.41,-7.46 -12.57,-45.58 -11.31,-65.31 1.26,-19.73 3.72,-36.92 1.17,-40.64 -2.55,-3.72 -14.35,-3.65 -14.35,-3.65 z"
       style="fill:#407bff"
       id="path51" />
    <path
       d="m 332.23,222.12 c 0,0 -6.51,5.78 -8.45,19.73 -3.1,22.49 -1.31,65.85 -0.14,90.62 a 5.36,5.36 0 0 0 7.25,4.76 c 7.73,-2.88 20.19,-0.62 25.86,-5.51 0.41,-7.46 -12.57,-45.58 -11.31,-65.31 1.26,-19.73 3.72,-36.92 1.17,-40.64 -2.55,-3.72 -14.38,-3.65 -14.38,-3.65 z"
       style="opacity:0.7;fill:#ffffff"
       id="path52" />
    <path
       d="m 331.94,251.72 a 0.33,0.33 0 0 1 -0.31,-0.35 0.33,0.33 0 0 1 0.18,-0.28 l 1.39,-0.68 a 7.09,7.09 0 0 0 4,-7 l -1.13,-13.53 a 4.5,4.5 0 0 0 -8.65,-1.33 l -5.16,12.54 a 7.11,7.11 0 0 0 1.67,7.89 l 1.13,1.07 a 0.34,0.34 0 0 1 0,0.47 0.33,0.33 0 0 1 -0.47,0 l -1.13,-1.07 a 7.76,7.76 0 0 1 -1.8,-8.63 l 5.2,-12.51 a 5.17,5.17 0 0 1 9.93,1.54 l 1.12,13.51 A 7.75,7.75 0 0 1 333.5,251 l -1.39,0.67 a 0.25,0.25 0 0 1 -0.17,0.05 z"
       style="fill:#263238"
       id="path53" />
    <path
       d="m 336.6,232.84 a 0.34,0.34 0 0 1 -0.32,-0.3 5.35,5.35 0 0 0 -9.88,-1.54 0.34,0.34 0 1 1 -0.63,-0.23 c 0,0 0,0 0,0 a 6,6 0 0 1 11.15,1.73 0.33,0.33 0 0 1 -0.29,0.36 z"
       style="fill:#263238"
       id="path54" />
    <path
       d="m 332.29,225.8 v 0 a 0.32,0.32 0 0 1 -0.3,-0.35 v 0 c 0.14,-1.63 0,-4.61 -1.53,-5.42 a 0.3312099,0.3312099 0 1 1 0.32,-0.58 v 0 c 2.2,1.2 1.88,5.56 1.83,6.06 a 0.32,0.32 0 0 1 -0.32,0.29 z"
       style="fill:#263238"
       id="path55" />
    <path
       d="m 325.56,250.39 c -0.1,0.63 -0.51,1.08 -0.92,1 -0.41,-0.08 -0.66,-0.61 -0.56,-1.23 0.1,-0.62 0.5,-1.08 0.91,-1 0.41,0.08 0.66,0.62 0.57,1.23 z"
       style="fill:#263238"
       id="path56" />
    <path
       d="m 332.69,251.51 c -0.09,0.61 -0.5,1.06 -0.91,1 -0.41,-0.06 -0.66,-0.62 -0.56,-1.24 0.1,-0.62 0.5,-1.06 0.91,-1 0.41,0.06 0.66,0.61 0.56,1.24 z"
       style="fill:#263238"
       id="path57" />
    <path
       d="m 314.66,238.54 c -0.34,1.39 -1.36,2.34 -2.24,2.12 -0.88,-0.22 -1.38,-1.5 -1,-2.93 0.38,-1.43 1.36,-2.34 2.24,-2.11 0.88,0.23 1.34,1.53 1,2.92 z"
       style="fill:#263238"
       id="path58" />
    <path
       d="m 311.82,238.06 h -0.07 a 0.33,0.33 0 0 1 -0.31,-0.35 c 0.35,-5.6 3.68,-14.87 7.33,-17.9 a 0.32,0.32 0 0 1 0.47,0 0.33,0.33 0 0 1 0,0.47 0.24,0.24 0 0 1 -0.08,0.06 c -3.52,3 -6.76,11.91 -7.09,17.42 a 0.32,0.32 0 0 1 -0.25,0.3 z"
       style="fill:#263238"
       id="path59" />
    <path
       d="m 315.65,238.68 c -0.23,1.19 -1.11,2 -2,1.87 a 2,2 0 0 1 -1.18,-2.45 c 0.22,-1.2 1.11,-2 2,-1.87 a 2,2 0 0 1 1.18,2.45 z"
       style="fill:#ffffff"
       id="path60" />
    <path
       d="m 315.72,238.79 c -0.31,1.47 -1.12,2.55 -1.79,2.41 -0.67,-0.14 -1,-1.46 -0.64,-2.94 0.36,-1.48 1.12,-2.55 1.79,-2.4 0.67,0.15 0.92,1.45 0.64,2.93 z"
       style="fill:#263238"
       id="path61" />
    <path
       d="m 302.22,270.77 -20.86,0.38 a 1.63,1.63 0 0 1 -1.62,-1.41 l -4,-31.92 a 1.28,1.28 0 0 1 1.27,-1.46 L 297.9,236 a 1.63,1.63 0 0 1 1.62,1.41 l 4,31.92 a 1.28,1.28 0 0 1 -1.3,1.44 z"
       style="fill:#263238"
       id="path62" />
    <path
       d="m 290.28,238.65 -5,0.09 a 2,2 0 0 1 -2,-1.76 l -0.38,-2.98 8.6,-0.16 0.36,2.94 a 1.59,1.59 0 0 1 -1.58,1.87 z"
       style="fill:#263238"
       id="path63" />
    <path
       d="m 290.28,238.65 -5,0.09 a 2,2 0 0 1 -2,-1.76 l -0.38,-2.98 8.6,-0.16 0.36,2.94 a 1.59,1.59 0 0 1 -1.58,1.87 z"
       style="opacity:0.7;fill:#ffffff"
       id="path64" />
    <path
       d="m 298.86,236.05 h -1 a 1.65,1.65 0 0 1 1.62,1.41 l 4,31.93 a 1.28,1.28 0 0 1 -1.27,1.46 h 1 a 1.27,1.27 0 0 0 1.26,-1.46 l -4,-31.93 a 1.65,1.65 0 0 0 -1.61,-1.41 z"
       style="fill:#ffffff"
       id="path65" />
    <path
       d="m 339.41,230.46 c 0.31,0.68 -6.45,27.62 -6.45,27.62 l 5.15,2.27 z"
       style="opacity:0.2"
       id="path66" />
    <path
       d="m 350.5,247.86 c -1.17,10.57 -2.25,14.7 -3,15.85 -3.88,14.33 -16.22,7.12 -18,6.53 -3.08,-1 -6.26,-3.1 -9.2,-4.46 -5.72,-2.59 -11.12,-4.64 -16.47,-7.93 l 2.74,-5.91 c 0,0 20.53,4.46 23.22,5 1.17,0.26 7,1.22 6.87,-1.91 0.6,-1.06 1.13,-19.17 2.81,-26.4 a 6.14,6.14 0 0 1 1.05,-2.24 l 0.17,-0.22 c 1.12,-1.52 1.86,-1.51 3.91,-1.43 4.47,0.18 6.58,3.63 7.05,8.08 v 0 c 0.44,4.18 -0.65,10.92 -1.15,15.04 z"
       style="fill:#407bff"
       id="path67" />
    <g
       style="opacity:0.7"
       id="g68">
      <path
         d="m 350.5,247.86 c -1.17,10.57 -2.25,14.7 -3,15.85 -3.88,14.33 -16.22,7.12 -18,6.53 -3.08,-1 -6.26,-3.1 -9.2,-4.46 -5.72,-2.59 -11.12,-4.64 -16.47,-7.93 l 2.74,-5.91 c 0,0 20.53,4.46 23.22,5 1.17,0.26 7,1.22 6.87,-1.91 0.6,-1.06 1.13,-19.17 2.81,-26.4 a 6.14,6.14 0 0 1 1.05,-2.24 l 0.17,-0.22 c 1.12,-1.52 1.86,-1.51 3.91,-1.43 4.47,0.18 6.58,3.63 7.05,8.08 v 0 c 0.44,4.18 -0.65,10.92 -1.15,15.04 z"
         style="fill:#ffffff"
         id="path68" />
    </g>
    <path
       d="m 306.81,252.64 v 0 a 5.39,5.39 0 0 1 -4.44,6.5 23,23 0 0 1 -4.94,0.19 l -0.38,-10.15 7.77,1.52 a 2.53,2.53 0 0 1 1.99,1.94 z"
       style="fill:#ce7a63"
       id="path69" />
    <path
       d="m 297.05,249.18 0.41,10.18 -3.77,0.22 a 4.7,4.7 0 0 1 -4.87,-3.61 l -0.05,-0.24 a 4.7,4.7 0 0 1 3.72,-5.7 z"
       style="fill:#ce7a63"
       id="path70" />
  </g>
  <g
     id="freepik--Desk--inject-36"
     transform="matrix(1.0600422,0,0,1.0600422,-49.901139,-50.01069)">
    <polygon
       points="202.48,270.8 206.91,270.8 205.19,243.32 "
       style="fill:#263238"
       id="polygon70" />
    <polygon
       points="238.26,270.64 206.45,270.77 204.9,243.33 236.7,243.19 "
       style="fill:#407bff"
       id="polygon71" />
    <polygon
       points="238.26,270.64 206.45,270.77 204.9,243.33 236.7,243.19 "
       style="opacity:0.6;fill:#ffffff"
       id="polygon72" />
    <polygon
       points="236.7,243.19 204.9,243.33 204.6,238.19 236.41,238.06 "
       style="fill:#263238"
       id="polygon73" />
    <path
       d="m 209.36,236.47 a 0.9,0.9 0 0 0 -0.89,-0.84 0.79,0.79 0 0 0 -0.8,0.85 c 0,0.3 0.17,3.09 0.19,3.39 a 0.91,0.91 0 0 0 0.89,0.85 0.8,0.8 0 0 0 0.8,-0.85 c -0.01,-0.24 -0.17,-3.16 -0.19,-3.4 z"
       style="fill:#407bff"
       id="path73" />
    <path
       d="m 215.48,236.45 a 0.9,0.9 0 0 0 -0.89,-0.85 0.8,0.8 0 0 0 -0.8,0.86 c 0,0.3 0.17,3.09 0.19,3.39 a 0.91,0.91 0 0 0 0.9,0.84 0.8,0.8 0 0 0 0.8,-0.85 c -0.02,-0.24 -0.18,-3.15 -0.2,-3.39 z"
       style="fill:#407bff"
       id="path74" />
    <path
       d="m 221.61,236.42 a 0.91,0.91 0 0 0 -0.9,-0.84 0.79,0.79 0 0 0 -0.8,0.85 c 0,0.3 0.18,3.09 0.19,3.39 a 0.91,0.91 0 0 0 0.9,0.85 0.81,0.81 0 0 0 0.8,-0.86 c -0.02,-0.24 -0.18,-3.15 -0.19,-3.39 z"
       style="fill:#407bff"
       id="path75" />
    <path
       d="m 227.73,236.4 a 0.91,0.91 0 0 0 -0.9,-0.85 0.81,0.81 0 0 0 -0.8,0.85 c 0,0.3 0.18,3.1 0.2,3.4 a 0.9,0.9 0 0 0 0.89,0.84 0.79,0.79 0 0 0 0.8,-0.85 c -0.01,-0.24 -0.18,-3.15 -0.19,-3.39 z"
       style="fill:#407bff"
       id="path76" />
    <path
       d="m 233.85,236.37 a 0.9,0.9 0 0 0 -0.89,-0.84 0.79,0.79 0 0 0 -0.8,0.85 c 0,0.3 0.17,3.09 0.19,3.39 a 0.88,0.88 0 0 0 0.89,0.84 0.79,0.79 0 0 0 0.8,-0.85 c -0.04,-0.24 -0.18,-3.15 -0.19,-3.39 z"
       style="fill:#407bff"
       id="path77" />
    <g
       style="opacity:0.7"
       id="g82">
      <path
         d="m 209.36,236.47 a 0.9,0.9 0 0 0 -0.89,-0.84 0.79,0.79 0 0 0 -0.8,0.85 c 0,0.3 0.17,3.09 0.19,3.39 a 0.91,0.91 0 0 0 0.89,0.85 0.8,0.8 0 0 0 0.8,-0.85 c -0.01,-0.24 -0.17,-3.16 -0.19,-3.4 z"
         style="fill:#ffffff"
         id="path78" />
      <path
         d="m 215.48,236.45 a 0.9,0.9 0 0 0 -0.89,-0.85 0.8,0.8 0 0 0 -0.8,0.86 c 0,0.3 0.17,3.09 0.19,3.39 a 0.91,0.91 0 0 0 0.9,0.84 0.8,0.8 0 0 0 0.8,-0.85 c -0.02,-0.24 -0.18,-3.15 -0.2,-3.39 z"
         style="fill:#ffffff"
         id="path79" />
      <path
         d="m 221.61,236.42 a 0.91,0.91 0 0 0 -0.9,-0.84 0.79,0.79 0 0 0 -0.8,0.85 c 0,0.3 0.18,3.09 0.19,3.39 a 0.91,0.91 0 0 0 0.9,0.85 0.81,0.81 0 0 0 0.8,-0.86 c -0.02,-0.24 -0.18,-3.15 -0.19,-3.39 z"
         style="fill:#ffffff"
         id="path80" />
      <path
         d="m 227.73,236.4 a 0.91,0.91 0 0 0 -0.9,-0.85 0.81,0.81 0 0 0 -0.8,0.85 c 0,0.3 0.18,3.1 0.2,3.4 a 0.9,0.9 0 0 0 0.89,0.84 0.79,0.79 0 0 0 0.8,-0.85 c -0.01,-0.24 -0.18,-3.15 -0.19,-3.39 z"
         style="fill:#ffffff"
         id="path81" />
      <path
         d="m 233.85,236.37 a 0.9,0.9 0 0 0 -0.89,-0.84 0.79,0.79 0 0 0 -0.8,0.85 c 0,0.3 0.17,3.09 0.19,3.39 a 0.88,0.88 0 0 0 0.89,0.84 0.79,0.79 0 0 0 0.8,-0.85 c -0.04,-0.24 -0.18,-3.15 -0.19,-3.39 z"
         style="fill:#ffffff"
         id="path82" />
    </g>
    <polygon
       points="239.15,269.87 207.34,270 204.9,243.33 236.7,243.19 "
       style="fill:#407bff"
       id="polygon82" />
    <polygon
       points="239.15,269.87 207.34,270 204.9,243.33 236.7,243.19 "
       style="opacity:0.8;fill:#ffffff"
       id="polygon83" />
    <polygon
       points="229.97,249.78 214.22,249.84 213.79,245.15 229.54,245.08 "
       style="fill:#407bff"
       id="polygon84" />
    <polygon
       points="229.97,249.78 214.22,249.84 213.79,245.15 229.54,245.08 "
       style="opacity:0.6;fill:#ffffff"
       id="polygon85" />
    <polygon
       points="212.13,255.92 207.92,255.94 207.53,251.73 211.74,251.71 "
       style="fill:#ffffff"
       id="polygon86" />
    <polygon
       points="218.09,255.89 213.89,255.91 213.5,251.71 217.71,251.69 "
       style="fill:#ffffff"
       id="polygon87" />
    <polygon
       points="212.64,261.59 208.44,261.61 208.05,257.4 212.26,257.38 "
       style="fill:#407bff"
       id="polygon88" />
    <polygon
       points="213.16,267.26 208.96,267.28 208.57,263.07 212.78,263.06 "
       style="fill:#407bff"
       id="polygon89" />
    <polygon
       points="218.61,261.57 214.41,261.58 214.02,257.38 218.22,257.36 "
       style="fill:#407bff"
       id="polygon90" />
    <polygon
       points="218.61,261.57 214.41,261.58 214.02,257.38 218.22,257.36 "
       style="opacity:0.2;fill:#ffffff"
       id="polygon91" />
    <polygon
       points="224.58,261.54 220.37,261.56 219.99,257.35 224.19,257.33 "
       style="fill:#407bff"
       id="polygon92" />
    <polygon
       points="224.58,261.54 220.37,261.56 219.99,257.35 224.19,257.33 "
       style="opacity:0.2;fill:#ffffff"
       id="polygon93" />
    <polygon
       points="230.54,261.52 226.34,261.53 225.95,257.33 230.16,257.31 "
       style="fill:#407bff"
       id="polygon94" />
    <polygon
       points="230.54,261.52 226.34,261.53 225.95,257.33 230.16,257.31 "
       style="opacity:0.2;fill:#ffffff"
       id="polygon95" />
    <polygon
       points="236.51,261.49 232.3,261.51 231.92,257.3 236.12,257.29 "
       style="fill:#407bff"
       id="polygon96" />
    <polygon
       points="236.51,261.49 232.3,261.51 231.92,257.3 236.12,257.29 "
       style="opacity:0.2;fill:#ffffff"
       id="polygon97" />
    <polygon
       points="219.13,267.24 214.92,267.26 214.54,263.05 218.75,263.03 "
       style="fill:#407bff"
       id="polygon98" />
    <polygon
       points="219.13,267.24 214.92,267.26 214.54,263.05 218.75,263.03 "
       style="opacity:0.2;fill:#ffffff"
       id="polygon99" />
    <polygon
       points="225.09,267.21 220.89,267.23 220.5,263.02 224.71,263.01 "
       style="fill:#407bff"
       id="polygon100" />
    <polygon
       points="225.09,267.21 220.89,267.23 220.5,263.02 224.71,263.01 "
       style="opacity:0.2;fill:#ffffff"
       id="polygon101" />
    <polygon
       points="231.06,267.19 226.86,267.21 226.47,263 230.68,262.98 "
       style="fill:#407bff"
       id="polygon102" />
    <polygon
       points="231.06,267.19 226.86,267.21 226.47,263 230.68,262.98 "
       style="opacity:0.2;fill:#ffffff"
       id="polygon103" />
    <polygon
       points="224.06,255.87 219.85,255.89 219.47,251.68 223.67,251.66 "
       style="fill:none"
       id="polygon104" />
    <polygon
       points="224.06,255.87 219.85,255.89 219.47,251.68 223.67,251.66 "
       style="fill:#407bff"
       id="polygon105" />
    <polygon
       points="224.06,255.87 219.85,255.89 219.47,251.68 223.67,251.66 "
       style="opacity:0.2;fill:#ffffff"
       id="polygon106" />
    <polygon
       points="230.02,255.84 225.82,255.86 225.43,251.66 229.64,251.64 "
       style="fill:none"
       id="polygon107" />
    <polygon
       points="230.02,255.84 225.82,255.86 225.43,251.66 229.64,251.64 "
       style="fill:#407bff"
       id="polygon108" />
    <polygon
       points="230.02,255.84 225.82,255.86 225.43,251.66 229.64,251.64 "
       style="opacity:0.2;fill:#ffffff"
       id="polygon109" />
    <polygon
       points="235.99,255.82 231.78,255.84 231.4,251.63 235.6,251.61 "
       style="fill:none"
       id="polygon110" />
    <polygon
       points="235.99,255.82 231.78,255.84 231.4,251.63 235.6,251.61 "
       style="fill:#407bff"
       id="polygon111" />
    <polygon
       points="235.99,255.82 231.78,255.84 231.4,251.63 235.6,251.61 "
       style="opacity:0.2;fill:#ffffff"
       id="polygon112" />
    <polygon
       points="237.03,267.16 232.82,267.18 232.44,262.98 236.64,262.96 "
       style="fill:#ffffff"
       id="polygon113" />
    <polygon
       points="120.38,412.08 120.38,278.75 163.38,278.75 163.38,284.85 127.54,284.85 123.67,412.08 "
       style="fill:#263238"
       id="polygon114" />
    <polygon
       points="120.38,412.08 120.38,278.75 163.38,278.75 163.38,284.85 127.54,284.85 123.67,412.08 "
       style="opacity:0.7;fill:#ffffff"
       id="polygon115" />
    <polygon
       points="120.38,412.08 120.38,278.75 163.38,278.75 163.38,284.85 127.54,284.85 123.67,412.08 "
       style="opacity:0.3;fill:none"
       id="polygon116" />
    <polygon
       points="120.38,412.08 117.27,412.08 116.27,278.75 120.38,278.75 "
       style="fill:#263238"
       id="polygon117" />
    <g
       style="opacity:0.3"
       id="g118">
      <polygon
         points="120.38,412.08 117.27,412.08 116.27,278.75 120.38,278.75 "
         style="fill:#ffffff"
         id="polygon118" />
    </g>
    <polygon
       points="163.58,284.85 163.58,278.75 173.58,278.75 173.58,412.08 170.32,412.08 167.42,284.85 "
       style="fill:#263238"
       id="polygon119" />
    <polygon
       points="170.69,412.08 167.58,412.08 163.58,278.75 167.69,278.75 "
       style="fill:#263238"
       id="polygon120" />
    <g
       style="opacity:0.3"
       id="g121">
      <polygon
         points="170.69,412.08 167.58,412.08 163.58,278.75 167.69,278.75 "
         style="fill:#ffffff"
         id="polygon121" />
    </g>
    <polygon
       points="163.58,284.85 163.58,278.75 173.58,278.75 173.58,412.08 170.32,412.08 167.42,284.85 "
       style="opacity:0.7;fill:#ffffff"
       id="polygon122" />
    <polygon
       points="369.15,412.08 366.05,412.08 362.05,278.75 366.15,278.75 "
       style="fill:#263238"
       id="polygon123" />
    <polyline
       points="362.05 278.75 366.15 278.75 369.15 412.08 366.05 412.08"
       style="opacity:0.3;fill:#ffffff"
       id="polyline123" />
    <rect
       x="120.4"
       y="278.75"
       width="195.47"
       height="10.11"
       style="fill:#263238"
       id="rect123" />
    <rect
       x="120.4"
       y="278.75"
       width="195.47"
       height="10.11"
       style="opacity:0.5;fill:#ffffff"
       id="rect124" />
    <polygon
       points="319.05,278.75 319.05,412.08 322.33,412.08 326.2,284.84 365.89,284.84 368.79,412.08 372.05,412.08 372.05,278.75 "
       style="fill:#263238"
       id="polygon124" />
    <polygon
       points="319.05,278.75 319.05,412.08 322.33,412.08 326.2,284.84 365.89,284.84 368.79,412.08 372.05,412.08 372.05,278.75 "
       style="opacity:0.7;fill:#ffffff"
       id="polygon125" />
    <polygon
       points="319.05,412.08 315.94,412.08 314.94,278.75 319.05,278.75 "
       style="fill:#263238"
       id="polygon126" />
    <polygon
       points="319.05,412.08 315.94,412.08 314.94,278.75 319.05,278.75 "
       style="opacity:0.3;fill:#ffffff"
       id="polygon127" />
    <rect
       x="110.83"
       y="271.07999"
       width="205.64999"
       height="7.6700001"
       style="fill:#263238"
       id="rect127" />
    <rect
       x="110.83"
       y="271.07999"
       width="205.64999"
       height="7.6700001"
       style="opacity:0.6;fill:#ffffff"
       id="rect128" />
    <rect
       x="311.70999"
       y="271.07999"
       width="65.779999"
       height="7.6700001"
       style="fill:#263238"
       id="rect129" />
    <rect
       x="311.70999"
       y="271.07999"
       width="65.779999"
       height="7.6700001"
       style="opacity:0.7;fill:#ffffff"
       id="rect130" />
  </g>
  <g
     id="freepik--Document--inject-36"
     transform="matrix(1.0600422,0,0,1.0600422,-49.901139,-50.01069)">
    <path
       d="M 195.15,254.8 H 75.09 C 91.9,194 58.28,133.23 75.09,72.44 h 120.06 c -16.81,60.79 16.85,121.56 0,182.36 z"
       style="fill:#407bff"
       id="path130" />
    <path
       d="M 195.15,254.8 H 75.09 C 91.9,194 58.28,133.23 75.09,72.44 h 120.06 c -16.81,60.79 16.85,121.56 0,182.36 z"
       style="opacity:0.7;fill:#ffffff"
       id="path131" />
    <path
       d="m 181.19,110.62 h -54.25 a 0.53,0.53 0 0 1 -0.53,-0.53 0.53,0.53 0 0 1 0.53,-0.53 h 54.25 a 0.53,0.53 0 0 1 0.53,0.53 0.53,0.53 0 0 1 -0.53,0.53 z"
       style="fill:#263238"
       id="path132" />
    <path
       d="M 181.45,121.4 H 127.2 a 0.56,0.56 0 0 1 -0.55,-0.53 0.5,0.5 0 0 1 0.5,-0.53 h 54.25 a 0.57,0.57 0 0 1 0.56,0.53 0.51,0.51 0 0 1 -0.51,0.53 z"
       style="fill:#263238"
       id="path133" />
    <path
       d="m 182.15,132.23 h -102 a 0.6,0.6 0 0 1 -0.58,-0.53 0.48,0.48 0 0 1 0.48,-0.53 h 102 a 0.58,0.58 0 0 1 0.57,0.53 0.48,0.48 0 0 1 -0.47,0.53 z"
       style="fill:#263238"
       id="path134" />
    <path
       d="M 190.63,224.67 H 88.6 a 0.5,0.5 0 0 1 -0.51,-0.53 0.56,0.56 0 0 1 0.56,-0.52 h 102 a 0.49,0.49 0 0 1 0.5,0.52 0.55,0.55 0 0 1 -0.52,0.53 z"
       style="fill:#263238"
       id="path135" />
    <path
       d="M 121,243.2 H 86.56 a 0.43,0.43 0 0 1 -0.43,-0.53 0.66,0.66 0 0 1 0.62,-0.53 h 34.41 a 0.43,0.43 0 0 1 0.43,0.53 0.66,0.66 0 0 1 -0.59,0.53 z"
       style="fill:#263238"
       id="path136" />
    <path
       d="m 188.94,243.2 h -34.41 a 0.43,0.43 0 0 1 -0.43,-0.53 0.65,0.65 0 0 1 0.62,-0.53 h 34.41 a 0.43,0.43 0 0 1 0.43,0.53 0.66,0.66 0 0 1 -0.62,0.53 z"
       style="fill:#263238"
       id="path137" />
    <path
       d="m 107.21,97.12 c 0,4.53 -3.41,7.35 -8.84,7.35 h -4.1 v 5.61 H 89.56 V 89.73 h 8.81 c 5.43,0 8.84,2.82 8.84,7.39 z m -4.77,0 c 0,-2.24 -1.46,-3.55 -4.33,-3.55 h -3.84 v 7.06 h 3.84 c 2.89,0 4.33,-1.3 4.33,-3.51 z"
       style="fill:#407bff"
       id="path138" />
    <path
       d="m 110.44,121.71 -4.91,-7.06 -4.83,7.06 h -5.41 l 7.53,-10.35 -7.15,-10 H 101 l 4.68,6.6 4.6,-6.6 h 5.09 l -7.1,9.83 7.59,10.52 z"
       style="fill:#407bff"
       id="path139" />
  </g>
  <g
     id="freepik--Medicine--inject-36"
     transform="matrix(1.0600422,0,0,1.0600422,-49.901139,-50.01069)">
    <rect
       x="184.60001"
       y="133.34"
       width="30.879999"
       height="76.209999"
       rx="6.1100001"
       transform="rotate(17.66,200.05346,171.44919)"
       id="rect152" />
    <path
       d="m 224.74,144 a 5.79,5.79 0 0 1 -0.28,1.67 l -19.41,61 a 6.37,6.37 0 0 1 -0.23,0.61 6.1,6.1 0 0 1 -7.44,3.36 l -17.79,-5.66 a 6.11,6.11 0 0 1 -4,-7.53 l 11.2,-35.17 8.21,-26.01 a 6.11,6.11 0 0 1 7.67,-4 L 220.5,138 a 5.93,5.93 0 0 1 1.12,0.49 6.08,6.08 0 0 1 3.12,5.51 z"
       style="opacity:0.8;fill:#ffffff"
       id="path153" />
    <g
       style="opacity:0.6"
       id="g154">
      <path
         d="m 181.72,178.11 8.07,-25.33 22.85,-17.32 9,3 a 6.08,6.08 0 0 1 3.12,5.52 z"
         style="opacity:0.5;fill:#ffffff"
         id="path154" />
    </g>
    <path
       d="m 193,142.6 2,-6.33 a 6.11,6.11 0 0 1 7.67,-4 l 2.67,0.85 z"
       style="opacity:0.5;fill:#ffffff"
       id="path155" />
    <path
       d="m 205.27,142.35 a 2.34,2.34 0 1 1 -1.52,-2.94 2.33,2.33 0 0 1 1.52,2.94 z"
       style="fill:#407bff"
       id="path156" />
    <path
       d="m 200.81,156.33 a 2.33,2.33 0 1 1 -1.51,-2.93 2.33,2.33 0 0 1 1.51,2.93 z"
       style="fill:#407bff"
       id="path157" />
    <path
       d="m 196.36,170.32 a 2.34,2.34 0 1 1 -1.52,-2.93 2.33,2.33 0 0 1 1.52,2.93 z"
       style="fill:#407bff"
       id="path158" />
    <path
       d="m 191.91,184.31 a 2.34,2.34 0 1 1 -1.52,-2.94 2.33,2.33 0 0 1 1.52,2.94 z"
       style="fill:#407bff"
       id="path159" />
    <path
       d="m 187.46,198.29 a 2.34,2.34 0 1 1 -1.52,-2.93 2.35,2.35 0 0 1 1.52,2.93 z"
       style="fill:#407bff"
       id="path160" />
    <path
       d="m 216.51,145.93 a 2.34,2.34 0 0 1 -4.45,-1.42 2.34,2.34 0 1 1 4.45,1.42 z"
       style="fill:#407bff"
       id="path161" />
    <path
       d="m 212.06,159.91 a 2.33,2.33 0 1 1 -1.52,-2.93 2.34,2.34 0 0 1 1.52,2.93 z"
       style="fill:#407bff"
       id="path162" />
    <path
       d="m 207.61,173.9 a 2.34,2.34 0 1 1 -1.52,-2.93 2.35,2.35 0 0 1 1.52,2.93 z"
       style="fill:#407bff"
       id="path163" />
    <path
       d="m 203.15,187.89 a 2.34,2.34 0 0 1 -4.45,-1.42 2.34,2.34 0 1 1 4.45,1.42 z"
       style="fill:#407bff"
       id="path164" />
    <path
       d="m 198.7,201.87 a 2.33,2.33 0 1 1 -1.52,-2.93 2.34,2.34 0 0 1 1.52,2.93 z"
       style="fill:#407bff"
       id="path165" />
    <g
       style="opacity:0.4"
       id="g170">
      <path
         d="m 205.27,142.35 a 2.34,2.34 0 1 1 -1.52,-2.94 2.33,2.33 0 0 1 1.52,2.94 z"
         style="fill:#ffffff"
         id="path166" />
      <path
         d="m 200.81,156.33 a 2.33,2.33 0 1 1 -1.51,-2.93 2.33,2.33 0 0 1 1.51,2.93 z"
         style="fill:#ffffff"
         id="path167" />
      <path
         d="m 196.36,170.32 a 2.34,2.34 0 1 1 -1.52,-2.93 2.33,2.33 0 0 1 1.52,2.93 z"
         style="fill:#ffffff"
         id="path168" />
      <path
         d="m 191.91,184.31 a 2.34,2.34 0 1 1 -1.52,-2.94 2.33,2.33 0 0 1 1.52,2.94 z"
         style="fill:#ffffff"
         id="path169" />
      <path
         d="m 187.46,198.29 a 2.34,2.34 0 1 1 -1.52,-2.93 2.35,2.35 0 0 1 1.52,2.93 z"
         style="fill:#ffffff"
         id="path170" />
    </g>
    <g
       style="opacity:0.4"
       id="g175">
      <path
         d="m 216.51,145.93 a 2.34,2.34 0 0 1 -4.45,-1.42 2.34,2.34 0 1 1 4.45,1.42 z"
         style="fill:#ffffff"
         id="path171" />
      <path
         d="m 212.06,159.91 a 2.33,2.33 0 1 1 -1.52,-2.93 2.34,2.34 0 0 1 1.52,2.93 z"
         style="fill:#ffffff"
         id="path172" />
      <path
         d="m 207.61,173.9 a 2.34,2.34 0 1 1 -1.52,-2.93 2.35,2.35 0 0 1 1.52,2.93 z"
         style="fill:#ffffff"
         id="path173" />
      <path
         d="m 203.15,187.89 a 2.34,2.34 0 0 1 -4.45,-1.42 2.34,2.34 0 1 1 4.45,1.42 z"
         style="fill:#ffffff"
         id="path174" />
      <path
         d="m 198.7,201.87 a 2.33,2.33 0 1 1 -1.52,-2.93 2.34,2.34 0 0 1 1.52,2.93 z"
         style="fill:#ffffff"
         id="path175" />
    </g>
    <path
       d="m 186.84,208 -30.72,6.34 a 5.45,5.45 0 0 1 -6.43,-4.23 l -8.84,-42.86 a 13,13 0 0 1 6.66,-14.15 12.89,12.89 0 0 1 3.45,-1.24 l 15.87,-3.27 a 13,13 0 0 1 15.38,10.12 l 8.85,42.86 a 5.43,5.43 0 0 1 -4.22,6.43 z"
       style="opacity:0.7;fill:#ffffff"
       id="path176" />
    <rect
       x="144.09"
       y="164.60001"
       width="42.240002"
       height="32.48"
       transform="rotate(-11.66,165.25205,180.84841)"
       style="fill:#407bff"
       id="rect176" />
    <rect
       x="144.09"
       y="164.60001"
       width="42.240002"
       height="32.48"
       transform="rotate(-11.66,165.25205,180.84841)"
       style="opacity:0.4;fill:#ffffff"
       id="rect177" />
    <path
       d="m 146.56,140.21 h 23 a 2.83,2.83 0 0 1 2.83,2.83 v 4.35 h -28.7 V 143 a 2.83,2.83 0 0 1 2.87,-2.79 z"
       transform="rotate(-11.66,158.0999,143.80013)"
       style="fill:#407bff"
       id="path177" />
    <path
       d="m 171.67,148.5 a 13.16,13.16 0 0 0 -4.84,0.09 L 151,151.86 a 12.89,12.89 0 0 0 -3.45,1.24 l -0.68,-3.31 24.08,-5 z"
       style="opacity:0.7;fill:#ffffff"
       id="path178" />
    <path
       d="m 147.1,155.46 a 0.77,0.77 0 0 0 -1.43,-0.33 9.85,9.85 0 0 0 -1.46,6 c 0.54,3.6 8.22,42.85 9.4,48.86 a 2.21,2.21 0 0 0 0.76,1.26 v 0 a 2.17,2.17 0 0 0 1.87,0.41 l 1.17,-0.29 -10,-51.31 c 0,0 -0.18,-2.46 -0.31,-4.6 z"
       style="opacity:0.3;fill:#ffffff"
       id="path179" />
  </g>
</svg>
