<?xml version="1.0" encoding="UTF-8" standalone="no"?>
<svg
   viewBox="0 0 420 420"
   version="1.1"
   id="svg134"
   sodipodi:docname="Contact us-rafiki.svg"
   width="420"
   height="420"
   inkscape:version="1.3.2 (091e20e, 2023-11-25, custom)"
   xmlns:inkscape="http://www.inkscape.org/namespaces/inkscape"
   xmlns:sodipodi="http://sodipodi.sourceforge.net/DTD/sodipodi-0.dtd"
   xmlns="http://www.w3.org/2000/svg"
   xmlns:svg="http://www.w3.org/2000/svg">
  <defs
     id="defs134" />
  <sodipodi:namedview
     id="namedview134"
     pagecolor="#ffffff"
     bordercolor="#000000"
     borderopacity="0.25"
     inkscape:showpageshadow="2"
     inkscape:pageopacity="0.0"
     inkscape:pagecheckerboard="0"
     inkscape:deskcolor="#d1d1d1"
     inkscape:zoom="1.092"
     inkscape:cx="250"
     inkscape:cy="249.54212"
     inkscape:window-width="1920"
     inkscape:window-height="1001"
     inkscape:window-x="-9"
     inkscape:window-y="-9"
     inkscape:window-maximized="1"
     inkscape:current-layer="svg134" />
  <g
     id="freepik--background-simple--inject-376"
     transform="matrix(1.0351576,0,0,1.0351576,-48.7894,-57.334121)">
    <path
       d="m 308.64,92.57 a 63.32,63.32 0 0 1 24.68,-3.52 c 41.56,2.63 67.72,39.05 75.36,77.14 11.1,55.24 -17,111.76 -56.49,149.1 -1.28,1.22 -2.58,2.41 -3.9,3.59 -41.08,36.55 -96.07,55.26 -150.61,56.82 -34.3,1 -75,-10.61 -97.63,-37.83 -23.67,-28.45 -18.42,-92.74 26.65,-95.74 18.36,-1.23 35.48,5.44 53.16,9.1 24.51,5.08 51.19,0.16 71.3,-15.09 40,-30.29 4,-85.66 28.47,-122 6.77,-10.08 17.37,-17.48 29.01,-21.57 z"
       style="fill:#407bff"
       id="path1" />
    <path
       d="m 308.64,92.57 a 63.32,63.32 0 0 1 24.68,-3.52 c 41.56,2.63 67.72,39.05 75.36,77.14 11.1,55.24 -17,111.76 -56.49,149.1 -1.28,1.22 -2.58,2.41 -3.9,3.59 -41.08,36.55 -96.07,55.26 -150.61,56.82 -34.3,1 -75,-10.61 -97.63,-37.83 -23.67,-28.45 -18.42,-92.74 26.65,-95.74 18.36,-1.23 35.48,5.44 53.16,9.1 24.51,5.08 51.19,0.16 71.3,-15.09 40,-30.29 4,-85.66 28.47,-122 6.77,-10.08 17.37,-17.48 29.01,-21.57 z"
       style="opacity:0.9;isolation:isolate;fill:#ffffff"
       id="path2" />
  </g>
  <g
     id="freepik--Shadow--inject-376"
     transform="matrix(1.0351576,0,0,1.0351576,-48.7894,-57.334121)">
    <ellipse
       id="freepik--path--inject-376"
       cx="250"
       cy="416.23999"
       rx="193.89"
       ry="11.32"
       style="fill:#f5f5f5" />
  </g>
  <g
     id="freepik--Plant--inject-376"
     transform="matrix(1.0351576,0,0,1.0351576,-48.7894,-57.334121)">
    <path
       d="m 410.45,384.72 c 0.15,-1 3.65,-25.17 -3.36,-33.51 a 7.59,7.59 0 0 0 -5.82,-2.87 c -14.16,-0.33 -16.09,11 -16.11,11.15 l 1.67,0.26 c 0.06,-0.41 1.74,-10 14.4,-9.72 a 5.92,5.92 0 0 1 4.57,2.26 c 6.52,7.77 3,31.93 3,32.18 z"
       style="fill:#407bff"
       id="path3" />
    <path
       d="m 411.3,383.62 1.69,-0.06 c 0,-0.22 -0.56,-22.25 10.29,-26.8 10.64,-4.45 15.43,4.71 15.62,5.1 l 1.51,-0.76 c -0.05,-0.11 -5.67,-11 -17.78,-5.89 -11.92,4.99 -11.36,27.45 -11.33,28.41 z"
       style="fill:#407bff"
       id="path4" />
    <path
       d="m 411.25,385.35 c 0,-0.35 0.11,-35.19 6.9,-45.38 6.52,-9.79 17,-5.18 17.49,-5 l 0.69,-1.54 c -0.12,-0.05 -12.26,-5.41 -19.59,5.58 -7.07,10.61 -7.17,44.86 -7.17,46.32 z"
       style="fill:#407bff"
       id="path5" />
    <path
       d="m 399.24,349.18 c 0,0 6.18,2.28 4.34,7.65 -1.84,5.37 -21.37,14.23 -21.37,14.23 0,0 -8.19,-7.5 -0.67,-19.7 7.52,-12.2 17.53,-6.03 17.7,-2.18 z"
       style="fill:#407bff"
       id="path6" />
    <path
       d="m 418.45,338.13 c 0,0 -4.38,-0.47 -4,-3.14 0.38,-2.67 17.06,-9.55 26.91,1.57 0,0 -6.31,10.84 -15.43,11 -9.12,0.16 -7.48,-9.43 -7.48,-9.43 z"
       style="fill:#407bff"
       id="path7" />
    <path
       d="m 423,356 c 0,0 -3,-2.44 0.24,-3.63 3.24,-1.19 19.3,-0.86 19.46,15 0,0 -18.67,3.11 -21,-2.94 -2.33,-6.05 1.3,-8.43 1.3,-8.43 z"
       style="fill:#407bff"
       id="path8" />
    <path
       d="m 399.24,349.18 c 0,0 6.18,2.28 4.34,7.65 -1.84,5.37 -21.37,14.23 -21.37,14.23 0,0 -8.19,-7.5 -0.67,-19.7 7.52,-12.2 17.53,-6.03 17.7,-2.18 z"
       style="opacity:0.2;isolation:isolate"
       id="path9" />
    <path
       d="m 418.45,338.13 c 0,0 -4.38,-0.47 -4,-3.14 0.38,-2.67 17.06,-9.55 26.91,1.57 0,0 -6.31,10.84 -15.43,11 -9.12,0.16 -7.48,-9.43 -7.48,-9.43 z"
       style="opacity:0.2;isolation:isolate"
       id="path10" />
    <path
       d="m 423,356 c 0,0 -3,-2.44 0.24,-3.63 3.24,-1.19 19.3,-0.86 19.46,15 0,0 -18.67,3.11 -21,-2.94 -2.33,-6.05 1.3,-8.43 1.3,-8.43 z"
       style="opacity:0.2;isolation:isolate"
       id="path11" />
    <polygon
       points="392.8,385.35 395.92,417.07 424.9,417.07 428.02,385.35 "
       style="fill:#407bff"
       id="polygon11" />
    <polygon
       points="392.8,385.35 395.92,417.07 424.9,417.07 428.02,385.35 "
       style="opacity:0.5;isolation:isolate;fill:#ffffff"
       id="polygon12" />
    <rect
       x="391.25"
       y="381.85001"
       width="38.32"
       height="7"
       transform="rotate(180,410.41,385.345)"
       style="fill:#407bff"
       id="rect12" />
    <rect
       x="391.25"
       y="381.85001"
       width="38.32"
       height="7"
       transform="rotate(180,410.41,385.345)"
       style="opacity:0.2;isolation:isolate;fill:#ffffff"
       id="rect13" />
  </g>
  <g
     id="freepik--Chair--inject-376"
     transform="matrix(1.0351576,0,0,1.0351576,-48.7894,-57.334121)">
    <path
       d="M 363.12,394.33 334.31,391.5 V 351 h -11.42 v 40.48 L 294,394.33 a 5.61,5.61 0 0 0 -5.06,5.58 v 4.33 h 79.28 v -4.33 a 5.6,5.6 0 0 0 -5.1,-5.58 z"
       style="fill:#263238"
       id="path13" />
    <path
       d="M 363.12,394.33 334.31,391.5 V 351 h -11.42 v 40.48 L 294,394.33 a 5.61,5.61 0 0 0 -5.06,5.58 v 4.33 h 79.28 v -4.33 a 5.6,5.6 0 0 0 -5.1,-5.58 z"
       style="opacity:0.2;isolation:isolate;fill:#ffffff"
       id="path14" />
    <circle
       cx="291.95001"
       cy="409.60999"
       r="7.4699998"
       style="fill:#263238"
       id="circle14" />
    <circle
       cx="365.14001"
       cy="409.60999"
       r="7.4699998"
       style="fill:#263238"
       id="circle15" />
    <path
       d="m 320.93,323.64 h 15.35 v 31.93 a 4.13,4.13 0 0 1 -4.13,4.13 h -7.09 a 4.13,4.13 0 0 1 -4.13,-4.13 z"
       style="fill:#263238"
       id="path15" />
    <path
       d="m 320.93,323.64 h 15.35 v 31.93 a 4.13,4.13 0 0 1 -4.13,4.13 h -7.09 a 4.13,4.13 0 0 1 -4.13,-4.13 z"
       style="opacity:0.3;isolation:isolate;fill:#ffffff"
       id="path16" />
    <path
       d="m 355.9,260.35 c 0,0 2.18,54 -12.86,63.29 h 17.17 c 0,0 13.3,-18.39 9.54,-63.29 z"
       style="fill:#263238"
       id="path17" />
    <path
       d="m 355.9,260.35 c 0,0 2.18,54 -12.86,63.29 h 17.17 c 0,0 13.3,-18.39 9.54,-63.29 z"
       style="opacity:0.3;isolation:isolate;fill:#ffffff"
       id="path18" />
    <path
       d="m 289.13,316.09 h 76.92 v 6.69 a 5,5 0 0 1 -5,5 h -66.92 a 5,5 0 0 1 -5,-5 z"
       transform="rotate(180,327.59,321.935)"
       style="fill:#263238"
       id="path19" />
    <rect
       x="285.92999"
       y="321.94"
       width="83.330002"
       height="5.8400002"
       rx="2.01"
       transform="rotate(180,327.59,324.86)"
       style="fill:#263238"
       id="rect19" />
    <rect
       x="285.92999"
       y="321.94"
       width="83.330002"
       height="5.8400002"
       rx="2.01"
       transform="rotate(180,327.59,324.86)"
       style="opacity:0.6;isolation:isolate;fill:#ffffff"
       id="rect20" />
    <rect
       x="331.88"
       y="231.39999"
       width="56.66"
       height="39.919998"
       rx="14.58"
       style="fill:#263238"
       id="rect21" />
  </g>
  <g
     id="freepik--Character--inject-376"
     transform="matrix(1.0351576,0,0,1.0351576,-48.7894,-57.334121)">
    <path
       d="m 263.05,187.28 -5.49,-14.47 c 0,0 2.36,-2.18 0.74,-4.39 -1.62,-2.21 -11.74,-8.42 -13.58,-7.33 -1.84,1.09 -5.95,5.21 -3.73,7.5 2.22,2.29 12,6.1 12,6.1 l 4.86,19 z"
       style="fill:#e4897b"
       id="path21" />
    <path
       d="m 301.38,214.79 c 0,0 -25,-5.13 -27.67,-6.36 C 271.04,207.2 261,177.77 261,177.77 l -7.71,3.6 c 0,0 6.2,29.54 12.54,36.56 6.34,7.02 33.4,13 33.4,13 z"
       style="fill:#407bff"
       id="path22" />
    <path
       d="m 299.17,230.9 -0.46,-0.11 c -1.36,-0.31 -5.63,-1.31 -10.7,-2.8 -8.23,-2.39 -18.61,-6 -22.23,-10.05 -6.33,-7 -12.54,-36.57 -12.54,-36.57 l 7.7,-3.6 c 0,0 10.05,29.44 12.77,30.66 2.72,1.22 27.67,6.36 27.67,6.36 z"
       style="opacity:0.2;isolation:isolate"
       id="path23" />
    <polygon
       points="253.14,179.92 261.07,177.19 262.66,180.26 252.76,183.67 "
       style="fill:#407bff"
       id="polygon23" />
    <path
       d="m 299.36,230.49 c -1.38,-0.2 -5.71,-0.87 -10.89,-2 2.95,-5.1 11.59,-7.72 11.59,-7.72 z"
       style="opacity:0.2;isolation:isolate"
       id="path24" />
    <path
       d="m 336.58,194.41 c 0,0 1.47,13.83 -3.65,17.23 -5.12,3.4 -30.33,-0.58 -33.19,-6.15 -2.86,-5.57 7.9,-20.67 7.9,-20.67 z"
       style="fill:#263238"
       id="path25" />
    <polygon
       points="247.52,360.64 240.03,357.45 237.15,367.47 234.59,376.39 241.17,377.98 244.5,368.9 "
       style="fill:#e4897b"
       id="polygon25" />
    <polygon
       points="240.03,357.45 237.15,367.47 244.5,368.9 247.52,360.64 "
       style="opacity:0.2;isolation:isolate"
       id="polygon26" />
    <path
       d="m 237.81,362.68 9.12,3.39 c 0,0 24.33,-60.83 29.33,-61 5,-0.17 55.91,23.19 68.67,10.21 12.76,-12.98 -5.69,-44.28 -5.69,-44.28 0,0 -30.69,-4.38 -33,2.55 a 48.61,48.61 0 0 0 -1.3,6.22 c -0.35,2.12 -0.59,3.9 -0.59,3.9 v 0 c -0.95,-0.24 -31.76,-8.19 -43.9,0 -12.35,8.33 -22.64,79.01 -22.64,79.01 z"
       style="fill:#407bff"
       id="path26" />
    <path
       d="m 237.81,362.68 9.12,3.39 c 0,0 24.33,-60.83 29.33,-61 5,-0.17 55.91,23.19 68.67,10.21 12.76,-12.98 -5.69,-44.28 -5.69,-44.28 0,0 -30.69,-4.38 -33,2.55 a 48.61,48.61 0 0 0 -1.3,6.22 c -0.35,2.12 -0.59,3.9 -0.59,3.9 v 0 c -0.95,-0.24 -31.76,-8.19 -43.9,0 -12.35,8.33 -22.64,79.01 -22.64,79.01 z"
       style="opacity:0.6;isolation:isolate;fill:#ffffff"
       id="path27" />
    <polygon
       points="294.39,382.64 286.29,383.37 288.39,393.42 290.27,402.34 296.82,400.67 295.56,391.26 "
       style="fill:#e4897b"
       id="polygon27" />
    <polygon
       points="286.3,383.42 288.44,393.62 295.6,391.44 294.41,382.73 "
       style="opacity:0.2;isolation:isolate"
       id="polygon28" />
    <polygon
       points="246.92,367.18 250.7,362.69 237.41,358.18 236.84,363.62 "
       style="fill:#407bff"
       id="polygon29" />
    <path
       d="m 322.89,318.36 c 0,0 -2.08,0.05 -34.27,-1.45 0,0 4.81,40.24 7.44,70.37 l -9.63,1.64 c 0,0 -23,-64.51 -22.75,-74.76 0.25,-10.25 12,-13.25 12,-13.25 0,0 22.93,13.25 47.21,17.45 z"
       style="fill:#407bff"
       id="path29" />
    <path
       d="m 322.89,318.36 c 0,0 -2.08,0.05 -34.27,-1.45 0,0 4.81,40.24 7.44,70.37 l -9.63,1.64 c 0,0 -23,-64.51 -22.75,-74.76 0.25,-10.25 12,-13.25 12,-13.25 0,0 22.93,13.25 47.21,17.45 z"
       style="opacity:0.6;isolation:isolate;fill:#ffffff"
       id="path30" />
    <path
       d="m 322.89,318.36 c 0,0 -2.08,0.05 -34.27,-1.45 0,0 4.81,40.24 7.44,70.37 l -9.63,1.64 c 0,0 -23,-64.51 -22.75,-74.76 0.25,-10.25 12,-13.25 12,-13.25 0,0 22.93,13.25 47.21,17.45 z"
       style="opacity:0.1;isolation:isolate"
       id="path31" />
    <polygon
       points="297.5,389.68 297.46,384.36 284.23,385.87 286.79,391.05 "
       style="fill:#407bff"
       id="polygon31" />
    <path
       d="m 304.35,283.67 17.95,3.74 c 0,0 -9.92,-5.48 -17.36,-7.64 -0.35,2.12 -0.59,3.9 -0.59,3.9 z"
       style="opacity:0.1;isolation:isolate"
       id="path32" />
    <polygon
       points="305.37,267.9 338.5,266.23 339.24,271 306.24,273.55 "
       style="fill:#263238"
       id="polygon32" />
    <polygon
       points="305.37,267.9 338.5,266.23 339.24,271 306.24,273.55 "
       style="opacity:0.2;isolation:isolate"
       id="polygon33" />
    <rect
       x="327.66"
       y="265.81"
       width="1.64"
       height="8.3500004"
       transform="rotate(174.13,328.48028,269.98495)"
       style="fill:#407bff"
       id="rect33" />
    <rect
       x="313.25"
       y="267.66"
       width="7.2399998"
       height="5.4899998"
       transform="rotate(176.32,316.8686,270.41273)"
       style="fill:#ffffff"
       id="rect34" />
    <rect
       x="307.39999"
       y="266.70001"
       width="1.64"
       height="8.3500004"
       transform="rotate(174.13,308.2271,270.8666)"
       style="fill:#407bff"
       id="rect35" />
    <rect
       x="327.66"
       y="265.81"
       width="1.64"
       height="8.3500004"
       transform="rotate(174.13,328.48028,269.98495)"
       style="opacity:0.6;isolation:isolate;fill:#ffffff"
       id="rect36" />
    <rect
       x="307.39999"
       y="266.70001"
       width="1.64"
       height="8.3500004"
       transform="rotate(174.13,308.2271,270.8666)"
       style="opacity:0.6;isolation:isolate;fill:#ffffff"
       id="rect37" />
    <path
       d="m 300.78,214.34 a 60,60 0 0 0 19,2.09 C 330.38,215.89 343,221 343,221 l -4.54,45.2 -33.14,1.67 c 0,0 -11.09,-37.71 -4.54,-53.53 z"
       style="fill:#407bff"
       id="path37" />
    <path
       d="m 306.11,188.81 c 0,0 1.86,-21.94 20.2,-14 23,10 4.72,36.74 -6.53,31.26 -11.25,-5.48 -13.67,-17.26 -13.67,-17.26 z"
       style="fill:#263238"
       id="path38" />
    <path
       d="m 311.25,217.66 0.53,12.4 4.11,-5.83 c 0,0 -1.47,13.71 -0.61,21.18 0,0 0.79,-13.39 2.65,-21.18 l 4.37,5.83 6.27,-12.32 c 0,0 -10.15,-3.65 -17.32,-0.08 z"
       style="opacity:0.2;isolation:isolate"
       id="path39" />
    <path
       d="m 316.93,220 9.49,-2.68 c -5.85,-4 -2.9,-13 -2.9,-13 l -9.4,3.3 a 27.67,27.67 0 0 1 1,4 c 1,5.86 -1.66,6.33 -1.66,6.33 z"
       style="fill:#e4897b"
       id="path40" />
    <path
       d="m 314.12,207.57 a 27.67,27.67 0 0 1 1,4 c 4.5,-1.81 8.39,-7.32 8.39,-7.32 z"
       style="opacity:0.2;isolation:isolate"
       id="path41" />
    <path
       d="m 320.26,179.45 c -8.33,-1.84 -12,2 -14.5,10.46 -3.13,10.55 -2.44,18.69 8.47,18.71 14.82,0.02 19.85,-26.11 6.03,-29.17 z"
       style="fill:#e4897b"
       id="path42" />
    <path
       d="m 311.24,190.64 a 17.72,17.72 0 0 1 -3.18,2.91 2.34,2.34 0 0 0 2,1.43 z"
       style="fill:#de5753"
       id="path43" />
    <path
       d="m 316.49,191.08 c -0.17,0.68 0.06,1.33 0.52,1.44 0.46,0.11 0.95,-0.35 1.12,-1 0.17,-0.65 -0.06,-1.32 -0.52,-1.44 -0.46,-0.12 -0.95,0.32 -1.12,1 z"
       style="fill:#263238"
       id="path44" />
    <path
       d="m 317.79,190.13 -1.33,-0.94 c 0,0 0.43,1.43 1.33,0.94 z"
       style="fill:#263238"
       id="path45" />
    <path
       d="m 308.07,188.86 c -0.17,0.68 0.06,1.33 0.52,1.44 0.46,0.11 1,-0.35 1.12,-1 0.12,-0.65 -0.06,-1.32 -0.52,-1.44 -0.46,-0.12 -0.95,0.32 -1.12,1 z"
       style="fill:#263238"
       id="path46" />
    <path
       d="M 309.37,187.91 308,187 c 0,0 0.47,1.39 1.37,0.91 z"
       style="fill:#263238"
       id="path47" />
    <path
       d="m 321.18,187.77 a 0.37,0.37 0 0 1 -0.33,-0.19 4.09,4.09 0 0 0 -3,-1.86 0.38,0.38 0 0 1 -0.33,-0.4 0.37,0.37 0 0 1 0.4,-0.33 4.79,4.79 0 0 1 3.62,2.26 0.36,0.36 0 0 1 -0.16,0.49 0.45,0.45 0 0 1 -0.2,0.03 z"
       style="fill:#263238"
       id="path48" />
    <path
       d="m 311.87,184 a 0.35,0.35 0 0 1 -0.19,-0.06 3.64,3.64 0 0 0 -3.15,0 0.35,0.35 0 0 1 -0.46,-0.2 0.36,0.36 0 0 1 0.2,-0.47 4.31,4.31 0 0 1 3.8,0.08 0.36,0.36 0 0 1 0.11,0.5 0.37,0.37 0 0 1 -0.31,0.15 z"
       style="fill:#263238"
       id="path49" />
    <path
       d="m 326.25,195.49 c 0,0 -2.38,-7.7 -0.62,-12.85 0,0 -15,-10.39 -19.52,6.17 0,0 1.67,-15.22 16.06,-12.38 14.39,2.84 9.68,23.75 0.91,28.35 0,0 4.63,-4.48 3.17,-9.29 z"
       style="fill:#263238"
       id="path50" />
    <path
       d="m 324.5,197 a 3.74,3.74 0 0 1 4.67,-2.47 c 2.52,0.85 2.57,6.42 -4.12,6.27 -0.97,-0.07 -1.29,-1.08 -0.55,-3.8 z"
       style="fill:#e4897b"
       id="path51" />
    <path
       d="m 308.55,198.14 a 21.29,21.29 0 0 1 0.44,3.1 h 0.54 c 2.49,0.21 3.71,-0.52 4.31,-1.38 a 3.17,3.17 0 0 0 0.52,-1.43 3,3 0 0 0 0,-0.87 11.84,11.84 0 0 1 -5,0.59 c -0.48,0.03 -0.81,-0.01 -0.81,-0.01 z"
       style="fill:#263238"
       id="path52" />
    <path
       d="m 309.4,198.2 0.15,0.91 c 2.34,0.19 4,0 4.81,-0.63 a 3,3 0 0 0 0,-0.87 11.84,11.84 0 0 1 -4.96,0.59 z"
       style="fill:#ffffff"
       id="path53" />
    <path
       d="m 309.53,201.29 c 2.49,0.21 3.71,-0.52 4.31,-1.38 a 8.07,8.07 0 0 0 -2.8,0.31 3,3 0 0 0 -1.51,1.07 z"
       style="fill:#de5753"
       id="path54" />
    <path
       d="m 320.29,180.12 c 0,0 0.32,14.43 9,16.17 8.68,1.74 -0.8,-18.56 -0.8,-18.56 0,0 -12.9,-8.42 -21.5,-2.48 -8.6,5.94 -0.86,13.56 -0.86,13.56 0,0 1.79,-10.72 14.16,-8.69 z"
       style="fill:#263238"
       id="path55" />
    <path
       d="m 323.6,193.33 a 0.25,0.25 0 0 1 -0.16,-0.06 c -6.16,-4.84 -3.12,-14.1 -3.09,-14.19 a 0.26,0.26 0 0 1 0.32,-0.16 0.25,0.25 0 0 1 0.15,0.32 c 0,0.09 -2.95,9 2.93,13.64 a 0.24,0.24 0 0 1 0,0.35 0.22,0.22 0 0 1 -0.15,0.1 z"
       style="fill:#263238"
       id="path56" />
    <path
       d="m 331.8,199.25 c -1.1,2.94 -3.93,4.59 -6.32,3.7 -2.39,-0.89 -3.43,-4 -2.33,-6.94 1.1,-2.94 3.93,-4.59 6.32,-3.69 2.39,0.9 3.43,4 2.33,6.93 z"
       style="fill:#407bff"
       id="path57" />
    <path
       d="m 331.8,199.25 c -1.1,2.94 -3.93,4.59 -6.32,3.7 -2.39,-0.89 -3.43,-4 -2.33,-6.94 1.1,-2.94 3.93,-4.59 6.32,-3.69 2.39,0.9 3.43,4 2.33,6.93 z"
       style="opacity:0.4;isolation:isolate"
       id="path58" />
    <path
       d="m 329,194.44 c 0,0 3.59,-16.07 -4.46,-20.28 a 22.24,22.24 0 0 1 2.72,0.53 c 1,0.3 7.47,6.82 4.22,21.26 z"
       style="fill:#407bff"
       id="path59" />
    <path
       d="m 329,194.44 c 0,0 3.59,-16.07 -4.46,-20.28 a 22.24,22.24 0 0 1 2.72,0.53 c 1,0.3 7.47,6.82 4.22,21.26 z"
       style="opacity:0.2;isolation:isolate"
       id="path60" />
    <path
       d="m 314,203.64 -0.6,-0.09 0.16,-1 a 18.34,18.34 0 0 0 12.69,-2.69 l 0.59,0.8 A 18.85,18.85 0 0 1 314,203.64 Z"
       style="fill:#407bff"
       id="path61" />
    <g
       style="opacity:0.2;isolation:isolate"
       id="g62">
      <path
         d="m 314,203.64 -0.6,-0.09 0.16,-1 a 18.34,18.34 0 0 0 12.69,-2.69 l 0.59,0.8 A 18.85,18.85 0 0 1 314,203.64 Z"
         id="path62" />
    </g>
    <path
       d="m 331.46,198.85 c -0.72,1.94 -2.6,3 -4.17,2.44 -1.57,-0.56 -2.27,-2.64 -1.54,-4.58 0.73,-1.94 2.6,-3 4.17,-2.44 1.57,0.56 2.27,2.64 1.54,4.58 z"
       style="fill:#407bff"
       id="path63" />
    <path
       d="m 313.06,204 -0.81,-0.11 a 1.08,1.08 0 0 1 -0.93,-1.22 v 0 a 1.08,1.08 0 0 1 1.22,-0.94 l 0.8,0.11 a 1.1,1.1 0 0 1 0.94,1.22 v 0 a 1.1,1.1 0 0 1 -1.22,0.94 z"
       style="fill:#407bff"
       id="path64" />
    <path
       d="m 313.06,204 -0.81,-0.11 a 1.08,1.08 0 0 1 -0.93,-1.22 v 0 a 1.08,1.08 0 0 1 1.22,-0.94 l 0.8,0.11 a 1.1,1.1 0 0 1 0.94,1.22 v 0 a 1.1,1.1 0 0 1 -1.22,0.94 z"
       style="opacity:0.4;isolation:isolate"
       id="path65" />
    <polygon
       points="328.57,217.74 323.87,213.85 317.93,219.68 320.31,226.84 "
       style="fill:#407bff"
       id="polygon65" />
    <polygon
       points="311.25,217.66 315.28,215.07 316.24,219.56 313.17,225.91 "
       style="fill:#407bff"
       id="polygon66" />
    <path
       d="m 322.6,218.91 3.45,-12.63 c 0,0 -1.67,-3.14 -1.31,-3.8 0.36,-0.66 2.16,-9.14 3.44,-10.06 1.28,-0.92 6.55,0.65 7.08,1.51 0.53,0.86 -5.05,12.35 -5.05,12.35 l -2,13.69 z"
       style="fill:#e4897b"
       id="path66" />
    <path
       d="m 343,221 c 9.5,9.72 -9.53,31.74 -20.44,30.8 -10.91,-0.94 0.28,-40.86 0.28,-40.86 l 7,1.15 c 0,0 -2.45,17.28 -1.68,18.63 0.77,1.35 11.69,-12.95 14.84,-9.72 z"
       style="fill:#407bff"
       id="path67" />
    <path
       d="m 343,221 c 9.5,9.72 -9.53,31.74 -20.44,30.8 -10.91,-0.94 0.28,-40.86 0.28,-40.86 l 7,1.15 c 0,0 -2.45,17.28 -1.68,18.63 0.77,1.35 11.69,-12.95 14.84,-9.72 z"
       style="opacity:0.2;isolation:isolate"
       id="path68" />
    <polygon
       points="331,210.97 322.3,209.69 321.27,212.99 331,213.85 "
       style="fill:#407bff"
       id="polygon68" />
    <rect
       x="302.82001"
       y="235.8"
       width="5.52"
       height="9.0200005"
       rx="0.79000002"
       style="opacity:0.6;isolation:isolate;fill:#ffffff"
       id="rect68" />
    <rect
       x="303.14999"
       y="236.39999"
       width="4.48"
       height="6.1300001"
       style="opacity:0.2;isolation:isolate"
       id="rect69" />
    <rect
       x="305"
       y="233.63"
       width="0.99000001"
       height="3.6099999"
       style="fill:#263238"
       id="rect70" />
    <path
       d="m 223.71,389.17 a 8.88,8.88 0 0 1 3.17,-0.81 v 0 c 0,0 3.8,-2.23 7.56,-10.92 h 4.23 a 3.48,3.48 0 0 1 3.26,2.33 1.87,1.87 0 0 1 0.12,0.58 26.08,26.08 0 0 1 -0.33,3.05 84.35,84.35 0 0 1 -2.47,10 l -0.72,-0.18 1.3,-6.32 c 0.44,-2.14 -1.82,-0.07 -2.86,2.09 -1.04,2.16 -2.65,4.35 -7.33,3.28 -5.45,-1.34 -7.64,-2.12 -5.93,-3.1 z"
       style="fill:#407bff"
       id="path70" />
    <path
       d="m 235.21,375.17 c 0,0 -5.29,11.06 -8.33,13.19 0,0 4.08,2.43 8.33,-3 5.49,-7 6.84,-5.05 6.84,-5.05 a 20.1,20.1 0 0 0 -0.67,-3.57 c -0.82,-2.24 -6.17,-1.57 -6.17,-1.57 z"
       style="fill:#e4897b"
       id="path71" />
    <path
       d="m 281.93,415.52 a 9.25,9.25 0 0 1 2.89,-1.54 v 0 c 0,0 3.16,-3.07 4.75,-12.4 l 4.11,-1 a 3.49,3.49 0 0 1 3.71,1.5 2.07,2.07 0 0 1 0.26,0.54 23.88,23.88 0 0 1 0.41,3 84.1,84.1 0 0 1 -0.05,10.26 h -0.74 l -0.23,-6.44 c -0.09,-2.19 -1.78,0.36 -2.29,2.71 -0.51,2.35 -1.54,4.84 -6.34,4.91 -5.59,0.06 -7.91,-0.18 -6.48,-1.54 z"
       style="fill:#407bff"
       id="path72" />
    <path
       d="m 289.78,399.19 c 0,0 -2.51,12 -5,14.79 0,0 4.54,1.4 7.38,-4.87 3.68,-8.1 5.45,-6.52 5.45,-6.52 a 20,20 0 0 0 -1.49,-3.31 c -1.3,-2 -6.34,-0.09 -6.34,-0.09 z"
       style="fill:#e4897b"
       id="path73" />
  </g>
  <g
     id="freepik--speech-bubble--inject-376"
     transform="matrix(1.0351576,0,0,1.0351576,-48.7894,-57.334121)">
    <rect
       x="342.78"
       y="157.14999"
       width="45.049999"
       height="25.07"
       rx="5.0700002"
       style="fill:#407bff"
       id="rect73" />
    <polygon
       points="354.85,179.36 344.33,193.66 361.3,180.32 "
       style="fill:#407bff"
       id="polygon73" />
    <path
       d="m 355.24,169.68 a 1.48,1.48 0 1 1 -1.47,-1.47 1.47,1.47 0 0 1 1.47,1.47 z"
       style="fill:#ffffff"
       id="path74" />
    <path
       d="m 362.93,169.68 a 1.48,1.48 0 1 1 -1.47,-1.47 1.47,1.47 0 0 1 1.47,1.47 z"
       style="fill:#ffffff"
       id="path75" />
    <path
       d="m 370.62,169.68 a 1.48,1.48 0 1 1 -1.47,-1.47 1.47,1.47 0 0 1 1.47,1.47 z"
       style="fill:#ffffff"
       id="path76" />
    <path
       d="m 378.31,169.68 a 1.48,1.48 0 1 1 -1.47,-1.47 1.47,1.47 0 0 1 1.47,1.47 z"
       style="fill:#ffffff"
       id="path77" />
  </g>
  <g
     id="freepik--Bird--inject-376"
     transform="matrix(1.0351576,0,0,1.0351576,-48.7894,-57.334121)">
    <rect
       x="219.08"
       y="137.45"
       width="31.049999"
       height="19.52"
       rx="1.38"
       transform="rotate(28.31,234.59365,147.18509)"
       style="fill:#407bff"
       id="rect77" />
    <rect
       x="219.08"
       y="137.45"
       width="31.049999"
       height="19.52"
       rx="1.38"
       transform="rotate(28.31,234.59365,147.18509)"
       style="opacity:0.7;isolation:isolate;fill:#ffffff"
       id="rect78" />
    <path
       d="m 224.25,133.69 7.75,14.55 a 3.18,3.18 0 0 0 3.12,1.66 l 16.21,-1.6 -16.5,2.43 a 3.38,3.38 0 0 1 -3.56,-1.92 z"
       style="opacity:0.2;isolation:isolate"
       id="path78" />
    <path
       d="m 205.34,131 c 0.27,-5.56 4.39,-16.77 9.4,-20.2 5.01,-3.43 1.71,1.32 1.71,1.32 0,0 4.75,-4.62 7.25,-4.48 2.5,0.14 0,3 0,3 0,0 5.15,-3.17 7.52,-3 2.37,0.17 0,2.91 0,2.91 0,0 4.22,-3 5.93,-1.59 1.71,1.41 -21.89,17 -24.52,23.34 -2.63,6.34 -7.56,4.31 -7.29,-1.3 z"
       style="fill:#407bff"
       id="path79" />
    <path
       d="m 205.34,131 c 0.27,-5.56 4.39,-16.77 9.4,-20.2 5.01,-3.43 1.71,1.32 1.71,1.32 0,0 4.75,-4.62 7.25,-4.48 2.5,0.14 0,3 0,3 0,0 5.15,-3.17 7.52,-3 2.37,0.17 0,2.91 0,2.91 0,0 4.22,-3 5.93,-1.59 1.71,1.41 -21.89,17 -24.52,23.34 -2.63,6.34 -7.56,4.31 -7.29,-1.3 z"
       style="opacity:0.4;isolation:isolate;fill:#ffffff"
       id="path80" />
    <path
       d="m 225.62,130.16 3.15,2 a 0.26,0.26 0 0 1 -0.16,0.48 l -3.31,-0.26 0.28,2.54 a 0.28,0.28 0 0 1 -0.49,0.22 L 223.18,133 Z"
       style="fill:#407bff"
       id="path81" />
    <path
       d="m 225.62,130.16 3.15,2 a 0.26,0.26 0 0 1 -0.16,0.48 l -3.31,-0.26 0.28,2.54 a 0.28,0.28 0 0 1 -0.49,0.22 L 223.18,133 Z"
       style="opacity:0.3;isolation:isolate;fill:#ffffff"
       id="path82" />
    <path
       d="m 181.37,117.64 c 0,0 4.36,-3 10.95,-1.06 0,0 1.89,8.71 7.08,11.61 2.85,1.59 9.82,1.45 15.34,-0.33 6.55,-2.12 9.75,-2.12 10.94,0.33 1.19,2.45 -0.13,5 -5.14,6.19 -5.01,1.19 -9,9.89 -18.07,10 -9.07,0.11 -13.89,-9 -11.6,-17 a 24.16,24.16 0 0 0 -9.5,-9.74 z"
       style="fill:#407bff"
       id="path83" />
    <path
       d="m 181.37,117.64 c 0,0 4.36,-3 10.95,-1.06 0,0 1.89,8.71 7.08,11.61 2.85,1.59 9.82,1.45 15.34,-0.33 6.55,-2.12 9.75,-2.12 10.94,0.33 1.19,2.45 -0.13,5 -5.14,6.19 -5.01,1.19 -9,9.89 -18.07,10 -9.07,0.11 -13.89,-9 -11.6,-17 a 24.16,24.16 0 0 0 -9.5,-9.74 z"
       style="opacity:0.5;isolation:isolate;fill:#ffffff"
       id="path84" />
    <path
       d="m 223.18,129.84 a 0.45,0.45 0 1 1 -0.45,-0.45 0.45,0.45 0 0 1 0.45,0.45 z"
       style="fill:#263238"
       id="path85" />
    <path
       d="m 200.36,137.16 c -5.37,1.46 -17.31,1 -22.11,-2.7 -4.8,-3.7 0.72,-2 0.72,-2 0,0 -5.85,-3.09 -6.5,-5.51 -0.65,-2.42 2.88,-0.94 2.88,-0.94 0,0 -4.6,-3.91 -5.2,-6.21 -0.6,-2.3 2.76,-0.9 2.76,-0.9 0,0 -4.19,-3.08 -3.34,-5.15 0.85,-2.07 22.94,15.57 29.77,16.12 6.83,0.55 6.46,5.81 1.02,7.29 z"
       style="fill:#407bff"
       id="path86" />
    <path
       d="m 200.36,137.16 c -5.37,1.46 -17.31,1 -22.11,-2.7 -4.8,-3.7 0.72,-2 0.72,-2 0,0 -5.85,-3.09 -6.5,-5.51 -0.65,-2.42 2.88,-0.94 2.88,-0.94 0,0 -4.6,-3.91 -5.2,-6.21 -0.6,-2.3 2.76,-0.9 2.76,-0.9 0,0 -4.19,-3.08 -3.34,-5.15 0.85,-2.07 22.94,15.57 29.77,16.12 6.83,0.55 6.46,5.81 1.02,7.29 z"
       style="opacity:0.4;isolation:isolate;fill:#ffffff"
       id="path87" />
    <path
       d="m 165.16,112.83 a 0.25,0.25 0 0 1 -0.12,0 c -0.93,-0.33 -1.88,-0.64 -2.84,-0.93 a 0.38,0.38 0 0 1 -0.25,-0.47 0.38,0.38 0 0 1 0.47,-0.25 c 1,0.29 1.93,0.61 2.87,1 a 0.37,0.37 0 0 1 -0.13,0.72 z"
       style="fill:#407bff"
       id="path88" />
    <path
       d="m 104.72,194 a 0.38,0.38 0 0 1 -0.38,-0.37 0.38,0.38 0 0 1 0.37,-0.38 35.8,35.8 0 0 0 5.93,-0.58 0.38,0.38 0 0 1 0.44,0.3 0.37,0.37 0 0 1 -0.3,0.44 36.3,36.3 0 0 1 -6.06,0.59 z m -6,-0.32 v 0 a 51.69,51.69 0 0 1 -6,-1 0.38,0.38 0 0 1 -0.29,-0.45 0.38,0.38 0 0 1 0.45,-0.28 55.76,55.76 0 0 0 5.9,1 0.38,0.38 0 0 1 0,0.75 z m 17.77,-2 a 0.37,0.37 0 0 1 -0.34,-0.22 0.37,0.37 0 0 1 0.19,-0.5 19.44,19.44 0 0 0 5,-3.13 0.38,0.38 0 0 1 0.5,0.57 20.54,20.54 0 0 1 -5.19,3.25 0.4,0.4 0 0 1 -0.18,0.05 z M 87,191 a 0.25,0.25 0 0 1 -0.12,0 c -1.9,-0.63 -3.81,-1.37 -5.66,-2.18 a 0.38,0.38 0 0 1 0.31,-0.69 c 1.82,0.8 3.7,1.53 5.59,2.16 a 0.38,0.38 0 0 1 0.23,0.48 A 0.37,0.37 0 0 1 87,191 Z m -11,-4.86 a 0.31,0.31 0 0 1 -0.18,0 c -1.79,-1 -3.53,-2.08 -5.15,-3.21 a 0.37316216,0.37316216 0 1 1 0.43,-0.61 c 1.6,1.11 3.31,2.18 5.09,3.17 a 0.37,0.37 0 0 1 0.14,0.51 0.39,0.39 0 0 1 -0.4,0.17 z m 49.44,-2.29 a 0.31,0.31 0 0 1 -0.18,0 0.37,0.37 0 0 1 -0.14,-0.51 c 0.31,-0.54 0.6,-1.1 0.86,-1.68 a 20.62,20.62 0 0 0 1.3,-3.81 0.39,0.39 0 0 1 0.46,-0.28 0.38,0.38 0 0 1 0.27,0.46 22.33,22.33 0 0 1 -1.35,3.94 c -0.27,0.6 -0.57,1.19 -0.89,1.75 a 0.38,0.38 0 0 1 -0.4,0.16 z m -59.3,-4.62 a 0.38,0.38 0 0 1 -0.24,-0.09 43.51,43.51 0 0 1 -4.27,-4.34 0.38,0.38 0 0 1 0,-0.53 0.37,0.37 0 0 1 0.52,0 42.93,42.93 0 0 0 4.19,4.25 0.38,0.38 0 0 1 0,0.53 0.37,0.37 0 0 1 -0.27,0.21 z m 62.18,-6.94 a 0.37,0.37 0 0 1 -0.37,-0.38 35,35 0 0 0 -0.55,-5.93 0.38,0.38 0 0 1 0.3,-0.44 0.39,0.39 0 0 1 0.44,0.31 35.49,35.49 0 0 1 0.56,6.06 0.38,0.38 0 0 1 -0.38,0.38 z m -2,-11.86 a 0.38,0.38 0 0 1 -0.36,-0.27 c -0.51,-1.75 -1.14,-3.61 -1.91,-5.69 a 0.37,0.37 0 0 1 0.22,-0.49 0.38,0.38 0 0 1 0.48,0.22 c 0.78,2.1 1.41,4 1.93,5.74 a 0.38,0.38 0 0 1 -0.25,0.47 z m -4.14,-11.35 a 0.36,0.36 0 0 1 -0.33,-0.21 c -0.64,-1.6 -1.51,-3.44 -2.42,-5.39 v -0.1 a 0.38,0.38 0 0 1 0.68,-0.32 v 0.1 c 0.92,2 1.78,3.81 2.42,5.38 a 0.39,0.39 0 0 1 -0.2,0.51 z m -5,-11 a 0.37,0.37 0 0 1 -0.35,-0.22 c -0.9,-2.09 -1.62,-3.94 -2.19,-5.65 a 0.38,0.38 0 0 1 0.23,-0.48 0.38,0.38 0 0 1 0.48,0.24 c 0.56,1.69 1.27,3.52 2.17,5.59 a 0.37,0.37 0 0 1 -0.2,0.49 0.32,0.32 0 0 1 -0.12,0.08 z m -3.66,-11.46 a 0.38,0.38 0 0 1 -0.37,-0.32 20.66,20.66 0 0 1 -0.26,-3.24 14.79,14.79 0 0 1 0.26,-2.89 0.38,0.38 0 0 1 0.74,0.15 14,14 0 0 0 -0.25,2.74 20.56,20.56 0 0 0 0.25,3.13 0.39,0.39 0 0 1 -0.31,0.43 z m 2.61,-11.36 a 0.37,0.37 0 0 1 -0.24,-0.08 0.38,0.38 0 0 1 0,-0.53 16,16 0 0 1 4.81,-3.81 0.38,0.38 0 0 1 0.51,0.15 0.39,0.39 0 0 1 -0.16,0.51 15.24,15.24 0 0 0 -4.58,3.63 0.37,0.37 0 0 1 -0.32,0.18 z m 40.32,-4.9 h -0.08 c -1.92,-0.4 -3.91,-0.74 -5.92,-1 a 0.37,0.37 0 0 1 -0.32,-0.42 0.37,0.37 0 0 1 0.42,-0.32 c 2,0.26 4,0.6 6,1 a 0.38,0.38 0 0 1 -0.07,0.75 z m -30,-0.85 a 0.37215588,0.37215588 0 0 1 -0.08,-0.74 39.56,39.56 0 0 1 6,-0.87 0.38,0.38 0 0 1 0.4,0.35 0.37,0.37 0 0 1 -0.35,0.4 38,38 0 0 0 -5.9,0.85 z m 18,-0.7 v 0 c -1.74,-0.12 -3.81,-0.25 -6,-0.29 a 0.38,0.38 0 0 1 -0.37,-0.38 0.37,0.37 0 0 1 0.38,-0.37 c 2.21,0.05 4.3,0.17 6,0.29 a 0.37,0.37 0 0 1 0.35,0.4 0.38,0.38 0 0 1 -0.29,0.4 z"
       style="fill:#407bff"
       id="path89" />
    <path
       d="m 58.36,170 a 0.37,0.37 0 0 1 -0.33,-0.19 24.54,24.54 0 0 1 -1.35,-2.72 0.37,0.37 0 0 1 0.2,-0.49 0.38,0.38 0 0 1 0.49,0.2 25.88,25.88 0 0 0 1.31,2.64 0.36,0.36 0 0 1 -0.32,0.56 z"
       style="fill:#407bff"
       id="path90" />
  </g>
  <g
     id="freepik--Desk--inject-376"
     transform="matrix(1.0351576,0,0,1.0351576,-48.7894,-57.334121)">
    <rect
       x="141.85001"
       y="249.03999"
       width="37.959999"
       height="7.7800002"
       style="fill:#ffffff"
       id="rect90" />
    <rect
       x="141.85001"
       y="249.03999"
       width="37.959999"
       height="7.7800002"
       style="opacity:0.1;isolation:isolate"
       id="rect91" />
    <rect
       x="141.85001"
       y="249.03999"
       width="15.99"
       height="7.7800002"
       style="opacity:0.1;isolation:isolate"
       id="rect92" />
    <polygon
       points="141.85,250.16 175.64,250.16 141.85,251.12 "
       style="opacity:0.1;isolation:isolate"
       id="polygon92" />
    <polygon
       points="179.81,251.51 150.52,252.24 179.81,252.24 "
       style="opacity:0.1;isolation:isolate"
       id="polygon93" />
    <polygon
       points="157.84,254.02 143.4,253.69 157.84,253.1 179.07,253.69 "
       style="opacity:0.1;isolation:isolate"
       id="polygon94" />
    <polygon
       points="141.85,255.34 166.87,255.34 141.85,255.93 "
       style="opacity:0.1;isolation:isolate"
       id="polygon95" />
    <polygon
       points="179.75,255.93 163.04,256.24 179.81,256.24 "
       style="opacity:0.1;isolation:isolate"
       id="polygon96" />
    <rect
       x="136.57001"
       y="241.25999"
       width="37.959999"
       height="7.7800002"
       style="fill:#ffffff"
       id="rect96" />
    <rect
       x="136.57001"
       y="241.25999"
       width="37.959999"
       height="7.7800002"
       style="opacity:0.1;isolation:isolate"
       id="rect97" />
    <rect
       x="136.57001"
       y="241.25999"
       width="15.99"
       height="7.7800002"
       style="opacity:0.1;isolation:isolate"
       id="rect98" />
    <polygon
       points="136.57,242.38 170.36,242.38 136.57,243.33 "
       style="opacity:0.1;isolation:isolate"
       id="polygon98" />
    <polygon
       points="174.53,243.73 145.24,244.46 174.53,244.46 "
       style="opacity:0.1;isolation:isolate"
       id="polygon99" />
    <polygon
       points="152.55,246.24 138.11,245.91 152.55,245.31 173.78,245.91 "
       style="opacity:0.1;isolation:isolate"
       id="polygon100" />
    <polygon
       points="136.57,247.55 161.59,247.55 136.57,248.15 "
       style="opacity:0.1;isolation:isolate"
       id="polygon101" />
    <polygon
       points="174.47,248.15 157.76,248.46 174.53,248.46 "
       style="opacity:0.1;isolation:isolate"
       id="polygon102" />
    <rect
       x="140.89999"
       y="233.47"
       width="37.959999"
       height="7.7800002"
       style="fill:#ffffff"
       id="rect102" />
    <rect
       x="140.89999"
       y="233.47"
       width="37.959999"
       height="7.7800002"
       style="opacity:0.1;isolation:isolate"
       id="rect103" />
    <rect
       x="140.89999"
       y="233.47"
       width="15.99"
       height="7.7800002"
       style="opacity:0.1;isolation:isolate"
       id="rect104" />
    <polygon
       points="140.9,234.59 174.69,234.59 140.9,235.55 "
       style="opacity:0.1;isolation:isolate"
       id="polygon104" />
    <polygon
       points="178.86,235.94 149.57,236.67 178.86,236.67 "
       style="opacity:0.1;isolation:isolate"
       id="polygon105" />
    <polygon
       points="156.89,238.45 142.45,238.12 156.89,237.53 178.12,238.12 "
       style="opacity:0.1;isolation:isolate"
       id="polygon106" />
    <polygon
       points="140.9,239.77 165.92,239.77 140.9,240.36 "
       style="opacity:0.1;isolation:isolate"
       id="polygon107" />
    <polygon
       points="178.81,240.36 162.1,240.67 178.86,240.67 "
       style="opacity:0.1;isolation:isolate"
       id="polygon108" />
    <polygon
       points="204.15,256.66 205.13,252.93 245.69,252.93 264.36,254.8 265.07,256.66 "
       style="fill:#263238"
       id="polygon109" />
    <polygon
       points="205.13,252.93 245.69,252.93 245.69,256.66 204.15,256.66 "
       style="opacity:0.4;isolation:isolate"
       id="polygon110" />
    <path
       d="m 237.54,235.08 a 3.19,3.19 0 0 1 -3.22,3.57 H 172.2 a 4,4 0 0 1 -3.89,-3.57 l -3.69,-39.77 a 3.41,3.41 0 0 1 0.08,-1.16 3.17,3.17 0 0 1 3.14,-2.41 H 230 a 4,4 0 0 1 3.89,3.57 z"
       style="fill:#263238"
       id="path110" />
    <path
       d="m 234.1,238.65 h -61.9 a 4,4 0 0 1 -3.89,-3.57 l -3.69,-39.77 a 3.41,3.41 0 0 1 0.08,-1.16 h 61.9 a 4,4 0 0 1 3.89,3.57 l 3.69,39.77 a 3.41,3.41 0 0 1 -0.08,1.16 z"
       style="opacity:0.4;isolation:isolate"
       id="path111" />
    <polygon
       points="187.14,251.05 191.42,214.26 204.27,214.26 200.85,251.05 221.17,254.1 221.17,256.66 178.37,256.66 178.37,254.1 "
       style="fill:#263238"
       id="polygon111" />
    <polygon
       points="191.42,214.26 204.27,214.26 194.75,256.08 187.14,255.85 "
       style="opacity:0.1;isolation:isolate;fill:#ffffff"
       id="polygon112" />
    <polygon
       points="195.21,263.82 204.21,417.07 198.09,417.07 187.08,263.82 "
       style="fill:#263238"
       id="polygon113" />
    <polygon
       points="187.08,264.07 195.21,264.07 195.65,271.44 204.22,417.07 198.09,417.07 187.62,271.44 "
       style="opacity:0.4;isolation:isolate;fill:#ffffff"
       id="polygon114" />
    <polygon
       points="195.21,264.07 195.65,271.07 187.62,271.07 187.08,264.07 "
       style="opacity:0.2;isolation:isolate"
       id="polygon115" />
    <polygon
       points="250.17,263.82 249.17,417.07 243.05,417.07 242.05,263.82 "
       style="fill:#263238"
       id="polygon116" />
    <polygon
       points="243.05,417.07 242.21,288.8 242.05,264.07 250.18,264.07 250.02,288.8 249.18,417.07 "
       style="opacity:0.5;isolation:isolate;fill:#ffffff"
       id="polygon117" />
    <polygon
       points="242.05,264.07 250.18,264.07 250.02,289.07 242.21,289.07 "
       style="opacity:0.2;isolation:isolate"
       id="polygon118" />
    <polygon
       points="305.21,263.82 314.21,417.07 308.09,417.07 297.08,263.82 "
       style="fill:#263238"
       id="polygon119" />
    <polygon
       points="297.08,264.07 305.21,264.07 305.65,271.44 314.22,417.07 308.09,417.07 297.62,271.44 "
       style="opacity:0.5;isolation:isolate;fill:#ffffff"
       id="polygon120" />
    <polygon
       points="305.21,264.07 305.65,271.07 297.62,271.07 297.08,264.07 "
       style="opacity:0.2;isolation:isolate"
       id="polygon121" />
    <polygon
       points="145.14,263.82 134.13,417.07 128.01,417.07 137.01,263.82 "
       style="fill:#263238"
       id="polygon122" />
    <polygon
       points="128.01,417.07 136.57,271.44 137.01,264.07 145.14,264.07 144.6,271.44 134.13,417.07 "
       style="opacity:0.5;isolation:isolate;fill:#ffffff"
       id="polygon123" />
    <polygon
       points="136.57,271.07 137.01,264.07 145.14,264.07 144.6,271.07 "
       style="opacity:0.2;isolation:isolate"
       id="polygon124" />
    <path
       d="m 130.57,260 h 181.08 v 5.51 a 2.16,2.16 0 0 1 -2.16,2.16 H 132.73 a 2.16,2.16 0 0 1 -2.16,-2.16 z"
       style="fill:#407bff"
       id="path124" />
    <path
       d="m 130.57,260 h 181.08 v 5.51 a 2.16,2.16 0 0 1 -2.16,2.16 H 132.73 a 2.16,2.16 0 0 1 -2.16,-2.16 z"
       style="opacity:0.6;isolation:isolate;fill:#ffffff"
       id="path125" />
    <rect
       x="130.57001"
       y="259.98999"
       width="181.08"
       height="3.8399999"
       style="opacity:0.2;isolation:isolate"
       id="rect125" />
    <path
       d="M 315.45,261 H 126.77 a 2.16,2.16 0 0 1 -2.16,-2.16 v 0 a 2.17,2.17 0 0 1 2.16,-2.17 h 188.68 a 2.17,2.17 0 0 1 2.16,2.17 v 0 a 2.16,2.16 0 0 1 -2.16,2.16 z"
       style="fill:#407bff"
       id="path126" />
    <path
       d="M 315.45,261 H 126.77 a 2.16,2.16 0 0 1 -2.16,-2.16 v 0 a 2.17,2.17 0 0 1 2.16,-2.17 h 188.68 a 2.17,2.17 0 0 1 2.16,2.17 v 0 a 2.16,2.16 0 0 1 -2.16,2.16 z"
       style="opacity:0.6;isolation:isolate;fill:#ffffff"
       id="path127" />
    <path
       d="m 270.81,250 2.32,-3.48 a 2.5,2.5 0 0 1 2.08,-1.11 h 2.94 a 2.46,2.46 0 0 1 0.72,0.11 l 10.49,3.18 a 2.47,2.47 0 0 1 1.42,1.11 l 1.51,2.53 z"
       style="fill:#407bff"
       id="path128" />
    <path
       d="M 292.29,252.34 277,250.68 270.79,250 l 2.32,-3.48 a 2.5,2.5 0 0 1 2.08,-1.11 h 2.94 a 2.58,2.58 0 0 1 0.73,0.11 l 0.23,0.07 10.25,3.11 a 2.48,2.48 0 0 1 1.43,1.11 z"
       style="opacity:0.2;isolation:isolate"
       id="path129" />
    <path
       d="m 292.29,252.34 -15.29,-1.66 2.09,-5.09 10.25,3.11 a 2.48,2.48 0 0 1 1.43,1.11 z"
       style="opacity:0.2;isolation:isolate"
       id="path130" />
    <path
       d="m 299.55,256.33 v 0.33 h -32.42 l 1.2,-4.69 a 4,4 0 0 1 3.89,-3 h 14.38 a 3.94,3.94 0 0 1 1.4,0.25 l 1.8,0.67 7.14,2.66 a 4,4 0 0 1 2.61,3.78 z"
       style="fill:#407bff"
       id="path131" />
    <path
       d="m 299.55,256.33 v 0.33 h -13.31 l 0.71,-5.07 a 2.13,2.13 0 0 1 2.85,-1.69 l 7.14,2.66 a 4,4 0 0 1 2.61,3.77 z"
       style="opacity:0.2;isolation:isolate"
       id="path132" />
    <path
       d="m 288.31,253.22 4.24,-12.71 a 0.93,0.93 0 0 1 1.32,-0.54 v 0 a 1,1 0 0 1 0.48,1.08 l -3.57,13.56 c 0,0 -2.37,0.96 -2.47,-1.39 z"
       style="fill:#263238"
       id="path133" />
    <polygon
       points="271.17,253.76 270.81,255.61 268.93,255.61 269.29,253.76 "
       style="opacity:0.2;isolation:isolate"
       id="polygon133" />
    <polygon
       points="273.97,253.69 273.61,255.54 271.73,255.54 272.09,253.69 "
       style="opacity:0.2;isolation:isolate"
       id="polygon134" />
  </g>
</svg>
