<?xml version="1.0" encoding="UTF-8" standalone="no"?>
<svg
   viewBox="0 0 420 420"
   version="1.1"
   id="svg160"
   sodipodi:docname="Good team-rafiki.svg"
   width="420"
   height="420"
   inkscape:version="1.3.2 (091e20e, 2023-11-25, custom)"
   xmlns:inkscape="http://www.inkscape.org/namespaces/inkscape"
   xmlns:sodipodi="http://sodipodi.sourceforge.net/DTD/sodipodi-0.dtd"
   xmlns="http://www.w3.org/2000/svg"
   xmlns:svg="http://www.w3.org/2000/svg">
  <defs
     id="defs160" />
  <sodipodi:namedview
     id="namedview160"
     pagecolor="#ffffff"
     bordercolor="#000000"
     borderopacity="0.25"
     inkscape:showpageshadow="2"
     inkscape:pageopacity="0.0"
     inkscape:pagecheckerboard="0"
     inkscape:deskcolor="#d1d1d1"
     inkscape:zoom="1.092"
     inkscape:cx="250"
     inkscape:cy="249.54212"
     inkscape:window-width="1920"
     inkscape:window-height="1001"
     inkscape:window-x="-9"
     inkscape:window-y="-9"
     inkscape:window-maximized="1"
     inkscape:current-layer="svg160" />
  <g
     id="freepik--background-simple--inject-42"
     transform="translate(-40.78,-40.407144)">
    <path
       d="m 255.7,393.42 c 34.34,6.26 134.68,28 164.57,-46.66 31.16,-77.8 -16.17,-119.57 -91.1,-149.58 -70,-28 -21.47,-97.85 -116.12,-135.75 -80.14,-32.1 -184.73,66.25 -125.79,204 35.79,83.57 129.62,120.92 168.44,127.99 z"
       style="fill:#407bff"
       id="path1" />
    <path
       d="m 255.7,393.42 c 34.34,6.26 134.68,28 164.57,-46.66 31.16,-77.8 -16.17,-119.57 -91.1,-149.58 -70,-28 -21.47,-97.85 -116.12,-135.75 -80.14,-32.1 -184.73,66.25 -125.79,204 35.79,83.57 129.62,120.92 168.44,127.99 z"
       style="opacity:0.9;fill:#ffffff"
       id="path2" />
  </g>
  <g
     id="freepik--Arrow--inject-42"
     transform="translate(-40.78,-40.407144)">
    <polygon
       points="48.68,387.62 432.2,387.62 432.2,383.16 452.88,400.22 432.2,418.04 432.2,414 48.68,414 "
       style="fill:#407bff"
       id="polygon2" />
    <g
       style="opacity:0.2"
       id="g3">
      <polygon
         points="48.68,387.62 432.2,387.62 432.2,383.16 452.88,400.22 432.2,418.04 432.2,414 48.68,414 "
         id="polygon3" />
    </g>
  </g>
  <g
     id="freepik--character-1--inject-42"
     transform="translate(-40.78,-40.407144)">
    <path
       d="m 113.8,223.43 c 1.21,4.22 2.24,9 4.85,11.27 l 13.9,7.37 -1.14,3.9 c 0,0 -17.49,-4.77 -20,-7 -2.26,-2 -4.43,-12.48 -4.65,-13.3 z"
       style="fill:#ffb87d"
       id="path3" />
    <path
       d="m 129.2,241.35 3,-0.54 a 3,3 0 0 1 2.53,0.67 l 2.63,2.28 a 1,1 0 0 1 0.12,1.23 l -1.37,2.42 a 0.93,0.93 0 0 1 -1.13,0.48 l -3.32,-1.39 -3.55,-1.79 c 0,0 -0.11,-3.15 1.09,-3.36 z"
       style="fill:#ffb87d"
       id="path4" />
    <g
       style="opacity:0.1;isolation:isolate"
       id="g6">
      <path
         d="m 113.8,223.43 c 1.21,4.22 2.24,9 4.85,11.27 l 13.9,7.37 -1.14,3.9 c 0,0 -17.49,-4.77 -20,-7 -2.26,-2 -4.43,-12.48 -4.65,-13.3 z"
         id="path5" />
      <path
         d="m 129.2,241.35 3,-0.54 a 3,3 0 0 1 2.53,0.67 l 2.63,2.28 a 1,1 0 0 1 0.12,1.23 l -1.37,2.42 a 0.93,0.93 0 0 1 -1.13,0.48 l -3.32,-1.39 -3.55,-1.79 c 0,0 -0.11,-3.15 1.09,-3.36 z"
         id="path6" />
    </g>
    <path
       d="m 108.66,232.24 c -1.78,-3.38 -5.18,-16.1 -1.23,-20.69 0,0 3,0 6.17,5.63 1.31,2.32 3.48,9.17 4.35,10.73 z"
       style="fill:#407bff"
       id="path7" />
    <path
       d="m 111.11,231.91 c 0,0 0.2,-7.62 0.32,-9.52 0,0 4.19,3.93 -0.32,9.52 z"
       style="opacity:0.2;isolation:isolate"
       id="path8" />
    <path
       d="M 159.52,395.05 H 151 a 4.08,4.08 0 0 1 -4.09,-4.15 l 2,-127.83 a 4.33,4.33 0 0 0 -3.79,-4.37 l -11.12,-0.2 1.27,-10.69 16.7,0.09 a 9.52,9.52 0 0 1 9.79,9.39 l 1.91,133.61 a 4.1,4.1 0 0 1 -4.15,4.15 z"
       style="fill:#263238"
       id="path9" />
    <g
       style="opacity:0.5"
       id="g10">
      <path
         d="M 159.52,395.05 H 151 a 4.08,4.08 0 0 1 -4.09,-4.15 l 2,-127.83 a 4.33,4.33 0 0 0 -3.79,-4.37 l -11.12,-0.2 1.27,-10.69 16.7,0.09 a 9.52,9.52 0 0 1 9.79,9.39 l 1.91,133.61 a 4.1,4.1 0 0 1 -4.15,4.15 z"
         style="fill:#ffffff"
         id="path10" />
    </g>
    <path
       d="m 129.18,276.82 v 0 a 3.2,3.2 0 0 1 -2.88,-3.5 l 4.1,-41.5 a 3.21,3.21 0 0 1 3.51,-2.88 v 0 a 3.21,3.21 0 0 1 2.88,3.51 l -4.1,41.5 a 3.21,3.21 0 0 1 -3.51,2.87 z"
       style="fill:#263238"
       id="path11" />
    <path
       d="m 129.18,276.82 v 0 a 3.2,3.2 0 0 1 -2.88,-3.5 l 4.1,-41.5 a 3.21,3.21 0 0 1 3.51,-2.88 v 0 a 3.21,3.21 0 0 1 2.88,3.51 l -4.1,41.5 a 3.21,3.21 0 0 1 -3.51,2.87 z"
       style="opacity:0.5;fill:#ffffff"
       id="path12" />
    <path
       d="m 130.11,276.91 -0.18,6.95 c 0,0 -1.78,3 -3,0.35 -1.22,-2.65 1.25,-7.84 1.25,-7.84 z"
       style="fill:#263238"
       id="path13" />
    <path
       d="m 130.11,276.91 -0.18,6.95 c 0,0 -1.78,3 -3,0.35 -1.22,-2.65 1.25,-7.84 1.25,-7.84 z"
       style="opacity:0.6;fill:#ffffff"
       id="path14" />
    <path
       d="m 133.15,229.36 0.18,-7 c 0,0 1.78,-3 3,-0.36 1.22,2.64 -1.25,7.84 -1.25,7.84 z"
       style="fill:#263238"
       id="path15" />
    <path
       d="m 133.15,229.36 0.18,-7 c 0,0 1.78,-3 3,-0.36 1.22,2.64 -1.25,7.84 -1.25,7.84 z"
       style="opacity:0.6;fill:#ffffff"
       id="path16" />
    <path
       d="m 135.77,234.64 a 2.33,2.33 0 1 1 -2.14,-2.74 2.48,2.48 0 0 1 2.14,2.74 z"
       style="opacity:0.3;fill:#ffffff"
       id="path17" />
    <path
       d="m 132.21,270.17 a 2.33,2.33 0 1 1 -2.15,-2.75 2.47,2.47 0 0 1 2.15,2.75 z"
       style="opacity:0.3;fill:#ffffff"
       id="path18" />
    <path
       d="m 133.14,258.9 a 2.33,2.33 0 1 1 -2.15,-2.74 2.48,2.48 0 0 1 2.15,2.74 z"
       style="opacity:0.3;fill:#ffffff"
       id="path19" />
    <path
       d="m 134.38,247.2 a 2.33,2.33 0 1 1 -2.14,-2.74 2.46,2.46 0 0 1 2.14,2.74 z"
       style="opacity:0.3;fill:#ffffff"
       id="path20" />
    <path
       d="m 81.48,283.4 17.24,5 h 0.07 l 0.19,-0.08 3.14,-1.25 12.72,-5.07 -0.83,-7.31 a 0.22,0.22 0 0 0 0,-0.08 l -1.2,-10.61 -28.72,-0.65 -1.53,8.71 -0.54,3 c -0.12,0.65 -0.21,1.32 -0.28,2 l -0.21,2.3 z"
       style="fill:#263238"
       id="path21" />
    <path
       d="m 130.43,394.44 c -1,-5.49 -2,-14.23 -2,-14.23 l -5.93,6.86 c 0,0 1.5,7.71 2.2,9.86 1.76,-0.54 3.97,-2.11 5.73,-2.49 z"
       style="fill:#ffb573"
       id="path22" />
    <path
       d="m 95.69,278.85 c 1.52,6.65 12,55.45 12,55.45 2.09,26.1 13.2,53.2 13.2,53.2 l 9.36,-2 c 0,0 -14.52,-102.4 -16.25,-110.9 l -12.49,3.07 z"
       style="fill:#263238"
       id="path23" />
    <path
       d="m 98.06,290.09 5.27,24 c 0,0 -1.21,-30.37 -3.6,-32.78 -2.39,-2.41 -2.46,5.16 -1.67,8.78 z"
       style="opacity:0.2;isolation:isolate"
       id="path24" />
    <path
       d="m 104.57,211.12 c -4.4,-0.39 -5.32,-1.08 -9.74,-1 -2.26,0.07 -9.31,-0.19 -11.37,1 -6.09,3.51 0.55,47.72 0.62,52.19 l 28.73,0.72 c -0.31,-10.19 -2.38,-18 -1.23,-30.15 2.26,-23.83 -3.99,-22.38 -7.01,-22.76 z"
       style="fill:#407bff"
       id="path25" />
    <path
       d="m 90.8,210.48 0.53,0.52 c 0.7,0.68 1.4,1.36 2.13,2 v 0 a 20.76,20.76 0 0 0 6.19,2.54 c 1.32,-0.67 3.79,-0.86 4.36,-1.44 a 3.66,3.66 0 0 0 0.24,-1.85 2.47,2.47 0 0 0 -0.27,-0.82 4.71,4.71 0 0 1 -2.55,-2.13 3,3 0 0 1 -0.24,-0.55 8.51,8.51 0 0 1 0.25,-5.06 l -7.92,-7.18 c 0.68,4.03 1.11,11.67 -2.72,13.97 z"
       style="fill:#ffb573"
       id="path26" />
    <path
       d="m 96.6,201.75 c 0.14,1.9 2.79,5.71 4.38,4.29 a 13.09,13.09 0 0 1 0.48,-2.32 l -4.69,-4.25 a 6.5,6.5 0 0 0 -0.17,2.28 z"
       style="opacity:0.2;isolation:isolate"
       id="path27" />
    <path
       d="m 104.27,212.26 a 3.66,3.66 0 0 1 -0.24,1.85 4.66,4.66 0 0 0 0.71,-0.92 1.83,1.83 0 0 0 0.29,-1.4 l -0.44,-0.14 a 5.12,5.12 0 0 1 -0.59,-0.21 2.47,2.47 0 0 1 0.27,0.82 z"
       style="fill:#ffb573"
       id="path28" />
    <path
       d="m 90,210.88 c 0,0 0.62,0.45 1.71,1.11 0.49,0.3 1.09,0.65 1.77,1 -0.73,-0.64 -1.43,-1.32 -2.13,-2 l -0.53,-0.52 a 3,3 0 0 1 -0.43,0.23 3.29,3.29 0 0 1 -0.39,0.18 z"
       style="fill:#ffb573"
       id="path29" />
    <path
       d="m 105.49,193.08 0.45,2.59 c 0,0 3.55,0.64 4.26,0.38 a 4.44,4.44 0 0 1 -0.55,-2.47 c 0.27,-1 1.82,-1 2.27,-2 0.45,-1 0.57,-4.41 -0.35,-4.63 -0.92,-0.22 -6.41,-1.18 -6.41,-1.18 -4.27,1.23 0.33,7.31 0.33,7.31 z"
       style="fill:#263238"
       id="path30" />
    <path
       d="m 97.05,185.56 a 7.88,7.88 0 0 1 11.12,-0.93 c 4.68,3.91 2.81,12.31 0,16.87 -3.07,5.07 -10.66,5.41 -13.48,-0.18 -1.87,-3.71 -0.75,-6.92 0.68,-12.53 a 7.87,7.87 0 0 1 1.68,-3.23 z"
       style="fill:#ffb573"
       id="path31" />
    <polygon
       points="99.4,212.66 97.09,214.33 99.93,218.67 100.5,219.4 99.44,247.32 103.28,250.32 106.69,246.38 102.13,219.29 102.64,218.17 104.02,214.93 102.67,213.19 "
       style="fill:#263238"
       id="polygon31" />
    <polygon
       points="101.37,208.39 105.81,211.32 104.47,217.5 100.62,212.31 97.09,218.49 89.8,210.84 92.29,208.2 100.66,210.65 "
       style="opacity:0.9;fill:#407bff"
       id="polygon32" />
    <polygon
       points="101.37,208.39 105.81,211.32 104.47,217.5 100.62,212.31 97.09,218.49 89.8,210.84 92.29,208.2 100.66,210.65 "
       style="opacity:0.9;fill:#ffffff"
       id="polygon33" />
    <path
       d="m 104.24,200.74 a 3.68,3.68 0 0 0 0.83,0.32 0.15402922,0.15402922 0 1 0 0.07,-0.3 5.12,5.12 0 0 1 -2.67,-1.89 0.16,0.16 0 0 0 -0.21,-0.05 0.16,0.16 0 0 0 -0.05,0.22 5.44,5.44 0 0 0 2.03,1.7 z"
       style="fill:#263238"
       id="path33" />
    <path
       d="m 93.75,199.11 0.1,-3.48 3.49,2.23 c 0,0 -1,-4.68 -0.28,-6.6 0.27,-1 1.42,-1.09 1.87,-2.07 0.45,-0.98 0.57,-4.43 -0.34,-4.65 -0.91,-0.22 -5.53,-1.08 -5.53,-1.08 -4.27,1.23 0.69,15.65 0.69,15.65 z"
       style="fill:#263238"
       id="path34" />
    <path
       d="m 73,395.69 c 1.89,-6.77 5,-15.42 5,-15.42 l -8.73,5 c 0,0 -1.94,7.66 -2.2,9.89 1.79,0.11 4.2,0.26 5.93,0.53 z"
       style="fill:#ffb573"
       id="path35" />
    <path
       d="m 104.1,270.4 c -0.09,1.32 -0.39,4 -0.82,7.57 -0.06,0.47 -0.12,1 -0.19,1.47 -0.33,2.63 -0.72,5.65 -1.15,8.88 0,0.2 -0.09,0.74 -0.1,0.82 -2.26,17 -5.46,39.31 -6,42.19 -3,16.42 -17.24,54.72 -18.09,57.07 0,0.07 -10.78,-1.88 -10.78,-1.88 3.94,-19.44 6.31,-40.26 13.56,-55.39 0.36,-4.22 0.74,-31.35 1,-47.73 0,-1.43 0,-2.77 0,-4 l 0.21,-2.3 c 0.07,-0.66 0.16,-1.33 0.28,-2 l 0.54,-3 z"
       style="fill:#263238"
       id="path36" />
    <path
       d="m 103.85,192.33 c 0.3,0 0.52,0.42 0.49,0.89 -0.03,0.47 -0.31,0.83 -0.62,0.81 -0.31,-0.02 -0.52,-0.42 -0.49,-0.89 0.03,-0.47 0.32,-0.84 0.62,-0.81 z"
       style="fill:#263238"
       id="path37" />
    <path
       d="m 109.35,192.92 c 0.31,0 0.55,0.39 0.53,0.86 -0.02,0.47 -0.27,0.85 -0.58,0.84 -0.31,-0.01 -0.54,-0.39 -0.53,-0.87 0.01,-0.48 0.23,-0.84 0.58,-0.83 z"
       style="fill:#263238"
       id="path38" />
    <path
       d="m 106.26,198.7 a 2.73,2.73 0 0 0 2.28,-0.25 16.59,16.59 0 0 1 -2,-4.18 z"
       style="fill:#ed893e"
       id="path39" />
    <path
       d="m 102.45,191.32 v 0 a 0.28,0.28 0 0 1 0,-0.38 2.73,2.73 0 0 1 2.45,-0.61 v 0 a 0.27,0.27 0 0 1 0.17,0.34 0.27,0.27 0 0 1 -0.34,0.19 2.19,2.19 0 0 0 -1.93,0.51 0.3,0.3 0 0 1 -0.24,0 0.24,0.24 0 0 1 -0.11,-0.05 z"
       style="fill:#263238"
       id="path40" />
    <path
       d="m 110.46,192.11 a 2.2,2.2 0 0 0 -1.71,-1 v 0 a 0.28,0.28 0 0 1 -0.23,-0.24 0.27,0.27 0 0 1 0.23,-0.31 2.74,2.74 0 0 1 2.17,1.28 v 0 a 0.26,0.26 0 0 1 -0.1,0.36 0.14,0.14 0 0 1 -0.11,0 0.27,0.27 0 0 1 -0.25,-0.09 z"
       style="fill:#263238"
       id="path41" />
    <path
       d="m 75.18,393.45 c 1.71,1.78 4,2.91 9.54,4.3 1.23,0.32 0.7,3.61 -2.35,3.58 -3.05,-0.03 -7.4,-0.91 -9.59,-1.1 -3.56,-0.32 -5.08,-0.31 -7.89,-0.64 a 0.54,0.54 0 0 1 -0.22,0 c -0.56,-0.17 -2.07,-0.08 1.78,-7.64 0.31,-0.62 0.78,-1.13 1.41,-1 l 5.73,0.84 a 1.17,1.17 0 0 1 0.86,0.61 8.09,8.09 0 0 0 0.73,1.05 z"
       style="fill:#263238"
       id="path42" />
    <path
       d="m 132.53,392.72 c 1.87,1.6 4.58,2.9 10.31,3.52 1.28,0.15 1,3.64 -2.14,4.06 -3.14,0.42 -8.93,0.32 -11.17,0.44 -3.66,0.2 -9.42,0.23 -7.77,-3.61 0,0 0.37,-0.39 0.93,-5 a 1.61,1.61 0 0 1 1.49,-1.48 h 6.19 a 1.21,1.21 0 0 1 1,0.52 12.14,12.14 0 0 0 1.16,1.55 z"
       style="fill:#263238"
       id="path43" />
    <path
       d="m 87.14,222.45 c 0.33,0.45 7.63,-4.75 7.12,3.51 -0.2,3.11 3.31,0 2.57,4.14 l -7.64,4.35 c -1.42,1.29 -3.83,-6.37 -5.11,-11.65 -0.52,-2.15 1.7,-2.21 3.06,-0.35 z"
       style="opacity:0.2;isolation:isolate"
       id="path44" />
    <path
       d="m 98.71,224.18 c 2.76,4.27 6.61,10.6 9.08,10.09 l 16.42,-0.35 2.34,3.58 c 0,0 -21.6,5.4 -25.15,3.43 -3.14,-1.75 -9.12,-12.52 -9.64,-13.35 z"
       style="fill:#ffb87d"
       id="path45" />
    <path
       d="m 123.42,234.49 2.62,-2.3 a 4.17,4.17 0 0 1 3,-1 l 4.14,0.19 a 1,1 0 0 1 1,0.9 l 0.28,2.77 a 1,1 0 0 1 -0.78,1.08 l -4.21,0.95 -4.71,0.77 c 0,0 -2.34,-2.47 -1.34,-3.36 z"
       style="fill:#ffb87d"
       id="path46" />
    <path
       d="m 90.38,232.31 c -2.52,-4 -10.86,-15.65 -6.48,-20.48 0,0 5.26,-5.14 12,3.92 2,2.67 4.44,8.64 5.64,10.5 z"
       style="fill:#407bff"
       id="path47" />
    <path
       d="m 94.08,190.28 c 1.61,0.61 2,3.22 1.76,4.85 -0.27,1.81 -1.67,2.88 -3,1.59 a 5.8,5.8 0 0 1 -1.65,-3.81 c -0.05,-1.78 1.28,-3.23 2.89,-2.63 z"
       style="fill:#ffb573"
       id="path48" />
    <path
       d="m 110.93,188.06 a 2.34,2.34 0 0 0 2,-2.66 3.92,3.92 0 0 0 -1.85,-3.13 c -4.09,-2 -6.31,-5.05 -7.29,-5.19 -0.29,-0.05 -3.47,1.27 -10.19,3.56 -1.12,0.38 -1.38,3.15 -0.6,4.05 a 3.52,3.52 0 0 0 1.75,0.91 23.59,23.59 0 0 0 8.73,0.69 4.35,4.35 0 0 1 2,0.05 c 0.63,0.23 1.71,1.13 1.49,1.77 0.52,-0.77 1.07,-1.18 2,-0.92 a 14.33,14.33 0 0 1 1.96,0.87 z"
       style="fill:#263238"
       id="path49" />
  </g>
  <g
     id="freepik--character-2--inject-42"
     transform="translate(-40.78,-40.407144)">
    <path
       d="m 301.08,92.33 c 0,0 44.5,115.27 17.42,251.09 0,0 30.95,-41.24 72,-41.24 29.22,0 32.46,16.65 43.28,21.29 -0.02,0 5.36,-123.56 -132.7,-231.14 z"
       style="fill:#407bff"
       id="path50" />
    <path
       d="m 301.08,92.33 c 0,0 44.5,115.27 17.42,251.09 0,0 30.95,-41.24 72,-41.24 29.22,0 32.46,16.65 43.28,21.29 -0.02,0 5.36,-123.56 -132.7,-231.14 z"
       style="opacity:0.7;fill:#ffffff"
       id="path51" />
    <path
       d="m 301.08,92.33 c 0,0 44.79,113 17.71,248.77 C 428.57,210.41 301.08,92.33 301.08,92.33 Z"
       style="opacity:0.1"
       id="path52" />
    <path
       d="m 433.56,322.82 -110.93,18.42 -15.73,2.61 c -0.95,0.16 0.46,2.46 1.4,2.31 l 126.66,-21 c 1,-0.15 -0.45,-2.46 -1.4,-2.3 z"
       style="fill:#263238"
       id="path53" />
    <path
       d="M 303.19,395.26 H 299 a 4.15,4.15 0 0 1 -4.16,-4.19 l 3.93,-295.4 a 2.34,2.34 0 0 1 2.33,-2.3 v 0 a 2.34,2.34 0 0 1 2.34,2.3 l 3.93,295.4 a 4.15,4.15 0 0 1 -4.18,4.19 z"
       style="fill:#263238"
       id="path54" />
    <path
       d="M 303.19,395.26 H 299 a 4.15,4.15 0 0 1 -4.16,-4.19 l 3.93,-295.4 a 2.34,2.34 0 0 1 2.33,-2.3 v 0 a 2.34,2.34 0 0 1 2.34,2.3 l 3.93,295.4 a 4.15,4.15 0 0 1 -4.18,4.19 z"
       style="opacity:0.5;fill:#ffffff"
       id="path55" />
    <path
       d="m 298.39,99.31 c 1.59,0.94 3.75,0.79 5.48,0.43 a 0.75,0.75 0 0 0 -0.3,-1.46 c -1.32,0.28 -3.3,0.41 -4.34,-0.21 -0.83,-0.49 -1.67,0.74 -0.84,1.24 z"
       style="fill:#407bff"
       id="path56" />
    <g
       style="opacity:0"
       id="g57">
      <path
         d="m 298.39,99.31 c 1.59,0.94 3.75,0.79 5.48,0.43 a 0.75,0.75 0 0 0 -0.3,-1.46 c -1.32,0.28 -3.3,0.41 -4.34,-0.21 -0.83,-0.49 -1.67,0.74 -0.84,1.24 z"
         id="path57" />
    </g>
    <polygon
       points="242.49,393.05 238.81,377.75 231.71,380.48 235.56,394.76 "
       style="fill:#7f3e3b"
       id="polygon57" />
    <path
       d="m 214.39,260.87 c 0,0 12.92,47.3 16.51,63.28 3.29,14.62 10.28,58.91 10.28,58.91 l -9.12,2.56 c 0,0 -9.66,-27.92 -12,-37.41 -1.14,-4.7 -2.23,-14.43 -3.6,-19.06 -3.52,-11.88 -15,-33.79 -18.73,-45.6 -1.36,-4.3 -4,-17.69 -4,-17.69 z"
       style="fill:#407bff"
       id="path58" />
    <polygon
       points="243.09,383.98 242.25,379.96 229.42,383.07 230.9,387.13 "
       style="fill:#407bff"
       id="polygon58" />
    <polygon
       points="243.09,383.98 242.25,379.96 229.42,383.07 230.9,387.13 "
       style="opacity:0.5;fill:#ffffff"
       id="polygon59" />
    <path
       d="m 243.36,393.24 a 0.15,0.15 0 0 1 -0.15,-0.11 0.17,0.17 0 0 1 0,-0.19 c 0.09,-0.09 2.17,-2 3.34,-1.94 a 0.83,0.83 0 0 1 0.57,0.29 0.69,0.69 0 0 1 0.15,0.74 2.9,2.9 0 0 1 -1.87,1 10.45,10.45 0 0 1 -2.04,0.21 z m 0.47,-0.34 c 1.28,-0.1 3,-0.48 3.19,-1 0,-0.07 0,-0.18 -0.1,-0.37 a 0.46,0.46 0 0 0 -0.36,-0.17 0.84,0.84 0 0 0 -0.31,0 7.6,7.6 0 0 0 -2.42,1.54 z"
       style="fill:#407bff"
       id="path59" />
    <path
       d="m 243.27,393.25 a 0.16,0.16 0 0 1 -0.09,-0.14 5.26,5.26 0 0 1 0.54,-3 1.21,1.21 0 0 1 0.82,-0.48 c 0.45,0 0.63,0.16 0.68,0.35 0.29,0.78 -1,2.68 -1.77,3.23 a 0.06,0.06 0 0 1 -0.07,0 0.14,0.14 0 0 1 -0.11,0.04 z M 244.5,390 a 0.83,0.83 0 0 0 -0.51,0.33 4.3,4.3 0 0 0 -0.49,2.39 c 0.73,-0.71 1.56,-2.15 1.44,-2.63 0,0 -0.06,-0.16 -0.35,-0.12 h -0.09 z"
       style="fill:#407bff"
       id="path60" />
    <path
       d="m 242.46,392.16 -7.3,1.59 a 0.64,0.64 0 0 0 -0.49,0.62 L 234.5,401 a 1,1 0 0 0 1,1.1 h 0.21 c 2.62,-0.62 4.93,-1.28 8.21,-2 3.87,-0.84 3,-0.13 7.53,-1.05 2.75,-0.55 2.65,-4 1.46,-3.91 -5.45,0.44 -6.31,-1.16 -8.72,-2.75 a 2.23,2.23 0 0 0 -1.73,-0.23 z"
       style="fill:#263238"
       id="path61" />
    <path
       d="m 208.9,310.11 c -0.3,-11.17 -4.38,-23 -4.38,-23 l -4.71,2.14 c 2.43,6.13 5.88,13.63 9.09,20.86 z"
       style="opacity:0.2"
       id="path62" />
    <polygon
       points="171.47,390.74 176.62,375.85 169.38,373.75 164.91,387.9 "
       style="fill:#7f3e3b"
       id="polygon62" />
    <path
       d="m 214.39,260.87 c 0,0 -13.74,56.41 -19.71,74.75 -4,12.24 -19.53,47.81 -19.53,47.81 l -9,-4.17 c 0,0 7.08,-29 10.41,-38.44 1,-2.75 3.36,-8.07 4.16,-10.88 2.73,-9.6 5.68,-29.59 5.94,-39.6 0.11,-4.09 -1.17,-12.22 -1.13,-16.31 0,-3.57 1.31,-14.2 1.31,-14.2 z"
       style="fill:#407bff"
       id="path63" />
    <polygon
       points="176.11,385.16 177.55,381.32 165.4,376.08 164.05,380.18 "
       style="fill:#407bff"
       id="polygon63" />
    <polygon
       points="176.11,385.16 177.55,381.32 165.4,376.08 164.05,380.18 "
       style="opacity:0.5;fill:#ffffff"
       id="polygon64" />
    <path
       d="m 172,392.38 a 0.19,0.19 0 0 1 -0.07,-0.19 0.17,0.17 0 0 1 0.14,-0.13 c 0.12,0 2.85,-0.3 3.75,0.5 a 1,1 0 0 1 0.31,0.59 0.7,0.7 0 0 1 -0.28,0.7 2.75,2.75 0 0 1 -2,-0.37 11.5,11.5 0 0 1 -1.85,-1.1 z m 0.56,0 c 1.09,0.71 2.65,1.45 3.13,1.16 0.06,0 0.14,-0.11 0.11,-0.36 a 0.48,0.48 0 0 0 -0.19,-0.36 1.51,1.51 0 0 0 -0.26,-0.18 7.12,7.12 0 0 0 -2.76,-0.25 z"
       style="fill:#407bff"
       id="path64" />
    <path
       d="m 172,392.33 a 0.17,0.17 0 0 1 0,-0.17 c 0,-0.08 1,-1.8 2.06,-2.12 a 1.09,1.09 0 0 1 0.93,0.12 c 0.38,0.24 0.41,0.52 0.35,0.71 -0.18,0.81 -2.29,1.54 -3.18,1.54 h -0.06 a 0.21,0.21 0 0 1 -0.1,-0.08 z m 2.76,-1.92 a 0.8,0.8 0 0 0 -0.59,0 3.9,3.9 0 0 0 -1.69,1.65 c 1,-0.12 2.43,-0.78 2.58,-1.26 0,0 0,-0.16 -0.21,-0.31 h -0.09 z"
       style="fill:#407bff"
       id="path65" />
    <path
       d="m 171.88,390.93 -6.76,-3.25 a 0.58,0.58 0 0 0 -0.73,0.2 l -3.73,5.34 a 1.11,1.11 0 0 0 0.18,1.5 0.78,0.78 0 0 0 0.18,0.11 c 2.45,1.13 4.68,2 7.71,3.49 3.58,1.73 2.48,1.75 6.66,3.84 2.52,1.26 4.3,-1.63 3.29,-2.3 -4.63,-3 -4.47,-4.88 -5.56,-7.69 a 2.5,2.5 0 0 0 -1.24,-1.24 z"
       style="fill:#263238"
       id="path66" />
    <polygon
       points="186.64,268.79 198.24,268.73 198.18,265.92 186.83,265.98 "
       style="fill:#263238"
       id="polygon66" />
    <polygon
       points="208.33,268.67 215.45,268.63 214.72,265.83 208.22,265.87 "
       style="fill:#263238"
       id="polygon67" />
    <polygon
       points="200.58,268.71 206.21,268.68 206.14,265.88 200.54,265.91 "
       style="fill:#263238"
       id="polygon68" />
    <path
       d="m 196.19,180.25 c 0,0 4.92,-1.62 3.38,4 L 195.84,183 Z"
       style="fill:#263238"
       id="path68" />
    <path
       d="m 190,196.63 c 1.42,3.36 3.4,9.28 2.32,12.85 a 1.9,1.9 0 0 0 0.89,2.21 13.21,13.21 0 0 0 9.24,1.82 c 4.1,-0.7 3.93,-2.94 2.77,-4.47 a 1.89,1.89 0 0 0 -1.29,-0.73 c -4.11,-0.42 -5.08,-3.73 -5,-6.81 z"
       style="fill:#7f3e3b"
       id="path69" />
    <path
       d="m 193.67,198.63 5.31,2.86 a 14.1,14.1 0 0 0 0.15,2.25 6.29,6.29 0 0 1 -5.3,-2.56 c -0.67,-1.05 -0.57,-2.32 -0.16,-2.55 z"
       style="opacity:0.2;isolation:isolate"
       id="path70" />
    <path
       d="m 187.31,191.22 c 1.83,5.19 2.64,8.32 6.09,10.27 5.19,2.95 11,-1.34 10.81,-7 -0.22,-5.09 -3.18,-12.7 -9,-13.34 a 7.52,7.52 0 0 0 -8.34,6.59 7.29,7.29 0 0 0 0.44,3.48 z"
       style="fill:#7f3e3b"
       id="path71" />
    <path
       d="m 196.1,189.54 c 0.13,0.43 0.45,0.72 0.73,0.64 0.28,-0.08 0.42,-0.49 0.29,-0.93 -0.13,-0.44 -0.45,-0.71 -0.73,-0.63 -0.28,0.08 -0.39,0.49 -0.29,0.92 z"
       style="fill:#263238"
       id="path72" />
    <path
       d="m 201,188.17 c 0.12,0.42 0.45,0.71 0.73,0.63 0.28,-0.08 0.41,-0.5 0.29,-0.92 -0.12,-0.42 -0.45,-0.72 -0.73,-0.64 -0.28,0.08 -0.43,0.49 -0.29,0.93 z"
       style="fill:#263238"
       id="path73" />
    <path
       d="m 199.16,189.7 a 16,16 0 0 0 3.11,3.09 2.63,2.63 0 0 1 -2,1 z"
       style="fill:#630f0f"
       id="path74" />
    <path
       d="m 194.62,188.25 a 0.34,0.34 0 0 1 -0.12,-0.06 0.29,0.29 0 0 1 0.07,-0.37 2.66,2.66 0 0 1 2.38,-0.34 0.27,0.27 0 0 1 0.15,0.34 0.27,0.27 0 0 1 -0.35,0.15 v 0 a 2.1,2.1 0 0 0 -1.88,0.29 0.25,0.25 0 0 1 -0.25,-0.01 z"
       style="fill:#263238"
       id="path75" />
    <path
       d="m 202.18,185.62 a 0.24,0.24 0 0 1 -0.2,0.15 2.07,2.07 0 0 0 -1.6,1 0.28,0.28 0 0 1 -0.36,0.12 0.26,0.26 0 0 1 -0.12,-0.35 2.66,2.66 0 0 1 2,-1.31 0.24,0.24 0 0 1 0.28,0.22 v 0 a 0.29,0.29 0 0 1 0,0.17 z"
       style="fill:#263238"
       id="path76" />
    <path
       d="m 178.53,217.44 6.84,47.4 31.35,-0.12 -0.08,-55.1 A 3.75,3.75 0 0 0 212,206 l -30.64,7.29 a 3.72,3.72 0 0 0 -2.83,4.15 z"
       style="fill:#263238"
       id="path77" />
    <path
       d="m 257.1,196 6.14,-4.79 3,-6.13 a 2.4,2.4 0 0 0 0,-2.17 l -0.7,-1.3 a 2.42,2.42 0 0 0 -3.45,-0.89 l -2,1.3 a 2.41,2.41 0 0 0 -1.09,1.94 l -0.14,5 -5.65,3.62 z"
       style="fill:#7f3e3b"
       id="path78" />
    <path
       d="m 209.29,209.93 a 5.43,5.43 0 0 1 4.69,-4.49 c 5.82,-0.72 16.33,-2.19 20.41,-3.78 5.66,-2.21 21.23,-12.22 21.23,-12.22 l 4.07,6 c 0,0 -15.95,12.84 -22.06,15.79 -4.38,2.11 -15,3.9 -22.19,4.94 a 5.44,5.44 0 0 1 -6.15,-6.25 z"
       style="fill:#263238"
       id="path79" />
    <polygon
       points="200.09,217.79 196.72,214 196.8,212.71 198.95,210.65 202.23,210.86 202.94,214.53 202.77,217.11 204.31,219.18 208.54,249.75 205.87,254.62 200.64,250.82 199.6,220.67 "
       style="fill:#407bff"
       id="polygon79" />
    <polygon
       points="194.82,215.38 198.6,211.22 206.16,212.04 204.92,207.58 202.54,206.75 197.97,209.33 191.49,208.72 188.57,211.57 "
       style="fill:#263238"
       id="polygon80" />
    <polygon
       points="194.82,215.38 198.6,211.22 206.16,212.04 204.92,207.58 202.54,206.75 197.97,209.33 191.49,208.72 188.57,211.57 "
       style="opacity:0.3;fill:#ffffff"
       id="polygon81" />
    <path
       d="m 197,196.48 a 5.28,5.28 0 0 1 -0.79,-0.28 0.16,0.16 0 0 1 -0.1,-0.21 v 0 a 0.18,0.18 0 0 1 0.22,-0.08 4.51,4.51 0 0 0 4.05,-0.14 0.16,0.16 0 0 1 0.23,0.05 0.15,0.15 0 0 1 0,0.22 4.6,4.6 0 0 1 -3.61,0.44 z"
       style="fill:#263238"
       id="path81" />
    <path
       d="m 188.43,195.47 c 0,0 4.26,0.28 0.43,-6.45 a 8.12,8.12 0 0 0 1.51,-4.56 c 0,0 11.71,-4.18 8.82,-7.77 -2.89,-3.59 -5.6,1.14 -5.6,1.14 0,0 -4.4,-2.83 -5.65,2.88 0,0 -5.09,1.27 -2.86,5.89 a 4.35,4.35 0 0 0 0.87,5.5 c 0,0 0.21,2.9 2.48,3.37 z"
       style="fill:#263238"
       id="path82" />
    <path
       d="m 186.12,196.88 a 5.29,5.29 0 0 0 3.78,1.33 c 1.84,-0.12 2.16,-1.89 1.15,-3.31 -1.01,-1.42 -3,-2.75 -4.57,-1.94 a 2.33,2.33 0 0 0 -0.36,3.92 z"
       style="fill:#7f3e3b"
       id="path83" />
    <path
       d="m 299.64,99 c -7,19.76 -35.46,80.16 -36.56,83.52 -0.59,1.8 -0.14,1.2 -1.71,2.31 -20.48,14.53 -40,30.68 -59.87,46 l -10.9,8.37 a 9,9 0 0 0 -2.93,2.92 c -2.25,4.14 -3,10.12 -4.09,14.64 -1.57,6.49 -3.06,13.22 -3.13,19.92 0,3.51 0.15,9.61 4.66,10.42 4.51,0.81 6,-4.63 6.47,-8.07 1.5,-11.84 -1.38,-24.86 -4.07,-36.37 -0.22,-1 -1.75,-0.66 -1.52,0.32 2.34,10 4.3,20.6 4.3,30.93 0,2.63 -0.88,15.86 -6.52,10.82 -3.54,-3.16 -1.61,-12.13 -1,-16.06 a 160.57,160.57 0 0 1 4.52,-19.85 c 0.53,-1.84 1,-3.77 1.67,-5.57 0.47,-1.24 0.18,-0.84 0.48,-1.2 1.68,-2 4.69,-3.6 6.76,-5.18 l 12.54,-9.63 33.26,-25.53 13.73,-10.54 c 2.36,-1.81 5.39,-3.53 7.43,-5.7 2.55,-2.71 30.5,-64.74 38,-85.94 a 0.78,0.78 0 0 0 -1.47,-0.51 z"
       style="fill:#407bff"
       id="path84" />
    <g
       style="opacity:0.3"
       id="g85">
      <path
         d="m 299.64,99 c -7,19.76 -35.46,80.16 -36.56,83.52 -0.59,1.8 -0.14,1.2 -1.71,2.31 -20.48,14.53 -40,30.68 -59.87,46 l -10.9,8.37 a 9,9 0 0 0 -2.93,2.92 c -2.25,4.14 -3,10.12 -4.09,14.64 -1.57,6.49 -3.06,13.22 -3.13,19.92 0,3.51 0.15,9.61 4.66,10.42 4.51,0.81 6,-4.63 6.47,-8.07 1.5,-11.84 -1.38,-24.86 -4.07,-36.37 -0.22,-1 -1.75,-0.66 -1.52,0.32 2.34,10 4.3,20.6 4.3,30.93 0,2.63 -0.88,15.86 -6.52,10.82 -3.54,-3.16 -1.61,-12.13 -1,-16.06 a 160.57,160.57 0 0 1 4.52,-19.85 c 0.53,-1.84 1,-3.77 1.67,-5.57 0.47,-1.24 0.18,-0.84 0.48,-1.2 1.68,-2 4.69,-3.6 6.76,-5.18 l 12.54,-9.63 33.26,-25.53 13.73,-10.54 c 2.36,-1.81 5.39,-3.53 7.43,-5.7 2.55,-2.71 30.5,-64.74 38,-85.94 a 0.78,0.78 0 0 0 -1.47,-0.51 z"
         id="path85" />
    </g>
    <path
       d="m 181.66,240.75 4.26,0.64 4.08,-3.89 1.75,0.75 a 3,3 0 0 1 1.82,3 v 0 a 3,3 0 0 1 -1.55,2.43 l -4.09,2.28 a 3,3 0 0 1 -2.58,0.18 l -0.47,-0.18 -5,-1 z"
       style="fill:#7f3e3b"
       id="path86" />
    <path
       d="m 186,216.35 a 5.21,5.21 0 0 0 -7.74,-1.64 c -8,6.15 -22.84,18.55 -21,24.66 1.83,5.91 23.88,6.9 23.88,6.9 l 3.11,-6.88 c 0,0 -11.55,-0.87 -12.34,-4 -0.79,-3.13 7.24,-8.9 12.32,-12.25 a 5.15,5.15 0 0 0 1.72,-6.77 z"
       style="fill:#263238"
       id="path87" />
  </g>
  <g
     id="freepik--character-3--inject-42"
     transform="translate(-40.78,-40.407144)">
    <polygon
       points="273.19,391.43 280.58,376.66 272.04,374.59 266.38,389.78 "
       style="fill:#ffc3bd"
       id="polygon87" />
    <path
       d="m 274.41,391.54 a 0.19,0.19 0 0 1 -0.1,-0.17 0.16,0.16 0 0 1 0.12,-0.15 c 0.12,0 2.85,-0.84 3.93,-0.25 a 0.85,0.85 0 0 1 0.43,0.5 0.65,0.65 0 0 1 -0.16,0.72 3,3 0 0 1 -2.15,0 12.57,12.57 0 0 1 -2.07,-0.65 z m 0.58,-0.1 c 1.25,0.46 3,0.87 3.42,0.49 0.06,0 0.13,-0.13 0,-0.36 a 0.45,0.45 0 0 0 -0.26,-0.31 1.15,1.15 0 0 0 -0.31,-0.11 7.7,7.7 0 0 0 -2.84,0.29 z"
       style="fill:#407bff"
       id="path88" />
    <path
       d="m 274.33,391.51 a 0.16,0.16 0 0 1 0,-0.17 c 0,-0.08 0.65,-1.9 1.7,-2.42 a 1.28,1.28 0 0 1 1,-0.06 c 0.44,0.15 0.53,0.41 0.5,0.6 0,0.81 -2.05,1.92 -3,2.09 a 0.08,0.08 0 0 1 -0.07,0 0.2,0.2 0 0 1 -0.13,-0.04 z m 2.46,-2.37 a 0.94,0.94 0 0 0 -0.62,0.07 4,4 0 0 0 -1.41,1.9 c 1,-0.3 2.34,-1.21 2.4,-1.69 0,-0.05 0,-0.17 -0.28,-0.26 h -0.09 z"
       style="fill:#407bff"
       id="path89" />
    <path
       d="m 273.94,390.4 -7.54,-1.78 a 0.63,0.63 0 0 0 -0.71,0.33 l -2.81,5.81 a 1,1 0 0 0 0.47,1.39 l 0.21,0.08 c 2.73,0.59 5.18,1 8.56,1.82 4,0.95 2.86,1.18 7.54,2.36 2.82,0.71 4.1,-2.38 2.94,-2.83 -5.33,-2 -5.5,-3.78 -7.16,-6.24 a 2.48,2.48 0 0 0 -1.5,-0.94 z"
       style="fill:#263238"
       id="path90" />
    <polygon
       points="313.58,394.14 317.29,378.03 308.5,378.03 306.58,394.14 "
       style="fill:#ffc3bd"
       id="polygon90" />
    <path
       d="m 308.54,245 c 0,0 7.62,16.31 14.89,13 7.27,-3.31 5.32,-17.82 5.32,-17.82 l 2.78,-5.61 -2.53,-7.33 -5.41,1 0.93,2.55 -1.18,3.12 1.58,6.18 -3.4,10.91 -5.4,-9.7 z"
       style="fill:#ffc3bd"
       id="path91" />
    <path
       d="m 313.5,232.6 6.65,10.69 -10.81,6.19 -5.45,-10.95 a 4.42,4.42 0 0 1 1.07,-5.32 l 1.89,-1.63 a 4.43,4.43 0 0 1 6.65,1.02 z"
       style="fill:#407bff"
       id="path92" />
    <polygon
       points="309.3,239.15 308.79,248.37 309.34,249.48 313.26,247.24 312.67,237.52 "
       style="opacity:0.2"
       id="polygon92" />
    <path
       d="m 302.36,281.24 c 0,0 19.57,42.87 21.22,58.29 1.2,11.23 -6.14,44.74 -6.14,44.74 h -10.22 c 0,0 0.95,-16.37 1.11,-29.78 0.07,-5.65 0.63,-10.78 -0.09,-13.93 -2.25,-9.81 -18.41,-35.79 -18.41,-35.79 0,0 -5.65,-8 -8.69,-13.3 -3.04,-5.3 -2.3,-13.29 -2.3,-13.29 z"
       style="fill:#263238"
       id="path93" />
    <polygon
       points="318.45,386.51 318.98,383 305.8,383 306.27,386.51 "
       style="fill:#407bff"
       id="polygon93" />
    <path
       d="m 308.24,340.56 c -0.09,-13.93 -18.53,-44.62 -18.53,-44.62 l -4.32,-3.58 0.29,6.32 c 2.21,3.34 4.15,6.09 4.15,6.09 0,0 16.17,25.98 18.41,35.79 z"
       style="opacity:0.5"
       id="path94" />
    <path
       d="m 288.55,279.18 c 0,0 12.49,45.59 10,60.35 -2,11.84 -20.45,43.47 -20.45,43.47 l -8.69,-3.84 c 0,0 5.89,-15.35 10,-28.38 1.74,-5.57 3.77,-10.72 3.85,-14.06 0.26,-11.93 -10.87,-34.23 -12.79,-46 -1,-6.27 2.05,-12.52 2.05,-12.52 z"
       style="fill:#263238"
       id="path95" />
    <polygon
       points="280.1,382.25 268.93,377.45 267.88,380.57 278.04,385.17 "
       style="fill:#407bff"
       id="polygon95" />
    <path
       d="m 305,233 c -3.31,-2.15 -3.15,-4.61 -2,-7 a 16.7,16.7 0 0 1 0.95,-1.7 l -3.19,-5.38 -2.34,-4 c -0.51,4.33 -2.08,12 -5.74,13.71 a 16.11,16.11 0 0 0 8.15,6 C 306.17,236.38 305,233 305,233 Z"
       style="fill:#ffc3bd"
       id="path96" />
    <path
       d="m 303.89,224.31 a 16.12,16.12 0 0 0 -0.95,1.73 c -1.56,-0.95 -3.18,-3.55 -2.79,-5.36 a 8.09,8.09 0 0 1 0.55,-1.75 z"
       style="opacity:0.2;isolation:isolate"
       id="path97" />
    <path
       d="m 296.28,211.8 c 1.32,5.63 1.79,9 5.17,11.51 a 7.51,7.51 0 0 0 12.07,-5.59 c 0.37,-5.27 -1.84,-13.59 -7.81,-15.1 a 7.6,7.6 0 0 0 -9.43,9.18 z"
       style="fill:#ffc3bd"
       id="path98" />
    <path
       d="m 305.21,212.23 c 0.07,0.47 0.38,0.8 0.68,0.74 0.3,-0.06 0.49,-0.45 0.41,-0.91 -0.08,-0.46 -0.38,-0.81 -0.69,-0.73 -0.31,0.08 -0.49,0.44 -0.4,0.9 z"
       style="fill:#263238"
       id="path99" />
    <path
       d="m 310.46,211.53 c 0.07,0.46 0.38,0.8 0.68,0.73 0.3,-0.07 0.49,-0.44 0.41,-0.91 -0.08,-0.47 -0.38,-0.8 -0.69,-0.73 -0.31,0.07 -0.48,0.44 -0.4,0.91 z"
       style="fill:#263238"
       id="path100" />
    <path
       d="m 308.82,212 a 17.72,17.72 0 0 0 2.89,3.67 2.72,2.72 0 0 1 -2.15,0.73 z"
       style="fill:#ed847e"
       id="path101" />
    <path
       d="m 308.15,218 a 4,4 0 0 1 -2.93,-1.16 0.14,0.14 0 0 1 0,-0.19 0.14,0.14 0 0 1 0.2,0 v 0 a 3.85,3.85 0 0 0 3.25,1 0.14,0.14 0 1 1 0.08,0.26 h -0.05 a 3.31,3.31 0 0 1 -0.55,0.09 z"
       style="fill:#263238"
       id="path102" />
    <path
       d="m 303.29,210.76 a 0.28,0.28 0 0 1 -0.13,0 0.27,0.27 0 0 1 -0.12,-0.36 v 0 a 2.66,2.66 0 0 1 2,-1.47 0.27,0.27 0 0 1 0.29,0.25 v 0 a 0.26,0.26 0 0 1 -0.24,0.29 v 0 a 2.1,2.1 0 0 0 -1.59,1.14 0.26,0.26 0 0 1 -0.21,0.15 z"
       style="fill:#263238"
       id="path103" />
    <path
       d="m 312.4,209.43 a 0.25,0.25 0 0 1 -0.22,-0.12 2.33,2.33 0 0 0 -1.76,-1 0.28,0.28 0 0 1 -0.23,-0.32 0.28,0.28 0 0 1 0.23,-0.23 v 0 a 2.82,2.82 0 0 1 2.2,1.26 0.27,0.27 0 0 1 -0.07,0.38 v 0 a 0.25,0.25 0 0 1 -0.15,0.03 z"
       style="fill:#263238"
       id="path104" />
    <path
       d="m 270.4,281.5 8,-49.07 a 4.85,4.85 0 0 1 5.11,-4.07 l 25.33,1.64 a 4.87,4.87 0 0 1 4.46,5.8 l -9.41,47.48 z"
       style="fill:#407bff"
       id="path105" />
    <path
       d="m 278.39,232.43 -4,24.48 5.11,2.72 6.86,-23.58 -7.74,-4.54 a 4.79,4.79 0 0 0 -0.23,0.92 z"
       style="opacity:0.2"
       id="path106" />
    <polygon
       points="295.28,234.27 295.28,230.18 301.22,230.63 300,234.69 298.29,235.99 299.32,237.53 297.23,270.89 293.38,273.57 289.71,270.8 295.28,237.48 296.78,235.8 "
       style="fill:#263238"
       id="polygon106" />
    <polygon
       points="303.89,228.27 306.14,229.83 302.81,235.16 298.01,230.82 291.49,233.95 289.89,228.77 292.39,227.24 297.96,229.3 "
       style="fill:#407bff"
       id="polygon107" />
    <polygon
       points="303.89,228.27 306.14,229.83 302.81,235.16 298.01,230.82 291.49,233.95 289.89,228.77 292.39,227.24 297.96,229.3 "
       style="opacity:0.9;fill:#ffffff"
       id="polygon108" />
    <path
       d="m 298.85,216.6 1.63,-0.49 -1.63,-7.53 1.63,-3.27 c 0,0 11.52,-0.32 11.23,-6.84 0,0 -1.27,2.44 -3.37,2.43 0,0 1.66,-4.61 -2.59,-5.12 0,0 -0.38,3 -3,3.39 0,0 0.88,-2.72 -3,-3 0,0 2.22,2.68 -2.59,5.81 -4.81,3.13 -10.21,8.58 -4.87,13 0,0 5.16,4.11 4.66,6.74 z"
       style="fill:#263238"
       id="path108" />
    <path
       d="m 294.92,216.89 a 5.16,5.16 0 0 0 2.79,2.51 c 1.59,0.57 2.42,-0.83 2,-2.4 -0.37,-1.42 -1.65,-3.42 -3.26,-3.32 -1.61,0.1 -2.23,1.78 -1.53,3.21 z"
       style="fill:#ffc3bd"
       id="path109" />
    <path
       d="m 314.8,394 a 0.17,0.17 0 0 1 -0.06,-0.32 c 0.11,-0.06 2.58,-1.49 3.76,-1.17 a 0.91,0.91 0 0 1 0.53,0.39 0.63,0.63 0 0 1 0,0.73 3,3 0 0 1 -2.08,0.56 13.06,13.06 0 0 1 -2.15,-0.19 z m 0.54,-0.23 c 1.32,0.15 3.11,0.13 3.44,-0.33 0,-0.06 0.09,-0.16 0,-0.37 a 0.46,0.46 0 0 0 -0.33,-0.23 1.17,1.17 0 0 0 -0.32,0 7.73,7.73 0 0 0 -2.79,0.88 z"
       style="fill:#407bff"
       id="path110" />
    <path
       d="m 314.71,393.94 a 0.19,0.19 0 0 1 -0.08,-0.15 4.85,4.85 0 0 1 1.09,-2.76 1.25,1.25 0 0 1 0.93,-0.29 c 0.46,0.05 0.61,0.28 0.63,0.47 0.15,0.8 -1.54,2.35 -2.39,2.73 h -0.07 a 0.14,0.14 0 0 1 -0.11,0 z m 1.83,-2.88 a 0.89,0.89 0 0 0 -0.58,0.22 4,4 0 0 0 -0.93,2.18 c 0.88,-0.53 2,-1.74 1.94,-2.22 0,0 0,-0.16 -0.33,-0.19 z"
       style="fill:#407bff"
       id="path111" />
    <path
       d="m 314.07,393 h -7.75 a 0.64,0.64 0 0 0 -0.61,0.49 l -1.36,6.31 a 1,1 0 0 0 0.78,1.24 h 0.22 c 2.79,-0.06 5.28,-0.23 8.75,-0.24 4.1,0 3.07,0.47 7.89,0.51 2.91,0 3.42,-3.28 2.19,-3.43 -5.65,-0.68 -6.24,-2.38 -8.43,-4.39 A 2.49,2.49 0 0 0 314.07,393 Z"
       style="fill:#263238"
       id="path112" />
    <path
       d="m 170.32,443.05 h -4.67 a 5.72,5.72 0 0 1 -4.55,-9.18 l 41.93,-55 a 10.65,10.65 0 0 1 8.47,-4.19 h 7.28 a 4.68,4.68 0 0 1 3.92,7.24 l -33.21,50.78 a 22.9,22.9 0 0 1 -19.17,10.35 z"
       style="fill:#407bff"
       id="path113" />
    <path
       d="m 170.37,443.05 h -4.68 a 5.71,5.71 0 0 1 -4.54,-9.17 l 41.92,-55 a 10.65,10.65 0 0 1 8.47,-4.2 h 7.29 a 4.69,4.69 0 0 1 3.92,7.25 l -33.22,50.77 a 22.89,22.89 0 0 1 -19.16,10.35 z"
       style="opacity:0.7;fill:#ffffff"
       id="path114" />
    <path
       d="M 329.39,216.78 277.82,288 q -41.12,56.79 -82.24,113.56 l -19,26.16 c -1.76,2.44 2,5.17 3.78,2.74 l 51.64,-71.22 82.24,-113.56 19,-26.16 c 1.76,-2.43 -2,-5.17 -3.77,-2.74 z"
       style="fill:#407bff"
       id="path115" />
    <g
       style="opacity:0.3"
       id="g116">
      <path
         d="M 329.39,216.78 277.82,288 q -41.12,56.79 -82.24,113.56 l -19,26.16 c -1.76,2.44 2,5.17 3.78,2.74 l 51.64,-71.22 82.24,-113.56 19,-26.16 c 1.76,-2.43 -2,-5.17 -3.77,-2.74 z"
         style="fill:#ffffff"
         id="path116" />
    </g>
    <path
       d="m 273.9,239.15 c 0,0 -7.09,11.13 -3.51,20.22 3.58,9.09 21.36,3.1 21.36,3.1 l 2.5,0.93 5.49,-2.24 h 3 l 0.18,-5.8 -5.24,-1.86 -6.63,4.2 -14.05,-1.56 3.65,-12.23 z"
       style="fill:#ffc3bd"
       id="path117" />
    <path
       d="m 284,229 v 0 a 5.51,5.51 0 0 1 2.39,7 l -5.28,12.29 -11.29,-6 6.76,-11.3 A 5.52,5.52 0 0 1 284,229 Z"
       style="fill:#407bff"
       id="path118" />
    <path
       d="m 119.3,443.41 c 15.54,-0.93 38.6,0.76 62.27,0.09 23.67,-0.67 27.09,-20.94 -5.72,-24.54 -32.81,-3.6 17.56,16.15 -0.88,14.69 -18.44,-1.46 -38.44,-38.25 -54.09,-33.45 -11.9,3.65 8.93,22.39 8.93,22.39 0,0 -26.62,-18.82 -36.41,-8 -7.85,8.66 24.84,13.51 24.84,13.51 0,0 -19.84,-2.65 -24.24,7.12 -4.63,10.11 14.7,8.84 25.3,8.19 z"
       style="fill:#407bff"
       id="path119" />
    <path
       d="m 119.3,443.41 c 15.54,-0.93 38.6,0.76 62.27,0.09 23.67,-0.67 27.09,-20.94 -5.72,-24.54 -32.81,-3.6 17.56,16.15 -0.88,14.69 -18.44,-1.46 -38.44,-38.25 -54.09,-33.45 -11.9,3.65 8.93,22.39 8.93,22.39 0,0 -26.62,-18.82 -36.41,-8 -7.85,8.66 24.84,13.51 24.84,13.51 0,0 -19.84,-2.65 -24.24,7.12 -4.63,10.11 14.7,8.84 25.3,8.19 z"
       style="opacity:0.5;fill:#ffffff"
       id="path120" />
    <path
       d="m 263.23,445.49 h -6.45 a 0.75,0.75 0 0 1 0,-1.5 h 6.45 a 0.75,0.75 0 0 1 0,1.5 z"
       style="fill:#407bff"
       id="path121" />
    <path
       d="m 251,445.49 h -9.08 a 0.75,0.75 0 1 1 0,-1.5 H 251 a 0.75,0.75 0 0 1 0,1.5 z"
       style="fill:#407bff"
       id="path122" />
    <path
       d="m 234.46,445.49 h -92.35 a 0.75,0.75 0 0 1 0,-1.5 h 92.35 a 0.75,0.75 0 1 1 0,1.5 z"
       style="fill:#407bff"
       id="path123" />
  </g>
  <g
     id="freepik--character-4--inject-42"
     transform="translate(-40.78,-40.407144)">
    <polygon
       points="402.89,392.28 402.39,379.23 395.08,380.12 396.16,392.67 "
       style="fill:#ce7a63"
       id="polygon123" />
    <polygon
       points="338.34,390.42 344.23,378.93 337.59,375.61 332.43,387 "
       style="fill:#ce7a63"
       id="polygon124" />
    <path
       d="m 381.69,274 c 0,0 16.28,43.81 19.24,59.29 2.34,12.24 2.51,50 2.51,50 l -9,0.78 c 0,0 -2.07,-18.21 -4.16,-33.28 a 109.5,109.5 0 0 0 -3.4,-16.19 c -3.66,-11.81 -17,-32 -21.3,-43.58 -1.48,-4 -3.11,-16.89 -3.11,-16.89 z"
       style="fill:#263238"
       id="path124" />
    <polygon
       points="404.67,385.38 393.64,386.17 392.87,381.78 404.69,380.79 "
       style="fill:#407bff"
       id="polygon125" />
    <path
       d="m 371.81,283.91 -7.94,6.64 c 1.85,3.59 9.69,15.78 12.31,20 0.91,-10.14 -4.37,-26.64 -4.37,-26.64 z"
       style="opacity:0.5"
       id="path125" />
    <path
       d="m 378.17,274 c 0,0 -8.11,50.5 -13.16,66.46 -3.59,11.37 -22.13,42.39 -22.13,42.39 l -7.36,-4.07 c 0,0 7,-16.83 11.88,-29.9 1.66,-4.45 3.67,-8.48 4.25,-11.24 2.51,-11.81 1.53,-36.24 2.21,-48.31 0.22,-3.83 1.86,-15.23 1.86,-15.23 z"
       style="fill:#263238"
       id="path126" />
    <polygon
       points="343.04,385.13 345.19,381.13 335.54,375.75 333.61,379.87 "
       style="fill:#407bff"
       id="polygon126" />
    <path
       d="m 403.61,392.32 a 0.15,0.15 0 0 1 -0.12,-0.13 0.16,0.16 0 0 1 0.07,-0.16 c 0.1,-0.06 2.27,-1.42 3.32,-1.13 a 0.77,0.77 0 0 1 0.46,0.37 0.64,0.64 0 0 1 0,0.69 2.58,2.58 0 0 1 -1.84,0.53 9.43,9.43 0 0 1 -1.89,-0.17 z m 0.48,-0.22 c 1.16,0.15 2.74,0.12 3,-0.32 0,-0.06 0.08,-0.15 0,-0.35 a 0.4,0.4 0 0 0 -0.29,-0.22 0.72,0.72 0 0 0 -0.29,0 6.56,6.56 0 0 0 -2.42,0.89 z"
       style="fill:#407bff"
       id="path127" />
    <path
       d="m 403.53,392.32 a 0.17,0.17 0 0 1 -0.06,-0.15 4.74,4.74 0 0 1 1,-2.6 1.07,1.07 0 0 1 0.83,-0.28 c 0.4,0 0.53,0.26 0.55,0.44 0.13,0.75 -1.37,2.22 -2.11,2.58 a 0.08,0.08 0 0 1 -0.07,0 z m 1.63,-2.73 a 0.74,0.74 0 0 0 -0.51,0.2 3.9,3.9 0 0 0 -0.83,2.07 c 0.77,-0.5 1.76,-1.65 1.72,-2.1 0,0 0,-0.16 -0.3,-0.18 z"
       style="fill:#407bff"
       id="path128" />
    <path
       d="m 403,391.39 -6.81,0.08 a 0.58,0.58 0 0 0 -0.54,0.47 l -1.22,6 a 1,1 0 0 0 0.68,1.16 0.68,0.68 0 0 0 0.2,0 c 2.45,-0.07 4.64,-0.24 7.7,-0.27 3.61,0 2.69,0.43 6.93,0.45 2.56,0 3,-3.12 1.94,-3.26 -5,-0.62 -5.48,-2.22 -7.4,-4.1 A 2.07,2.07 0 0 0 403,391.39 Z"
       style="fill:#263238"
       id="path129" />
    <path
       d="m 338.82,390.67 a 0.19,0.19 0 0 1 -0.05,-0.18 0.18,0.18 0 0 1 0.14,-0.11 c 0.11,0 2.61,-0.13 3.41,0.66 a 0.91,0.91 0 0 1 0.25,0.56 0.63,0.63 0 0 1 -0.29,0.62 c -0.38,0.19 -1.16,-0.07 -1.85,-0.45 a 10.67,10.67 0 0 1 -1.61,-1.1 z m 0.52,0 c 1,0.71 2.36,1.47 2.81,1.22 0.06,0 0.13,-0.09 0.12,-0.32 a 0.44,0.44 0 0 0 -0.16,-0.34 0.81,0.81 0 0 0 -0.24,-0.17 6.42,6.42 0 0 0 -2.53,-0.35 z"
       style="fill:#407bff"
       id="path130" />
    <path
       d="m 338.76,390.62 a 0.15,0.15 0 0 1 0,-0.16 c 0,-0.07 1,-1.6 2,-1.83 a 1,1 0 0 1 0.85,0.16 c 0.34,0.24 0.36,0.5 0.29,0.67 -0.21,0.73 -2.16,1.29 -3,1.24 h -0.06 a 0.16,0.16 0 0 1 -0.08,-0.08 z m 2.61,-1.61 a 0.73,0.73 0 0 0 -0.54,-0.07 3.53,3.53 0 0 0 -1.62,1.42 c 0.9,-0.06 2.26,-0.59 2.42,-1 0,0 0,-0.16 -0.18,-0.31 h -0.08 z"
       style="fill:#407bff"
       id="path131" />
    <path
       d="m 338.66,389.52 -6,-3.33 a 0.53,0.53 0 0 0 -0.68,0.14 l -3.66,4.7 a 1,1 0 0 0 0.1,1.38 l 0.16,0.12 c 2.19,1.16 4.19,2.1 6.9,3.6 3.19,1.76 2.18,1.73 5.91,3.86 2.25,1.29 4,-1.26 3.12,-1.93 -4.1,-3 -3.86,-4.71 -4.74,-7.34 a 2.24,2.24 0 0 0 -1.11,-1.2 z"
       style="fill:#263238"
       id="path132" />
    <path
       d="m 384.86,198.38 c 0,0 5.49,0.72 4.34,-3.48 0,0 -0.25,1.26 -6.23,1 -5.98,-0.26 1.89,2.48 1.89,2.48 z"
       style="fill:#263238"
       id="path133" />
    <path
       d="m 384.86,198.38 c 0,0 5.49,0.72 4.34,-3.48 0,0 -0.25,1.26 -6.23,1 -5.98,-0.26 1.89,2.48 1.89,2.48 z"
       style="opacity:0.9"
       id="path134" />
    <path
       d="m 395.54,230.33 3.34,3.53 a 0.65,0.65 0 0 0 1.12,-0.51 l -1.66,-17.84 -3,-5.49 a 2.65,2.65 0 0 1 -0.22,-2 l 0.46,-1.65 a 2.62,2.62 0 0 0 0.09,-0.56 v 0 a 2.67,2.67 0 0 1 2.66,-2.52 v 0 a 2.68,2.68 0 0 1 1.48,0.45 l 3.09,2.08 a 2.66,2.66 0 0 1 1.12,2.8 l -1.41,6.25 c 0,0 6.81,26.3 2,29.1 -4.43,2.57 -14,-6 -14,-6 z"
       style="fill:#ce7a63"
       id="path135" />
    <path
       d="m 383.6,224.89 a 5.21,5.21 0 0 1 4.68,-2.14 c 3.68,0.26 10.92,8.51 10.92,8.51 l -6.55,10.42 c 0,0 -8.59,-7.57 -10,-10.7 a 5.43,5.43 0 0 1 0.95,-6.09 z"
       style="fill:#407bff"
       id="path136" />
    <path
       d="m 389,238.25 c 0.26,-4.15 0.41,-8.68 0.41,-8.68 l -3.14,5.94 c 0.84,0.94 1.79,1.88 2.73,2.74 z"
       style="opacity:0.2"
       id="path137" />
    <path
       d="m 375.67,223.39 3.34,-1.15 a 6.45,6.45 0 0 1 0.71,-2.84 17.28,17.28 0 0 1 0.93,-1.69 l -3.16,-5.33 -2.32,-3.91 c -0.46,3.89 -1.78,10.49 -4.72,12.95 z"
       style="fill:#ce7a63"
       id="path138" />
    <path
       d="m 380.65,217.71 a 17.6,17.6 0 0 0 -0.93,1.71 c -1.55,-0.94 -3.15,-3.52 -2.77,-5.31 a 7.9,7.9 0 0 1 0.54,-1.73 z"
       style="opacity:0.2;isolation:isolate"
       id="path139" />
    <path
       d="m 354.45,225.26 0.56,50.43 3,0.46 a 57,57 0 0 0 24.46,-1.65 v 0 L 390,226.4 a 3.14,3.14 0 0 0 -3,-3.75 l -29.34,-0.51 a 3.14,3.14 0 0 0 -3.21,3.12 z"
       style="fill:#407bff"
       id="path140" />
    <path
       d="m 354.39,247.48 c 3.36,-6 6.23,-17 6.23,-17 l -6.19,3.06 z"
       style="opacity:0.2"
       id="path141" />
    <path
       d="m 373.11,205.32 c 1.31,5.58 1.78,8.9 5.13,11.4 a 7.45,7.45 0 0 0 12,-5.55 c 0.35,-5.22 -1.84,-13.46 -7.76,-14.95 a 7.53,7.53 0 0 0 -9.33,9.1 z"
       style="fill:#ce7a63"
       id="path142" />
    <path
       d="m 382,205.74 c 0.07,0.46 0.39,0.79 0.68,0.73 0.29,-0.06 0.48,-0.45 0.41,-0.9 -0.07,-0.45 -0.39,-0.8 -0.69,-0.73 -0.3,0.07 -0.53,0.45 -0.4,0.9 z"
       style="fill:#263238"
       id="path143" />
    <path
       d="m 387.15,205 c 0.07,0.46 0.38,0.79 0.68,0.73 0.3,-0.06 0.48,-0.45 0.41,-0.91 -0.07,-0.46 -0.39,-0.79 -0.69,-0.72 -0.3,0.07 -0.48,0.48 -0.4,0.9 z"
       style="fill:#263238"
       id="path144" />
    <path
       d="m 385.53,205.49 a 17.65,17.65 0 0 0 2.87,3.63 2.72,2.72 0 0 1 -2.13,0.73 z"
       style="fill:#ba4d3c"
       id="path145" />
    <path
       d="m 384.6,211.3 a 3.94,3.94 0 0 1 -2.9,-1.15 0.13,0.13 0 0 1 0,-0.18 0.14,0.14 0 0 1 0.2,0 v 0 a 3.77,3.77 0 0 0 3.21,1 0.13,0.13 0 0 1 0.17,0.08 0.14,0.14 0 0 1 -0.08,0.18 h -0.05 a 3.31,3.31 0 0 1 -0.55,0.07 z"
       style="fill:#263238"
       id="path146" />
    <path
       d="m 380.06,204.29 a 0.28,0.28 0 0 1 -0.13,0 0.27,0.27 0 0 1 -0.13,-0.36 v 0 a 2.65,2.65 0 0 1 2,-1.46 0.27,0.27 0 0 1 0.28,0.25 v 0 a 0.27,0.27 0 0 1 -0.25,0.29 v 0 a 2.13,2.13 0 0 0 -1.57,1.12 0.25,0.25 0 0 1 -0.2,0.16 z"
       style="fill:#263238"
       id="path147" />
    <path
       d="m 389.08,203 a 0.27,0.27 0 0 1 -0.23,-0.12 2.27,2.27 0 0 0 -1.74,-1 0.27,0.27 0 0 1 -0.22,-0.32 0.28,0.28 0 0 1 0.22,-0.23 v 0 a 2.83,2.83 0 0 1 2.18,1.25 0.27,0.27 0 0 1 -0.06,0.38 v 0 a 0.24,0.24 0 0 1 -0.15,0.04 z"
       style="fill:#263238"
       id="path148" />
    <polygon
       points="374.58,222.67 373.01,225.22 374.75,228.7 375.27,229.46 372.54,257.26 376.19,260.49 379.83,256.76 376.91,229.46 377.49,228.36 379.06,225.21 377.81,223.39 "
       style="fill:#263238"
       id="polygon148" />
    <polygon
       points="380.69,220.25 383.27,223.19 380.75,229.23 375.75,224.05 370.81,229.46 367.27,222.7 369.75,220.06 375.79,222.39 "
       style="fill:#407bff"
       id="polygon149" />
    <polygon
       points="380.69,220.25 383.27,223.19 380.75,229.23 375.75,224.05 370.81,229.46 367.27,222.7 369.75,220.06 375.79,222.39 "
       style="opacity:0.9;fill:#ffffff"
       id="polygon150" />
    <rect
       x="390.82999"
       y="203.91"
       width="4.6100001"
       height="3.3099999"
       style="fill:#263238"
       id="rect150" />
    <rect
       x="390.82999"
       y="203.91"
       width="4.6100001"
       height="3.3099999"
       style="opacity:0.2;fill:#ffffff"
       id="rect151" />
    <rect
       x="394.97"
       y="203.14999"
       width="15.32"
       height="4.9000001"
       style="fill:#263238"
       id="rect152" />
    <rect
       x="394.97"
       y="203.14999"
       width="15.32"
       height="4.9000001"
       style="opacity:0.4;fill:#ffffff"
       id="rect153" />
    <rect
       x="408.98001"
       y="202.56"
       width="18.969999"
       height="6.0700002"
       style="fill:#263238"
       id="rect154" />
    <rect
       x="408.98001"
       y="202.56"
       width="18.969999"
       height="6.0700002"
       style="opacity:0.5;fill:#ffffff"
       id="rect155" />
    <path
       d="m 345.88,235.27 c 0,0 -6.64,9 -6.43,12.55 0.34,5.62 12.61,18.68 12.61,18.68 l 1.54,4.91 a 2.49,2.49 0 0 0 1.18,1.44 l 4,2.16 a 2.49,2.49 0 0 0 3.28,-0.83 l 0.92,-1.41 a 2.51,2.51 0 0 0 -0.23,-3 l -1.59,-1.77 -0.24,-0.24 -5.05,-3.42 c 0,0 -4,-7.05 -6.14,-12.13 a 13.79,13.79 0 0 1 -1.35,-4.85 c 0,-2.69 4.79,-9.66 4.79,-9.66 z"
       style="fill:#ce7a63"
       id="path155" />
    <path
       d="m 358.93,222.74 c -1.35,-1 -4.49,-0.75 -6,0 -3.89,2 -10.15,13.59 -10.15,13.59 l 11.27,6.17 c 0,0 6.73,-10.12 7.06,-14.14 0.17,-1.65 -0.82,-4.65 -2.18,-5.62 z"
       style="fill:#407bff"
       id="path156" />
    <rect
       x="389.85001"
       y="203.5"
       width="1.96"
       height="4.23"
       style="fill:#407bff"
       id="rect156" />
    <rect
       x="427.62"
       y="201.91"
       width="1.96"
       height="7.3400002"
       style="fill:#407bff"
       id="rect157" />
    <path
       d="m 374.24,210.08 c 0,0 2.18,-1.27 1.9,-5.78 a 5.78,5.78 0 0 0 2.25,-4.63 c 0,0 11.34,-1.87 9.3,-5.91 -2.04,-4.04 -10.17,-5.11 -10.17,-5.11 0,0 2.59,4 -4.65,7.76 -7.24,3.76 -0.7,13.45 -0.7,13.45 z"
       style="fill:#263238"
       id="path157" />
    <path
       d="m 371.77,210.36 a 5,5 0 0 0 2.76,2.48 c 1.57,0.58 2.4,-0.82 2,-2.37 -0.4,-1.55 -1.63,-3.39 -3.23,-3.28 -1.6,0.11 -2.23,1.75 -1.53,3.17 z"
       style="fill:#ce7a63"
       id="path158" />
    <path
       d="m 370,200.57 c 0,0 -3.49,-2.07 -2.25,-3.48 1.24,-1.41 2.25,3.48 2.25,3.48 z"
       style="fill:#263238"
       id="path159" />
    <path
       d="m 383.15,212.81 a 4,4 0 0 1 -1.58,-2.7 0.14,0.14 0 0 1 0.27,0 v 0 a 3.86,3.86 0 0 0 1.9,2.79 0.13,0.13 0 0 1 0.05,0.18 v 0 a 0.13,0.13 0 0 1 -0.19,0.05 v 0 q -0.22,-0.13 -0.45,-0.32 z"
       style="fill:#263238"
       id="path160" />
  </g>
</svg>
