<?xml version="1.0" encoding="UTF-8" standalone="no"?>
<svg
   viewBox="0 0 420 420"
   version="1.1"
   id="svg115"
   sodipodi:docname="airport tower-rafiki.svg"
   width="420"
   height="420"
   inkscape:version="1.3.2 (091e20e, 2023-11-25, custom)"
   xmlns:inkscape="http://www.inkscape.org/namespaces/inkscape"
   xmlns:sodipodi="http://sodipodi.sourceforge.net/DTD/sodipodi-0.dtd"
   xmlns="http://www.w3.org/2000/svg"
   xmlns:svg="http://www.w3.org/2000/svg">
  <sodipodi:namedview
     id="namedview115"
     pagecolor="#ffffff"
     bordercolor="#000000"
     borderopacity="0.25"
     inkscape:showpageshadow="2"
     inkscape:pageopacity="0.0"
     inkscape:pagecheckerboard="0"
     inkscape:deskcolor="#d1d1d1"
     inkscape:zoom="1.574"
     inkscape:cx="250"
     inkscape:cy="250"
     inkscape:window-width="1920"
     inkscape:window-height="1001"
     inkscape:window-x="-9"
     inkscape:window-y="-9"
     inkscape:window-maximized="1"
     inkscape:current-layer="svg115" />
  <defs
     id="defs1">
    <clipPath
       id="freepik--clip-path--inject-1003">
      <rect
         x="357.01999"
         y="62.939999"
         width="3.5999999"
         height="47.669998"
         style="fill:none"
         id="rect1" />
    </clipPath>
  </defs>
  <g
     id="freepik--background-simple--inject-1003"
     transform="translate(-40.775,-45.664999)">
    <path
       d="m 297.44,240.69 c 17.11,-2.05 33.61,-6.43 48.24,-13.3 17.25,-8.09 34.87,-20.7 29.66,-37.19 -9.61,-30.45 -55.7,-31 -46.5,-51.47 10.43,-23.19 3.44,-50.39 -43.34,-58 -88.85,-14.36 -196.26,69.7 -166.09,115.89 18.78,28.8 87.18,54.99 178.03,44.07 z"
       style="fill:#407bff"
       id="path1" />
    <path
       d="m 297.44,240.69 c 17.11,-2.05 33.61,-6.43 48.24,-13.3 17.25,-8.09 34.87,-20.7 29.66,-37.19 -9.61,-30.45 -55.7,-31 -46.5,-51.47 10.43,-23.19 3.44,-50.39 -43.34,-58 -88.85,-14.36 -196.26,69.7 -166.09,115.89 18.78,28.8 87.18,54.99 178.03,44.07 z"
       style="opacity:0.9;fill:#ffffff"
       id="path2" />
  </g>
  <g
     id="freepik--Shadow--inject-1003"
     transform="translate(-40.775,-45.664999)">
    <path
       d="m 459.65,442.26 c 0,3.39 -93.52,6.13 -208.88,6.13 -115.36,0 -208.87,-2.74 -208.87,-6.13 0,-3.39 93.51,-6.13 208.87,-6.13 115.36,0 208.88,2.74 208.88,6.13 z"
       style="fill:#f5f5f5"
       id="path3" />
  </g>
  <g
     id="freepik--Airplane--inject-1003"
     transform="translate(-40.775,-45.664999)">
    <path
       d="m 67.17,273.16 c 0,0 -8,-1.92 -12.58,-6.31 a 7.21,7.21 0 0 1 1.46,-11.42 52.8,52.8 0 0 1 28.49,-6.55 c 21.06,0.86 142.05,28.65 142.05,28.65 l 54.41,13.23 -3.12,7.55 c 0,0 -87,-2.55 -112.37,-4.76 -25.37,-2.21 -98.34,-20.39 -98.34,-20.39 z"
       style="fill:#407bff"
       id="path4" />
    <path
       d="m 241.67,281.19 36.14,-23.28 a 20.64,20.64 0 0 1 15.29,-2.86 l 9.48,1.93 -21.77,34.25 z"
       style="fill:#263238"
       id="path5" />
    <path
       d="m 259.18,293.68 18.93,4.63 22.89,-1.83 c 0,0 -4.57,-3.53 -12.33,-3.32 -1.31,0.03 -27.92,0.56 -29.49,0.52 z"
       style="fill:#263238"
       id="path6" />
    <path
       d="m 58,254.39 17.69,3.67 a 1.12,1.12 0 0 0 1,-0.33 l 1.37,-1.42 a 1.13,1.13 0 0 0 -0.59,-1.9 L 64.29,251.72 A 46.24,46.24 0 0 0 58,254.38 Z"
       style="opacity:0.6;fill:#ffffff"
       id="path7" />
    <path
       d="m 82.72,258.71 a 0.51,0.51 0 0 0 0.26,0.86 l 150.7,31.26 a 2,2 0 0 0 1.82,-0.57 v 0 a 2,2 0 0 0 -1,-3.3 L 85.75,256.11 a 0.75,0.75 0 0 0 -0.67,0.2 z"
       style="opacity:0.6;fill:#ffffff"
       id="path8" />
    <path
       d="m 124.74,281.25 c 0,0 1.85,2.34 19.53,6.65 17.68,4.31 36.73,4.86 48.24,5.1 11.51,0.24 38.28,-0.2 40.34,-1.89 2.06,-1.69 -41.5,-12.84 -75.65,-12.92 -30.74,-0.05 -33.34,-0.19 -32.46,3.06 z"
       style="fill:#263238"
       id="path9" />
    <path
       d="m 167.07,284.51 -2.8,13.5 c 0,0 13.46,3.64 19.06,0.64 3.83,-2 3.65,-7.49 -2.32,-10.21 a 45.14,45.14 0 0 0 -13.94,-3.93 z"
       style="fill:#263238"
       id="path10" />
    <path
       d="m 167.07,284.51 -2.8,13.5 c 0,0 13.46,3.64 19.06,0.64 3.83,-2 3.65,-7.49 -2.32,-10.21 a 45.14,45.14 0 0 0 -13.94,-3.93 z"
       style="opacity:0.5;fill:#ffffff"
       id="path11" />
    <path
       d="m 139.38,279.1 -2.8,13.49 c 0,0 13.46,3.65 19.06,0.65 3.84,-2.05 3.65,-7.49 -2.32,-10.21 a 45.14,45.14 0 0 0 -13.94,-3.93 z"
       style="fill:#263238"
       id="path12" />
    <path
       d="m 139.38,279.1 -2.8,13.49 c 0,0 13.46,3.65 19.06,0.65 3.84,-2.05 3.65,-7.49 -2.32,-10.21 a 45.14,45.14 0 0 0 -13.94,-3.93 z"
       style="opacity:0.5;fill:#ffffff"
       id="path13" />
    <path
       d="m 141.24,279.34 -2.84,13.66 1.72,0.36 2.79,-13.76 c -0.59,-0.08 -1.16,-0.19 -1.67,-0.26 z"
       style="fill:#ffffff"
       id="path14" />
    <path
       d="m 169.12,284.76 -2.84,13.71 1.73,0.36 2.78,-13.76 c -0.59,-0.13 -1.15,-0.23 -1.67,-0.31 z"
       style="fill:#ffffff"
       id="path15" />
    <path
       d="m 284.34,274.65 a 6.92,6.92 0 1 1 -5.37,-8.18 6.91,6.91 0 0 1 5.37,8.18 z"
       style="fill:#407bff"
       id="path16" />
    <path
       d="m 115.79,288.53 h -0.05 L 93,283.47 a 0.25,0.25 0 1 1 0.11,-0.48 l 22.74,5.01 a 0.25,0.25 0 0 1 0.19,0.3 0.26,0.26 0 0 1 -0.25,0.23 z"
       style="fill:#407bff"
       id="path17" />
    <path
       d="m 120.65,289.66 h -0.06 L 118,289 a 0.25223997,0.25223997 0 0 1 0.12,-0.49 l 2.6,0.63 a 0.25,0.25 0 0 1 0.18,0.3 0.25,0.25 0 0 1 -0.25,0.22 z"
       style="fill:#407bff"
       id="path18" />
  </g>
  <g
     id="freepik--Tower--inject-1003"
     transform="translate(-40.775,-45.664999)">
    <path
       d="M 343.88,110.67 V 89.76 a 0.38,0.38 0 0 0 -0.76,0 v 20.91 a 0.38,0.38 0 0 0 0.76,0 z"
       style="fill:#263238"
       id="path19" />
    <path
       d="M 343.88,110.67 V 89.76 a 0.38,0.38 0 0 0 -0.76,0 v 20.91 a 0.38,0.38 0 0 0 0.76,0 z"
       style="opacity:0.3;fill:#ffffff"
       id="path20" />
    <rect
       x="357.01999"
       y="62.939999"
       width="3.5999999"
       height="47.669998"
       style="fill:#407bff"
       id="rect20" />
    <path
       d="M 350.39,87.82 V 66.91 a 0.38,0.38 0 0 0 -0.75,0 v 20.91 a 0.38,0.38 0 0 0 0.75,0 z"
       style="fill:#263238"
       id="path21" />
    <path
       d="M 350.39,87.82 V 66.91 a 0.38,0.38 0 0 0 -0.75,0 v 20.91 a 0.38,0.38 0 0 0 0.75,0 z"
       style="opacity:0.3;fill:#ffffff"
       id="path22" />
    <rect
       x="368.35999"
       y="100.41"
       width="4.1900001"
       height="11.24"
       style="fill:#263238"
       id="rect22" />
    <polygon
       points="420.81,165.54 394.91,235.64 326.33,235.64 300.42,165.54 "
       style="fill:#407bff"
       id="polygon22" />
    <polygon
       points="404.11,210.75 317.13,210.75 306.78,182.74 414.36,183.01 "
       style="opacity:0.6;fill:#ffffff"
       id="polygon23" />
    <polygon
       points="384.97,156.83 420.81,165.54 300.42,165.54 335.18,156.83 "
       style="fill:#407bff"
       id="polygon24" />
    <polygon
       points="384.46,146.27 384.46,156.83 336.03,156.83 336.03,146.46 "
       style="fill:#407bff"
       id="polygon25" />
    <polygon
       points="394.99,118.92 384.46,146.46 336.03,146.46 325.23,118.92 "
       style="fill:#407bff"
       id="polygon26" />
    <polygon
       points="383.06,110.61 394.99,118.92 325.23,118.92 337.67,110.61 "
       style="fill:#407bff"
       id="polygon27" />
    <rect
       x="333.60999"
       y="235.64"
       width="53.369999"
       height="195.17999"
       style="fill:#407bff"
       id="rect27" />
    <path
       d="M 370.78,100.77 V 79.86 a 0.38,0.38 0 0 0 -0.75,0 v 20.91 a 0.38,0.38 0 0 0 0.75,0 z"
       style="fill:#263238"
       id="path27" />
    <rect
       x="347.98001"
       y="87.449997"
       width="4.1900001"
       height="23.16"
       style="fill:#263238"
       id="rect28" />
    <g
       clip-path="url(#freepik--clip-path--inject-1003)"
       id="g30">
      <polygon
         points="357.02,80.57 360.62,75.09 360.62,66.91 357.02,72.15 "
         style="opacity:0.3;fill:#ffffff"
         id="polygon28" />
      <polygon
         points="357.02,97.61 360.62,92.13 360.62,83.95 357.02,89.19 "
         style="opacity:0.3;fill:#ffffff"
         id="polygon29" />
      <polygon
         points="357.02,114.64 360.62,109.17 360.62,100.99 357.02,106.23 "
         style="opacity:0.3;fill:#ffffff"
         id="polygon30" />
    </g>
    <rect
       x="347.98001"
       y="87.449997"
       width="4.1900001"
       height="23.16"
       style="opacity:0.3;fill:#ffffff"
       id="rect30" />
    <polygon
       points="386.37,141.47 393.05,123.99 327.22,123.99 334.07,141.47 "
       style="opacity:0.6;fill:#ffffff"
       id="polygon31" />
    <polygon
       points="383.06,110.61 394.99,118.92 325.23,118.92 337.67,110.61 "
       style="opacity:0.3;fill:#ffffff"
       id="polygon32" />
    <rect
       x="336.54999"
       y="123.99"
       width="0.25"
       height="17.48"
       style="fill:#407bff"
       id="rect32" />
    <rect
       x="331.82999"
       y="136.53999"
       width="56.369999"
       height="0.25"
       style="fill:#407bff"
       id="rect33" />
    <rect
       x="329.06"
       y="128.99001"
       width="62.029999"
       height="0.25"
       style="fill:#407bff"
       id="rect34" />
    <rect
       x="346.34"
       y="123.99"
       width="0.25"
       height="17.48"
       style="fill:#407bff"
       id="rect35" />
    <rect
       x="356.13"
       y="123.99"
       width="0.25"
       height="17.48"
       style="fill:#407bff"
       id="rect36" />
    <rect
       x="365.92001"
       y="123.99"
       width="0.25"
       height="17.48"
       style="fill:#407bff"
       id="rect37" />
    <rect
       x="375.72"
       y="123.99"
       width="0.25"
       height="17.48"
       style="fill:#407bff"
       id="rect38" />
    <rect
       x="385.51001"
       y="123.99"
       width="0.25"
       height="17.48"
       style="fill:#407bff"
       id="rect39" />
    <polygon
       points="393.05,123.99 327.22,123.99 328.07,126.16 392.23,126.16 "
       style="opacity:0.3"
       id="polygon39" />
    <polygon
       points="384.97,156.83 420.81,165.54 300.42,165.54 335.18,156.83 "
       style="opacity:0.3"
       id="polygon40" />
    <polygon
       points="356.26,123.99 342,141.47 334.07,141.47 347.98,123.99 "
       style="opacity:0.6;fill:#ffffff"
       id="polygon41" />
    <polygon
       points="361.49,123.99 347.24,141.47 344.56,141.47 358.46,123.99 "
       style="opacity:0.6;fill:#ffffff"
       id="polygon42" />
    <rect
       x="318.66"
       y="180.39999"
       width="0.25"
       height="31.059999"
       transform="rotate(-1.39,318.34576,195.96571)"
       style="fill:#407bff"
       id="rect42" />
    <rect
       x="334.70999"
       y="180.39999"
       width="0.25"
       height="31.059999"
       transform="rotate(-1.39,334.42576,195.74853)"
       style="fill:#407bff"
       id="rect43" />
    <rect
       x="350.76001"
       y="180.39999"
       width="0.25"
       height="31.059999"
       transform="rotate(-1.39,350.91295,195.94853)"
       style="fill:#407bff"
       id="rect44" />
    <rect
       x="366.81"
       y="180.39999"
       width="0.25"
       height="31.059999"
       transform="rotate(-1.39,366.58077,195.72635)"
       style="fill:#407bff"
       id="rect45" />
    <rect
       x="382.85001"
       y="180.39999"
       width="0.25"
       height="31.059999"
       transform="rotate(-1.39,382.65578,195.92135)"
       style="fill:#407bff"
       id="rect46" />
    <rect
       x="398.89999"
       y="180.39999"
       width="0.25"
       height="31.059999"
       transform="rotate(-1.39,399.14297,196.12135)"
       style="fill:#407bff"
       id="rect47" />
    <rect
       x="310.26001"
       y="191.32001"
       width="100.69"
       height="0.25"
       style="fill:#407bff"
       id="rect48" />
    <rect
       x="314.29999"
       y="202.98"
       width="91.970001"
       height="0.25"
       style="fill:#407bff"
       id="rect49" />
    <polygon
       points="413.36,185.72 414.36,183.01 306.78,182.74 307.88,185.72 "
       style="opacity:0.3"
       id="polygon49" />
    <polygon
       points="359.15,182.84 336.38,210.75 323.72,210.75 345.93,182.84 "
       style="opacity:0.6;fill:#ffffff"
       id="polygon50" />
    <polygon
       points="405.02,182.84 382.25,210.75 369.58,210.75 391.79,182.84 "
       style="opacity:0.6;fill:#ffffff"
       id="polygon51" />
    <polygon
       points="367.51,182.84 344.74,210.75 340.46,210.75 362.67,182.84 "
       style="opacity:0.6;fill:#ffffff"
       id="polygon52" />
    <rect
       x="333.60999"
       y="235.64"
       width="53.369999"
       height="6.52"
       style="opacity:0.3"
       id="rect52" />
    <polygon
       points="384.46,146.27 384.46,156.83 336.03,156.83 336.03,146.46 "
       style="opacity:0.3;fill:#ffffff"
       id="polygon53" />
    <polygon
       points="371.9,255.69 360.99,274.81 348.32,274.81 358.68,255.69 "
       style="opacity:0.6;fill:#ffffff"
       id="polygon54" />
    <polygon
       points="381.03,255.69 369.34,274.81 365.06,274.81 376.19,255.69 "
       style="opacity:0.6;fill:#ffffff"
       id="polygon55" />
    <rect
       x="343.60001"
       y="255.69"
       width="43.380001"
       height="19.07"
       style="opacity:0.6;fill:#ffffff"
       id="rect55" />
    <rect
       x="351.78"
       y="254.86"
       width="0.25"
       height="20.780001"
       style="fill:#407bff"
       id="rect56" />
    <rect
       x="343.60001"
       y="265.13"
       width="43.380001"
       height="0.25"
       style="fill:#407bff"
       id="rect57" />
    <rect
       x="362.17999"
       y="254.86"
       width="0.25"
       height="20.780001"
       style="fill:#407bff"
       id="rect58" />
    <rect
       x="372.57001"
       y="254.86"
       width="0.25"
       height="20.780001"
       style="fill:#407bff"
       id="rect59" />
    <rect
       x="382.38"
       y="254.86"
       width="0.25"
       height="20.780001"
       style="fill:#407bff"
       id="rect60" />
    <polyline
       points="343.6 255.69 343.6 258.03 386.98 258.03 386.98 255.69 343.94 255.69"
       style="opacity:0.3"
       id="polyline60" />
    <polygon
       points="371.9,286.7 360.99,305.83 348.32,305.83 358.68,286.7 "
       style="opacity:0.6;fill:#ffffff"
       id="polygon60" />
    <polygon
       points="381.03,286.7 369.34,305.83 365.06,305.83 376.19,286.7 "
       style="opacity:0.6;fill:#ffffff"
       id="polygon61" />
    <rect
       x="343.60001"
       y="286.70001"
       width="43.380001"
       height="19.07"
       style="opacity:0.6;fill:#ffffff"
       id="rect61" />
    <rect
       x="351.78"
       y="285.88"
       width="0.25"
       height="20.780001"
       style="fill:#407bff"
       id="rect62" />
    <rect
       x="343.60001"
       y="296.14001"
       width="43.380001"
       height="0.25"
       style="fill:#407bff"
       id="rect63" />
    <rect
       x="362.17999"
       y="285.88"
       width="0.25"
       height="20.780001"
       style="fill:#407bff"
       id="rect64" />
    <rect
       x="372.57001"
       y="285.88"
       width="0.25"
       height="20.780001"
       style="fill:#407bff"
       id="rect65" />
    <rect
       x="382.38"
       y="285.88"
       width="0.25"
       height="20.780001"
       style="fill:#407bff"
       id="rect66" />
    <polyline
       points="343.6 286.7 343.6 289.04 386.98 289.04 386.98 286.7 343.94 286.7"
       style="opacity:0.3"
       id="polyline66" />
    <polygon
       points="371.9,318.31 360.99,337.43 348.32,337.43 358.68,318.31 "
       style="opacity:0.6;fill:#ffffff"
       id="polygon66" />
    <polygon
       points="381.03,318.31 369.34,337.43 365.06,337.43 376.19,318.31 "
       style="opacity:0.6;fill:#ffffff"
       id="polygon67" />
    <rect
       x="343.60001"
       y="318.31"
       width="43.380001"
       height="19.07"
       style="opacity:0.6;fill:#ffffff"
       id="rect67" />
    <rect
       x="351.78"
       y="317.48001"
       width="0.25"
       height="20.780001"
       style="fill:#407bff"
       id="rect68" />
    <rect
       x="343.60001"
       y="327.75"
       width="43.380001"
       height="0.25"
       style="fill:#407bff"
       id="rect69" />
    <rect
       x="362.17999"
       y="317.48001"
       width="0.25"
       height="20.780001"
       style="fill:#407bff"
       id="rect70" />
    <rect
       x="372.57001"
       y="317.48001"
       width="0.25"
       height="20.780001"
       style="fill:#407bff"
       id="rect71" />
    <rect
       x="382.38"
       y="317.48001"
       width="0.25"
       height="20.780001"
       style="fill:#407bff"
       id="rect72" />
    <polyline
       points="343.6 318.31 343.6 320.64 386.98 320.64 386.98 318.31 343.94 318.31"
       style="opacity:0.3"
       id="polyline72" />
    <polygon
       points="371.9,349.15 360.99,368.27 348.32,368.27 358.68,349.15 "
       style="opacity:0.6;fill:#ffffff"
       id="polygon72" />
    <polygon
       points="381.03,349.15 369.34,368.27 365.06,368.27 376.19,349.15 "
       style="opacity:0.6;fill:#ffffff"
       id="polygon73" />
    <rect
       x="343.60001"
       y="349.14999"
       width="43.380001"
       height="19.07"
       style="opacity:0.6;fill:#ffffff"
       id="rect73" />
    <rect
       x="351.78"
       y="348.32001"
       width="0.25"
       height="20.780001"
       style="fill:#407bff"
       id="rect74" />
    <rect
       x="343.60001"
       y="358.59"
       width="43.380001"
       height="0.25"
       style="fill:#407bff"
       id="rect75" />
    <rect
       x="362.17999"
       y="348.32001"
       width="0.25"
       height="20.780001"
       style="fill:#407bff"
       id="rect76" />
    <rect
       x="372.57001"
       y="348.32001"
       width="0.25"
       height="20.780001"
       style="fill:#407bff"
       id="rect77" />
    <rect
       x="382.38"
       y="348.32001"
       width="0.25"
       height="20.780001"
       style="fill:#407bff"
       id="rect78" />
    <polyline
       points="343.6 349.15 343.6 351.49 386.98 351.49 386.98 349.15 343.94 349.15"
       style="opacity:0.3"
       id="polyline78" />
    <polygon
       points="371.9,379.99 360.99,399.12 348.32,399.12 358.68,379.99 "
       style="opacity:0.6;fill:#ffffff"
       id="polygon78" />
    <polygon
       points="381.03,379.99 369.34,399.12 365.06,399.12 376.19,379.99 "
       style="opacity:0.6;fill:#ffffff"
       id="polygon79" />
    <rect
       x="343.60001"
       y="379.98999"
       width="43.380001"
       height="19.07"
       style="opacity:0.6;fill:#ffffff"
       id="rect79" />
    <rect
       x="351.78"
       y="379.17001"
       width="0.25"
       height="20.780001"
       style="fill:#407bff"
       id="rect80" />
    <rect
       x="343.60001"
       y="389.42999"
       width="43.380001"
       height="0.25"
       style="fill:#407bff"
       id="rect81" />
    <rect
       x="362.17999"
       y="379.17001"
       width="0.25"
       height="20.780001"
       style="fill:#407bff"
       id="rect82" />
    <rect
       x="372.57001"
       y="379.17001"
       width="0.25"
       height="20.780001"
       style="fill:#407bff"
       id="rect83" />
    <rect
       x="382.38"
       y="379.17001"
       width="0.25"
       height="20.780001"
       style="fill:#407bff"
       id="rect84" />
    <polyline
       points="343.6 379.99 343.6 382.33 386.98 382.33 386.98 379.99 343.94 379.99"
       style="opacity:0.3"
       id="polyline84" />
    <polygon
       points="326.33,235.64 300.42,165.54 322.38,165.54 337.04,235.64 "
       style="opacity:0.3"
       id="polygon84" />
    <polygon
       points="340.46,156.83 340.46,146.44 331.83,118.92 337.67,110.61 325.23,118.92 336.03,146.46 336.03,156.83 "
       style="opacity:0.3"
       id="polygon85" />
    <rect
       x="333.60999"
       y="235.64"
       width="6.8499999"
       height="195.17999"
       style="opacity:0.3"
       id="rect85" />
  </g>
  <g
     id="freepik--Building--inject-1003"
     transform="translate(-40.775,-45.664999)">
    <polygon
       points="80.27,344.4 420.29,344.4 411.27,439.41 117.66,439.41 "
       style="fill:#407bff"
       id="polygon86" />
    <polygon
       points="85.05,356.26 300.1,356.26 300.1,431.35 114.49,431.35 "
       style="opacity:0.6;fill:#ffffff"
       id="polygon87" />
    <polygon
       points="240.75,356.26 197.78,431.54 147.9,431.54 188.68,356.26 "
       style="opacity:0.6;fill:#ffffff"
       id="polygon88" />
    <polygon
       points="276.68,356.26 230.66,431.54 213.81,431.54 257.63,356.26 "
       style="opacity:0.6;fill:#ffffff"
       id="polygon89" />
    <polygon
       points="401.38,367.02 390.46,386.14 377.79,386.14 388.15,367.02 "
       style="opacity:0.6;fill:#ffffff"
       id="polygon90" />
    <polygon
       points="410.5,367.02 398.81,386.14 394.54,386.14 405.67,367.02 "
       style="opacity:0.6;fill:#ffffff"
       id="polygon91" />
    <polygon
       points="343.6,367.04 418.14,367.04 416.23,386.12 343.6,386.12 "
       style="opacity:0.6;fill:#ffffff"
       id="polygon92" />
    <rect
       x="381.25"
       y="366.19"
       width="0.25"
       height="20.780001"
       style="fill:#407bff"
       id="rect92" />
    <rect
       x="370.82999"
       y="366.19"
       width="0.25"
       height="20.780001"
       style="fill:#407bff"
       id="rect93" />
    <rect
       x="360.42001"
       y="366.19"
       width="0.25"
       height="20.780001"
       style="fill:#407bff"
       id="rect94" />
    <rect
       x="350"
       y="366.19"
       width="0.25"
       height="20.780001"
       style="fill:#407bff"
       id="rect95" />
    <rect
       x="343.60001"
       y="376.45001"
       width="73.629997"
       height="0.25"
       style="fill:#407bff"
       id="rect96" />
    <rect
       x="391.64999"
       y="366.19"
       width="0.25"
       height="20.780001"
       style="fill:#407bff"
       id="rect97" />
    <rect
       x="402.04001"
       y="366.19"
       width="0.25"
       height="20.780001"
       style="fill:#407bff"
       id="rect98" />
    <rect
       x="411.85001"
       y="366.19"
       width="0.25"
       height="20.780001"
       style="fill:#407bff"
       id="rect99" />
    <polyline
       points="343.6 367.02 343.6 369.35 417.76 369.35 418.14 367.04 344.18 367.02"
       style="opacity:0.3"
       id="polyline99" />
    <rect
       x="161.75999"
       y="352.98999"
       width="0.5"
       height="81.809998"
       style="fill:#407bff"
       id="rect100" />
    <rect
       x="120.73"
       y="352.98999"
       width="0.5"
       height="81.809998"
       style="fill:#407bff"
       id="rect101" />
    <rect
       x="100.68"
       y="393.64999"
       width="199.42"
       height="0.5"
       style="fill:#407bff"
       id="rect102" />
    <rect
       x="202.69"
       y="352.98999"
       width="0.5"
       height="81.809998"
       style="fill:#407bff"
       id="rect103" />
    <rect
       x="243.62"
       y="352.98999"
       width="0.5"
       height="81.809998"
       style="fill:#407bff"
       id="rect104" />
    <rect
       x="282.20999"
       y="352.98999"
       width="0.5"
       height="81.809998"
       style="fill:#407bff"
       id="rect105" />
    <polygon
       points="300.1,359.03 86.03,359.03 85.05,356.26 300.1,356.26 "
       style="opacity:0.3"
       id="polygon105" />
    <rect
       x="334.01999"
       y="412.29001"
       width="62.09"
       height="27.129999"
       style="opacity:0.3"
       id="rect106" />
    <rect
       x="340.26001"
       y="419.22"
       width="49.610001"
       height="20.190001"
       style="fill:#263238"
       id="rect107" />
    <rect
       x="343.23999"
       y="421.51001"
       width="7.0799999"
       height="17.91"
       style="fill:#407bff"
       id="rect108" />
    <rect
       x="352.57001"
       y="421.51001"
       width="7.0799999"
       height="17.91"
       style="fill:#407bff"
       id="rect109" />
    <rect
       x="361.91"
       y="421.51001"
       width="7.0799999"
       height="17.91"
       style="fill:#407bff"
       id="rect110" />
    <rect
       x="371.23999"
       y="421.51001"
       width="7.0799999"
       height="17.91"
       style="fill:#407bff"
       id="rect111" />
    <rect
       x="380.57001"
       y="421.51001"
       width="7.0799999"
       height="17.91"
       style="fill:#407bff"
       id="rect112" />
    <path
       d="m 343.24,423.07 c 0,0 44.42,0.17 44.42,0 v -1.56 h -44.42 z"
       style="opacity:0.3"
       id="path112" />
    <polygon
       points="350.32,433.26 350.32,439.41 343.24,439.41 "
       style="opacity:0.3;fill:#ffffff"
       id="polygon112" />
    <polygon
       points="359.66,439.41 352.57,439.41 352.57,431.47 359.66,425.2 "
       style="opacity:0.3;fill:#ffffff"
       id="polygon113" />
    <polygon
       points="368.92,439.41 361.84,439.41 361.84,432.06 368.92,425.8 "
       style="opacity:0.3;fill:#ffffff"
       id="polygon114" />
    <path
       d="m 260.86,339.71 h -36.68 a 0.25,0.25 0 0 1 0,-0.5 h 36.68 a 0.25,0.25 0 0 1 0,0.5 z"
       style="fill:#407bff"
       id="path114" />
    <path
       d="m 273.69,339.71 h -6.13 a 0.25,0.25 0 0 1 0,-0.5 h 6.13 a 0.25,0.25 0 0 1 0,0.5 z"
       style="fill:#407bff"
       id="path115" />
  </g>
</svg>
