<?xml version="1.0" encoding="UTF-8" standalone="no"?>
<svg
   viewBox="0 0 420 420"
   version="1.1"
   id="svg142"
   sodipodi:docname="A day off-rafiki.svg"
   width="420"
   height="420"
   inkscape:version="1.3.2 (091e20e, 2023-11-25, custom)"
   xmlns:inkscape="http://www.inkscape.org/namespaces/inkscape"
   xmlns:sodipodi="http://sodipodi.sourceforge.net/DTD/sodipodi-0.dtd"
   xmlns="http://www.w3.org/2000/svg"
   xmlns:svg="http://www.w3.org/2000/svg">
  <defs
     id="defs142" />
  <sodipodi:namedview
     id="namedview142"
     pagecolor="#ffffff"
     bordercolor="#000000"
     borderopacity="0.25"
     inkscape:showpageshadow="2"
     inkscape:pageopacity="0.0"
     inkscape:pagecheckerboard="0"
     inkscape:deskcolor="#d1d1d1"
     inkscape:zoom="1.092"
     inkscape:cx="250"
     inkscape:cy="249.54212"
     inkscape:window-width="1920"
     inkscape:window-height="1001"
     inkscape:window-x="-9"
     inkscape:window-y="-9"
     inkscape:window-maximized="1"
     inkscape:current-layer="svg142" />
  <g
     id="freepik--background-simple--inject-32"
     transform="translate(-39.72,-59.283265)">
    <path
       d="m 89.61,192.12 c -4.61,12.93 0.18,24.88 15.57,27.38 23.58,3.83 46.15,-3.53 69.48,-3.72 6,-0.05 12.21,1.54 16.65,5.57 22.42,20.38 -25.69,34.84 -36.21,42.6 -4.2,3.09 -8.29,6.6 -10.62,11.26 -6.45,12.86 3.38,25.58 15.83,28.46 14.22,3.29 28.76,-1.1 43.05,-0.53 4.22,0.17 8.59,1.8 11.07,5.22 6.35,8.79 -3,23.11 -11,27.38 -9.21,4.92 -20.33,5.06 -30.51,5.61 -18.22,1 -37.15,3.48 -53.14,12.88 -4.89,2.88 -9.56,6.53 -12.13,11.59 -9.58,18.86 13.92,32 29.3,33.58 17.67,1.82 35.34,-5.74 50.61,-13.82 25.64,-13.57 53.12,-30.07 83.19,-28.69 26.11,1.19 53.4,0.72 78.46,-7.56 14.72,-4.87 30.82,-11.81 41.24,-23.79 4.56,-5.24 7.75,-12 7.43,-18.92 -0.69,-14.74 -14.13,-22.28 -22.93,-32.19 -12.54,-14.14 -9.41,-30.63 1.43,-45.21 11.5,-15.49 26.73,-28.74 34.68,-46.71 3.23,-7.3 4,-16.48 -1,-22.74 -15.86,-20.08 -54.26,-4 -75.19,-7.39 -13.09,-2.13 -21.41,-9.88 -29.48,-19.75 -9.15,-11.18 -18.65,-17.73 -33.29,-20.35 -19.82,-3.54 -40.44,0.92 -59.63,5.8 -41.95,10.68 -100.29,28.23 -121.24,70.2 a 37,37 0 0 0 -1.62,3.84 z"
       style="fill:#407bff"
       id="path1" />
    <path
       d="m 89.61,192.12 c -4.61,12.93 0.18,24.88 15.57,27.38 23.58,3.83 46.15,-3.53 69.48,-3.72 6,-0.05 12.21,1.54 16.65,5.57 22.42,20.38 -25.69,34.84 -36.21,42.6 -4.2,3.09 -8.29,6.6 -10.62,11.26 -6.45,12.86 3.38,25.58 15.83,28.46 14.22,3.29 28.76,-1.1 43.05,-0.53 4.22,0.17 8.59,1.8 11.07,5.22 6.35,8.79 -3,23.11 -11,27.38 -9.21,4.92 -20.33,5.06 -30.51,5.61 -18.22,1 -37.15,3.48 -53.14,12.88 -4.89,2.88 -9.56,6.53 -12.13,11.59 -9.58,18.86 13.92,32 29.3,33.58 17.67,1.82 35.34,-5.74 50.61,-13.82 25.64,-13.57 53.12,-30.07 83.19,-28.69 26.11,1.19 53.4,0.72 78.46,-7.56 14.72,-4.87 30.82,-11.81 41.24,-23.79 4.56,-5.24 7.75,-12 7.43,-18.92 -0.69,-14.74 -14.13,-22.28 -22.93,-32.19 -12.54,-14.14 -9.41,-30.63 1.43,-45.21 11.5,-15.49 26.73,-28.74 34.68,-46.71 3.23,-7.3 4,-16.48 -1,-22.74 -15.86,-20.08 -54.26,-4 -75.19,-7.39 -13.09,-2.13 -21.41,-9.88 -29.48,-19.75 -9.15,-11.18 -18.65,-17.73 -33.29,-20.35 -19.82,-3.54 -40.44,0.92 -59.63,5.8 -41.95,10.68 -100.29,28.23 -121.24,70.2 a 37,37 0 0 0 -1.62,3.84 z"
       style="opacity:0.9;fill:#ffffff"
       id="path2" />
  </g>
  <g
     id="freepik--Shadow--inject-32"
     transform="translate(-39.72,-59.283265)">
    <ellipse
       id="freepik--path--inject-32"
       cx="250"
       cy="416.23999"
       rx="193.89"
       ry="11.32"
       style="fill:#f5f5f5" />
  </g>
  <g
     id="freepik--Desk--inject-32"
     transform="translate(-39.72,-59.283265)">
    <path
       d="m 154.29,280.67 a 9.75,9.75 0 0 0 0.79,4.29 H 189 v -0.81 h -0.69 v -7 H 189 v -0.81 h -33.92 a 10,10 0 0 0 -0.79,4.33 z"
       style="fill:#263238"
       id="path3" />
    <path
       d="m 154.29,280.67 a 9.75,9.75 0 0 0 0.79,4.29 H 189 v -0.81 h -0.69 v -7 H 189 v -0.81 h -33.92 a 10,10 0 0 0 -0.79,4.33 z"
       style="opacity:0.2;isolation:isolate;fill:#ffffff"
       id="path4" />
    <path
       d="m 172.42,280.67 a 9.75,9.75 0 0 0 0.79,4.29 H 189 v -0.81 h -0.69 v -7 H 189 v -0.81 h -15.79 a 10,10 0 0 0 -0.79,4.33 z"
       style="opacity:0.2;isolation:isolate"
       id="path5" />
    <path
       d="m 174.09,280.67 a 7.9,7.9 0 0 0 0.64,3.48 h 13.55 v -7 h -13.55 a 8.14,8.14 0 0 0 -0.64,3.52 z"
       style="opacity:0.8;isolation:isolate;fill:#ffffff"
       id="path6" />
    <path
       d="m 159.81,280.67 a 9.85,9.85 0 0 0 0.78,4.29 h 6.31 a 9.75,9.75 0 0 1 -0.79,-4.29 10,10 0 0 1 0.79,-4.3 h -6.31 a 10.15,10.15 0 0 0 -0.78,4.3 z"
       style="opacity:0.6;isolation:isolate;fill:#ffffff"
       id="path7" />
    <path
       d="m 151.27,272.09 a 9.67,9.67 0 0 0 0.79,4.28 H 186 v -0.8 h -0.69 v -7 H 186 v -0.8 h -33.94 a 10,10 0 0 0 -0.79,4.32 z"
       style="fill:#407bff"
       id="path8" />
    <path
       d="m 169.4,272.09 a 9.67,9.67 0 0 0 0.79,4.28 H 186 v -0.8 h -0.69 v -7 H 186 v -0.8 h -15.81 a 10,10 0 0 0 -0.79,4.32 z"
       style="opacity:0.2;isolation:isolate"
       id="path9" />
    <path
       d="m 171.07,272.09 a 7.9,7.9 0 0 0 0.64,3.48 h 13.55 v -7 h -13.55 a 8.16,8.16 0 0 0 -0.64,3.52 z"
       style="opacity:0.8;isolation:isolate;fill:#ffffff"
       id="path10" />
    <path
       d="m 156.79,272.09 a 9.77,9.77 0 0 0 0.78,4.28 h 6.31 a 9.67,9.67 0 0 1 -0.79,-4.28 10,10 0 0 1 0.79,-4.3 h -6.31 a 10.09,10.09 0 0 0 -0.78,4.3 z"
       style="opacity:0.2;isolation:isolate"
       id="path11" />
    <polygon
       points="118.71,280.54 134.73,282.94 134.73,284.96 100.99,284.96 100.99,282.94 107.9,280.54 111.28,251.53 121.41,251.53 "
       style="fill:#263238"
       id="polygon11" />
    <path
       d="m 150.6,269.94 a 3.14,3.14 0 0 1 -3.18,3.52 H 86.1 a 3.94,3.94 0 0 1 -3.84,-3.52 l -3.64,-39.26 a 3.29,3.29 0 0 1 0.08,-1.14 3.13,3.13 0 0 1 3.1,-2.38 h 61.32 a 3.94,3.94 0 0 1 3.84,3.52 z"
       style="fill:#263238"
       id="path12" />
    <path
       d="m 86.1,271.49 a 1.94,1.94 0 0 1 -1.87,-1.73 L 80.58,230.5 a 1.82,1.82 0 0 1 0,-0.48 1.16,1.16 0 0 1 1.19,-0.89 h 61.32 a 2,2 0 0 1 1.87,1.73 l 3.64,39.26 a 1.28,1.28 0 0 1 -0.3,1 1.18,1.18 0 0 1 -0.91,0.37 z"
       style="opacity:0.3;isolation:isolate;fill:#ffffff"
       id="path13" />
    <polygon
       points="121.31,284.96 122.09,282.02 154.05,282.02 168.77,283.49 169.34,284.96 "
       style="fill:#263238"
       id="polygon13" />
    <polygon
       points="96.8,273.15 99.29,273.15 99.29,270.74 101.78,270.74 99.29,269.9 99.29,268.19 101.07,268.19 99.61,266.73 98.35,265.46 59.72,265.46 59.72,267.19 57.16,267.19 60,268.47 60,269.9 54.79,269.9 54.79,272.56 52.48,272.56 54.79,273.72 54.79,276.69 56.43,276.69 56.43,278.11 59.72,278.11 59.72,282.33 57.87,282.33 59.38,283.84 59.38,285.73 99.51,285.71 99.51,282.33 101.78,282.33 99.51,281.02 101.21,281.02 98.94,279.53 96.8,279.53 96.8,277.83 99.29,277.83 96.8,276.84 "
       style="fill:#407bff"
       id="polygon14" />
    <polygon
       points="96.8,273.15 99.29,273.15 99.29,270.74 101.78,270.74 99.29,269.9 99.29,268.19 101.07,268.19 99.61,266.73 98.35,265.46 59.72,265.46 59.72,267.19 57.16,267.19 60,268.47 60,269.9 54.79,269.9 54.79,272.56 52.48,272.56 54.79,273.72 54.79,276.69 56.43,276.69 56.43,278.11 59.72,278.11 59.72,282.33 57.87,282.33 59.38,283.84 59.38,285.73 99.51,285.71 99.51,282.33 101.78,282.33 99.51,281.02 101.21,281.02 98.94,279.53 96.8,279.53 96.8,277.83 99.29,277.83 96.8,276.84 "
       style="opacity:0.7;isolation:isolate;fill:#ffffff"
       id="polygon15" />
    <polygon
       points="96.8,273.15 99.29,273.15 99.29,270.74 101.78,270.74 99.29,269.9 99.29,268.19 101.07,268.19 99.61,266.73 98.35,265.46 78,265.46 78,267.19 75.45,267.19 78.28,268.47 78.28,269.9 73.07,269.9 73.07,272.56 70.77,272.56 73.07,273.72 73.07,276.69 74.71,276.69 74.71,278.11 78,278.11 78,282.33 76.16,282.33 77.67,283.84 77.67,285.73 99.51,285.71 99.51,282.33 101.78,282.33 99.51,281.02 101.21,281.02 98.94,279.53 96.8,279.53 96.8,277.83 99.29,277.83 96.8,276.84 "
       style="opacity:0.1;isolation:isolate"
       id="polygon16" />
    <polygon
       points="78.28,269.9 60,269.24 60,269.9 "
       style="opacity:0.1;isolation:isolate"
       id="polygon17" />
    <polygon
       points="78,278.11 78.08,279.39 59.72,278.11 "
       style="opacity:0.1;isolation:isolate"
       id="polygon18" />
    <polygon
       points="74.71,276.69 56.43,277.33 56.43,276.69 "
       style="opacity:0.1;isolation:isolate"
       id="polygon19" />
    <polygon
       points="78,282.33 59.72,281.66 59.72,282.33 "
       style="opacity:0.1;isolation:isolate"
       id="polygon20" />
    <polygon
       points="77.67,283.84 77.67,284.54 59.38,283.84 "
       style="opacity:0.1;isolation:isolate"
       id="polygon21" />
    <polygon
       points="73.07,272.56 54.79,271.98 54.79,272.56 "
       style="opacity:0.1;isolation:isolate"
       id="polygon22" />
    <polygon
       points="78,267.19 59.72,266.56 59.72,267.19 "
       style="opacity:0.1;isolation:isolate"
       id="polygon23" />
    <polygon
       points="80.74,268.19 99.29,268.75 99.29,268.19 "
       style="opacity:0.1;isolation:isolate"
       id="polygon24" />
    <polygon
       points="99.29,269.9 80.25,270.53 78.28,269.9 "
       style="opacity:0.1;isolation:isolate"
       id="polygon25" />
    <polygon
       points="99.29,273.15 99.29,272.56 73.07,272.56 "
       style="opacity:0.1;isolation:isolate"
       id="polygon26" />
    <polygon
       points="86.04,273.72 73.07,274.36 73.07,273.72 "
       style="opacity:0.1;isolation:isolate"
       id="polygon27" />
    <polygon
       points="78,276.69 96.8,276.27 96.8,276.84 "
       style="opacity:0.1;isolation:isolate"
       id="polygon28" />
    <polygon
       points="77.67,277.83 96.8,278.47 96.8,277.83 "
       style="opacity:0.1;isolation:isolate"
       id="polygon29" />
    <polygon
       points="78.28,281.02 78.28,281.66 99.51,281.02 "
       style="opacity:0.1;isolation:isolate"
       id="polygon30" />
    <polygon
       points="84.13,282.33 99.51,282.76 99.51,282.33 "
       style="opacity:0.1;isolation:isolate"
       id="polygon31" />
    <polygon
       points="102.86,290.61 109.26,290.61 116.36,411.41 111.53,411.41 "
       style="fill:#263238"
       id="polygon32" />
    <polygon
       points="109.26,290.8 109.61,296.61 116.36,411.41 111.53,411.41 103.28,296.61 102.85,290.8 "
       style="opacity:0.4;isolation:isolate;fill:#ffffff"
       id="polygon33" />
    <polygon
       points="102.85,290.8 109.26,290.8 109.61,296.32 103.28,296.32 "
       style="opacity:0.2;isolation:isolate"
       id="polygon34" />
    <polygon
       points="146.19,290.61 152.59,290.61 151.8,411.41 146.97,411.41 "
       style="fill:#263238"
       id="polygon35" />
    <polygon
       points="146.31,310.29 146.19,290.8 152.59,290.8 152.47,310.29 151.81,411.41 146.97,411.41 "
       style="opacity:0.5;isolation:isolate;fill:#ffffff"
       id="polygon36" />
    <polygon
       points="146.31,310.51 146.19,290.8 152.59,290.8 152.47,310.51 "
       style="opacity:0.2;isolation:isolate"
       id="polygon37" />
    <polygon
       points="189.57,290.61 195.98,290.61 203.07,411.41 198.25,411.41 "
       style="fill:#263238"
       id="polygon38" />
    <polygon
       points="195.98,290.8 196.32,296.61 203.08,411.41 198.25,411.41 189.99,296.61 189.57,290.8 "
       style="opacity:0.5;isolation:isolate;fill:#ffffff"
       id="polygon39" />
    <polygon
       points="189.57,290.8 195.98,290.8 196.32,296.32 189.99,296.32 "
       style="opacity:0.2;isolation:isolate"
       id="polygon40" />
    <polygon
       points="63.39,290.61 69.79,290.61 61.12,411.41 56.29,411.41 "
       style="fill:#263238"
       id="polygon41" />
    <polygon
       points="63.04,296.61 63.38,290.8 69.79,290.8 69.37,296.61 61.11,411.41 56.29,411.41 "
       style="opacity:0.5;isolation:isolate;fill:#ffffff"
       id="polygon42" />
    <polygon
       points="69.37,296.32 63.04,296.32 63.38,290.8 69.79,290.8 "
       style="opacity:0.2;isolation:isolate"
       id="polygon43" />
    <path
       d="m 58.31,287.58 h 142.74 v 3.89 a 2.16,2.16 0 0 1 -2.16,2.16 H 60.47 a 2.16,2.16 0 0 1 -2.16,-2.16 z"
       style="fill:#407bff"
       id="path43" />
    <path
       d="m 58.31,287.58 h 142.74 v 3.89 a 2.16,2.16 0 0 1 -2.16,2.16 H 60.47 a 2.16,2.16 0 0 1 -2.16,-2.16 z"
       style="opacity:0.6;isolation:isolate;fill:#ffffff"
       id="path44" />
    <rect
       x="58.310001"
       y="287.57999"
       width="142.75"
       height="3.03"
       style="opacity:0.2;isolation:isolate"
       id="rect44" />
    <path
       d="M 204.05,288.37 H 55.31 a 1.7,1.7 0 0 1 -1.7,-1.7 v 0 a 1.71,1.71 0 0 1 1.7,-1.71 h 148.74 a 1.71,1.71 0 0 1 1.7,1.71 v 0 a 1.7,1.7 0 0 1 -1.7,1.7 z"
       style="fill:#407bff"
       id="path45" />
    <path
       d="M 204.05,288.37 H 55.31 a 1.7,1.7 0 0 1 -1.7,-1.7 v 0 a 1.71,1.71 0 0 1 1.7,-1.71 h 148.74 a 1.71,1.71 0 0 1 1.7,1.71 v 0 a 1.7,1.7 0 0 1 -1.7,1.7 z"
       style="opacity:0.6;isolation:isolate;fill:#ffffff"
       id="path46" />
    <path
       d="m 135.38,318 h 71.12 v 5.81 a 5,5 0 0 1 -5,5 h -61.12 a 5,5 0 0 1 -5,-5 z"
       transform="rotate(180,170.945,323.45)"
       style="fill:#407bff"
       id="path47" />
    <path
       d="m 135.38,318 h 71.12 v 5.81 a 5,5 0 0 1 -5,5 h -61.12 a 5,5 0 0 1 -5,-5 z"
       transform="rotate(180,170.945,323.45)"
       style="opacity:0.3;isolation:isolate"
       id="path48" />
    <rect
       x="174.89999"
       y="239.75"
       width="52.389999"
       height="36.91"
       rx="14.58"
       style="fill:#407bff"
       id="rect48" />
    <g
       style="opacity:0.3;isolation:isolate"
       id="g49">
      <rect
         x="174.89999"
         y="239.75"
         width="52.389999"
         height="36.91"
         rx="14.58"
         id="rect49" />
    </g>
    <path
       d="m 203.79,390.39 -26.63,-2.62 V 350.33 H 166.6 v 37.43 l -26.75,2.63 a 5.18,5.18 0 0 0 -4.68,5.16 v 4 h 73.3 v -4 a 5.18,5.18 0 0 0 -4.68,-5.16 z"
       style="fill:#263238"
       id="path49" />
    <path
       d="m 203.79,390.39 -26.63,-2.62 V 350.33 H 166.6 v 37.43 l -26.75,2.63 a 5.18,5.18 0 0 0 -4.68,5.16 v 4 h 73.3 v -4 a 5.18,5.18 0 0 0 -4.68,-5.16 z"
       style="opacity:0.2;isolation:isolate;fill:#ffffff"
       id="path50" />
    <path
       d="m 144.89,404.51 a 6.9,6.9 0 1 1 -6.9,-6.9 6.9,6.9 0 0 1 6.9,6.9 z"
       style="fill:#263238"
       id="path51" />
    <path
       d="m 198.75,404.51 a 6.91,6.91 0 1 0 6.9,-6.9 6.9,6.9 0 0 0 -6.9,6.9 z"
       style="fill:#263238"
       id="path52" />
    <path
       d="M 164.78,325 H 179 v 29.21 a 4.13,4.13 0 0 1 -4.13,4.13 h -5.93 a 4.13,4.13 0 0 1 -4.13,-4.13 V 325 Z"
       style="fill:#263238"
       id="path53" />
    <path
       d="M 164.78,325 H 179 v 29.21 a 4.13,4.13 0 0 1 -4.13,4.13 h -5.93 a 4.13,4.13 0 0 1 -4.13,-4.13 V 325 Z"
       style="opacity:0.3;isolation:isolate;fill:#ffffff"
       id="path54" />
    <path
       d="m 197.12,266.51 c 0,0 2,49.92 -11.89,58.52 h 15.87 c 0,0 12.29,-17 8.82,-58.52 z"
       style="fill:#263238"
       id="path55" />
    <path
       d="m 197.12,266.51 c 0,0 2,49.92 -11.89,58.52 h 15.87 c 0,0 12.29,-17 8.82,-58.52 z"
       style="opacity:0.3;isolation:isolate;fill:#ffffff"
       id="path56" />
    <rect
       x="132.42"
       y="323.45001"
       width="77.050003"
       height="5.4000001"
       rx="2.01"
       transform="rotate(180,170.945,326.155)"
       style="fill:#263238"
       id="rect56" />
    <rect
       x="132.42"
       y="323.45001"
       width="77.050003"
       height="5.4000001"
       rx="2.01"
       transform="rotate(180,170.945,326.155)"
       style="opacity:0.6;isolation:isolate;fill:#ffffff"
       id="rect57" />
    <rect
       x="189.28999"
       y="250.96001"
       width="29.6"
       height="20.85"
       rx="7.6199999"
       style="fill:#263238"
       id="rect58" />
    <rect
       x="189.28999"
       y="250.96001"
       width="29.6"
       height="20.85"
       rx="7.6199999"
       style="opacity:0.2;isolation:isolate;fill:#ffffff"
       id="rect59" />
  </g>
  <g
     id="freepik--sand-castle--inject-32"
     transform="translate(-39.72,-59.283265)">
    <polygon
       points="415.93,348.99 413.25,349.01 413.09,347.6 409.83,347.6 409.7,348.98 407.02,349 406.86,347.6 403.61,347.6 403.47,348.98 400.79,349 400.64,347.6 397.38,347.6 397.24,348.97 394.57,348.99 394.41,347.6 391.5,347.6 387.18,377.36 435.73,377.36 431.4,347.6 428.52,347.6 428.38,349 425.7,349.02 425.55,347.6 422.29,347.6 422.15,348.99 419.48,349.01 419.32,347.6 416.06,347.6 "
       style="fill:#407bff"
       id="polygon59" />
    <polygon
       points="415.93,348.99 413.25,349.01 413.09,347.6 409.83,347.6 409.7,348.98 407.02,349 406.86,347.6 403.61,347.6 403.47,348.98 400.79,349 400.64,347.6 397.38,347.6 397.24,348.97 394.57,348.99 394.41,347.6 391.5,347.6 387.18,377.36 435.73,377.36 431.4,347.6 428.52,347.6 428.38,349 425.7,349.02 425.55,347.6 422.29,347.6 422.15,348.99 419.48,349.01 419.32,347.6 416.06,347.6 "
       style="opacity:0.5;isolation:isolate;fill:#ffffff"
       id="polygon60" />
    <polygon
       points="418,369.91 414.08,369.94 413.85,367.88 409.08,367.88 408.89,369.9 404.97,369.93 404.74,367.88 399.98,367.88 399.78,369.89 395.86,369.93 395.63,367.88 390.87,367.88 390.67,369.89 386.75,369.92 386.52,367.88 382.28,367.88 375.95,411.41 446.96,411.41 440.63,367.88 436.41,367.88 436.21,369.92 432.3,369.95 432.06,367.88 427.3,367.88 427.11,369.91 423.19,369.94 422.96,367.88 418.19,367.88 "
       style="fill:#407bff"
       id="polygon61" />
    <polygon
       points="418,369.91 414.08,369.94 413.85,367.88 409.08,367.88 408.89,369.9 404.97,369.93 404.74,367.88 399.98,367.88 399.78,369.89 395.86,369.93 395.63,367.88 390.87,367.88 390.67,369.89 386.75,369.92 386.52,367.88 382.28,367.88 375.95,411.41 446.96,411.41 440.63,367.88 436.41,367.88 436.21,369.92 432.3,369.95 432.06,367.88 427.3,367.88 427.11,369.91 423.19,369.94 422.96,367.88 418.19,367.88 "
       style="opacity:0.6;isolation:isolate;fill:#ffffff"
       id="polygon62" />
    <path
       d="m 411.45,397.58 a 4.74,4.74 0 0 0 -4.74,4.74 v 9.09 h 9.49 v -9.09 a 4.75,4.75 0 0 0 -4.75,-4.74 z"
       style="opacity:0.2;isolation:isolate"
       id="path62" />
    <path
       d="M 426.17,379.58 A 2.38,2.38 0 0 0 423.8,382 v 4.54 h 4.75 V 382 a 2.39,2.39 0 0 0 -2.38,-2.42 z"
       style="opacity:0.2;isolation:isolate"
       id="path63" />
    <path
       d="m 396.73,379.58 a 2.38,2.38 0 0 0 -2.37,2.38 v 4.54 h 4.75 V 382 a 2.39,2.39 0 0 0 -2.38,-2.42 z"
       style="opacity:0.2;isolation:isolate"
       id="path64" />
    <path
       d="m 423.67,356.19 a 2.37,2.37 0 0 0 -2.37,2.37 v 4.54 h 4.75 v -4.54 a 2.38,2.38 0 0 0 -2.38,-2.37 z"
       style="opacity:0.2;isolation:isolate"
       id="path65" />
    <path
       d="m 411.45,356.19 a 2.37,2.37 0 0 0 -2.37,2.37 v 4.54 h 4.75 v -4.54 a 2.38,2.38 0 0 0 -2.38,-2.37 z"
       style="opacity:0.2;isolation:isolate"
       id="path66" />
    <path
       d="m 399.23,356.19 a 2.37,2.37 0 0 0 -2.37,2.37 v 4.54 h 4.75 v -4.54 a 2.38,2.38 0 0 0 -2.38,-2.37 z"
       style="opacity:0.2;isolation:isolate"
       id="path67" />
  </g>
  <g
     id="freepik--Ball--inject-32"
     transform="translate(-39.72,-59.283265)">
    <path
       d="m 331.51,393.21 a 1.62,1.62 0 0 0 0,0.22 v 0 a 18,18 0 0 0 2.84,9.55 c 0.15,0.23 0.3,0.46 0.47,0.69 a 18.21,18.21 0 0 0 3.76,3.93 11.88,11.88 0 0 0 1,0.73 v 0 a 1.75,1.75 0 0 0 0.25,0.16 l 0.33,0.21 a 5.74,5.74 0 0 0 0.53,0.32 c 0.28,0.16 0.57,0.32 0.86,0.46 v 0 a 18.14,18.14 0 0 0 21.27,-3.72 17.68,17.68 0 0 0 3.05,-4.27 18.09,18.09 0 0 0 2,-8.29 v -0.06 c 0,-0.51 0,-1 -0.07,-1.52 a 17.9,17.9 0 0 0 -1.93,-6.72 16.42,16.42 0 0 0 -0.88,-1.53 18.54,18.54 0 0 0 -3.84,-4.3 15.68,15.68 0 0 0 -1.49,-1.08 6.65,6.65 0 0 0 -0.56,-0.36 17.8,17.8 0 0 0 -4.6,-2 l -0.42,-0.11 a 18.32,18.32 0 0 0 -4.42,-0.54 q -0.7,0 -1.38,0.06 h -0.35 v 0 a 17.92,17.92 0 0 0 -5.84,1.58 l -0.23,0.11 a 18.16,18.16 0 0 0 -10.23,14 v 0 a 17,17 0 0 0 -0.12,2.48 z"
       style="fill:#407bff"
       id="path68" />
    <path
       d="m 331.51,393.21 a 18.16,18.16 0 0 0 10.08,16.28 v 0 a 3.82,3.82 0 0 0 1,-1.23 c -3.36,-9.8 0,-15.05 0,-15.05 v -0.1 l -0.24,-1.57 -0.05,-0.29 c -0.52,-2.91 -1.83,-8.36 -4.67,-11.66 a 18.17,18.17 0 0 0 -6.12,13.62 z"
       style="opacity:0.6;isolation:isolate;fill:#ffffff"
       id="path69" />
    <path
       d="m 363.67,390.06 c 0,0 3.19,3.19 2.25,11.44 a 18.2,18.2 0 0 0 -4.72,-22.42 21.92,21.92 0 0 1 2.47,10.98 z"
       style="opacity:0.6;isolation:isolate;fill:#ffffff"
       id="path70" />
    <path
       d="m 337.63,379.59 c 4,4.64 5,13.62 5,13.62 11,2.69 21.07,-3.15 21.07,-3.15 a 22,22 0 0 0 -2.47,-11 18.2,18.2 0 0 0 -23.57,0.51 z"
       style="opacity:0.2;isolation:isolate;fill:#ffffff"
       id="path71" />
    <path
       d="m 341.6,409.49 a 18.14,18.14 0 0 0 21.27,-3.72 c -3.41,2 -10.38,4.87 -20.27,2.49 a 3.82,3.82 0 0 1 -1,1.23 z"
       style="opacity:0.2;isolation:isolate;fill:#ffffff"
       id="path72" />
    <g
       style="opacity:0.2;isolation:isolate"
       id="g85">
      <path
         d="m 341.9,376.77 a 21.37,21.37 0 0 1 1.31,2.08 32.09,32.09 0 0 1 1.91,4.28 c 0.56,1.47 1,3 1.4,4.49 0.4,1.49 0.74,3.06 1,4.61 a 32.28,32.28 0 0 0 -0.66,-4.69 38.5,38.5 0 0 0 -1.3,-4.58 28.2,28.2 0 0 0 -2,-4.3 21.86,21.86 0 0 0 -1.42,-2 z"
         id="path73" />
      <path
         d="m 348,375.08 c 0.25,0.45 0.48,0.91 0.7,1.37 a 31.26,31.26 0 0 1 1.81,4.81 c 0.53,1.64 0.93,3.32 1.31,5 0.38,1.68 0.7,3.38 1,5.08 a 42.73,42.73 0 0 0 -0.62,-5.16 43.77,43.77 0 0 0 -1.2,-5.06 28.25,28.25 0 0 0 -2,-4.85 c -0.22,-0.41 -0.45,-0.82 -0.69,-1.21 z"
         id="path74" />
      <path
         d="m 354.13,375.54 0.31,0.81 a 35.51,35.51 0 0 1 1.35,4.55 c 0.39,1.54 0.69,3.1 1,4.67 0.31,1.57 0.53,3.14 0.76,4.72 a 40.35,40.35 0 0 0 -0.39,-4.78 47.2,47.2 0 0 0 -0.87,-4.72 29.89,29.89 0 0 0 -1.47,-4.59 c -0.08,-0.18 -0.16,-0.37 -0.25,-0.55 z"
         id="path75" />
      <path
         d="m 359.15,377.64 c 0.34,1.12 0.66,2.24 0.89,3.38 0.23,1.14 0.5,2.56 0.7,3.85 0.2,1.29 0.34,2.59 0.46,3.9 a 27.29,27.29 0 0 0 -0.08,-3.94 36.88,36.88 0 0 0 -0.59,-3.91 29.39,29.39 0 0 0 -0.82,-2.92 6.65,6.65 0 0 0 -0.56,-0.36 z"
         id="path76" />
      <path
         d="m 337.48,399.28 a 17.82,17.82 0 0 0 0.73,5.57 18.83,18.83 0 0 0 1,2.63 c 0.13,0.29 0.28,0.58 0.43,0.86 v 0 a 1.75,1.75 0 0 0 0.25,0.16 21,21 0 0 1 -1.29,-3.75 18.65,18.65 0 0 1 -0.6,-5.46 20,20 0 0 1 0.84,-5.43 22.26,22.26 0 0 1 2.2,-5.09 17.49,17.49 0 0 0 -2.56,5 18.65,18.65 0 0 0 -1,5.51 z"
         id="path77" />
      <path
         d="m 333.89,398.77 0.05,1.51 0.21,1.5 a 9.87,9.87 0 0 0 0.21,1.21 c 0.15,0.23 0.3,0.46 0.47,0.69 a 13,13 0 0 1 -0.3,-1.95 l -0.15,-1.48 v -1.48 a 10.6,10.6 0 0 1 0,-1.49 c 0.05,-0.49 0.05,-1 0.14,-1.47 a 21.86,21.86 0 0 1 1.47,-5.73 20.32,20.32 0 0 1 2.94,-5.16 17,17 0 0 0 -3.29,5 21,21 0 0 0 -1.62,5.82 c -0.08,0.5 -0.07,1 -0.11,1.51 a 10.88,10.88 0 0 0 -0.02,1.52 z"
         id="path78" />
      <path
         d="m 331.51,393.21 a 1.62,1.62 0 0 0 0,0.22 l 0.06,-0.34 a 26.55,26.55 0 0 1 2,-6 21.68,21.68 0 0 1 3.46,-5.33 18.59,18.59 0 0 0 -3.8,5.16 24.77,24.77 0 0 0 -1.58,3.89 v 0 a 17,17 0 0 0 -0.14,2.4 z"
         id="path79" />
      <path
         d="m 364.56,387.18 a 14.91,14.91 0 0 1 2.05,3 19.58,19.58 0 0 1 1.31,3 c 0,-0.51 0,-1 -0.07,-1.52 a 15.11,15.11 0 0 0 -0.91,-1.68 10.56,10.56 0 0 0 -2.38,-2.8 z"
         id="path80" />
      <path
         d="m 363.7,382.34 c 0.76,0.86 1.5,1.71 2.22,2.57 a 16.42,16.42 0 0 0 -0.88,-1.53 15,15 0 0 0 -1.34,-1.04 z"
         id="path81" />
      <path
         d="m 363.7,393.92 c -1.66,0.64 -3.34,1.2 -5,1.7 a 46.58,46.58 0 0 1 -5.16,1.23 23.56,23.56 0 0 1 -10.5,-0.13 16,16 0 0 0 5.23,1 28.3,28.3 0 0 0 5.36,-0.43 38.3,38.3 0 0 0 5.18,-1.36 33.76,33.76 0 0 0 4.89,-2.01 z"
         id="path82" />
      <path
         d="m 363.7,398.27 a 44.39,44.39 0 0 1 -5.12,1.68 38.11,38.11 0 0 1 -5.28,1 31,31 0 0 1 -5.36,0.26 l -1.34,-0.07 -1.34,-0.16 c -0.9,-0.05 -1.76,-0.32 -2.66,-0.45 a 21.83,21.83 0 0 0 5.32,1.06 28.26,28.26 0 0 0 5.44,-0.14 34.26,34.26 0 0 0 5.32,-1.14 28.13,28.13 0 0 0 5.02,-2.04 z"
         id="path83" />
      <path
         d="m 363.27,402 a 32.93,32.93 0 0 1 -4.88,1.82 29.39,29.39 0 0 1 -5.07,1 c -0.86,0.14 -1.72,0.16 -2.58,0.23 -0.86,0.07 -1.73,0 -2.6,-0.05 a 31.08,31.08 0 0 1 -5.14,-0.75 21.72,21.72 0 0 0 5.11,1.13 23.82,23.82 0 0 0 5.27,-0.06 27.2,27.2 0 0 0 5.13,-1.15 22.32,22.32 0 0 0 4.76,-2.17 z"
         id="path84" />
      <path
         d="m 362.51,404.86 a 33.42,33.42 0 0 1 -4.59,1.72 29,29 0 0 1 -4.78,1 23.21,23.21 0 0 1 -4.86,0.16 l -1.22,-0.1 -1.2,-0.2 c -0.82,-0.08 -1.59,-0.36 -2.4,-0.51 a 18.18,18.18 0 0 0 4.79,1.19 21.66,21.66 0 0 0 5,0 25.84,25.84 0 0 0 4.83,-1.12 21.39,21.39 0 0 0 4.43,-2.14 z"
         id="path85" />
    </g>
  </g>
  <g
     id="freepik--Character--inject-32"
     transform="translate(-39.72,-59.283265)">
    <path
       d="m 264.77,207.73 a 7,7 0 0 1 -4.39,-1.72 0.35302266,0.35302266 0 0 1 0.43,-0.56 c 3.93,3.07 6.88,1.05 10.3,-1.28 3,-2 6.33,-4.31 10.71,-3.12 8.78,2.38 14.13,-0.69 14.19,-0.72 a 0.35415392,0.35415392 0 0 1 0.36,0.61 c -0.23,0.14 -5.64,3.25 -14.74,0.79 -4.06,-1.1 -7.14,1 -10.12,3 -2.22,1.54 -4.36,3 -6.74,3 z"
       style="fill:#263238"
       id="path86" />
    <path
       d="m 306.29,197.46 h -0.48 a 0.35,0.35 0 0 1 -0.33,-0.37 0.34,0.34 0 0 1 0.37,-0.34 9.73,9.73 0 0 0 7.57,-3.08 c 1.89,-2 4,-5.91 3.18,-13 -0.39,-3.45 -1.63,-5.84 -3.68,-7.12 -3.31,-2.05 -7.67,-0.52 -7.71,-0.5 a 0.36,0.36 0 0 1 -0.46,-0.22 0.36,0.36 0 0 1 0.22,-0.45 c 0.19,-0.07 4.73,-1.66 8.32,0.57 2.25,1.4 3.6,4 4,7.64 0.83,7.32 -1.37,11.4 -3.36,13.52 a 10.43,10.43 0 0 1 -7.64,3.35 z"
       style="fill:#263238"
       id="path87" />
    <path
       d="m 307.49,192.13 c -4,2.26 0,3 -5.16,5.86 -5.16,2.86 -15.38,8.93 -21.41,1.35 -4.83,-6.05 -12,2.78 -17.12,3.65 -5.94,1 -11.57,-3.8 -12,-9.64 a 15.71,15.71 0 0 0 -0.76,-5 9.4,9.4 0 0 0 -3.56,-3.94 c -1.64,-1.13 -4.6,-2 -3.9,-4.58 a 4.12,4.12 0 0 1 2,-2.38 8.55,8.55 0 0 1 5.42,-1.09 c 3.41,0.45 5.87,3.13 9.06,0.16 a 20.24,20.24 0 0 0 2.92,-4 8.35,8.35 0 0 1 7,-4 c 2.7,0 4.46,1.38 6.72,2.55 4.42,2.29 9.79,0.34 13.58,-2 6.21,-3.8 11,-3.63 15.78,0.09 5,3.86 10.41,17.54 5.08,21.89 -0.35,0.23 -3.3,0.88 -3.65,1.08 z"
       style="fill:#263238"
       id="path88" />
    <path
       d="m 261.34,171.25 a 0.34,0.34 0 0 1 -0.19,-0.05 0.36,0.36 0 0 1 -0.1,-0.49 c 4.19,-6.45 10.25,-7.57 17.52,-3.21 4.37,2.61 5.73,1.52 7.79,-0.12 a 11.78,11.78 0 0 1 7.22,-3 c 8.59,-0.57 13.66,6.26 13.71,6.33 a 0.35401271,0.35401271 0 1 1 -0.57,0.42 c -0.05,-0.07 -4.89,-6.58 -13.09,-6 A 10.93,10.93 0 0 0 286.8,168 c -2.12,1.69 -3.8,3 -8.59,0.16 -7,-4.18 -12.56,-3.17 -16.57,3 a 0.34,0.34 0 0 1 -0.3,0.09 z"
       style="fill:#263238"
       id="path89" />
    <path
       d="m 277.19,210.48 c 0,0 -17.37,3.47 -20.29,2.91 -2.92,-0.56 -21.58,-21.47 -21.58,-21.47 0,0 -1.33,-4.63 -2.27,-4.79 -0.94,-0.16 -12.83,-4 -12.92,-1.81 -0.09,2.19 2.16,8.06 2.73,8.63 0.57,0.57 10,2.07 10,2.07 0,0 17.16,22.46 19.43,24 2.27,1.54 22.82,0 22.82,0 z"
       style="fill:#e4897b"
       id="path90" />
    <path
       d="m 313.66,212.24 c 3.48,1.7 15.74,33 15.74,33 0,0 22.22,20.3 22.85,22.23 0.63,1.93 -1.48,10.09 -1.93,10.8 -0.31,0.51 -5.61,1.05 -5.61,0.38 0,-0.67 2.58,-9.8 2.58,-9.8 l -24.12,-20 -12.06,-28 z"
       style="fill:#e4897b"
       id="path91" />
    <path
       d="m 313.66,212.24 c 3.15,0.2 17.25,16.91 17.25,16.91 L 320.58,237 Z"
       style="fill:#407bff"
       id="path92" />
    <path
       d="m 313.66,212.24 c 3.15,0.2 17.25,16.91 17.25,16.91 L 320.58,237 Z"
       style="opacity:0.5;isolation:isolate;fill:#ffffff"
       id="path93" />
    <path
       d="m 323.93,233.79 c 3.22,3.51 -12.64,18.82 -33.58,15.05 -20.94,-3.77 -29.81,-16.31 -29.81,-16.31 0,0 38.67,-25.68 63.39,1.26 z"
       style="fill:#407bff"
       id="path94" />
    <path
       d="m 323.93,233.79 c 3.22,3.51 -12.64,18.82 -33.58,15.05 -20.94,-3.77 -29.81,-16.31 -29.81,-16.31 0,0 38.67,-25.68 63.39,1.26 z"
       style="opacity:0.6;isolation:isolate;fill:#ffffff"
       id="path95" />
    <path
       d="m 349.42,255.49 c -2.59,-6.63 -13.53,-8.86 -25.25,-9.23 a 4,4 0 0 0 -4.15,4 v 0 a 11,11 0 0 1 4.49,5.2 c 3.86,9.88 -9.29,24.25 -29.39,32.09 -20.1,7.84 -39.5,6.19 -43.36,-3.69 -3.15,-8.09 -20.66,2.53 -15.49,15.8 6.87,17.6 37.77,22 69,9.79 31.23,-12.21 51.02,-36.36 44.15,-53.96 z"
       style="fill:#407bff"
       id="path96" />
    <path
       d="m 305.29,309.43 c -31.25,12.19 -62.15,7.82 -69,-9.78 -5.17,-13.27 12.34,-23.89 15.49,-15.8 a 11.28,11.28 0 0 0 5.14,5.6 c 7.93,4.52 22.87,4.08 38.22,-1.91 17.06,-6.65 29.11,-18 30,-27.34 a 10.27,10.27 0 0 0 -0.61,-4.75 11,11 0 0 0 -4.49,-5.2 4,4 0 0 1 4.15,-4 c 11.72,0.37 22.66,2.59 25.25,9.23 6.84,17.61 -12.91,41.76 -44.15,53.95 z"
       style="opacity:0.4;isolation:isolate;fill:#ffffff"
       id="path97" />
    <path
       d="m 327.33,281.18 c 0,0 1.12,-5.75 -0.95,-8.57 0,0 -5.75,11.88 -24.66,20.94 -18.91,9.06 -31.93,6.8 -34.38,5.29 a 8.62,8.62 0 0 0 1.87,5.65 c 0,0 -11.91,-3.59 -12.31,-15 7.93,4.52 22.87,4.08 38.22,-1.91 17.06,-6.65 29.11,-18 30,-27.34 11.57,5.86 2.21,20.94 2.21,20.94 z"
       style="opacity:0.2;isolation:isolate"
       id="path98" />
    <path
       d="m 313.66,303 a 64.86,64.86 0 0 1 -3.12,10.6 c -5.18,14.17 -14.88,34.4 -17.54,40.15 -2.07,4.56 -11.19,5.63 -22.29,7.59 -21.39,3.76 -50.17,9.43 -50.17,9.43 l -0.43,-6.79 c 0,0 57.76,-17.25 58.53,-20.47 1.06,-4.54 1.38,-25.84 1.72,-43.78 0.05,-2 0.09,-4 0.13,-5.84 0.06,-3.11 0.12,-6 0.17,-8.48 0.11,-5.71 0.18,-9.41 0.18,-9.41 l 30,-23.95 a 123.45,123.45 0 0 1 2.82,50.95 z"
       style="fill:#e4897b"
       id="path99" />
    <path
       d="m 310.54,313.58 c -5.18,14.19 -14.88,34.42 -17.54,40.17 -2.07,4.56 -11.19,5.63 -22.29,7.59 -21.39,3.76 -50.17,9.43 -50.17,9.43 l -0.43,-6.79 c 0,0 57.76,-17.25 58.53,-20.47 1.06,-4.54 1.38,-25.84 1.72,-43.78 l 15.2,-7.73 z"
       style="opacity:0.2;isolation:isolate"
       id="path100" />
    <path
       d="m 279.13,248.84 c 0,0 -11.62,24.52 -7.52,47.66 4.1,23.14 24.82,38.39 28.17,45.6 3.35,7.21 26.08,69.9 26.08,69.9 l 5.05,-2.07 c 0,0 -14,-61.67 -17.07,-76.42 -1.43,-7 -18.29,-41.49 -18.29,-41.49 0,0 17.22,-18.41 15.73,-42.87 z"
       style="fill:#e4897b"
       id="path101" />
    <path
       d="m 275.09,210.1 c 0,0 21.13,-4.66 38.57,2.14 a 161.53,161.53 0 0 1 -2.58,37.28 l -32.28,0.24 c 0,0 1.74,-8.79 -5.42,-25.8 z"
       style="fill:#407bff"
       id="path102" />
    <path
       d="m 298.71,215.08 c -7.42,-1.83 -9.32,-5.31 -9.32,-5.31 3.41,-2.55 3.34,-6.9 2.86,-9.66 a 15.42,15.42 0 0 0 -0.65,-2.57 l 8.88,2.73 a 26,26 0 0 0 -0.79,3.78 11.54,11.54 0 0 0 -0.06,2.84 c 0.3,2.78 1.84,3 1.84,3 1.25,3.11 -2.76,5.19 -2.76,5.19 z"
       style="fill:#e4897b"
       id="path103" />
    <path
       d="m 299.69,204.05 a 11.54,11.54 0 0 0 -0.06,2.84 c -3.55,-0.89 -5.95,-4.08 -7.38,-6.78 a 15.42,15.42 0 0 0 -0.65,-2.57 l 8.88,2.73 a 26,26 0 0 0 -0.79,3.78 z"
       style="opacity:0.2;isolation:isolate"
       id="path104" />
    <path
       d="m 301.5,175 c 7.85,1.19 9.74,5.78 9.09,14 -0.82,10.22 -4.16,17.06 -13.65,13.41 C 284.06,197.37 288.46,173 301.5,175 Z"
       style="fill:#e4897b"
       id="path105" />
    <path
       d="m 305.58,187.71 a 16.53,16.53 0 0 0 1.79,3.6 2.18,2.18 0 0 1 -2.21,0.57 z"
       style="fill:#de5753"
       id="path106" />
    <path
       d="m 300.87,186.33 c -0.08,0.65 -0.5,1.13 -0.93,1.08 -0.43,-0.05 -0.72,-0.63 -0.63,-1.28 0.09,-0.65 0.5,-1.12 0.93,-1.07 0.43,0.05 0.76,0.63 0.63,1.27 z"
       style="fill:#263238"
       id="path107" />
    <path
       d="m 300.05,185.07 1.48,-0.37 c 0,0 -0.85,1.09 -1.48,0.37 z"
       style="fill:#263238"
       id="path108" />
    <path
       d="m 308.93,187.23 c -0.08,0.65 -0.5,1.13 -0.93,1.07 -0.43,-0.06 -0.71,-0.62 -0.63,-1.27 0.08,-0.65 0.5,-1.13 0.93,-1.07 0.43,0.06 0.7,0.62 0.63,1.27 z"
       style="fill:#263238"
       id="path109" />
    <path
       d="m 308.12,186 1.48,-0.37 c 0,0 -0.86,1.06 -1.48,0.37 z"
       style="fill:#263238"
       id="path110" />
    <path
       d="m 298,181.92 a 0.36,0.36 0 0 1 -0.26,-0.11 0.36,0.36 0 0 1 0,-0.5 4.44,4.44 0 0 1 3.92,-0.75 0.35302266,0.35302266 0 0 1 -0.19,0.68 3.78,3.78 0 0 0 -3.25,0.59 0.38,0.38 0 0 1 -0.22,0.09 z"
       style="fill:#263238"
       id="path111" />
    <path
       d="m 310.4,182.91 a 0.33,0.33 0 0 1 -0.23,-0.09 3.39,3.39 0 0 0 -2.73,-1 0.34,0.34 0 0 1 -0.41,-0.28 0.34,0.34 0 0 1 0.27,-0.41 4.05,4.05 0 0 1 3.34,1.21 0.35,0.35 0 0 1 0,0.5 0.39,0.39 0 0 1 -0.24,0.07 z"
       style="fill:#263238"
       id="path112" />
    <path
       d="m 303.48,193.79 a 20.6,20.6 0 0 0 -2.06,2.06 l -0.44,-0.27 c -2,-1.25 -2.46,-2.47 -2.42,-3.45 a 3.12,3.12 0 0 1 0.42,-1.36 3.26,3.26 0 0 1 0.49,-0.65 11.06,11.06 0 0 0 3.35,3.24 c 0.4,0.28 0.66,0.43 0.66,0.43 z"
       style="fill:#263238"
       id="path113" />
    <path
       d="m 302.82,193.36 -0.62,0.59 c -1.85,-1.18 -3,-2.25 -3.22,-3.18 a 3.26,3.26 0 0 1 0.49,-0.65 11.06,11.06 0 0 0 3.35,3.24 z"
       style="fill:#ffffff"
       id="path114" />
    <path
       d="m 301,195.58 c -2,-1.25 -2.46,-2.47 -2.42,-3.45 a 7.56,7.56 0 0 1 1.91,1.81 2.77,2.77 0 0 1 0.51,1.64 z"
       style="fill:#de5753"
       id="path115" />
    <path
       d="m 290.91,186.89 c 0,0 4.65,-5.9 4.85,-11 0,0 16.53,-4 14.89,11.92 0,0 3.66,-13.8 -9.79,-16.16 -13.45,-2.36 -16.4,17.39 -10.32,24.33 0,0.02 -2.54,-5.41 0.37,-9.09 z"
       style="fill:#263238"
       id="path116" />
    <path
       d="m 291.94,188.74 a 3.49,3.49 0 0 0 -3.23,-3.71 c -2.47,-0.11 -4.39,4.71 1.48,6.83 0.81,0.31 1.46,-0.47 1.75,-3.12 z"
       style="fill:#e4897b"
       id="path117" />
    <path
       d="m 293.61,170 c 0,0 4.8,-2.75 8.6,-2.13 3.8,0.62 4.8,3 4.8,3 a 5,5 0 0 1 4.66,0 c 2.64,1.26 5.54,6.35 5.16,12.86 -0.38,6.51 -5.72,7.26 -5.72,7.26 0,0 4,-10.71 -4.85,-14.16 0,0 -3.17,-2.06 -5.36,0.45 -2.19,2.51 -1.95,10.12 -9.3,7.39 -7.35,-2.73 -2.7,-11.73 2.01,-14.67 z"
       style="fill:#263238"
       id="path118" />
    <path
       d="m 289.39,184.7 8.1,-2.36 a 16.38,16.38 0 0 1 7.19,1.15 3.92,3.92 0 0 1 1.73,0.27 12.13,12.13 0 0 1 5.51,0.77 v 0.79 l -0.37,0.38 c 0,0 -0.31,3.3 -1.54,3.65 a 3.1,3.1 0 0 1 -2.64,-0.67 8,8 0 0 1 -1.43,-3.62 c 0,0 -0.2,-0.5 -1.21,-0.05 0,0 -0.38,3.63 -3.5,3.46 -4,-0.2 -3.43,-4.44 -3.43,-4.44 l -0.59,-0.27 -7.11,1.3 z"
       style="fill:#263238"
       id="path119" />
    <path
       d="m 295.55,292 c 0,0 -9.86,-18.3 -24.81,-15.28 a 56.36,56.36 0 0 1 8.06,-26.94 l 32.28,-0.24 c 0,0 4.14,15.1 4,27.68 z"
       style="fill:#407bff"
       id="path120" />
    <path
       d="m 350.78,236 a 17.74,17.74 0 0 0 2.58,-13.57 c -1.7,-7.93 -9,-8.11 -14.15,-2.46 -5.92,6.46 -1.7,15.47 -2.45,18.83 -0.7,3.08 -7,1.74 -8,1.5 -13.16,-3.08 -30.7,-1.49 -48.35,5.4 -31.24,12.2 -51,36.35 -44.14,53.95 2.9,7.43 10.09,12.5 19.78,15 10.05,2.56 8.19,-7.08 5.13,-14.93 -3.86,-9.88 9.3,-24.25 29.39,-32.08 20.09,-7.83 39.5,-6.19 43.36,3.69 2.09,5.37 4,17.82 7.89,13 5.92,-7.31 9.17,-15 8.95,-22.08 6.23,-9.08 0.01,-26.25 0.01,-26.25 z"
       style="fill:#407bff"
       id="path121" />
    <path
       d="m 350.77,262.18 c 0.22,7.08 -3,14.77 -8.95,22.09 -3.93,4.84 -5.8,-7.61 -7.89,-13 -3.86,-9.88 -23.27,-11.53 -43.36,-3.69 -20.09,7.84 -33.25,22.21 -29.39,32.09 3.06,7.85 4.93,17.49 -5.13,14.93 -9.69,-2.46 -16.88,-7.53 -19.78,-15 -6.86,-17.61 12.9,-41.76 44.14,-53.95 17.65,-6.89 35.19,-8.48 48.35,-5.4 1,0.24 7.3,1.58 8,-1.51 0.75,-3.35 -3.46,-12.36 2.45,-18.82 5.19,-5.65 12.45,-5.47 14.14,2.45 a 17.87,17.87 0 0 1 -0.87,10.37 15.06,15.06 0 0 1 -1.7,3.21 c 0,0 6.22,17.22 -0.01,26.23 z"
       style="opacity:0.4;isolation:isolate;fill:#ffffff"
       id="path122" />
    <path
       d="m 349.23,218.6 c 0,0 6.52,-1.62 8.07,-2.55 1.55,-0.93 1.42,6.9 -4.55,9.76 0,0 -1,-1.31 -4.26,-0.51 -3.26,0.8 -2.6,-5.22 0.74,-6.7 z"
       style="fill:#407bff"
       id="path123" />
    <path
       d="m 350.77,262.18 c -9.49,3.64 -14.9,-7.12 -14.9,-7.12 0,0 4.23,6.41 10.49,2.65 C 353,253.68 350,237 350,237 c 0,0 -1.88,1.11 -4.4,-0.95 -2.26,-1.85 3,-4.27 6.92,-3.21 a 15.06,15.06 0 0 1 -1.7,3.21 c 0,0 6.18,17.12 -0.05,26.13 z"
       style="opacity:0.2;isolation:isolate"
       id="path124" />
    <path
       d="m 343.11,220.94 c 0,0.57 -0.41,1 -0.84,1 a 0.93,0.93 0 0 1 -0.7,-1.08 c 0,-0.57 0.41,-1 0.83,-1 0.42,0 0.74,0.5 0.71,1.08 z"
       style="fill:#263238"
       id="path125" />
    <path
       d="m 223.62,362.65 c 0.69,0.09 -0.81,8.52 -0.81,8.52 0,0 -5.89,4.62 -7.66,9.55 -1.77,4.93 -4.48,1.76 -3.84,-3.91 0.64,-5.67 1.12,-10 1.57,-14 0.45,-4 3.6,-1.13 10.74,-0.16 z"
       style="fill:#263238"
       id="path126" />
    <path
       d="m 221.61,372 0.06,-0.07 v 0 h 0.07 0.07 a 0.16,0.16 0 0 1 0.09,0 c 0.1,0 2,1 2.33,2.18 a 1.31,1.31 0 0 1 -0.15,1.09 q -0.35,0.56 -0.78,0.48 c -0.44,-0.08 -0.82,-0.73 -1.11,-1.47 a 3.56,3.56 0 0 1 -0.42,1.88 0.9,0.9 0 0 1 -0.63,0.39 0.82,0.82 0 0 1 -0.88,-0.31 1.11,1.11 0 0 1 -0.12,-0.77 10.69,10.69 0 0 1 1.47,-3.4 z m 0.06,0.79 c -0.68,1.19 -1.32,2.69 -1,3.13 0,0 0.1,0.15 0.44,0.11 a 0.48,0.48 0 0 0 0.32,-0.21 2.22,2.22 0 0 0 0.3,-1 10.73,10.73 0 0 0 -0.06,-2.04 z m 2.13,1.43 c -0.2,-0.7 -1.11,-1.33 -1.66,-1.66 0.33,1.31 0.86,2.6 1.24,2.66 0.11,0 0.25,-0.16 0.31,-0.27 a 0.8,0.8 0 0 0 0.14,-0.38 1.06,1.06 0 0 0 -0.03,-0.36 z"
       style="fill:#407bff"
       id="path127" />
    <path
       d="m 323.5,409.81 c -0.25,-0.65 7.81,-3.5 7.81,-3.5 0,0 6.93,2.86 12.09,2 5.16,-0.86 3.74,3 -1.5,5.27 l -13,5.54 c -3.7,1.54 -2.73,-2.62 -5.4,-9.31 z"
       style="fill:#263238"
       id="path128" />
    <path
       d="m 332.62,407 h -0.08 v 0 h -0.06 v 0 -0.06 0 a 0.29,0.29 0 0 1 0,-0.09 c 0,-0.11 -0.13,-2.21 0.75,-3.1 a 1.29,1.29 0 0 1 1,-0.4 c 0.43,0 0.7,0.16 0.8,0.44 0.1,0.28 -0.23,1.07 -0.72,1.68 a 3.45,3.45 0 0 1 1.84,-0.55 0.92,0.92 0 0 1 0.65,0.35 0.83,0.83 0 0 1 0.16,0.92 1.14,1.14 0 0 1 -0.61,0.48 10.66,10.66 0 0 1 -3.73,0.33 z m 0.66,-0.44 c 1.37,0 3,-0.18 3.23,-0.64 0,0 0.09,-0.16 -0.12,-0.44 a 0.5,0.5 0 0 0 -0.34,-0.18 2.17,2.17 0 0 0 -1,0.23 9.89,9.89 0 0 0 -1.77,0.98 z m 0.2,-2.55 a 3.7,3.7 0 0 0 -0.63,2.26 c 1,-0.94 1.84,-2 1.71,-2.39 0,-0.11 -0.27,-0.14 -0.39,-0.14 a 0.87,0.87 0 0 0 -0.4,0.06 1,1 0 0 0 -0.29,0.2 z"
       style="fill:#407bff"
       id="path129" />
    <path
       d="m 293.05,211.42 c 0,0 0,14.73 -12.3,23.62 -12.3,8.89 -28.89,8.91 -32.28,16.07 0,0 -0.19,-9.36 2.45,-17.32 2.64,-7.96 22.46,-14.79 22.46,-14.79 l 1.71,-8.91 c 0,0 11.24,-4.77 17.96,1.33 z"
       style="fill:#407bff"
       id="path130" />
    <path
       d="m 302.82,209.91 c 0,0 7.45,18.11 12.48,21.25 5.03,3.14 8.63,2.63 8.63,2.63 0,0 -3.18,-14.2 -10.27,-21.55 0,0 -7.8,-4.65 -10.84,-2.33 z"
       style="fill:#407bff"
       id="path131" />
    <path
       d="m 293.06,211.42 c 0,0 0,14.74 -12.31,23.62 -12.31,8.88 -28.89,8.91 -32.28,16.07 0,0 -0.19,-9.36 2.45,-17.32 0.7,-2.11 2.59,-4.14 5,-6 a 54.86,54.86 0 0 1 9.73,-5.63 c 4.23,-2 7.7,-3.17 7.7,-3.17 l 1.72,-8.91 c 0,0 11.25,-4.75 17.99,1.34 z"
       style="opacity:0.7;isolation:isolate;fill:#ffffff"
       id="path132" />
    <path
       d="m 302.82,209.91 c 0,0 7.45,18.11 12.48,21.25 5.03,3.14 8.63,2.63 8.63,2.63 0,0 -3.18,-14.2 -10.27,-21.55 0,0 -7.8,-4.65 -10.84,-2.33 z"
       style="opacity:0.7;isolation:isolate;fill:#ffffff"
       id="path133" />
    <polygon
       points="287.77,217.59 284.44,208.03 287.77,206.31 293.05,211.42 "
       style="fill:#407bff"
       id="polygon133" />
    <polygon
       points="287.77,217.59 284.44,208.03 287.77,206.31 293.05,211.42 "
       style="opacity:0.5;isolation:isolate;fill:#ffffff"
       id="polygon134" />
    <polygon
       points="310.4,214.06 302.82,209.91 302.31,206.89 306.26,208.54 "
       style="fill:#407bff"
       id="polygon135" />
    <polygon
       points="310.4,214.06 302.82,209.91 302.31,206.89 306.26,208.54 "
       style="opacity:0.5;isolation:isolate;fill:#ffffff"
       id="polygon136" />
    <path
       d="m 271.78,224.6 c 0,0 -7.46,6.75 -15.84,3.21 a 54.86,54.86 0 0 1 9.73,-5.63 c 3.05,0.42 5.55,1.23 6.11,2.42 z"
       style="opacity:0.2;isolation:isolate"
       id="path136" />
    <path
       d="m 276.93,209.45 a 28.32,28.32 0 0 1 -5.15,15.15 l -14.08,0.4 0.06,-13.07 z"
       style="fill:#407bff"
       id="path137" />
    <path
       d="m 276.93,209.45 a 28.32,28.32 0 0 1 -5.15,15.15 l -14.08,0.4 0.06,-13.07 z"
       style="opacity:0.5;isolation:isolate;fill:#ffffff"
       id="path138" />
  </g>
  <g
     id="freepik--Hat--inject-32"
     transform="translate(-39.72,-59.283265)">
    <path
       d="m 188.68,154.33 c 0,0 -1.19,7.28 7.2,12.79 8.39,5.51 18.11,0.51 19.72,-3.83 z"
       style="fill:#407bff"
       id="path139" />
    <path
       d="m 188.68,154.33 c 0,0 -1.19,7.28 7.2,12.79 8.39,5.51 18.11,0.51 19.72,-3.83 z"
       style="opacity:0.2;isolation:isolate"
       id="path140" />
    <path
       d="m 186.07,140.33 c 9.15,0 19.38,2.85 27.79,6.47 a 44.37,44.37 0 0 1 15.93,11.2 c 4,4.6 7.89,12.54 4.52,18.53 -3.37,5.99 -13,0.22 -16.8,-2.32 -14.08,-9.37 -29.17,-14.65 -46.91,-19.18 -2.6,-0.66 -8.67,-2.2 -8.1,-6 0.53,-3.53 6.24,-5.44 9,-6.37 a 45.69,45.69 0 0 1 14.57,-2.33 z"
       style="fill:#407bff"
       id="path141" />
    <path
       d="m 188.68,148.2 c -2.64,-3.75 11,-5.66 20.41,0 9.41,5.66 10.47,9.24 8.11,10.75 -1.66,1.05 -21.2,-0.37 -28.52,-10.75 z"
       style="opacity:0.2;isolation:isolate"
       id="path142" />
  </g>
</svg>
