<?xml version="1.0" encoding="UTF-8" standalone="no"?>
<svg
   viewBox="0 0 420 420"
   version="1.1"
   id="svg46"
   sodipodi:docname="Time management-rafiki.svg"
   width="420"
   height="420"
   inkscape:version="1.3.2 (091e20e, 2023-11-25, custom)"
   xmlns:inkscape="http://www.inkscape.org/namespaces/inkscape"
   xmlns:sodipodi="http://sodipodi.sourceforge.net/DTD/sodipodi-0.dtd"
   xmlns="http://www.w3.org/2000/svg"
   xmlns:svg="http://www.w3.org/2000/svg">
  <defs
     id="defs46" />
  <sodipodi:namedview
     id="namedview46"
     pagecolor="#ffffff"
     bordercolor="#000000"
     borderopacity="0.25"
     inkscape:showpageshadow="2"
     inkscape:pageopacity="0.0"
     inkscape:pagecheckerboard="0"
     inkscape:deskcolor="#d1d1d1"
     inkscape:zoom="1.092"
     inkscape:cx="250.91575"
     inkscape:cy="249.54212"
     inkscape:window-width="1920"
     inkscape:window-height="1001"
     inkscape:window-x="-9"
     inkscape:window-y="-9"
     inkscape:window-maximized="1"
     inkscape:current-layer="svg46" />
  <g
     id="freepik--background-simple--inject-363"
     transform="matrix(1.0439188,0,0,1.0439188,-50.979693,-61.815565)">
    <path
       d="m 382.22,191.91 c -46.1,-49.54 -161.38,-90.52 -227.3,-70.22 -62,19.12 -101,95.55 -54.68,146.7 53.34,58.89 145.23,83.23 220.68,72.89 68.85,-9.44 117.32,-89.17 61.3,-149.37 z"
       style="fill:#407bff"
       id="path1" />
    <path
       d="m 382.22,191.91 c -46.1,-49.54 -161.38,-90.52 -227.3,-70.22 -62,19.12 -101,95.55 -54.68,146.7 53.34,58.89 145.23,83.23 220.68,72.89 68.85,-9.44 117.32,-89.17 61.3,-149.37 z"
       style="opacity:0.9;fill:#ffffff"
       id="path2" />
  </g>
  <g
     id="freepik--Shadow--inject-363"
     transform="matrix(1.0439188,0,0,1.0439188,-50.979693,-61.815565)">
    <ellipse
       id="freepik--path--inject-363"
       cx="250"
       cy="416.23999"
       rx="193.89"
       ry="11.32"
       style="fill:#f5f5f5" />
  </g>
  <g
     id="freepik--Hourglass--inject-363"
     transform="matrix(1.0439188,0,0,1.0439188,-50.979693,-61.815565)">
    <g
       style="opacity:0.2"
       id="g3">
      <polygon
         points="360.73,407.87 297.04,290.15 233.35,407.87 "
         style="fill:#407bff"
         id="polygon2" />
      <polygon
         points="360.73,208.72 297.04,326.43 233.35,208.72 "
         style="fill:#407bff"
         id="polygon3" />
    </g>
    <path
       d="m 308.71,278.22 -9.32,17.22 a 2.67,2.67 0 0 1 -4.7,0 l -9.32,-17.22 a 10.21,10.21 0 0 1 9,-15.06 h 5.39 a 10.21,10.21 0 0 1 8.95,15.06 z"
       style="fill:#407bff"
       id="path3" />
    <path
       d="m 298.05,378.15 28.95,11.9 a 2.67,2.67 0 0 1 -1,5.13 h -57.87 a 2.67,2.67 0 0 1 -1,-5.13 L 296,378.15 a 2.65,2.65 0 0 1 2.05,0 z"
       style="fill:#407bff"
       id="path4" />
    <circle
       cx="297.04001"
       cy="351.79999"
       r="3.71"
       style="fill:#407bff"
       id="circle4" />
    <circle
       cx="297.04001"
       cy="313.04999"
       r="1.91"
       style="fill:#407bff"
       id="circle5" />
    <circle
       cx="297.04001"
       cy="331.51999"
       r="2.1700001"
       style="fill:#407bff"
       id="circle6" />
    <path
       d="M 360.41,402.06 H 233.67 a 5.82,5.82 0 0 0 -5.8,5.81 v 0 a 5.82,5.82 0 0 0 5.8,5.8 h 126.74 a 5.82,5.82 0 0 0 5.8,-5.8 v 0 a 5.82,5.82 0 0 0 -5.8,-5.81 z"
       style="fill:#407bff"
       id="path6" />
    <path
       d="M 360.41,202.92 H 233.67 a 5.82,5.82 0 0 0 -5.8,5.8 v 0 a 5.82,5.82 0 0 0 5.8,5.8 h 126.74 a 5.82,5.82 0 0 0 5.8,-5.8 v 0 a 5.82,5.82 0 0 0 -5.8,-5.8 z"
       style="fill:#407bff"
       id="path7" />
  </g>
  <g
     id="freepik--Character--inject-363"
     transform="matrix(1.0439188,0,0,1.0439188,-50.979693,-61.815565)">
    <polygon
       points="187.58,403.39 191.96,386.76 199.01,389.05 194.63,405.68 "
       style="fill:#ff8b7b"
       id="polygon7" />
    <path
       d="m 187.47,402.45 7.92,2.57 a 0.54,0.54 0 0 1 0.37,0.65 l -1.65,6.4 a 1.31,1.31 0 0 1 -1.64,0.85 c -2.74,-0.94 -4,-1.53 -7.49,-2.66 -2.15,-0.7 -9.21,-2.52 -12.17,-3.48 -2.96,-0.96 -1.93,-3.86 -0.59,-3.72 6,0.63 11.4,0.35 13.9,-0.57 a 2.09,2.09 0 0 1 1.35,-0.04 z"
       style="fill:#263238"
       id="path8" />
    <polygon
       points="191.96,386.76 189.7,395.34 196.76,397.63 199.01,389.06 "
       style="opacity:0.2"
       id="polygon8" />
    <path
       d="m 218.28,220.72 c 0,0 -12.65,58.55 -15.62,79.6 -3.25,23.05 -15.46,92.27 -15.46,92.27 l 13.09,3.62 c 0,0 18.14,-67.13 23.44,-89.54 5.75,-24.33 21,-86 21,-86 z"
       style="fill:#407bff"
       id="path9" />
    <path
       d="m 233.92,239.92 c -5,11.34 -7.47,36 -5.53,47.35 3.54,-14.55 7.8,-31.85 11.09,-45.16 -1.11,-3.86 -2.95,-8.11 -5.56,-2.19 z"
       style="opacity:0.3"
       id="path10" />
    <polygon
       points="186.6,392.61 186.88,386.9 202.66,392.35 200.62,396.47 "
       style="fill:#263238"
       id="polygon10" />
    <path
       d="m 184.57,402.87 a 9.63,9.63 0 0 0 2,0.36 0.18,0.18 0 0 0 0.16,-0.28 c -0.18,-0.23 -1.73,-2.24 -2.7,-2.18 a 0.65,0.65 0 0 0 -0.54,0.34 1,1 0 0 0 -0.08,1 2,2 0 0 0 1.16,0.76 z m 1.59,0 c -1.34,-0.16 -2.26,-0.5 -2.48,-0.93 a 0.62,0.62 0 0 1 0.07,-0.63 0.32,0.32 0 0 1 0.26,-0.17 c 0.52,-0.06 1.5,0.92 2.15,1.7 z"
       style="fill:#263238"
       id="path11" />
    <path
       d="m 186.5,403.22 h 0.08 a 0.18,0.18 0 0 0 0.13,-0.11 c 0,-0.08 0.85,-2.06 0.36,-3 a 0.85,0.85 0 0 0 -0.62,-0.45 0.66,0.66 0 0 0 -0.76,0.3 c -0.41,0.72 0.16,2.53 0.73,3.18 z m 0,-3.17 a 0.5,0.5 0 0 1 0.31,0.26 3.85,3.85 0 0 1 -0.27,2.39 3.52,3.52 0 0 1 -0.51,-2.53 c 0,-0.09 0.14,-0.19 0.39,-0.14 z"
       style="fill:#263238"
       id="path12" />
    <path
       d="m 231.74,165.13 c -0.38,0.9 -0.7,1.58 -1.05,2.34 -0.35,0.76 -0.73,1.46 -1.1,2.18 -0.74,1.45 -1.52,2.86 -2.33,4.27 a 82.48,82.48 0 0 1 -5.4,8.18 62,62 0 0 1 -6.65,7.59 38.5,38.5 0 0 1 -8.68,6.42 l -0.25,0.13 a 5.17,5.17 0 0 1 -1.28,0.46 14.21,14.21 0 0 1 -6.87,-0.27 20,20 0 0 1 -5.24,-2.44 34,34 0 0 1 -7.24,-6.56 60.17,60.17 0 0 1 -5.27,-7.31 65.7,65.7 0 0 1 -4.13,-7.85 3.24,3.24 0 0 1 5.47,-3.35 l 0.1,0.12 c 1.65,2 3.44,4.13 5.24,6.07 a 68.41,68.41 0 0 0 5.58,5.48 27.46,27.46 0 0 0 5.74,4 8.46,8.46 0 0 0 2.47,0.82 2.74,2.74 0 0 0 1.44,-0.12 l -1.53,0.59 a 29.94,29.94 0 0 0 5.61,-4.9 61.91,61.91 0 0 0 5,-6.42 c 1.58,-2.3 3.08,-4.71 4.49,-7.19 0.72,-1.23 1.41,-2.48 2.06,-3.75 l 1,-1.89 c 0.31,-0.61 0.65,-1.31 0.89,-1.8 l 0.06,-0.14 a 6.5,6.5 0 0 1 11.85,5.34 z"
       style="fill:#263238"
       id="path13" />
    <path
       d="m 215.39,178.71 c 3.14,-8.34 9.81,-8.48 12.7,-6.27 -0.21,0.39 -0.43,0.78 -0.65,1.17 a 84.91,84.91 0 0 1 -5.15,7.91 65.35,65.35 0 0 1 -6.29,7.38 c -0.72,0.71 -1.46,1.41 -2.23,2.09 a 32,32 0 0 1 1.62,-12.28 z"
       style="opacity:0.3"
       id="path14" />
    <path
       d="m 176,172.79 -6.5,0.24 1.62,-6.95 a 33.54,33.54 0 0 1 6.63,1 2.63,2.63 0 0 1 1.41,4 v 0 a 3.91,3.91 0 0 1 -3.16,1.71 z"
       style="fill:#ff8b7b"
       id="path15" />
    <path
       d="m 179.64,166.92 a 6.28,6.28 0 0 0 -2.15,-1.11 c -0.54,2.84 -4,7.63 -4,7.63 h 2.71 a 2.38,2.38 0 0 0 1.83,-0.85 l 1.9,-2.28 a 2.37,2.37 0 0 0 -0.29,-3.39 z"
       style="fill:#407bff"
       id="path16" />
    <polygon
       points="166.34,164.93 171.1,166.09 169.48,173.03 164.52,169.83 "
       style="fill:#ff8b7b"
       id="polygon16" />
    <polygon
       points="238.84,408.92 238.58,391.75 245.99,391.75 246.25,408.92 "
       style="fill:#ff8b7b"
       id="polygon17" />
    <path
       d="m 238.45,408.06 h 8.33 a 0.53,0.53 0 0 1 0.55,0.51 l 0.4,6.59 a 1.32,1.32 0 0 1 -1.3,1.32 c -2.9,-0.05 -4.28,-0.22 -8,-0.22 -2.25,0 -9.78,0.23 -12.89,0.23 -3.11,0 -3,-3.08 -1.71,-3.36 5.92,-1.24 11.2,-3 13.29,-4.61 a 2.07,2.07 0 0 1 1.33,-0.46 z"
       style="fill:#263238"
       id="path17" />
    <polygon
       points="238.58,391.76 238.72,400.61 246.13,400.61 246,391.76 "
       style="opacity:0.2"
       id="polygon18" />
    <path
       d="m 232.74,220.72 c 0,0 -2.83,64.41 -1.63,85.64 1.32,23.24 4.08,92.11 4.08,92.11 h 13.58 c 0,0 3.42,-67 4.24,-90 0.89,-25 4.92,-87.75 4.92,-87.75 z"
       style="fill:#407bff"
       id="path18" />
    <polygon
       points="234.65,398.47 233.53,393.01 249.72,393.82 249.32,398.47 "
       style="fill:#263238"
       id="polygon19" />
    <path
       d="m 235.82,409.35 a 9.69,9.69 0 0 0 2,-0.26 0.2,0.2 0 0 0 0.13,-0.14 0.19,0.19 0 0 0 -0.07,-0.17 c -0.24,-0.17 -2.34,-1.6 -3.25,-1.24 a 0.66,0.66 0 0 0 -0.4,0.48 1,1 0 0 0 0.22,0.94 2,2 0 0 0 1.37,0.39 z m 1.5,-0.51 c -1.33,0.26 -2.3,0.22 -2.65,-0.12 a 0.64,0.64 0 0 1 -0.12,-0.62 0.3,0.3 0 0 1 0.19,-0.24 c 0.49,-0.19 1.72,0.43 2.58,0.98 z"
       style="fill:#263238"
       id="path19" />
    <path
       d="m 237.76,409.09 a 0.13,0.13 0 0 0 0.08,0 0.18,0.18 0 0 0 0.09,-0.14 c 0,-0.09 0.17,-2.22 -0.58,-2.94 a 0.87,0.87 0 0 0 -0.73,-0.24 0.66,0.66 0 0 0 -0.62,0.52 c -0.18,0.81 0.93,2.36 1.67,2.8 a 0.15,0.15 0 0 0 0.09,0 z m -1,-3 a 0.5,0.5 0 0 1 0.37,0.15 3.83,3.83 0 0 1 0.49,2.36 c -0.64,-0.55 -1.38,-1.73 -1.27,-2.26 0,-0.1 0.08,-0.22 0.33,-0.25 z"
       style="fill:#263238"
       id="path20" />
    <path
       d="m 261.64,160.94 a 4.72,4.72 0 0 0 -4,-5.5 h -0.08 c -2.39,-0.35 -5.39,-0.71 -8.33,-0.85 a 147.89,147.89 0 0 0 -16.85,0 c -2.59,0.24 -5.12,0.67 -7.14,1.06 h -0.08 a 7.08,7.08 0 0 0 -5.39,4.94 c -2.42,8.15 -5.31,24.79 -1.53,60.12 h 39.65 c 0.28,-3.54 -0.51,-15.06 0.07,-29.73 a 234.86,234.86 0 0 1 3.68,-30.04 z"
       style="fill:#263238"
       id="path21" />
    <path
       d="m 261.26,163.12 c -0.82,4.74 -1.83,11.19 -2.53,18 0,0 -3.62,-7.1 -4.28,-13.17 -0.66,-6.07 4.55,-6.53 6.81,-4.83 z"
       style="opacity:0.3"
       id="path22" />
    <g
       style="opacity:0.2"
       id="g25">
      <path
         d="m 234.67,164.06 a 0.38,0.38 0 0 1 -0.17,-0.71 l 12.36,-6.41 a 0.38,0.38 0 0 1 0.5,0.16 0.38,0.38 0 0 1 -0.16,0.51 L 234.84,164 a 0.47,0.47 0 0 1 -0.17,0.06 z"
         style="fill:#ffffff"
         id="path23" />
      <path
         d="m 240.33,164.64 a 0.33,0.33 0 0 1 -0.26,-0.11 l -6.78,-6.73 a 0.39,0.39 0 0 1 0,-0.53 0.38,0.38 0 0 1 0.53,0 l 6.77,6.74 a 0.38,0.38 0 0 1 0,0.53 0.36,0.36 0 0 1 -0.26,0.1 z"
         style="fill:#ffffff"
         id="path24" />
      <path
         d="m 249.26,154.58 a 147.71,147.71 0 0 0 -16.84,0 h -0.28 a 4,4 0 0 0 0.43,3.07 c 0.94,1.5 2.91,2.34 5.87,2.5 h 1.11 c 8,0 11.09,-4.86 11.22,-5.07 l 0.28,-0.45 z"
         style="fill:#ffffff"
         id="path25" />
    </g>
    <path
       d="m 233.22,154.52 c 4.9,-1.16 5.76,-4.19 5.43,-7.52 a 19.92,19.92 0 0 0 -0.39,-2.48 l 6.14,-5.1 4.51,-3.74 c -1.25,5.43 -2.66,15.32 1,18.94 0,0 -3,5 -11.43,4.56 -7.07,-0.39 -5.26,-4.66 -5.26,-4.66 z"
       style="fill:#ff8b7b"
       id="path26" />
    <path
       d="m 238.26,144.52 a 19.92,19.92 0 0 1 0.39,2.48 c 2.29,-0.46 5.35,-2.9 5.67,-5.24 a 10.66,10.66 0 0 0 0.08,-2.34 z"
       style="opacity:0.2"
       id="path27" />
    <path
       d="m 235,118.5 c -3.33,2 -2.8,7 -3.7,10.58 2.12,0.21 5.46,-3.56 5.46,-3.56 l 2,-5.73 z"
       style="fill:#263238"
       id="path28" />
    <path
       d="m 252.71,128.56 c -2.13,7.06 -3,11.29 -7.52,14.24 a 9.59,9.59 0 0 1 -14.92,-8.11 c 0,-6.73 3.46,-17.15 11.18,-18.59 a 9.7,9.7 0 0 1 11.26,12.46 z"
       style="fill:#ff8b7b"
       id="path29" />
    <path
       d="m 246.06,134.55 c 5,-5.8 -1.25,-8.66 3.86,-12.69 -5.75,0.27 -15.22,-0.14 -16.91,-4.08 -1.69,-3.94 3.51,-9.28 7.84,-9.78 5,-0.58 3.92,5.61 3.92,5.61 0,0 19.13,-1.19 13.06,7 4.6,-0.28 3.33,7.16 -4.67,13.44 -2.01,0.67 -7.1,0.5 -7.1,0.5 z"
       style="fill:#263238"
       id="path30" />
    <path
       d="m 256.68,120.71 c 0,0 3.94,-1.17 3.81,-4.29 1.42,0.98 1.57,3.96 -3.81,4.29 z"
       style="fill:#263238"
       id="path31" />
    <path
       d="m 253.88,135.93 a 7.91,7.91 0 0 1 -4.55,2.77 c -2.27,0.41 -2.8,-1.69 -1.67,-3.74 1,-1.84 3.43,-4.27 5.47,-3.76 2.04,0.51 2.2,2.94 0.75,4.73 z"
       style="fill:#ff8b7b"
       id="path32" />
    <path
       d="m 241.32,128.38 c -0.14,0.58 -0.56,1 -0.95,0.91 -0.39,-0.09 -0.58,-0.61 -0.44,-1.19 0.14,-0.58 0.56,-1 0.94,-0.92 0.38,0.08 0.59,0.61 0.45,1.2 z"
       style="fill:#263238"
       id="path33" />
    <path
       d="m 234.69,127.05 c -0.14,0.58 -0.56,1 -0.94,0.92 -0.38,-0.08 -0.59,-0.61 -0.45,-1.19 0.14,-0.58 0.56,-1 0.94,-0.92 0.38,0.08 0.59,0.61 0.45,1.19 z"
       style="fill:#263238"
       id="path34" />
    <path
       d="m 236.73,127.76 a 22.22,22.22 0 0 1 -4,4.42 3.42,3.42 0 0 0 2.68,1.09 z"
       style="fill:#ff5652"
       id="path35" />
    <path
       d="m 237.45,135.31 a 5.13,5.13 0 0 0 3.85,-1.24 0.16,0.16 0 0 0 0,-0.24 0.18,0.18 0 0 0 -0.25,0 4.89,4.89 0 0 1 -4.22,1.05 0.17,0.17 0 0 0 -0.2,0.14 0.18,0.18 0 0 0 0.14,0.21 z"
       style="fill:#263238"
       id="path36" />
    <path
       d="m 243.88,126.76 a 0.27,0.27 0 0 0 0.17,0 0.34,0.34 0 0 0 0.17,-0.46 3.36,3.36 0 0 0 -2.47,-2 0.36,0.36 0 0 0 -0.4,0.3 0.35,0.35 0 0 0 0.31,0.39 2.69,2.69 0 0 1 1.92,1.58 0.36,0.36 0 0 0 0.3,0.19 z"
       style="fill:#263238"
       id="path37" />
    <path
       d="m 233.05,123.07 a 0.32,0.32 0 0 0 0.32,-0.06 2.89,2.89 0 0 1 2.52,-0.59 0.3525975,0.3525975 0 1 0 0.22,-0.67 v 0 a 3.64,3.64 0 0 0 -3.17,0.71 0.35,0.35 0 0 0 -0.06,0.49 0.3,0.3 0 0 0 0.17,0.12 z"
       style="fill:#263238"
       id="path38" />
    <path
       d="m 262,158.09 0.83,1.13 0.75,1.06 c 0.5,0.71 0.95,1.42 1.42,2.13 0.91,1.43 1.77,2.88 2.6,4.34 a 95.76,95.76 0 0 1 4.52,9 c 0.7,1.52 1.3,3.1 1.94,4.65 0.64,1.55 1.18,3.16 1.67,4.78 a 88.81,88.81 0 0 1 2.6,9.83 l 0.08,0.38 a 5.22,5.22 0 0 1 -0.71,3.94 28.6,28.6 0 0 1 -4.55,5.39 23.54,23.54 0 0 1 -6,4 21.55,21.55 0 0 1 -6.86,1.9 20.48,20.48 0 0 1 -3.5,0.06 c -0.58,0 -1.16,-0.11 -1.74,-0.2 l -0.88,-0.17 -1,-0.25 a 0.46,0.46 0 0 1 -0.34,-0.55 l 1.38,-5.8 c 0,-0.05 0.26,-0.06 0.42,-0.1 l 0.55,-0.11 c 0.38,-0.08 0.75,-0.17 1.13,-0.27 a 15.91,15.91 0 0 0 2.17,-0.76 15.5,15.5 0 0 0 3.79,-2.23 19.16,19.16 0 0 0 5.26,-6.85 l -0.63,4.32 c -0.86,-2.83 -1.77,-5.63 -2.87,-8.4 -1.1,-2.77 -2.3,-5.49 -3.61,-8.17 -1.31,-2.68 -2.71,-5.33 -4.22,-7.91 -0.74,-1.29 -1.52,-2.56 -2.3,-3.82 l -1.19,-1.86 -0.59,-0.9 -0.55,-0.8 -0.2,-0.3 A 6.4932369,6.4932369 0 0 1 262,158.09 Z"
       style="fill:#263238"
       id="path39" />
    <path
       d="m 248.78,209.48 -2.15,3.52 9.33,-0.37 c 0,0 2.45,-6.28 -0.89,-7.27 l -1.3,0.35 a 8.56,8.56 0 0 0 -4.99,3.77 z"
       style="fill:#ff8b7b"
       id="path40" />
    <path
       d="m 252.62,204.55 a 6.26,6.26 0 0 0 -1.7,1.71 c 2.54,1.38 6.08,6.08 6.08,6.08 l 0.82,-2.58 a 2.38,2.38 0 0 0 -0.27,-2 l -1.55,-2.5 a 2.38,2.38 0 0 0 -3.38,-0.71 z"
       style="fill:#407bff"
       id="path41" />
    <polygon
       points="255.14,217.74 255.96,212.63 246.63,213 247.45,218.42 "
       style="fill:#ff8b7b"
       id="polygon41" />
  </g>
  <g
     id="freepik--Clock--inject-363"
     transform="matrix(1.0439188,0,0,1.0439188,-50.979693,-61.815565)">
    <path
       d="m 153.06,96.34 -0.51,-0.86 a 35.39,35.39 0 0 1 4.57,-2.28 l 0.38,0.93 a 33.38,33.38 0 0 0 -4.44,2.21 z"
       style="fill:#407bff"
       id="path42" />
    <path
       d="m 138.46,114 -1,-0.34 A 34.81,34.81 0 0 1 149.77,97.3 l 0.59,0.81 A 33.7,33.7 0 0 0 138.46,114 Z"
       style="fill:#407bff"
       id="path43" />
    <circle
       cx="170.2"
       cy="125.39"
       r="30.780001"
       style="fill:#407bff"
       id="circle43" />
    <path
       d="m 195.91,125.39 a 25.71,25.71 0 1 1 -6.72,-17.34 0.06,0.06 0 0 1 0.05,0 25.66,25.66 0 0 1 6.67,17.34 z"
       style="opacity:0.6;fill:#ffffff"
       id="path44" />
    <path
       d="m 195.91,125.39 a 25.71,25.71 0 0 1 -43.15,18.89 25.71,25.71 0 0 1 36.43,-36.23 0.06,0.06 0 0 1 0.05,0 25.66,25.66 0 0 1 6.67,17.34 z"
       style="fill:#ffffff"
       id="path45" />
    <path
       d="m 170.2,126.89 a 1.49,1.49 0 0 1 -1.06,-0.44 L 156.6,113.91 a 1.5,1.5 0 1 1 2.12,-2.12 l 11.48,11.48 6.63,-6.63 a 1.5,1.5 0 0 1 2.12,2.12 l -7.69,7.69 a 1.51,1.51 0 0 1 -1.06,0.44 z"
       style="fill:#263238"
       id="path46" />
  </g>
</svg>
